<?xml version="1.0" encoding="UTF-8" standalone="no"?>
<!DOCTYPE svg PUBLIC "-//W3C//DTD SVG 1.1//EN" "http://www.w3.org/Graphics/SVG/1.1/DTD/svg11.dtd">
<svg width="100%" height="100%" viewBox="0 0 2280 400" version="1.1" xmlns="http://www.w3.org/2000/svg" xmlns:xlink="http://www.w3.org/1999/xlink" xml:space="preserve" xmlns:serif="http://www.serif.com/" style="fill-rule:evenodd;clip-rule:evenodd;stroke-linejoin:round;stroke-miterlimit:2;">
    <g transform="matrix(1,0,0,1,-1880,-6800)">
        <g id="ocean-islands-logo-singleline-simple" serif:id="ocean-islands/logo-singleline-simple" transform="matrix(0.791667,0,0,0.195312,-6646.25,6800)">
            <rect x="10770" y="0" width="2880" height="2048" style="fill:none;"/>
            <g transform="matrix(0.701754,0,0,2,2772.04,-536.358)">
                <g transform="matrix(2.17338,0,0,6.18207,13683.3,-1083.41)">
                    <g>
                        <path d="M-902.3,284.5C-870.3,284.5 -847.6,286.8 -831.3,290L-831.3,276.8C-845.1,274.6 -866.9,272.3 -901.6,272.3C-945.9,272.3 -967.1,276.8 -977.6,282C-987.3,286.9 -992.3,293.4 -992.3,301.7C-992.3,310 -987.3,316.6 -977.6,321.4C-966.9,326.8 -946.3,331.1 -903,331.1C-868.4,331.1 -847.1,328.7 -833.9,322.1C-826.7,318.5 -822.9,313.4 -822.9,304.6L-822.9,297.3L-919.4,297.3L-919.4,308.3L-851.7,308.3C-851.5,309.6 -851.5,312.5 -855.5,314.4C-862.5,317.9 -879.9,319.1 -903,319.1C-931.2,319.1 -945.9,316.5 -952.8,313.1C-957.8,310.5 -960.5,306.8 -960.5,301.7C-960.5,296.7 -957.7,292.8 -952.2,290C-946.2,287 -931.3,284.5 -902.3,284.5C-902.3,284.5 -931.3,284.5 -902.3,284.5Z" style="fill-rule:nonzero;"/>
                    </g>
                </g>
                <g transform="matrix(2.17338,0,0,6.18207,13683.3,-1083.41)">
                    <g>
                        <path d="M-363.5,274.4L-399.4,274.4L-456.9,317.4L-514.3,274.4L-551.8,274.4L-476.7,329.1L-438.6,329.1L-363.5,274.4Z" style="fill-rule:nonzero;"/>
                    </g>
                </g>
                <g transform="matrix(2.17338,0,0,6.18207,13683.3,-1083.41)">
                    <g>
                        <path d="M-561.2,236.5L-592.4,236.5L-795.8,366.4L-764.2,366.4L-561.2,236.5Z" style="fill:rgb(198,0,0);fill-rule:nonzero;"/>
                    </g>
                </g>
                <g transform="matrix(2.17338,0,0,6.18207,13683.3,-1083.41)">
                    <g>
                        <path d="M-607.3,282.2C-617.5,277 -637.2,272.3 -680.5,272.3C-722.2,272.3 -743.4,276.9 -753.8,282.2C-763.3,287 -768.4,292.9 -768.4,301.8C-768.4,310.7 -763.3,316.5 -753.8,321.3C-743.6,326.5 -723,331.2 -680.5,331.2C-638,331.2 -617.6,326.5 -607.3,321.3C-597.8,316.5 -592.7,310.6 -592.7,301.7C-592.7,292.8 -597.8,286.9 -607.3,282.2ZM-680.5,318.6C-708.2,318.6 -722.5,315.7 -728.7,312.6C-733.5,310.2 -736.9,307.1 -736.9,301.2C-736.9,295.3 -734,292.1 -728.9,289.6C-722.6,286.4 -708.3,283.9 -680.6,283.9C-652.9,283.9 -639,286.5 -632.6,289.8C-627.5,292.4 -624.4,295.4 -624.4,301.3C-624.4,307.2 -627.3,310.4 -632.4,312.9C-638.8,316.1 -652.8,318.6 -680.5,318.6Z" style="fill-rule:nonzero;"/>
                    </g>
                </g>
            </g>
            <g transform="matrix(19.5489,0,0,79.2382,-1953.87,-38784)">
                <text x="706.739px" y="505.767px" style="font-family:'HalvarBreit-Bd', 'Halvar Breitschrift';font-weight:700;font-stretch:expanded;font-size:11.889px;">summit</text>
            </g>
            <g transform="matrix(17.845,0,0,72.3319,342.951,-35290.4)">
                <text x="706.739px" y="505.767px" style="font-family:'HalvarBreit-Bd', 'Halvar Breitschrift';font-weight:700;font-stretch:expanded;font-size:11.326px;fill:white;">2020</text>
            </g>
        </g>
    </g>
</svg>
