<?xml version="1.0" encoding="UTF-8" standalone="no"?>
<!DOCTYPE svg PUBLIC "-//W3C//DTD SVG 1.1//EN" "http://www.w3.org/Graphics/SVG/1.1/DTD/svg11.dtd">
<svg width="100%" height="100%" viewBox="0 0 2280 400" version="1.1" xmlns="http://www.w3.org/2000/svg" xmlns:xlink="http://www.w3.org/1999/xlink" xml:space="preserve" xmlns:serif="http://www.serif.com/" style="fill-rule:evenodd;clip-rule:evenodd;stroke-linejoin:round;stroke-miterlimit:2;">
    <g transform="matrix(1,0,0,1,-1880,-6800)">
        <g id="ocean-islands-logo-singleline-simple" serif:id="ocean-islands/logo-singleline-simple" transform="matrix(0.791667,0,0,0.195312,-6646.25,6800)">
            <rect x="10770" y="0" width="2880" height="2048" style="fill:none;"/>
            <g transform="matrix(0.701754,0,0,2,2772.04,-536.358)">
                <g transform="matrix(2.17338,0,0,6.18207,13683.3,-1083.41)">
                    <g>
                        <path d="M-902.3,284.5C-870.3,284.5 -847.6,286.8 -831.3,290L-831.3,276.8C-845.1,274.6 -866.9,272.3 -901.6,272.3C-945.9,272.3 -967.1,276.8 -977.6,282C-987.3,286.9 -992.3,293.4 -992.3,301.7C-992.3,310 -987.3,316.6 -977.6,321.4C-966.9,326.8 -946.3,331.1 -903,331.1C-868.4,331.1 -847.1,328.7 -833.9,322.1C-826.7,318.5 -822.9,313.4 -822.9,304.6L-822.9,297.3L-919.4,297.3L-919.4,308.3L-851.7,308.3C-851.5,309.6 -851.5,312.5 -855.5,314.4C-862.5,317.9 -879.9,319.1 -903,319.1C-931.2,319.1 -945.9,316.5 -952.8,313.1C-957.8,310.5 -960.5,306.8 -960.5,301.7C-960.5,296.7 -957.7,292.8 -952.2,290C-946.2,287 -931.3,284.5 -902.3,284.5C-902.3,284.5 -931.3,284.5 -902.3,284.5Z" style="fill-rule:nonzero;"/>
                    </g>
                </g>
                <g transform="matrix(2.17338,0,0,6.18207,13683.3,-1083.41)">
                    <g>
                        <path d="M-363.5,274.4L-399.4,274.4L-456.9,317.4L-514.3,274.4L-551.8,274.4L-476.7,329.1L-438.6,329.1L-363.5,274.4Z" style="fill-rule:nonzero;"/>
                    </g>
                </g>
                <g transform="matrix(2.17338,0,0,6.18207,13683.3,-1083.41)">
                    <g>
                        <path d="M-561.2,236.5L-592.4,236.5L-795.8,366.4L-764.2,366.4L-561.2,236.5Z" style="fill:rgb(198,0,0);fill-rule:nonzero;"/>
                    </g>
                </g>
                <g transform="matrix(2.17338,0,0,6.18207,13683.3,-1083.41)">
                    <g>
                        <path d="M-607.3,282.2C-617.5,277 -637.2,272.3 -680.5,272.3C-722.2,272.3 -743.4,276.9 -753.8,282.2C-763.3,287 -768.4,292.9 -768.4,301.8C-768.4,310.7 -763.3,316.5 -753.8,321.3C-743.6,326.5 -723,331.2 -680.5,331.2C-638,331.2 -617.6,326.5 -607.3,321.3C-597.8,316.5 -592.7,310.6 -592.7,301.7C-592.7,292.8 -597.8,286.9 -607.3,282.2ZM-680.5,318.6C-708.2,318.6 -722.5,315.7 -728.7,312.6C-733.5,310.2 -736.9,307.1 -736.9,301.2C-736.9,295.3 -734,292.1 -728.9,289.6C-722.6,286.4 -708.3,283.9 -680.6,283.9C-652.9,283.9 -639,286.5 -632.6,289.8C-627.5,292.4 -624.4,295.4 -624.4,301.3C-624.4,307.2 -627.3,310.4 -632.4,312.9C-638.8,316.1 -652.8,318.6 -680.5,318.6Z" style="fill-rule:nonzero;"/>
                    </g>
                </g>
            </g>
            <g transform="matrix(19.5489,0,0,79.2382,-1953.87,-38784)">
                <g transform="matrix(11.8892,0,0,11.8892,706.739,505.767)">
                    <path d="M0.349,0.012C0.529,0.012 0.636,-0.047 0.636,-0.148L0.636,-0.158C0.636,-0.246 0.568,-0.29 0.411,-0.306L0.28,-0.319C0.229,-0.324 0.209,-0.334 0.209,-0.354L0.209,-0.36C0.209,-0.382 0.256,-0.395 0.344,-0.395C0.451,-0.395 0.495,-0.379 0.495,-0.342L0.495,-0.336L0.634,-0.336L0.634,-0.342C0.634,-0.452 0.532,-0.513 0.348,-0.513C0.17,-0.513 0.066,-0.454 0.066,-0.354L0.066,-0.344C0.066,-0.258 0.132,-0.214 0.279,-0.199L0.408,-0.186C0.471,-0.18 0.491,-0.171 0.491,-0.151L0.491,-0.146C0.491,-0.119 0.444,-0.106 0.351,-0.106C0.238,-0.106 0.19,-0.122 0.19,-0.159L0.19,-0.164L0.051,-0.164L0.051,-0.159C0.051,-0.05 0.161,0.012 0.349,0.012Z" style="fill-rule:nonzero;"/>
                </g>
                <g transform="matrix(11.8892,0,0,11.8892,714.919,505.767)">
                    <path d="M0.493,-0.501L0.493,-0.2C0.467,-0.151 0.413,-0.12 0.35,-0.12C0.259,-0.12 0.211,-0.167 0.211,-0.254L0.211,-0.501L0.066,-0.501L0.066,-0.254C0.066,-0.077 0.158,0.013 0.33,0.012C0.397,0.011 0.455,-0.009 0.499,-0.048L0.503,0L0.638,0L0.638,-0.501L0.493,-0.501Z" style="fill-rule:nonzero;"/>
                </g>
                <g transform="matrix(11.8892,0,0,11.8892,723.372,505.767)">
                    <path d="M0.787,-0.513C0.702,-0.513 0.633,-0.482 0.583,-0.425C0.542,-0.483 0.473,-0.513 0.379,-0.513C0.312,-0.513 0.254,-0.492 0.209,-0.453L0.205,-0.501L0.07,-0.501L0.07,0L0.215,0L0.215,-0.299C0.242,-0.349 0.295,-0.381 0.359,-0.381C0.44,-0.381 0.485,-0.333 0.485,-0.248L0.485,0L0.63,0L0.63,-0.248C0.63,-0.265 0.629,-0.281 0.628,-0.296C0.654,-0.348 0.709,-0.381 0.774,-0.381C0.855,-0.381 0.901,-0.333 0.901,-0.248L0.901,0L1.046,0L1.046,-0.248C1.046,-0.421 0.956,-0.513 0.787,-0.513Z" style="fill-rule:nonzero;"/>
                </g>
                <g transform="matrix(11.8892,0,0,11.8892,736.546,505.767)">
                    <path d="M0.787,-0.513C0.702,-0.513 0.633,-0.482 0.583,-0.425C0.542,-0.483 0.473,-0.513 0.379,-0.513C0.312,-0.513 0.254,-0.492 0.209,-0.453L0.205,-0.501L0.07,-0.501L0.07,0L0.215,0L0.215,-0.299C0.242,-0.349 0.295,-0.381 0.359,-0.381C0.44,-0.381 0.485,-0.333 0.485,-0.248L0.485,0L0.63,0L0.63,-0.248C0.63,-0.265 0.629,-0.281 0.628,-0.296C0.654,-0.348 0.709,-0.381 0.774,-0.381C0.855,-0.381 0.901,-0.333 0.901,-0.248L0.901,0L1.046,0L1.046,-0.248C1.046,-0.421 0.956,-0.513 0.787,-0.513Z" style="fill-rule:nonzero;"/>
                </g>
                <g transform="matrix(11.8892,0,0,11.8892,749.719,505.767)">
                    <path d="M0.143,-0.559C0.196,-0.559 0.233,-0.594 0.233,-0.644C0.233,-0.695 0.197,-0.729 0.143,-0.729C0.089,-0.729 0.053,-0.694 0.053,-0.644C0.053,-0.594 0.09,-0.559 0.143,-0.559ZM0.071,0L0.215,0L0.215,-0.501L0.071,-0.501L0.071,0Z" style="fill-rule:nonzero;"/>
                </g>
                <g transform="matrix(11.8892,0,0,11.8892,753.119,505.767)">
                    <path d="M0.512,-0.373L0.512,-0.501L0.304,-0.501L0.304,-0.634L0.163,-0.634L0.163,-0.538C0.163,-0.51 0.154,-0.501 0.126,-0.501L-0.008,-0.501L-0.008,-0.373L0.159,-0.373L0.159,-0.173C0.159,-0.066 0.23,0 0.345,0L0.482,0L0.482,-0.127L0.364,-0.127C0.325,-0.127 0.304,-0.147 0.304,-0.183L0.304,-0.373L0.512,-0.373Z" style="fill-rule:nonzero;"/>
                </g>
            </g>
            <g transform="matrix(17.845,0,0,72.3319,342.951,-35290.4)">
                <g transform="matrix(11.3256,0,0,11.3256,706.739,505.767)">
                    <path d="M0.345,-0.127L0.463,-0.193C0.631,-0.288 0.683,-0.348 0.683,-0.445L0.683,-0.455C0.683,-0.588 0.569,-0.668 0.376,-0.668C0.178,-0.668 0.072,-0.586 0.072,-0.433L0.072,-0.412L0.22,-0.412L0.22,-0.432C0.22,-0.5 0.275,-0.536 0.379,-0.536C0.478,-0.536 0.532,-0.505 0.532,-0.448L0.532,-0.439C0.532,-0.389 0.51,-0.365 0.385,-0.295L0.07,-0.118L0.07,0L0.699,0L0.699,-0.127L0.345,-0.127Z" style="fill:white;fill-rule:nonzero;"/>
                </g>
                <g transform="matrix(11.3256,0,0,11.3256,715.29,505.767)">
                    <path d="M0.41,0.012C0.624,0.012 0.765,-0.108 0.765,-0.29L0.765,-0.365C0.765,-0.546 0.623,-0.668 0.41,-0.668C0.196,-0.668 0.052,-0.546 0.052,-0.365L0.052,-0.29C0.052,-0.11 0.196,0.012 0.41,0.012ZM0.41,-0.127C0.275,-0.127 0.201,-0.184 0.201,-0.287L0.201,-0.367C0.201,-0.47 0.277,-0.529 0.409,-0.529C0.541,-0.529 0.616,-0.469 0.616,-0.367L0.616,-0.287C0.616,-0.183 0.544,-0.127 0.41,-0.127Z" style="fill:white;fill-rule:nonzero;"/>
                </g>
                <g transform="matrix(11.3256,0,0,11.3256,724.543,505.767)">
                    <path d="M0.345,-0.127L0.463,-0.193C0.631,-0.288 0.683,-0.348 0.683,-0.445L0.683,-0.455C0.683,-0.588 0.569,-0.668 0.376,-0.668C0.178,-0.668 0.072,-0.586 0.072,-0.433L0.072,-0.412L0.22,-0.412L0.22,-0.432C0.22,-0.5 0.275,-0.536 0.379,-0.536C0.478,-0.536 0.532,-0.505 0.532,-0.448L0.532,-0.439C0.532,-0.389 0.51,-0.365 0.385,-0.295L0.07,-0.118L0.07,0L0.699,0L0.699,-0.127L0.345,-0.127Z" style="fill:white;fill-rule:nonzero;"/>
                </g>
                <g transform="matrix(11.3256,0,0,11.3256,733.094,505.767)">
                    <path d="M0.41,0.012C0.624,0.012 0.765,-0.108 0.765,-0.29L0.765,-0.365C0.765,-0.546 0.623,-0.668 0.41,-0.668C0.196,-0.668 0.052,-0.546 0.052,-0.365L0.052,-0.29C0.052,-0.11 0.196,0.012 0.41,0.012ZM0.41,-0.127C0.275,-0.127 0.201,-0.184 0.201,-0.287L0.201,-0.367C0.201,-0.47 0.277,-0.529 0.409,-0.529C0.541,-0.529 0.616,-0.469 0.616,-0.367L0.616,-0.287C0.616,-0.183 0.544,-0.127 0.41,-0.127Z" style="fill:white;fill-rule:nonzero;"/>
                </g>
            </g>
        </g>
    </g>
</svg>
