<?xml version="1.0" encoding="UTF-8" standalone="no"?>
<!DOCTYPE svg PUBLIC "-//W3C//DTD SVG 1.1//EN" "http://www.w3.org/Graphics/SVG/1.1/DTD/svg11.dtd">
<svg width="100%" height="100%" viewBox="0 0 2600 400" version="1.1" xmlns="http://www.w3.org/2000/svg" xmlns:xlink="http://www.w3.org/1999/xlink" xml:space="preserve" xmlns:serif="http://www.serif.com/" style="fill-rule:evenodd;clip-rule:evenodd;stroke-linejoin:round;stroke-miterlimit:2;">
    <g transform="matrix(1,0,0,1,-1880,-6000)">
        <g id="ocean-islands-logo-singleline" serif:id="ocean-islands/logo-singleline" transform="matrix(0.902778,0,0,0.195312,-7842.92,6000)">
            <rect x="10770" y="0" width="2880" height="2048" style="fill:none;"/>
            <g transform="matrix(0.615385,0,0,2,3756.41,-536.358)">
                <g transform="matrix(2.17338,0,0,6.18207,13683.3,-1083.41)">
                    <g>
                        <path d="M-902.3,284.5C-870.3,284.5 -847.6,286.8 -831.3,290L-831.3,276.8C-845.1,274.6 -866.9,272.3 -901.6,272.3C-945.9,272.3 -967.1,276.8 -977.6,282C-987.3,286.9 -992.3,293.4 -992.3,301.7C-992.3,310 -987.3,316.6 -977.6,321.4C-966.9,326.8 -946.3,331.1 -903,331.1C-868.4,331.1 -847.1,328.7 -833.9,322.1C-826.7,318.5 -822.9,313.4 -822.9,304.6L-822.9,297.3L-919.4,297.3L-919.4,308.3L-851.7,308.3C-851.5,309.6 -851.5,312.5 -855.5,314.4C-862.5,317.9 -879.9,319.1 -903,319.1C-931.2,319.1 -945.9,316.5 -952.8,313.1C-957.8,310.5 -960.5,306.8 -960.5,301.7C-960.5,296.7 -957.7,292.8 -952.2,290C-946.2,287 -931.3,284.5 -902.3,284.5C-902.3,284.5 -931.3,284.5 -902.3,284.5Z" style="fill-rule:nonzero;"/>
                    </g>
                </g>
                <g transform="matrix(2.17338,0,0,6.18207,13683.3,-1083.41)">
                    <g>
                        <path d="M-363.5,274.4L-399.4,274.4L-456.9,317.4L-514.3,274.4L-551.8,274.4L-476.7,329.1L-438.6,329.1L-363.5,274.4Z" style="fill-rule:nonzero;"/>
                    </g>
                </g>
                <g transform="matrix(2.17338,0,0,6.18207,13683.3,-1083.41)">
                    <g>
                        <path d="M-561.2,236.5L-592.4,236.5L-795.8,366.4L-764.2,366.4L-561.2,236.5Z" style="fill:rgb(198,0,0);fill-rule:nonzero;"/>
                    </g>
                </g>
                <g transform="matrix(2.17338,0,0,6.18207,13683.3,-1083.41)">
                    <g>
                        <path d="M-607.3,282.2C-617.5,277 -637.2,272.3 -680.5,272.3C-722.2,272.3 -743.4,276.9 -753.8,282.2C-763.3,287 -768.4,292.9 -768.4,301.8C-768.4,310.7 -763.3,316.5 -753.8,321.3C-743.6,326.5 -723,331.2 -680.5,331.2C-638,331.2 -617.6,326.5 -607.3,321.3C-597.8,316.5 -592.7,310.6 -592.7,301.7C-592.7,292.8 -597.8,286.9 -607.3,282.2ZM-680.5,318.6C-708.2,318.6 -722.5,315.7 -728.7,312.6C-733.5,310.2 -736.9,307.1 -736.9,301.2C-736.9,295.3 -734,292.1 -728.9,289.6C-722.6,286.4 -708.3,283.9 -680.6,283.9C-652.9,283.9 -639,286.5 -632.6,289.8C-627.5,292.4 -624.4,295.4 -624.4,301.3C-624.4,307.2 -627.3,310.4 -632.4,312.9C-638.8,316.1 -652.8,318.6 -680.5,318.6Z" style="fill-rule:nonzero;"/>
                    </g>
                </g>
            </g>
            <g transform="matrix(0.93804,0,0,1.94282,724.009,-519.581)">
                <g transform="matrix(2.29413,0,0,5.11987,11500.2,-1681.06)">
                    <path d="M499.1,527.9C495.3,529.1 492,531.5 489.2,534.1C488,535.2 486.6,536.8 487.2,538.5C487.7,540.1 489.8,540.7 491.5,541.1C493.8,541.7 496.2,542.2 498.5,542.8C500.8,543.3 503.2,543.9 505.4,543.3C508.3,542.5 510.3,539.9 511,537.2C511.7,534.5 513.3,531.7 510.9,528.9C509.2,527.3 505.9,527.2 503.6,527.2C502.1,527.2 500.6,527.5 499.1,527.9Z" style="fill:rgb(100,221,218);fill-rule:nonzero;"/>
                </g>
                <g transform="matrix(2.29413,0,0,5.11987,11500.2,-1681.06)">
                    <path d="M503.4,530.1C503.3,530.1 503.2,530.1 503.1,530.2C503,530.2 502.9,530.3 502.9,530.3C499.2,532 489.5,538.2 493.7,543.5C494.9,545 496.9,545.2 498.6,545.7C500.5,546.3 502.5,546.9 504.4,547.3C511,548.7 513.7,543.3 515,537.1C517,528.5 508.9,528.4 503.4,530.1ZM512,539.7C510.5,544.8 507.5,545.6 503.2,544.4C501.3,543.9 499.3,543.3 497.4,542.7C491.1,540.9 501.4,533.4 503.7,532.5C505.7,531.9 508.4,531.4 510.4,531.8C514.2,532.4 512.9,536.9 512,539.7Z" style="fill:rgb(85,85,85);fill-rule:nonzero;"/>
                </g>
                <g transform="matrix(2.29413,0,0,5.11987,11500.2,-1681.06)">
                    <path d="M499.1,527.9C495.3,529.1 492,531.5 489.2,534.1C488,535.2 486.6,536.8 487.2,538.5C487.7,540.1 489.8,540.7 491.5,541.1C493.8,541.7 496.2,542.2 498.5,542.8C500.8,543.3 503.2,543.9 505.4,543.3C508.3,542.5 510.3,539.9 511,537.2C511.7,534.5 513.3,531.7 510.9,528.9C509.2,527.3 505.9,527.2 503.6,527.2C502.1,527.2 500.6,527.5 499.1,527.9Z" style="fill:rgb(100,221,218);fill-rule:nonzero;"/>
                </g>
                <g transform="matrix(2.29413,0,0,5.11987,11500.2,-1681.06)">
                    <path d="M503.4,530.1C503.3,530.1 503.2,530.1 503.1,530.2C503,530.2 502.9,530.3 502.9,530.3C499.2,532 489.5,538.2 493.7,543.5C494.9,545 496.9,545.2 498.6,545.7C500.5,546.3 502.5,546.9 504.4,547.3C511,548.7 513.7,543.3 515,537.1C517,528.5 508.9,528.4 503.4,530.1ZM512,539.7C510.5,544.8 507.5,545.6 503.2,544.4C501.3,543.9 499.3,543.3 497.4,542.7C491.1,540.9 501.4,533.4 503.7,532.5C505.7,531.9 508.4,531.4 510.4,531.8C514.2,532.4 512.9,536.9 512,539.7Z" style="fill:rgb(85,85,85);fill-rule:nonzero;"/>
                </g>
                <g transform="matrix(2.29413,0,0,5.11987,11508.5,-1733.76)">
                    <path d="M668.1,531.5C673.8,530.6 679.7,530.7 685.4,531.9C686.1,532.1 686.9,532.2 687.4,532.8C688.6,534.1 687.5,536.4 686.3,537.6C685,538.8 683.4,539.9 683.1,541.7C682.6,545.1 687,546.8 687.9,550.1C688.9,553.6 685.2,556.8 681.9,557.4C678.5,558 674.9,557.3 671.8,558.9C668.6,560.6 666.9,564.2 664.3,566.9C661.8,569.5 658.7,571.1 655.6,572.6C650,575.4 644.3,578.2 638.7,581.1C634.5,583.2 630.2,585.4 625.5,586.3C620.3,587.3 614.9,586.6 609.6,585.9C601.2,584.8 592.3,583.4 585.9,577.3C583.4,574.9 581.4,571.9 578.3,570.7C574.7,569.3 570.8,570.8 567.1,570.9C558.8,571.2 551.5,565.1 543.4,562.9C539.1,561.7 534.7,561.6 530.3,560.8C525.9,560 521.5,558.1 518.8,554.4C516.1,550.6 515.8,544.5 519.2,541.5C522.2,538.8 526.7,539.2 530.1,537.1C531.8,536 533.2,534.3 534.8,533.1C538.5,530.3 543.9,530.4 547.6,533.3" style="fill:rgb(77,234,255);fill-rule:nonzero;"/>
                </g>
                <g transform="matrix(2.29413,0,0,5.11987,11508.5,-1733.76)">
                    <path d="M551.5,538.3C550.9,528.2 553.6,517.9 559.1,509.6C560.2,507.9 561.5,506.2 563.4,505.8C566.9,504.9 569.9,508.8 571,512.5C572.1,516.2 572.4,520.4 575.1,523.1C575.8,523.9 576.9,524.4 577.9,524C578.5,523.8 578.9,523.2 579.2,522.7C589.8,507.2 594.9,486.3 610.2,476.2C611.4,475.4 612.7,474.7 614.1,474.9C617,475.3 617.9,479.2 618.4,482.3C620.1,494 624,505.4 629.8,515.5C631.7,509.9 634.8,504.8 638.9,500.8C639.6,500.1 640.5,499.4 641.4,499.5C642.6,499.6 643.3,500.9 643.8,502.1C646.1,507.3 647.9,512.9 649,518.5C648.1,515.7 650.7,512.6 653.5,512.6C656.3,512.6 658.7,515 659.7,517.7C660.7,520.4 660.6,523.5 660.4,526.4C660.3,527.9 660.2,529.6 661.3,530.5C662,531.1 663,531.1 663.8,531.5C666.1,532.5 666.7,535.9 665.7,538.3C664.7,540.7 662.6,542.4 660.6,543.9C650.8,551.3 639.1,559.2 627.6,555.4C626,554.9 624.4,554.2 622.9,554.6C621.6,554.9 620.6,555.9 619.6,556.9C616.7,559.8 613.9,562.9 610.4,564.8C603,568.9 593.2,566.9 587.7,560.3C585,557 583.4,552.8 580.9,549.2C578.5,545.6 574.6,542.5 570.5,543.1C568.1,543.4 565.9,544.9 563.6,544.6C559.1,543.9 557.4,537.3 553,536.1" style="fill:rgb(247,121,238);fill-rule:nonzero;"/>
                </g>
                <g transform="matrix(2.29413,0,0,5.11987,11508.5,-1733.76)">
                    <path d="M552.7,537.9C550.8,536 554.2,526.6 554.8,524.3C555.5,522 556.2,519.8 557.2,517.6C558.5,514.6 560.6,508.9 563.2,506.8C570.3,501.2 572,515.9 573.5,519.2C574.4,521.1 575.6,523.1 577.7,524C582.8,526.2 585.7,518.8 587.6,515.4C595.3,501.6 600.6,485 613.3,474.7C615.6,472.8 619.6,472 620.6,475.6C621.2,477.5 621.4,479.5 621.8,481.5C622.6,485.5 623.6,489.4 624.8,493.3C627.1,500.6 630.1,507.7 633.7,514.5C634.5,516 636.6,515.5 637.1,514.1C638.1,511.4 644.4,497.6 647.7,499C649.6,499.8 650.9,505.9 651.5,507.8C652.5,510.9 653.3,514 654,517.2C654.4,518.9 657.4,519 657.6,517.2C657.7,514 659.8,513.1 663.8,514.4C665.1,515.7 665.8,517.3 665.9,519.1C666.1,520.8 665.9,522.5 666,524.2C666.1,526.8 666.5,529.2 668.2,531.3C669,532.2 670.4,532.8 671,533.7C673.5,537.3 670,540.1 667.6,542.1C664.3,544.9 660.8,547.6 657.2,549.9C653.7,552.1 649.9,554.1 645.8,555C641.3,556 637.3,554.9 632.8,554.7C625.2,554.4 622,559 616.3,563.1C610,567.7 601.2,567.5 594.9,562.9C588.8,558.4 587.3,550.2 581.6,545.3C579.8,543.8 577.8,542.7 575.4,542.3C571.7,541.7 567.8,543.7 564.2,542.7C561.2,541.9 559.8,538.6 557,537.5C555.2,536.8 552.8,537 551,537.5C548.7,538.1 549.7,541.7 552,541.1C555.6,540.1 557.4,542.7 560,544.6C562,546.1 564.2,546.6 566.6,546.6C571,546.5 575.1,544.7 579,547.9C582.3,550.6 584,554.8 586.2,558.3C592.2,568.1 604,573.3 615,568.3C617.5,567.2 619.5,565.5 621.6,563.7C625.7,560.1 629,558.1 634.7,558.7C642.1,559.4 648.1,559.1 654.9,555.7C661.2,552.5 668.4,547.6 673.1,542.3C676.8,538.1 676.3,533.9 672.7,530.2C668.7,526.1 670.7,522.5 669.7,517.5C669.2,514.9 667.8,512.4 665.5,510.9C660.8,507.8 655,510.9 654.2,516.3L657.8,516.3C656.7,511 655.2,505.9 653.1,501C652.2,498.8 650.9,494.6 647.7,494.7C644.7,494.8 642.1,498.8 640.5,500.8C637.5,504.5 635.4,508.7 633.7,513.2C634.8,513.1 636,512.9 637.1,512.8C633.2,505.5 630.1,498 627.8,490C626.8,486.4 625.9,482.7 625.2,479C624.7,476.3 624.3,473.1 622.6,470.8C615.4,461.4 601.8,481.8 598.6,486.9C594.5,493.5 591.3,500.6 587.8,507.5C586.1,510.9 584.3,514.2 582.4,517.5C581.3,519.3 581.6,519.8 579.4,519.4C577.4,519.1 577.4,518.6 576.8,516.7C576,514.5 575.7,512.1 574.9,509.8C573.4,505.6 569.7,500.9 564.6,502C559.2,503.2 556.2,511.5 554.2,515.9C552.2,520.3 550.9,524.9 549.9,529.7C549.3,532.8 547.7,538.2 550.3,540.8C551.8,542.3 554.4,539.6 552.7,537.9Z" style="fill:rgb(85,85,85);fill-rule:nonzero;"/>
                </g>
                <g transform="matrix(2.29413,0,0,5.11987,11508.5,-1733.76)">
                    <path d="M670.6,526.4C673.7,526 676.8,525.7 679.9,525.9C681.1,526 682.4,526.1 683.6,526.2C686.2,526.5 687.1,525.9 687.5,528.7C687.9,531.8 684.5,532.4 684.1,535.5C683.8,537.7 685.2,538.8 686.3,540.5C688.2,543.4 689.8,547.1 685.9,549.3C683.2,550.8 679.9,550.1 677,550.6C669.8,551.9 667.5,559.3 661.8,562.9C654.2,567.8 645.3,571.6 637.1,575.4C627.3,580 618.1,579.5 607.6,577.8C598.7,576.4 592.2,573.4 585.8,566.9C583.9,565 581.8,563.3 579,562.8C574.8,562 570.5,563.8 566.2,563.2C558,562.1 551.1,556.4 543,554.8C537.8,553.8 532.2,553.9 527.3,551.6C521.8,549 517.1,541.7 522,536.3C525,533 530.5,533.4 534.1,530.6C535.7,529.4 537,527.7 538.8,526.7C542.3,524.8 546.2,525.5 549.3,527.6C550.5,528.4 551.6,526.5 550.4,525.7C547.4,523.7 544,522.8 540.4,523.7C538.9,524.1 537.5,524.8 536.2,525.7C533.1,528 531,530.2 527.1,531.3C520,533.2 515.6,538.6 518.7,546.1C522.7,556 534.7,555.2 543.3,557.1C552.9,559.2 560.8,566.4 571.1,565.4C575.6,565 579.3,564 583.1,567.4C584.8,568.9 586.1,570.7 587.8,572.2C591.2,575.2 595.2,577.1 599.5,578.3C608.6,580.9 620.3,582.9 629.6,580.5C634.9,579.2 639.8,576.4 644.7,573.9C650.1,571.2 655.6,568.7 660.9,565.8C664.7,563.7 667.3,561.2 670,557.8C672.9,554.1 675.7,552.9 680.5,552.4C682.3,552.2 684.1,552.3 685.8,551.6C689.1,550.3 692,547.1 691.1,543.4C690.8,542.1 689.9,541 689,540C687.1,537.7 685.5,537.5 688.2,532.9C688.7,532.1 689.7,531.6 690.3,530.7C696.1,521.2 673.8,523.5 670,524C668.6,524.4 669.2,526.6 670.6,526.4Z" style="fill:rgb(14,175,201);fill-rule:nonzero;"/>
                </g>
                <g transform="matrix(2.29413,0,0,5.11987,11508.5,-1733.76)">
                    <path d="M614.4,554.3C609.1,544.8 605.9,530.6 609.7,519.7C611.3,515.2 613.4,519.4 614.2,522C615,524.5 615.4,527.1 615.9,529.6C617.4,537 619.8,544.2 621.7,551.5C622,552.4 623.4,552 623.1,551.1C620.5,541.7 618.4,532.1 615.9,522.7C615.3,520.4 613.3,513.5 609.7,516.4C606.5,519 606.9,527.1 606.9,530.7C606.7,539.3 608.9,547.6 613.1,555C613.6,555.9 614.9,555.2 614.4,554.3Z" style="fill:rgb(252,252,252);fill-rule:nonzero;"/>
                </g>
                <g transform="matrix(2.29413,0,0,5.11987,11508.5,-1733.76)">
                    <path d="M608.5,552.2C603.5,538.6 596.9,519 605.9,505.8C607,504.2 608.2,502.6 609.6,501.3C612.8,498.4 616.6,500 618.6,503.5C621.1,507.9 622.1,513 623.3,517.8C625.9,528.4 628.9,538.9 631.7,549.4C632,550.3 633.4,549.9 633.1,549C631.2,541.9 629.2,534.8 627.3,527.6C625.6,521.1 624.3,514.3 622.1,508C619.8,501.4 615.3,493.9 608.4,500.2C593.9,513.4 601.2,536.8 606.9,552.6C607.4,553.5 608.9,553.1 608.5,552.2Z" style="fill:rgb(252,252,252);fill-rule:nonzero;"/>
                </g>
                <g transform="matrix(2.29413,0,0,5.11987,11508.5,-1733.76)">
                    <path d="M604,563C595.5,549.4 595.1,531.7 597.4,516.2C598.5,508.6 600.3,500.8 603.9,493.9C607.3,487.3 613.8,482.8 616.5,476C616.9,475.1 615.4,474.7 615.1,475.6C613.4,480 609.8,482.7 607,486.3C604.6,489.3 602.7,492.9 601.1,496.5C598.1,503.6 596.5,511.4 595.6,519C593.8,534 594.6,550.7 602.8,563.9C603.2,564.6 604.5,563.9 604,563Z" style="fill:rgb(252,252,252);fill-rule:nonzero;"/>
                </g>
            </g>
            <g transform="matrix(17.1429,0,0,79.2382,-387.856,-38784)">
                <g transform="matrix(11.8892,0,0,11.8892,706.739,505.767)">
                    <path d="M0.349,0.012C0.529,0.012 0.636,-0.047 0.636,-0.148L0.636,-0.158C0.636,-0.246 0.568,-0.29 0.411,-0.306L0.28,-0.319C0.229,-0.324 0.209,-0.334 0.209,-0.354L0.209,-0.36C0.209,-0.382 0.256,-0.395 0.344,-0.395C0.451,-0.395 0.495,-0.379 0.495,-0.342L0.495,-0.336L0.634,-0.336L0.634,-0.342C0.634,-0.452 0.532,-0.513 0.348,-0.513C0.17,-0.513 0.066,-0.454 0.066,-0.354L0.066,-0.344C0.066,-0.258 0.132,-0.214 0.279,-0.199L0.408,-0.186C0.471,-0.18 0.491,-0.171 0.491,-0.151L0.491,-0.146C0.491,-0.119 0.444,-0.106 0.351,-0.106C0.238,-0.106 0.19,-0.122 0.19,-0.159L0.19,-0.164L0.051,-0.164L0.051,-0.159C0.051,-0.05 0.161,0.012 0.349,0.012Z" style="fill-rule:nonzero;"/>
                </g>
                <g transform="matrix(11.8892,0,0,11.8892,714.919,505.767)">
                    <path d="M0.493,-0.501L0.493,-0.2C0.467,-0.151 0.413,-0.12 0.35,-0.12C0.259,-0.12 0.211,-0.167 0.211,-0.254L0.211,-0.501L0.066,-0.501L0.066,-0.254C0.066,-0.077 0.158,0.013 0.33,0.012C0.397,0.011 0.455,-0.009 0.499,-0.048L0.503,0L0.638,0L0.638,-0.501L0.493,-0.501Z" style="fill-rule:nonzero;"/>
                </g>
                <g transform="matrix(11.8892,0,0,11.8892,723.372,505.767)">
                    <path d="M0.787,-0.513C0.702,-0.513 0.633,-0.482 0.583,-0.425C0.542,-0.483 0.473,-0.513 0.379,-0.513C0.312,-0.513 0.254,-0.492 0.209,-0.453L0.205,-0.501L0.07,-0.501L0.07,0L0.215,0L0.215,-0.299C0.242,-0.349 0.295,-0.381 0.359,-0.381C0.44,-0.381 0.485,-0.333 0.485,-0.248L0.485,0L0.63,0L0.63,-0.248C0.63,-0.265 0.629,-0.281 0.628,-0.296C0.654,-0.348 0.709,-0.381 0.774,-0.381C0.855,-0.381 0.901,-0.333 0.901,-0.248L0.901,0L1.046,0L1.046,-0.248C1.046,-0.421 0.956,-0.513 0.787,-0.513Z" style="fill-rule:nonzero;"/>
                </g>
                <g transform="matrix(11.8892,0,0,11.8892,736.546,505.767)">
                    <path d="M0.787,-0.513C0.702,-0.513 0.633,-0.482 0.583,-0.425C0.542,-0.483 0.473,-0.513 0.379,-0.513C0.312,-0.513 0.254,-0.492 0.209,-0.453L0.205,-0.501L0.07,-0.501L0.07,0L0.215,0L0.215,-0.299C0.242,-0.349 0.295,-0.381 0.359,-0.381C0.44,-0.381 0.485,-0.333 0.485,-0.248L0.485,0L0.63,0L0.63,-0.248C0.63,-0.265 0.629,-0.281 0.628,-0.296C0.654,-0.348 0.709,-0.381 0.774,-0.381C0.855,-0.381 0.901,-0.333 0.901,-0.248L0.901,0L1.046,0L1.046,-0.248C1.046,-0.421 0.956,-0.513 0.787,-0.513Z" style="fill-rule:nonzero;"/>
                </g>
                <g transform="matrix(11.8892,0,0,11.8892,749.719,505.767)">
                    <path d="M0.143,-0.559C0.196,-0.559 0.233,-0.594 0.233,-0.644C0.233,-0.695 0.197,-0.729 0.143,-0.729C0.089,-0.729 0.053,-0.694 0.053,-0.644C0.053,-0.594 0.09,-0.559 0.143,-0.559ZM0.071,0L0.215,0L0.215,-0.501L0.071,-0.501L0.071,0Z" style="fill-rule:nonzero;"/>
                </g>
                <g transform="matrix(11.8892,0,0,11.8892,753.119,505.767)">
                    <path d="M0.512,-0.373L0.512,-0.501L0.304,-0.501L0.304,-0.634L0.163,-0.634L0.163,-0.538C0.163,-0.51 0.154,-0.501 0.126,-0.501L-0.008,-0.501L-0.008,-0.373L0.159,-0.373L0.159,-0.173C0.159,-0.066 0.23,0 0.345,0L0.482,0L0.482,-0.127L0.364,-0.127C0.325,-0.127 0.304,-0.147 0.304,-0.183L0.304,-0.373L0.512,-0.373Z" style="fill-rule:nonzero;"/>
                </g>
            </g>
            <g transform="matrix(15.6487,0,0,72.3319,1958.6,-35290.4)">
                <g transform="matrix(11.3256,0,0,11.3256,706.739,505.767)">
                    <path d="M0.345,-0.127L0.463,-0.193C0.631,-0.288 0.683,-0.348 0.683,-0.445L0.683,-0.455C0.683,-0.588 0.569,-0.668 0.376,-0.668C0.178,-0.668 0.072,-0.586 0.072,-0.433L0.072,-0.412L0.22,-0.412L0.22,-0.432C0.22,-0.5 0.275,-0.536 0.379,-0.536C0.478,-0.536 0.532,-0.505 0.532,-0.448L0.532,-0.439C0.532,-0.389 0.51,-0.365 0.385,-0.295L0.07,-0.118L0.07,0L0.699,0L0.699,-0.127L0.345,-0.127Z" style="fill:rgb(247,121,238);fill-rule:nonzero;"/>
                </g>
                <g transform="matrix(11.3256,0,0,11.3256,715.29,505.767)">
                    <path d="M0.41,0.012C0.624,0.012 0.765,-0.108 0.765,-0.29L0.765,-0.365C0.765,-0.546 0.623,-0.668 0.41,-0.668C0.196,-0.668 0.052,-0.546 0.052,-0.365L0.052,-0.29C0.052,-0.11 0.196,0.012 0.41,0.012ZM0.41,-0.127C0.275,-0.127 0.201,-0.184 0.201,-0.287L0.201,-0.367C0.201,-0.47 0.277,-0.529 0.409,-0.529C0.541,-0.529 0.616,-0.469 0.616,-0.367L0.616,-0.287C0.616,-0.183 0.544,-0.127 0.41,-0.127Z" style="fill:rgb(247,121,238);fill-rule:nonzero;"/>
                </g>
                <g transform="matrix(11.3256,0,0,11.3256,724.543,505.767)">
                    <path d="M0.345,-0.127L0.463,-0.193C0.631,-0.288 0.683,-0.348 0.683,-0.445L0.683,-0.455C0.683,-0.588 0.569,-0.668 0.376,-0.668C0.178,-0.668 0.072,-0.586 0.072,-0.433L0.072,-0.412L0.22,-0.412L0.22,-0.432C0.22,-0.5 0.275,-0.536 0.379,-0.536C0.478,-0.536 0.532,-0.505 0.532,-0.448L0.532,-0.439C0.532,-0.389 0.51,-0.365 0.385,-0.295L0.07,-0.118L0.07,0L0.699,0L0.699,-0.127L0.345,-0.127Z" style="fill:rgb(247,121,238);fill-rule:nonzero;"/>
                </g>
                <g transform="matrix(11.3256,0,0,11.3256,733.094,505.767)">
                    <path d="M0.41,0.012C0.624,0.012 0.765,-0.108 0.765,-0.29L0.765,-0.365C0.765,-0.546 0.623,-0.668 0.41,-0.668C0.196,-0.668 0.052,-0.546 0.052,-0.365L0.052,-0.29C0.052,-0.11 0.196,0.012 0.41,0.012ZM0.41,-0.127C0.275,-0.127 0.201,-0.184 0.201,-0.287L0.201,-0.367C0.201,-0.47 0.277,-0.529 0.409,-0.529C0.541,-0.529 0.616,-0.469 0.616,-0.367L0.616,-0.287C0.616,-0.183 0.544,-0.127 0.41,-0.127Z" style="fill:rgb(247,121,238);fill-rule:nonzero;"/>
                </g>
            </g>
        </g>
    </g>
</svg>
