<?xml version="1.0" encoding="UTF-8" standalone="no"?>
<!DOCTYPE svg PUBLIC "-//W3C//DTD SVG 1.1//EN" "http://www.w3.org/Graphics/SVG/1.1/DTD/svg11.dtd">
<svg width="100%" height="100%" viewBox="0 0 1920 823" version="1.1" xmlns="http://www.w3.org/2000/svg" xmlns:xlink="http://www.w3.org/1999/xlink" xml:space="preserve" xmlns:serif="http://www.serif.com/" style="fill-rule:evenodd;clip-rule:evenodd;stroke-linecap:round;stroke-linejoin:round;stroke-miterlimit:1.5;">
    <rect id="投稿時程" x="0" y="0" width="1920" height="823" style="fill:none;"/>
    <clipPath id="_clip1">
        <rect id="投稿時程1" serif:id="投稿時程" x="0" y="0" width="1920" height="823"/>
    </clipPath>
    <g clip-path="url(#_clip1)">
        <g id="底圖">
            <g>
                <g id="Background" transform="matrix(0.989859,0,0,1.02118,19.4533,-17.3947)">
                    <rect x="-21.567" y="11.328" width="1939.9" height="809.774" style="fill:rgb(80,188,131);"/>
                </g>
                <g transform="matrix(1,0,0,1,31.4954,-20.9107)">
                    <text x="755.329px" y="175.177px" style="font-family:'NotoSansTC-Medium', 'Noto Sans TC', sans-serif;font-weight:500;font-size:86px;">投稿時程</text>
                </g>
            </g>
        </g>
        <g id="TimeLine">
            <g id="Timeline-itself" serif:id="Timeline itself">
                <g transform="matrix(1,0,0,1,-5.42793,-77.364)">
                    <path d="M192.736,540.24L1733.91,539.485" style="fill:none;stroke:rgb(85,85,85);stroke-width:15px;"/>
                </g>
                <g>
                    <g transform="matrix(1,0,0,1,0,-1.33617)">
                        <g transform="matrix(0.346454,0,0,0.346454,27.8611,524.295)">
                            <circle cx="815.174" cy="-176.243" r="59.845" style="fill:white;"/>
                        </g>
                        <g transform="matrix(1,0,0,1,-2.30634,15.1961)">
                            <path d="M312.588,427.485L312.588,342.208" style="fill:none;stroke:white;stroke-width:3px;"/>
                        </g>
                    </g>
                    <g transform="matrix(1,0,0,1,429.778,-1.33617)">
                        <g transform="matrix(0.346454,0,0,0.346454,27.8611,524.295)">
                            <circle cx="815.174" cy="-176.243" r="59.845" style="fill:white;"/>
                        </g>
                        <g transform="matrix(1,0,0,1,-2.30634,15.1961)">
                            <path d="M312.588,427.485L312.588,342.208" style="fill:none;stroke:white;stroke-width:3px;"/>
                        </g>
                    </g>
                    <g transform="matrix(1,0,0,1,859.556,-1.33617)">
                        <g transform="matrix(0.346454,0,0,0.346454,27.8611,524.295)">
                            <circle cx="815.174" cy="-176.243" r="59.845" style="fill:white;"/>
                        </g>
                        <g transform="matrix(1,0,0,1,-2.30634,15.1961)">
                            <path d="M312.588,427.485L312.588,342.208" style="fill:none;stroke:white;stroke-width:3px;"/>
                        </g>
                    </g>
                    <g transform="matrix(1,0,0,1,1289.33,-1.33617)">
                        <g transform="matrix(0.346454,0,0,0.346454,27.8611,524.295)">
                            <circle cx="815.174" cy="-176.243" r="59.845" style="fill:white;"/>
                        </g>
                        <g transform="matrix(1,0,0,1,-2.30634,15.1961)">
                            <path d="M312.588,427.485L312.588,342.208" style="fill:none;stroke:white;stroke-width:3px;"/>
                        </g>
                    </g>
                    <g transform="matrix(1,0,0,1,5.36942,-1.37944)">
                        <g transform="matrix(0.348356,0,0,0.348356,235.83,525.099)">
                            <circle cx="815.174" cy="-176.243" r="59.845" style="fill:white;"/>
                        </g>
                        <g transform="matrix(1,0,0,1,207.213,142.455)">
                            <path d="M312.588,427.485L312.588,342.208" style="fill:none;stroke:white;stroke-width:3px;"/>
                        </g>
                    </g>
                    <g transform="matrix(1,0,0,1,435.148,-1.37944)">
                        <g transform="matrix(0.348356,0,0,0.348356,235.83,525.099)">
                            <circle cx="815.174" cy="-176.243" r="59.845" style="fill:white;"/>
                        </g>
                        <g transform="matrix(1,0,0,1,207.213,142.455)">
                            <path d="M312.588,427.485L312.588,342.208" style="fill:none;stroke:white;stroke-width:3px;"/>
                        </g>
                    </g>
                    <g transform="matrix(1,0,0,1,864.926,-1.37944)">
                        <g transform="matrix(0.348356,0,0,0.348356,235.83,525.099)">
                            <circle cx="815.174" cy="-176.243" r="59.845" style="fill:white;"/>
                        </g>
                        <g transform="matrix(1,0,0,1,207.213,142.455)">
                            <path d="M312.588,427.485L312.588,342.208" style="fill:none;stroke:white;stroke-width:3px;"/>
                        </g>
                    </g>
                </g>
            </g>
            <g transform="matrix(1,0,0,1,-20.9483,-6.30702)">
                <text x="284.001px" y="348.207px" style="font-family:'NotoSansTC-Regular', 'Noto Sans TC', sans-serif;font-size:36.224px;fill:white;">06/04</text>
            </g>
            <g transform="matrix(1,0,0,1,192.22,259.088)">
                <text x="284.001px" y="348.207px" style="font-family:'NotoSansTC-Regular', 'Noto Sans TC', sans-serif;font-size:36.224px;fill:white;">06/28</text>
            </g>
            <g transform="matrix(1,0,0,1,408.719,-6.30702)">
                <text x="284.001px" y="348.207px" style="font-family:'NotoSansTC-Regular', 'Noto Sans TC', sans-serif;font-size:36.224px;fill:white;">07/30</text>
            </g>
            <g transform="matrix(1,0,0,1,623.378,259.088)">
                <text x="284.001px" y="348.207px" style="font-family:'NotoSansTC-Regular', 'Noto Sans TC', sans-serif;font-size:36.224px;fill:white;">08/04</text>
            </g>
            <g transform="matrix(1,0,0,1,832.177,-3.73511)">
                <text x="284.001px" y="348.207px" style="font-family:'NotoSansTC-Regular', 'Noto Sans TC', sans-serif;font-size:36.224px;fill:white;">八月底</text>
            </g>
            <g transform="matrix(1,0,0,1,1067.58,261.244)">
                <text x="284.001px" y="348.207px" style="font-family:'NotoSansTC-Regular', 'Noto Sans TC', sans-serif;font-size:36.224px;fill:white;">TBD</text>
            </g>
            <g transform="matrix(1,0,0,1,1210.44,-6.30702)">
                <text x="284.001px" y="348.207px" style="font-family:'NotoSansTC-Regular', 'Noto Sans TC', sans-serif;font-size:36.224px;fill:white;">12/03~12/06</text>
            </g>
            <g transform="matrix(1,0,0,1,13.0535,56.4723)">
                <text x="234.87px" y="239.942px" style="font-family:'NotoSansTC-Regular', 'Noto Sans TC', sans-serif;font-size:32px;fill:rgb(85,85,85);">徵件開始</text>
            </g>
            <g transform="matrix(1,0,0,1,8.11267,7.64723)">
                <text x="453.134px" y="640.044px" style="font-family:'NotoSansTC-Regular', 'Noto Sans TC', sans-serif;font-size:32px;fill:rgb(85,85,85);">徵件截止</text>
            </g>
            <g transform="matrix(1,0,0,1,-15.8562,27.8173)">
                <text x="661.787px" y="274.359px" style="font-family:'NotoSansTC-Regular', 'Noto Sans TC', sans-serif;font-size:32px;fill:rgb(85,85,85);">公開討論截止</text>
            </g>
            <g transform="matrix(1,0,0,1,-13.9899,-9.31605)">
                <text x="843.833px" y="658.929px" style="font-family:'NotoSansTC-Regular', 'Noto Sans TC', sans-serif;font-size:32px;fill:rgb(85,85,85);">投稿文字修改截止</text>
            </g>
            <g transform="matrix(1,0,0,1,-40.3704,27.4947)">
                <text x="1116.33px" y="272.309px" style="font-family:'NotoSansTC-Regular', 'Noto Sans TC', sans-serif;font-size:32px;fill:rgb(85,85,85);">通知投稿結果</text>
            </g>
            <g transform="matrix(1,0,0,1,0,3.13486)">
                <text x="1289.4px" y="645.006px" style="font-family:'NotoSansTC-Regular', 'Noto Sans TC', sans-serif;font-size:32px;fill:rgb(85,85,85);">講者報名截止</text>
            </g>
            <g transform="matrix(1,0,0,1,-0.945281,20.0214)">
                <text x="1514.23px" y="279.899px" style="font-family:'NotoSansTC-Regular', 'Noto Sans TC', sans-serif;font-size:32px;fill:rgb(85,85,85);">g0v summit</text>
            </g>
        </g>
    </g>
</svg>
