<svg width="179" height="81" viewBox="0 0 179 81" fill="none" xmlns="http://www.w3.org/2000/svg">
<mask id="mask0" mask-type="alpha" maskUnits="userSpaceOnUse" x="146" y="68" width="10" height="7">
<path fill-rule="evenodd" clip-rule="evenodd" d="M146.541 72.2834C146.477 72.4756 146.477 72.7311 146.541 72.9866V72.9866C146.605 73.3703 146.924 73.4344 147.116 73.4344V73.4344H149.099C149.419 73.4344 149.738 73.4344 150.058 73.5625V73.5625C150.313 73.6899 150.633 73.8821 150.888 74.0736V74.0736C152.36 74.9698 153.958 74.905 155.429 73.8181V73.8181C155.877 73.4985 155.619 71.8705 155.155 71.427V71.427C154.398 70.7024 152.553 70.8134 150.883 69.4695V69.4695C150.263 68.9705 149.717 68.7676 149.238 68.7676V68.7676C147.522 68.7676 146.692 71.3822 146.541 72.2834V72.2834Z" fill="white"/>
</mask>
<g mask="url(#mask0)">
<path fill-rule="evenodd" clip-rule="evenodd" d="M142.934 78.2535H159.22V65.2078H142.934V78.2535Z" fill="#77EFFF"/>
</g>
<mask id="mask1" mask-type="alpha" maskUnits="userSpaceOnUse" x="156" y="73" width="22" height="7">
<path fill-rule="evenodd" clip-rule="evenodd" d="M172.305 73.129C172.087 73.129 171.875 73.1447 171.67 73.1788V73.1788C169.944 73.4344 168.602 74.7135 167.066 75.4809V75.4809C165.532 76.2489 163.293 76.4404 162.335 75.0339V75.0339C162.015 74.522 161.824 73.818 161.248 73.6259V73.6259C160.992 73.5625 160.736 73.5625 160.48 73.6259V73.6259C159.01 73.9462 156.72 74.2451 156.516 75.6731V75.6731C156.235 77.6299 160.033 78.9347 161.44 79.3824V79.3824C162.846 79.7661 164.38 78.8065 165.852 78.8065V78.8065C166.811 78.8065 167.705 79.1269 168.666 78.9987V78.9987C169.624 78.8713 170.328 78.1673 171.223 77.9111V77.9111C172.118 77.5915 173.141 77.7196 174.1 77.7196V77.7196C175.699 77.7196 177.614 77.306 177.969 76.2198V76.2198C178.216 75.4666 174.925 73.129 172.305 73.129V73.129H172.305V73.129Z" fill="white"/>
</mask>
<g mask="url(#mask1)">
<path fill-rule="evenodd" clip-rule="evenodd" d="M152.942 83.0319H181.542V69.5691H152.942V83.0319Z" fill="#77EFFF"/>
</g>
<mask id="mask2" mask-type="alpha" maskUnits="userSpaceOnUse" x="76" y="46" width="8" height="4">
<path fill-rule="evenodd" clip-rule="evenodd" d="M82.8212 46.6561C82.6661 46.9287 81.8482 47.2797 81.5763 47.5131V47.5131C81.4204 47.669 81.0701 48.3702 80.7584 48.331V48.331C80.8751 48.331 80.2131 47.8249 80.2523 47.8641V47.8641C80.0579 47.7858 79.7461 47.7466 79.5518 47.8641V47.8641C79.4351 47.9409 79.3568 48.0584 79.24 48.136V48.136C78.3446 48.8371 77.5274 49.3041 76.9437 48.136V48.136C76.7486 47.6299 75.9706 48.0584 76.2425 48.5638V48.5638C76.5927 49.2657 77.2156 49.8102 78.0335 49.8494V49.8494C78.462 49.8885 78.929 49.7326 79.3183 49.46V49.46C79.591 49.2657 79.8629 48.798 80.0579 48.8371V48.8371C80.2523 48.8763 80.4473 49.1874 80.6801 49.2265V49.2265C81.031 49.3041 81.3036 49.2265 81.5763 48.9923V48.9923C82.0824 48.6029 82.3151 48.0968 82.8995 47.7082V47.7082C83.2498 47.474 83.3665 47.4348 83.5615 47.0846V47.0846C83.7473 46.7387 83.4427 46.429 83.1565 46.429V46.429C83.0241 46.429 82.896 46.4959 82.8212 46.6561V46.6561Z" fill="white"/>
</mask>
<g mask="url(#mask2)">
<path fill-rule="evenodd" clip-rule="evenodd" d="M73.0016 53.0391H86.8025V43.245H73.0016V53.0391Z" fill="white"/>
</g>
<mask id="mask3" mask-type="alpha" maskUnits="userSpaceOnUse" x="82" y="41" width="6" height="3">
<path fill-rule="evenodd" clip-rule="evenodd" d="M86.6367 41.7509C86.4416 42.257 85.9355 42.373 85.4686 42.2178V42.2178C85.1966 42.1011 84.924 42.373 84.924 42.6464V42.6464L84.5346 43.035C84.262 43.0742 84.0285 42.9966 83.8335 42.8414V42.8414C83.6392 42.724 83.4448 42.5289 83.2889 42.373V42.373C82.8996 41.9452 82.3152 42.5681 82.7045 42.9574V42.9574C83.2106 43.5027 83.9118 44.048 84.6905 43.8921V43.8921C85.1589 43.8088 85.4921 43.5504 85.6729 43.171V43.171C86.4637 43.2621 87.1926 42.7517 87.493 41.9844V41.9844C87.6097 41.6576 87.3492 41.4576 87.0801 41.4576V41.4576C86.9 41.4576 86.715 41.5473 86.6367 41.7509V41.7509Z" fill="white"/>
</mask>
<g mask="url(#mask3)">
<path fill-rule="evenodd" clip-rule="evenodd" d="M79.3924 47.1031H90.7055V38.2736H79.3924V47.1031Z" fill="white"/>
</g>
<mask id="mask4" mask-type="alpha" maskUnits="userSpaceOnUse" x="76" y="46" width="8" height="4">
<path fill-rule="evenodd" clip-rule="evenodd" d="M82.8212 46.6561C82.6661 46.9287 81.8482 47.2797 81.5763 47.5131V47.5131C81.4204 47.669 81.0701 48.3702 80.7584 48.331V48.331C80.8751 48.331 80.2131 47.8249 80.2523 47.8641V47.8641C80.0579 47.7858 79.7461 47.7466 79.5518 47.8641V47.8641C79.4351 47.9409 79.3568 48.0584 79.24 48.136V48.136C78.3446 48.8371 77.5274 49.3041 76.9437 48.136V48.136C76.7486 47.6299 75.9706 48.0584 76.2425 48.5638V48.5638C76.5927 49.2657 77.2156 49.8102 78.0335 49.8494V49.8494C78.462 49.8885 78.929 49.7326 79.3183 49.46V49.46C79.591 49.2657 79.8629 48.798 80.0579 48.8371V48.8371C80.2523 48.8763 80.4473 49.1874 80.6801 49.2265V49.2265C81.031 49.3041 81.3036 49.2265 81.5763 48.9923V48.9923C82.0824 48.6029 82.3151 48.0968 82.8995 47.7082V47.7082C83.2498 47.474 83.3665 47.4348 83.5615 47.0846V47.0846C83.7473 46.7387 83.4427 46.429 83.1565 46.429V46.429C83.0241 46.429 82.896 46.4959 82.8212 46.6561V46.6561Z" fill="white"/>
</mask>
<g mask="url(#mask4)">
<path fill-rule="evenodd" clip-rule="evenodd" d="M73.0016 53.0391H86.8025V43.245H73.0016V53.0391Z" fill="white"/>
</g>
<mask id="mask5" mask-type="alpha" maskUnits="userSpaceOnUse" x="82" y="41" width="6" height="3">
<path fill-rule="evenodd" clip-rule="evenodd" d="M86.6367 41.7509C86.4416 42.257 85.9355 42.373 85.4686 42.2178V42.2178C85.1966 42.1011 84.924 42.373 84.924 42.6464V42.6464L84.5346 43.035C84.262 43.0742 84.0285 42.9966 83.8335 42.8414V42.8414C83.6392 42.724 83.4448 42.5289 83.2889 42.373V42.373C82.8996 41.9452 82.3152 42.5681 82.7045 42.9574V42.9574C83.2106 43.5027 83.9118 44.048 84.6905 43.8921V43.8921C85.1589 43.8088 85.4921 43.5504 85.6729 43.171V43.171C86.4637 43.2621 87.1926 42.7517 87.493 41.9844V41.9844C87.6097 41.6576 87.3492 41.4576 87.0801 41.4576V41.4576C86.9 41.4576 86.715 41.5473 86.6367 41.7509V41.7509Z" fill="white"/>
</mask>
<g mask="url(#mask5)">
<path fill-rule="evenodd" clip-rule="evenodd" d="M79.3924 47.1031H90.7055V38.2736H79.3924V47.1031Z" fill="white"/>
</g>
<mask id="mask6" mask-type="alpha" maskUnits="userSpaceOnUse" x="76" y="46" width="8" height="4">
<path fill-rule="evenodd" clip-rule="evenodd" d="M82.8212 46.6561C82.6661 46.9287 81.8482 47.2797 81.5763 47.5131V47.5131C81.4204 47.669 81.0701 48.3702 80.7584 48.331V48.331C80.8751 48.331 80.2131 47.8249 80.2523 47.8641V47.8641C80.0579 47.7858 79.7461 47.7466 79.5518 47.8641V47.8641C79.4351 47.9409 79.3568 48.0584 79.24 48.136V48.136C78.3446 48.8371 77.5274 49.3041 76.9437 48.136V48.136C76.7486 47.6299 75.9706 48.0584 76.2425 48.5638V48.5638C76.5927 49.2657 77.2156 49.8102 78.0335 49.8494V49.8494C78.462 49.8885 78.929 49.7326 79.3183 49.46V49.46C79.591 49.2657 79.8629 48.798 80.0579 48.8371V48.8371C80.2523 48.8763 80.4473 49.1874 80.6801 49.2265V49.2265C81.031 49.3041 81.3036 49.2265 81.5763 48.9923V48.9923C82.0824 48.6029 82.3151 48.0968 82.8995 47.7082V47.7082C83.2498 47.474 83.3665 47.4348 83.5615 47.0846V47.0846C83.7473 46.7387 83.4427 46.429 83.1565 46.429V46.429C83.0241 46.429 82.896 46.4959 82.8212 46.6561V46.6561Z" fill="white"/>
</mask>
<g mask="url(#mask6)">
<path fill-rule="evenodd" clip-rule="evenodd" d="M73.0016 53.0391H86.8025V43.245H73.0016V53.0391Z" fill="white"/>
</g>
<mask id="mask7" mask-type="alpha" maskUnits="userSpaceOnUse" x="82" y="41" width="6" height="3">
<path fill-rule="evenodd" clip-rule="evenodd" d="M86.6367 41.7509C86.4416 42.257 85.9355 42.373 85.4686 42.2178V42.2178C85.1966 42.1011 84.924 42.373 84.924 42.6464V42.6464L84.5346 43.035C84.262 43.0742 84.0285 42.9966 83.8335 42.8414V42.8414C83.6392 42.724 83.4448 42.5289 83.2889 42.373V42.373C82.8996 41.9452 82.3152 42.5681 82.7045 42.9574V42.9574C83.2106 43.5027 83.9118 44.048 84.6905 43.8921V43.8921C85.1589 43.8088 85.4921 43.5504 85.6729 43.171V43.171C86.4637 43.2621 87.1926 42.7517 87.493 41.9844V41.9844C87.6097 41.6576 87.3492 41.4576 87.0801 41.4576V41.4576C86.9 41.4576 86.715 41.5473 86.6367 41.7509V41.7509Z" fill="white"/>
</mask>
<g mask="url(#mask7)">
<path fill-rule="evenodd" clip-rule="evenodd" d="M79.3924 47.1031H90.7055V38.2736H79.3924V47.1031Z" fill="white"/>
</g>
<mask id="mask8" mask-type="alpha" maskUnits="userSpaceOnUse" x="24" y="32" width="65" height="5">
<path fill-rule="evenodd" clip-rule="evenodd" d="M24.7787 32.1725H88.6995V36.5723H24.7787V32.1725Z" fill="white"/>
</mask>
<g mask="url(#mask8)">
<path fill-rule="evenodd" clip-rule="evenodd" d="M21.5947 39.7556H91.8842V28.9885H21.5947V39.7556Z" fill="#FF7E64"/>
</g>
<mask id="mask9" mask-type="alpha" maskUnits="userSpaceOnUse" x="26" y="38" width="19" height="24">
<path fill-rule="evenodd" clip-rule="evenodd" d="M43.932 61.2571L44.3989 38.3633L26.2188 38.0907C29.022 53.6256 43.9711 61.2963 43.932 61.2571V61.2571Z" fill="white"/>
</mask>
<g mask="url(#mask9)">
<path fill-rule="evenodd" clip-rule="evenodd" d="M23.0348 64.4419H47.5829V34.9067H23.0348V64.4419Z" fill="#FFE771"/>
</g>
<mask id="mask10" mask-type="alpha" maskUnits="userSpaceOnUse" x="69" y="38" width="20" height="24">
<path fill-rule="evenodd" clip-rule="evenodd" d="M69.8973 38.7135L70.3643 61.6081C70.3643 61.6465 85.2742 53.9758 88.0774 38.4409V38.4409L69.8973 38.7135Z" fill="white"/>
</mask>
<g mask="url(#mask10)">
<path fill-rule="evenodd" clip-rule="evenodd" d="M66.7133 64.7921H91.2607V35.2569H66.7133V64.7921Z" fill="#FFE771"/>
</g>
<mask id="mask11" mask-type="alpha" maskUnits="userSpaceOnUse" x="24" y="36" width="67" height="3">
<path fill-rule="evenodd" clip-rule="evenodd" d="M24.8563 36.4164V37.5846H55.1048L90.3737 38.2466V37.0784L55.1048 36.4164H24.8563Z" fill="white"/>
</mask>
<g mask="url(#mask11)">
<path fill-rule="evenodd" clip-rule="evenodd" d="M21.6723 41.4306H93.5577V33.2324H21.6723V41.4306Z" fill="#2F7CC9"/>
</g>
<mask id="mask12" mask-type="alpha" maskUnits="userSpaceOnUse" x="25" y="30" width="66" height="3">
<path fill-rule="evenodd" clip-rule="evenodd" d="M25.4016 30.9268V32.0942H55.6501L90.919 32.7569V31.5881L55.6885 30.9268H25.4016Z" fill="white"/>
</mask>
<g mask="url(#mask12)">
<path fill-rule="evenodd" clip-rule="evenodd" d="M22.2176 35.941H94.103V27.7428H22.2176V35.941Z" fill="#2F7CC9"/>
</g>
<mask id="mask13" mask-type="alpha" maskUnits="userSpaceOnUse" x="45" y="16" width="25" height="48">
<path fill-rule="evenodd" clip-rule="evenodd" d="M52.8461 22.1664C51.6396 23.5288 46.3066 29.5637 46.3066 29.5637V29.5637C46.3066 29.5637 45.8396 57.2083 45.8396 63.1648V63.1648L69.0402 63.2431V58.1422C69.0402 53.4697 68.3789 28.3956 68.3789 28.3956V28.3956C68.3789 28.3956 63.7464 23.7238 61.6443 21.3093V21.3093C60.3203 19.7903 58.9586 18.2342 57.6353 16.7152V16.7152C56.0387 18.5061 54.4428 20.3355 52.8461 22.1664V22.1664Z" fill="white"/>
</mask>
<g mask="url(#mask13)">
<path fill-rule="evenodd" clip-rule="evenodd" d="M42.6549 66.4271H72.225V13.5312H42.6549V66.4271Z" fill="white"/>
</g>
<mask id="mask14" mask-type="alpha" maskUnits="userSpaceOnUse" x="45" y="15" width="25" height="49">
<path fill-rule="evenodd" clip-rule="evenodd" d="M52.4184 21.7763C51.2503 23.1394 45.9172 29.0967 45.8781 29.175V29.175L45.7222 29.3302V29.5637C45.7222 29.8363 45.2552 57.2858 45.2552 63.1648V63.1648H46.4234C46.4234 57.5585 46.8512 32.406 46.8903 29.7979V29.7979C47.7466 28.8234 52.2233 23.763 53.2747 22.5557V22.5557L57.5962 17.5715L61.1774 21.6595C63.046 23.8014 66.8998 27.7734 67.7562 28.629V28.629C67.8345 31.1603 68.4182 53.7815 68.4182 58.1422V58.1422V63.2431H69.5863V58.1422C69.5863 53.5089 68.9243 28.5906 68.9243 28.3564V28.3564V28.1229L68.7684 27.967C68.7292 27.9286 64.1358 23.2946 62.0729 20.9199V20.9199L57.6354 15.819L52.4184 21.7763Z" fill="white"/>
</mask>
<g mask="url(#mask14)">
<path fill-rule="evenodd" clip-rule="evenodd" d="M42.0712 66.4271H72.7696V12.6357H42.0712V66.4271Z" fill="#555555"/>
</g>
<mask id="mask15" mask-type="alpha" maskUnits="userSpaceOnUse" x="46" y="17" width="22" height="50">
<path fill-rule="evenodd" clip-rule="evenodd" d="M46.8127 29.953C46.8127 29.953 46.4233 57.8311 46.4233 63.7884V63.7884L57.2068 66.0855L67.9896 63.8275V58.7266C67.9896 54.015 67.4892 28.7871 67.4892 28.7871V28.7871L58.2162 17.5231L57.372 17.5039L46.8127 29.953Z" fill="white"/>
</mask>
<g mask="url(#mask15)">
<path fill-rule="evenodd" clip-rule="evenodd" d="M43.2393 69.2688H71.1743V14.3199H43.2393V69.2688Z" fill="#50A4FF"/>
</g>
<mask id="mask16" mask-type="alpha" maskUnits="userSpaceOnUse" x="52" y="27" width="11" height="10">
<path fill-rule="evenodd" clip-rule="evenodd" d="M57.6453 27.0936C56.2651 27.0936 54.8685 27.6545 53.8975 28.7849V28.7849C51.367 31.7832 53.7416 36.5332 57.5962 36.5332V36.5332C60.2819 36.5332 62.3064 34.2361 62.3455 31.7832V31.7832C62.3839 31.0436 62.1896 30.2648 61.8002 29.5245V29.5245C60.9496 27.908 59.3096 27.0936 57.6474 27.0936V27.0936C57.6467 27.0936 57.646 27.0936 57.6453 27.0936V27.0936Z" fill="white"/>
</mask>
<g mask="url(#mask16)">
<path fill-rule="evenodd" clip-rule="evenodd" d="M49.6657 39.7172H65.5338V23.9089H49.6657V39.7172Z" fill="white"/>
</g>
<mask id="mask17" mask-type="alpha" maskUnits="userSpaceOnUse" x="52" y="26" width="11" height="12">
<path fill-rule="evenodd" clip-rule="evenodd" d="M53.4306 28.3955C52.1458 29.9139 51.9123 32.0558 52.7686 33.9243V33.9243C53.7025 35.9096 55.5326 37.1176 57.5962 37.1176V37.1176C60.4763 37.1176 62.8901 34.7422 62.8901 31.7447V31.7447C62.9285 30.8869 62.7349 30.0306 62.3064 29.2526V29.2526C61.4885 27.6951 60.0093 26.7213 58.2191 26.527V26.527C58.0169 26.5049 57.8155 26.495 57.6154 26.495V26.495C56.0017 26.495 54.4699 27.1833 53.4306 28.3955V28.3955ZM53.8584 33.4574C53.158 31.9383 53.3523 30.3424 54.3645 29.175V29.175C55.144 28.2404 56.3498 27.6951 57.6354 27.6951V27.6951H58.1799C59.5424 27.8503 60.7105 28.629 61.3326 29.7978V29.7978C61.6444 30.42 61.8003 31.0435 61.8003 31.7447V31.7447C61.7618 33.7691 60.0876 35.9488 57.6354 35.9488V35.9488C55.9996 35.9488 54.5596 35.0148 53.8584 33.4574V33.4574Z" fill="white"/>
</mask>
<g mask="url(#mask17)">
<path fill-rule="evenodd" clip-rule="evenodd" d="M49.0778 40.3016H66.0791V23.3109H49.0778V40.3016Z" fill="#555555"/>
</g>
<mask id="mask18" mask-type="alpha" maskUnits="userSpaceOnUse" x="49" y="42" width="17" height="24">
<path fill-rule="evenodd" clip-rule="evenodd" d="M55.8828 42.9574C54.3645 42.9574 52.8462 42.9574 51.3278 42.9966V42.9966C50.5107 42.9966 50.3548 42.8414 50.0828 43.5027V43.5027C49.8487 44.048 50.0828 45.1769 50.0828 45.8005V45.8005V64.2945L65.2263 65.0334C65.2263 57.8702 65.1088 50.6665 65.2263 43.5027V43.5027C65.2263 42.9759 63.0253 42.8499 60.7439 42.8499V42.8499C58.6376 42.8499 56.4623 42.9574 55.8828 42.9574V42.9574Z" fill="white"/>
</mask>
<g mask="url(#mask18)">
<path fill-rule="evenodd" clip-rule="evenodd" d="M46.7949 68.2181H68.4103V39.6659H46.7949V68.2181Z" fill="#FFFDFD"/>
</g>
<mask id="mask19" mask-type="alpha" maskUnits="userSpaceOnUse" x="24" y="0" width="68" height="67">
<path fill-rule="evenodd" clip-rule="evenodd" d="M34.55 10.2902C26.453 18.1167 22.9494 28.5123 24.9346 38.8694V38.8694C26.5306 47.0455 31.4351 54.7553 38.4423 59.9338V59.9338C44.243 64.2162 50.9 66.4741 57.5962 66.4741V66.4741C59.2313 66.4741 60.9048 66.3189 62.5398 66.1239V66.1239C70.2475 64.8006 77.3715 60.751 82.6661 54.6777V54.6777C87.9607 48.5638 90.919 41.0106 90.9966 33.3791V33.3791C91.0358 31.3546 90.8407 29.3686 90.4521 27.3833V27.3833C87.9991 14.7683 77.605 4.02253 65.1871 1.1802V1.1802C62.8972 0.657005 60.5759 0.401459 58.2575 0.401459V0.401459C49.6999 0.401459 41.1978 3.88728 34.55 10.2902V10.2902ZM38.91 59.2718C32.0586 54.1709 27.231 46.6952 25.7127 38.6751V38.6751C23.7665 28.629 27.1926 18.467 35.0946 10.8354V10.8354C41.5957 4.52793 49.8878 1.14105 58.2575 1.14105V1.14105C60.5154 1.14105 62.7733 1.41297 64.9921 1.88064V1.88064C77.138 4.64538 87.298 15.1577 89.6733 27.4609V27.4609C90.0627 29.4078 90.2186 31.3546 90.2186 33.3022V33.3022C90.1019 48.6029 77.8776 62.6203 62.4231 65.2676V65.2676C60.8165 65.5381 59.2007 65.6719 57.5877 65.6719V65.6719C51.0694 65.6719 44.5897 63.4851 38.91 59.2718V59.2718Z" fill="white"/>
</mask>
<g mask="url(#mask19)">
<path fill-rule="evenodd" clip-rule="evenodd" d="M21.2068 69.6589H94.1856V-2.78253H21.2068V69.6589Z" fill="#555555"/>
</g>
<mask id="mask20" mask-type="alpha" maskUnits="userSpaceOnUse" x="51" y="45" width="13" height="19">
<path fill-rule="evenodd" clip-rule="evenodd" d="M56.0387 45.4567C54.8706 45.4567 53.7025 45.4987 52.5351 45.4987V45.4987C51.8731 45.4987 51.7564 45.3727 51.562 45.9165V45.9165C51.4061 46.3771 51.562 47.2982 51.562 47.8V47.8V63.157L63.241 63.7841C63.241 57.8425 63.1235 51.8589 63.241 45.9165V45.9165C63.2609 45.4673 61.6159 45.3577 59.8812 45.3577V45.3577C58.229 45.3577 56.495 45.4567 56.0387 45.4567V45.4567Z" fill="white"/>
</mask>
<g mask="url(#mask20)">
<path fill-rule="evenodd" clip-rule="evenodd" d="M48.309 66.9681H66.425V42.173H48.309V66.9681Z" fill="#FFE771"/>
</g>
<mask id="mask21" mask-type="alpha" maskUnits="userSpaceOnUse" x="28" y="39" width="11" height="4">
<path fill-rule="evenodd" clip-rule="evenodd" d="M37.2365 39.414C36.9631 40.9714 34.7842 41.6334 33.8111 40.1543V40.1543C33.6545 39.8809 33.2267 39.8432 33.0701 40.1543V40.1543C32.8758 40.5828 32.7982 40.8938 32.4864 41.2448V41.2448C31.2023 42.6464 29.6448 40.9714 29.333 39.7649V39.7649C29.1778 39.2588 28.3208 39.4923 28.4767 40.0375V40.0375C28.8269 41.3224 29.6448 42.373 31.0855 42.4905V42.4905C31.6301 42.5289 32.6423 42.4905 33.0701 42.1403V42.1403C33.3919 41.8933 33.4937 41.5658 33.5947 41.212V41.212C35.1579 42.6663 37.6764 42.0079 38.0928 39.6481V39.6481C38.1633 39.3193 37.8799 39.1043 37.618 39.1043V39.1043C37.4457 39.1043 37.2827 39.1976 37.2365 39.414V39.414Z" fill="white"/>
</mask>
<g mask="url(#mask21)">
<path fill-rule="evenodd" clip-rule="evenodd" d="M25.2742 45.6866H41.2875V35.9203H25.2742V45.6866Z" fill="white"/>
</g>
<mask id="mask22" mask-type="alpha" maskUnits="userSpaceOnUse" x="34" y="43" width="9" height="4">
<path fill-rule="evenodd" clip-rule="evenodd" d="M41.3238 44.1255C41.5181 44.5541 40.3507 45.2161 39.9614 45.2161V45.2161C39.7279 45.2161 39.5328 45.0986 39.3777 45.0602V45.0602C39.1435 45.021 39.0267 44.9043 38.7932 44.9819V44.9819C38.5206 45.0602 38.4423 45.2545 38.2487 45.4488V45.4488C37.8202 45.8389 37.5867 46.0332 37.0023 45.9556V45.9556C36.2634 45.8781 35.8733 45.4104 35.8349 44.6316V44.6316C35.7573 44.0479 34.8618 44.0479 34.9003 44.6316V44.6316C34.9394 45.6054 35.4839 46.5002 36.457 46.8127V46.8127C36.8855 46.9679 37.3917 46.9287 37.8202 46.7735V46.7735C38.0537 46.6952 38.2095 46.6176 38.4039 46.4618V46.4618C38.5206 46.3835 38.8715 45.9165 38.9484 45.9165V45.9165C39.0659 45.8781 39.3777 46.0724 39.6104 46.1115V46.1115C40.1165 46.1891 40.8177 46.0332 41.2846 45.8005V45.8005C42.141 45.3719 42.4528 44.5541 42.0627 43.6977V43.6977C41.9894 43.5369 41.8641 43.4699 41.7359 43.4699V43.4699C41.459 43.4699 41.1643 43.7796 41.3238 44.1255V44.1255Z" fill="white"/>
</mask>
<g mask="url(#mask22)">
<path fill-rule="evenodd" clip-rule="evenodd" d="M31.7148 50.0957H45.4125V40.2867H31.7148V50.0957Z" fill="white"/>
</g>
<mask id="mask23" mask-type="alpha" maskUnits="userSpaceOnUse" x="32" y="48" width="9" height="4">
<path fill-rule="evenodd" clip-rule="evenodd" d="M39.3777 49.2265C39.0267 50.2779 37.781 50.4331 37.1973 49.5376V49.5376C37.0023 49.2657 36.6136 49.2265 36.457 49.5376V49.5376C35.7573 50.784 34.0824 50.7057 33.5762 49.3041V49.3041C33.3428 48.7588 32.4864 48.9923 32.6815 49.5376V49.5376C33.3549 51.4531 35.5786 51.8496 36.8236 50.4331V50.4331C37.9447 51.4403 39.683 51.0438 40.234 49.46V49.46C40.3514 49.1318 40.0866 48.9161 39.8154 48.9154V48.9154C39.6368 48.9154 39.4545 49.0101 39.3777 49.2265V49.2265Z" fill="white"/>
</mask>
<g mask="url(#mask23)">
<path fill-rule="evenodd" clip-rule="evenodd" d="M29.469 54.4663H43.4465V45.7321H29.469V54.4663Z" fill="white"/>
</g>
<mask id="mask24" mask-type="alpha" maskUnits="userSpaceOnUse" x="72" y="40" width="8" height="3">
<path fill-rule="evenodd" clip-rule="evenodd" d="M72.1552 40.6212C72.2335 41.5167 72.7389 42.3353 73.6736 42.568V42.568C74.616 42.7709 75.4717 42.2442 76.1386 41.6192V41.6192C77.2776 42.5054 78.7539 42.1488 79.7462 41.0497V41.0497C80.0971 40.6212 79.5127 39.9983 79.1233 40.4269V40.4269C78.3837 41.2832 77.3331 41.6733 76.4376 40.6995V40.6995C76.2817 40.5436 75.9706 40.5436 75.8148 40.6995V40.6995C75.3478 41.2448 73.2842 42.9966 73.0507 40.6212V40.6212C73.0116 40.3493 72.7781 40.2133 72.5589 40.2133V40.2133C72.3396 40.2133 72.1353 40.3493 72.1552 40.6212V40.6212Z" fill="white"/>
</mask>
<g mask="url(#mask24)">
<path fill-rule="evenodd" clip-rule="evenodd" d="M68.9698 45.7962H83.0377V37.0286H68.9698V45.7962Z" fill="white"/>
</g>
<mask id="mask25" mask-type="alpha" maskUnits="userSpaceOnUse" x="72" y="43" width="9" height="4">
<path fill-rule="evenodd" clip-rule="evenodd" d="M79.6686 43.9305C79.0849 45.2161 77.8776 45.2936 76.7486 44.6316V44.6316C76.6319 44.5541 76.4376 44.5541 76.3208 44.6316V44.6316C75.6588 45.0986 74.7634 46.6177 73.7903 45.0602V45.0602C73.4792 44.5541 72.7005 44.9819 73.0115 45.4488V45.4488C73.4009 46.0724 73.9462 46.4618 74.6858 46.4618V46.4618C74.9975 46.4618 75.3086 46.3835 75.6197 46.2674V46.2674C75.7756 46.1891 76.0098 46.1115 76.1258 45.9557V45.9557C76.1258 45.9557 76.5273 45.5271 76.4867 45.4246V45.4246C76.743 45.5136 77.4092 45.9222 77.6441 45.9557V45.9557C77.9951 45.9941 78.3837 45.9941 78.6948 45.9165V45.9165C79.5127 45.683 80.0971 45.0986 80.4082 44.3597V44.3597C80.5676 44.0138 80.2736 43.6863 79.9967 43.6863V43.6863C79.8679 43.6863 79.7426 43.7575 79.6686 43.9305V43.9305Z" fill="white"/>
</mask>
<g mask="url(#mask25)">
<path fill-rule="evenodd" clip-rule="evenodd" d="M69.7556 49.6458H83.637V40.5023H69.7556V49.6458Z" fill="white"/>
</g>
<mask id="mask26" mask-type="alpha" maskUnits="userSpaceOnUse" x="71" y="50" width="7" height="3">
<path fill-rule="evenodd" clip-rule="evenodd" d="M71.8833 50.9392C71.9217 51.5236 72.1552 52.0297 72.7005 52.2632V52.2632C72.9731 52.3799 73.245 52.3799 73.5177 52.3415V52.3415C73.8686 52.2632 74.1014 51.9514 74.4523 51.9122V51.9122C74.7634 51.9122 74.9584 52.1464 75.2695 52.224V52.224C75.5421 52.3023 75.8539 52.3415 76.1258 52.3023V52.3023C76.7486 52.224 77.2548 51.9122 77.6441 51.4061V51.4061C77.9951 50.9392 77.2156 50.5107 76.9045 50.9776V50.9776C76.5543 51.4453 75.9315 51.6012 75.4254 51.3684V51.3684C75.1919 51.251 75.0744 51.0559 74.8025 50.9776V50.9776C74.569 50.9007 74.3747 50.9392 74.1405 51.0175V51.0175C74.0238 51.0559 73.9462 51.0951 73.8294 51.1734V51.1734C73.5177 51.4844 73.1674 51.4061 72.7389 50.9007V50.9007C72.7389 50.6516 72.5325 50.5256 72.3232 50.5256V50.5256C72.1054 50.5256 71.8833 50.6623 71.8833 50.9392V50.9392Z" fill="white"/>
</mask>
<g mask="url(#mask26)">
<path fill-rule="evenodd" clip-rule="evenodd" d="M68.6986 55.5483H80.9171V47.3416H68.6986V55.5483Z" fill="white"/>
</g>
<mask id="mask27" mask-type="alpha" maskUnits="userSpaceOnUse" x="72" y="55" width="3" height="2">
<path fill-rule="evenodd" clip-rule="evenodd" d="M72.1944 55.8451C72.8564 56.4679 73.8294 56.4679 74.4915 55.8451V55.8451C74.8239 55.5426 74.5221 55.0991 74.1697 55.0991V55.0991C74.0693 55.0991 73.964 55.1354 73.8686 55.2222V55.2222C73.5568 55.4949 73.0891 55.4949 72.8172 55.2222V55.2222C72.7304 55.1354 72.6322 55.0991 72.5361 55.0991V55.0991C72.2008 55.0991 71.8919 55.5426 72.1944 55.8451V55.8451Z" fill="white"/>
</mask>
<g mask="url(#mask27)">
<path fill-rule="evenodd" clip-rule="evenodd" d="M68.8865 59.4968H77.8186V51.9151H68.8865V59.4968Z" fill="white"/>
</g>
<mask id="mask28" mask-type="alpha" maskUnits="userSpaceOnUse" x="39" y="52" width="4" height="3">
<path fill-rule="evenodd" clip-rule="evenodd" d="M39.1826 52.6525C39.5328 54.1709 41.3629 54.6777 42.4527 53.548V53.548C42.8421 53.1587 42.2192 52.5351 41.8299 52.9252V52.9252C41.207 53.5872 40.234 53.2754 40.0389 52.4183V52.4183C39.977 52.202 39.8047 52.1087 39.6289 52.1087V52.1087C39.3627 52.1087 39.0893 52.3237 39.1826 52.6525V52.6525Z" fill="white"/>
</mask>
<g mask="url(#mask28)">
<path fill-rule="evenodd" clip-rule="evenodd" d="M35.9794 57.3456H45.7592V48.9247H35.9794V57.3456Z" fill="white"/>
</g>
<mask id="mask29" mask-type="alpha" maskUnits="userSpaceOnUse" x="37" y="54" width="4" height="3">
<path fill-rule="evenodd" clip-rule="evenodd" d="M39.3777 55.0272C39.0267 55.7675 38.2872 55.9234 37.6252 55.4173V55.4173C37.1973 55.1055 36.7304 55.8451 37.1973 56.1953V56.1953C38.1704 56.9349 39.6104 56.5854 40.1166 55.4557V55.4557C40.276 55.1098 39.9813 54.8008 39.7044 54.8008V54.8008C39.5763 54.8008 39.451 54.867 39.3777 55.0272V55.0272Z" fill="white"/>
</mask>
<g mask="url(#mask29)">
<path fill-rule="evenodd" clip-rule="evenodd" d="M33.8183 59.7694H43.3454V51.6168H33.8183V59.7694Z" fill="white"/>
</g>
<mask id="mask30" mask-type="alpha" maskUnits="userSpaceOnUse" x="57" y="3" width="15" height="9">
<path fill-rule="evenodd" clip-rule="evenodd" d="M57.9073 11.0697C58.5308 11.4754 71.2448 7.48774 71.2448 7.48774V7.48774L71.2092 6.64422L57.713 3.2431L57.9073 11.0697Z" fill="white"/>
</mask>
<g mask="url(#mask30)">
<path fill-rule="evenodd" clip-rule="evenodd" d="M54.5289 14.2821H74.4288V0.059082H54.5289V14.2821Z" fill="#FF7E64"/>
</g>
<mask id="mask31" mask-type="alpha" maskUnits="userSpaceOnUse" x="57" y="3" width="16" height="14">
<path fill-rule="evenodd" clip-rule="evenodd" d="M57.0901 16.9095H58.2575V12.8214C59.464 12.7431 62.8516 12.0036 72.8564 8.77186V8.77186L72.8044 7.72049L57.0901 3.71075V16.9095ZM58.2575 5.22908L70.5202 8.3049C65.6149 9.86238 59.6591 11.6149 58.2575 11.7309V11.7309V5.22908Z" fill="white"/>
</mask>
<g mask="url(#mask31)">
<path fill-rule="evenodd" clip-rule="evenodd" d="M53.9061 20.0935H76.0404V0.526764H53.9061V20.0935Z" fill="#555555"/>
</g>
<mask id="mask32" mask-type="alpha" maskUnits="userSpaceOnUse" x="6" y="47" width="132" height="33">
<path fill-rule="evenodd" clip-rule="evenodd" d="M38.0337 48.2036C33.6865 49.1767 29.6825 51.3506 26.3077 54.2121V54.2121C22.9899 57.0146 21.1021 60.5047 18.642 63.9378V63.9378C18.5281 64.0525 18.4705 64.1663 18.3566 64.1663V64.1663C16.3542 66.9695 13.6656 69.2011 11.3202 71.7188V71.7188C10.634 72.462 6.57227 75.552 6.57227 76.639V76.639C6.57227 80.9228 20.8558 79.7981 34.0467 78.6727V78.6727C42.3502 77.9651 50.2202 77.2569 53.8227 77.8975V77.8975C60.8585 79.156 68.0081 79.156 75.1014 79.2137V79.2137C78.3047 79.2706 81.5656 79.2706 84.7688 79.3276V79.3276C95.2369 79.4991 105.19 79.0991 114.4 73.7212V73.7212C121.036 69.888 131.046 70.2881 136.48 64.6241V64.6241C136.766 64.3956 136.995 64.0525 137.053 63.7086V63.7086C137.11 63.0794 136.538 62.5647 136.023 62.2209V62.2209C134.307 61.077 132.305 60.3901 130.417 59.5893V59.5893C126.413 57.8161 121.893 55.9853 117.489 57.2438V57.2438C114.343 58.1592 111.769 60.2185 108.451 60.6193V60.6193C106.751 60.8158 104.977 60.6378 103.202 60.4606V60.4606C101.872 60.3275 100.54 60.1943 99.241 60.2185V60.2185C94.6653 60.3331 89.9751 60.6193 85.6272 58.9031V58.9031C83.6249 58.1016 81.7948 56.9577 79.7924 56.2138V56.2138C75.9599 54.8407 71.9552 56.2715 68.5234 58.1016V58.1016C67.1503 58.8454 62.6316 63.137 61.087 62.9078V62.9078C60.7439 62.8502 60.4577 62.6793 60.1723 62.5078V62.5078C55.5959 59.5893 51.4203 56.0422 47.758 51.9798V51.9798C46.7863 50.8929 45.814 49.7483 44.5547 49.0051V49.0051C43.3297 48.262 41.8633 47.9537 40.3905 47.9537V47.9537C39.594 47.9537 38.796 48.0434 38.0337 48.2036V48.2036Z" fill="white"/>
</mask>
<g mask="url(#mask32)">
<path fill-rule="evenodd" clip-rule="evenodd" d="M3.38831 82.8832H140.24V44.7697H3.38831V82.8832Z" fill="#77EFFF"/>
</g>
<mask id="mask33" mask-type="alpha" maskUnits="userSpaceOnUse" x="0" y="43" width="132" height="34">
<path fill-rule="evenodd" clip-rule="evenodd" d="M25.5639 45.8012C19.5162 48.9097 16.0938 53.8619 12.3168 59.2782V59.2782C12.2442 59.3252 12.178 59.39 12.121 59.4754V59.4754C9.14631 63.594 5.14228 66.6841 1.59595 70.2311V70.2311C0.279776 71.5473 -0.749528 72.9774 0.852086 74.4651V74.4651C2.16826 75.7236 4.39842 75.9521 6.05769 76.1237V76.1237C9.37552 76.4675 12.808 76.3536 16.1827 76.1813V76.1813C24.02 75.7813 31.7996 74.8659 39.6354 74.4074V74.4074C42.3246 74.2359 45.0702 74.122 47.758 74.522V74.522C54.566 75.4375 61.2586 75.7813 68.1235 75.8382V75.8382C80.0779 75.9521 92.9492 77.1544 104.276 72.462V72.462C107.078 71.3181 109.595 69.6012 112.455 68.5719V68.5719C114.972 67.7134 117.546 67.0841 120.12 66.3972V66.3972C122.294 65.8256 124.525 65.1394 126.585 64.1094V64.1094C128.072 63.3656 130.703 62.0494 131.446 60.3901V60.3901C133.048 57.0723 125.669 55.1845 123.724 54.383V54.383C120.978 53.2391 118.176 52.1514 115.144 52.0375V52.0375C112.398 51.9229 110.053 52.896 107.594 54.0399V54.0399C104.16 55.6415 101.186 55.9853 97.4109 55.6415V55.6415C95.4214 55.4707 93.4311 55.4842 91.4301 55.4984V55.4984C90.0933 55.507 88.7515 55.5162 87.4005 55.4699V55.4699C83.8542 55.3561 80.7079 54.5545 77.5039 53.0099V53.0099C75.0446 51.8083 72.756 50.7213 69.9536 50.8929V50.8929C67.2073 51.0644 64.2333 52.0945 61.9455 53.5822V53.5822C60.1154 54.7261 58.6277 56.3284 56.7399 57.473V57.473C55.1383 58.4454 54.2229 57.7015 52.8497 56.7292V56.7292C51.0759 55.5276 49.3604 54.2121 47.758 52.7814V52.7814C45.1271 50.5498 43.0109 47.8036 40.4938 45.515V45.515C38.6801 43.87 36.5581 43.2379 34.3636 43.2379V43.2379C31.3689 43.2379 28.2376 44.4145 25.5639 45.8012V45.8012ZM4.45607 74.4651C3.65527 74.2935 2.28286 74.122 1.71055 73.4351V73.4351C0.623589 72.1766 2.4537 70.975 3.36911 70.1735V70.1735C6.8585 67.1411 10.4625 63.9379 13.208 60.1047V60.1047C16.6974 55.1268 19.8437 50.4352 25.2778 47.3458V47.3458C27.9094 45.8581 31.0557 44.5427 34.1443 44.485V44.485C37.8052 44.4281 39.75 46.6589 42.0385 49.1197V49.1197C44.0409 51.236 46.0995 53.1814 48.388 55.013V55.013C50.0466 56.3854 52.6212 59.0177 54.7952 59.3608V59.3608C57.083 59.7609 59.4854 57.1292 61.1447 55.8138V55.8138C63.1463 54.2691 65.3203 53.1814 67.7796 52.5522V52.5522C71.6128 51.6368 74.3584 52.9522 77.7331 54.5545V54.5545C82.4234 56.7861 87.2289 56.8438 92.3776 56.7292V56.7292C93.8482 56.6964 95.2776 56.7754 96.6834 56.8552V56.8552C100.197 57.0538 103.564 57.2524 107.078 55.6992V55.6992C110.225 54.2691 113.085 52.9522 116.631 53.4683V53.4683C119.663 53.9253 122.408 55.1845 125.154 56.3284V56.3284C126.355 56.8438 128.072 57.2438 129.044 58.1016V58.1016C131.218 60.0477 129.215 61.0201 127.614 61.9924V61.9924C125.555 63.2517 123.267 64.0525 120.978 64.7387V64.7387C116.917 65.9402 112.627 66.6841 108.794 68.6288V68.6288C103.303 71.4897 97.9263 73.3781 91.6907 74.0643V74.0643C85.9704 74.6936 80.2502 74.522 74.5299 74.4651V74.4651C68.4666 74.4074 62.4025 74.4651 56.3391 74.0643V74.0643C52.449 73.8358 48.6734 72.9197 44.784 72.8628V72.8628C38.4922 72.7482 32.085 73.5497 25.7924 74.0643V74.0643C21.2453 74.443 16.3707 75.0986 11.6028 75.0986V75.0986C9.17408 75.0986 6.77308 74.9285 4.45607 74.4651V74.4651Z" fill="white"/>
</mask>
<g mask="url(#mask33)">
<path fill-rule="evenodd" clip-rule="evenodd" d="M-3.14771 79.5305H134.857V40.0539H-3.14771V79.5305Z" fill="#0EAFC9"/>
</g>
</svg>
