<svg width="164" height="163" viewBox="0 0 164 163" fill="none" xmlns="http://www.w3.org/2000/svg">
<path d="M153.123 0C151.261 0.409301 148.972 1.08767 147.349 2.04864C137.363 7.95113 154.724 11.133 151.321 16.1393C149.023 19.5176 135.936 14.5035 136.753 21.8161C137.239 26.1682 149.325 28.6924 147.032 33.9848C145.757 36.9254 117.914 32.6964 131.483 49.4657C144.215 65.2085 173.856 53.879 182.842 73.8344C184.158 76.7586 185.217 81.5649 184.098 84.6813C181.424 92.1498 170.943 92.6979 163.806 92.6979C147.995 92.6979 126.547 89.0818 112.19 96.6863C97.3333 104.551 110.915 112.343 103.681 121.202C96.645 129.82 85.4579 123.108 77.7879 129.133C75.1378 131.214 74.0871 139.358 72.7154 141.018C68.1426 146.561 58.0147 144.524 55.5974 144.524" stroke="#29A0B8" stroke-width="3.67" stroke-linecap="round" stroke-linejoin="round"/>
<path d="M154.98 2.40797C153.841 2.54749 152.725 2.84219 151.61 3.10485C141.154 5.58344 159.714 11.7045 156.052 17.4617C154.064 20.5817 143.628 19.5502 143.174 22.5826C142.54 26.8223 155.032 27.591 151.689 33.5882C148.219 39.8117 136.189 35.7999 136.189 44.7411C136.189 45.9327 136.145 47.718 136.906 48.726C141.381 54.6953 150.19 54.5793 156.73 55.667C161.24 56.4166 166.225 56.6237 170.441 58.5762C180.275 63.1384 189.998 76.5834 186.866 87.7121C184.973 94.4467 175.215 94.9243 169.413 95.1521C155.758 95.6817 139.496 93.7968 127.207 100.818C123.489 102.942 113.918 108.046 112.743 110.664C110.878 114.816 113.169 122.79 109.858 125.858C104.502 130.815 95.5085 126.922 89.5918 130.018C86.3722 131.704 87.914 136.497 85.1129 138.749C82.6543 140.717 79.6895 138.959 77.2145 140.418C74.8484 141.817 75.9994 145.538 73.7479 147.093C71.9313 148.348 57.7296 147.857 54.5734 147.857" stroke="#A1EFFF" stroke-width="4" stroke-linecap="round" stroke-linejoin="round"/>
<path fill-rule="evenodd" clip-rule="evenodd" d="M63.9944 145.582L13.1891 155.357L18.6488 162.517L61.4048 153.735L63.9944 145.582Z" fill="#4BBBFF"/>
<path fill-rule="evenodd" clip-rule="evenodd" d="M13.1895 155.349L0 148.802L6.69404 156.715L18.6485 162.529L13.1895 155.349Z" fill="#1B35F8"/>
<path fill-rule="evenodd" clip-rule="evenodd" d="M0.0335083 148.811L13.223 155.366L63.9885 145.595L48.6066 140.129L0.0335083 148.811Z" fill="#DCDCDC"/>
<path fill-rule="evenodd" clip-rule="evenodd" d="M19.0488 152.665L24.2687 141.867L47.6586 137.722L49.1734 146.692L19.0488 152.665Z" fill="#B0B0B0"/>
<path fill-rule="evenodd" clip-rule="evenodd" d="M19.0488 152.545L10.6813 148.405L17.3347 139.009L24.3085 141.918L19.0488 152.545Z" fill="#FCFCFC"/>
<path fill-rule="evenodd" clip-rule="evenodd" d="M47.9572 123.105C49.5908 122.714 52.7385 121.714 54.0533 120.658C54.9302 119.957 55.4484 118.913 56.2457 118.143C57.1219 117.315 58.2374 116.601 59.3137 116.063C60.2298 115.593 61.0669 115.828 62.0229 115.697C62.7404 115.606 63.5775 115.075 64.1755 114.669C66.0874 113.29 67.084 110.768 69.1561 109.593C70.152 109.018 71.5066 109.166 72.622 108.987C73.8976 108.776 75.2124 108.198 76.3684 107.584C78.5992 106.369 80.5525 104.5 82.2652 102.631C83.0624 101.778 83.5799 101.22 84.417 100.431C85.3339 99.5986 86.6486 98.9331 87.8046 98.6505C88.2424 98.5508 89.5571 98.4512 89.5571 98.4512C89.5571 98.4512 88.4018 99.0769 88.0431 99.5353C87.6053 100.033 87.0871 100.256 86.5689 100.643C86.2101 100.925 85.9709 101.726 86.0507 101.639C86.2905 101.439 86.6486 101.217 86.8878 101.077C87.8438 100.567 88.8403 100.113 89.9159 100.017C90.3145 99.9852 90.7131 99.9218 91.1118 99.8456C91.3908 99.7901 91.7894 99.5908 91.7894 99.5908C91.7894 99.5908 91.5495 100.017 91.1118 100.189C90.5936 100.412 90.1949 100.555 89.7173 100.878C89.1991 101.22 88.7207 101.611 88.2822 102.025C88.2032 102.073 87.9633 102.412 88.0431 102.368C88.1627 102.289 88.3221 102.232 88.4417 102.177C88.8403 102.037 89.1991 101.954 89.5977 101.854C90.9125 101.511 92.1076 101.113 93.3035 100.436C93.7811 100.141 94.2595 99.9296 94.698 99.531C94.8574 99.3837 95.3756 98.6982 95.3756 98.6982C95.3756 98.6982 95.0567 100.384 92.3867 102.264C91.63 102.79 90.5537 103.34 90.5537 103.34C90.5537 103.34 91.5104 103.105 92.586 102.691C93.6622 102.281 95.0567 102.539 96.0127 102.476C96.5309 102.44 97.2876 102.551 97.2079 102.571C94.2993 103.221 90.2348 103.994 88.2424 106.496C86.4101 108.86 84.8156 112.103 82.1854 113.725C80.8315 114.593 79.1573 114.988 77.5237 115.135C76.488 115.23 75.1333 115.155 74.1767 115.601C71.7856 116.729 70.7093 119.534 68.6778 121.072C67.1637 122.188 65.1307 122.028 63.6174 123.069C61.9432 124.248 60.748 126.252 59.3535 127.766C58.6759 128.504 56.803 129.584 56.803 129.584C56.803 129.584 55.2491 128.559 54.4917 127.962C53.0973 126.83 49.5111 124.404 47.997 123.419" fill="#FCFF00"/>
<path d="M42.3595 128.75L38.4167 135.687" stroke="#4B4B4B" stroke-width="3.75" stroke-linecap="round" stroke-linejoin="round"/>
<path fill-rule="evenodd" clip-rule="evenodd" d="M17.335 139.025L24.308 141.946L47.6987 137.726L41.5628 134.781L17.335 139.025Z" fill="#E8E8E8"/>
<path d="M48.7542 123.415C47.7583 125.451 45.805 127.189 42.3384 128.842L47.7975 132.461C51.6235 132.13 54.4523 130.791 56.6042 128.787" stroke="white" stroke-linecap="round" stroke-linejoin="round"/>
<path d="M47.8522 132.385L43.9094 139.322" stroke="#4B4B4B" stroke-width="3.75" stroke-linecap="round" stroke-linejoin="round"/>
</svg>
