<svg id="圖層_1" data-name="圖層 1" xmlns="http://www.w3.org/2000/svg" viewBox="0 0 105.88 99.5">
  <defs>
    <style>
      .cls-1 {
        fill: #fff;
      }

      .cls-2 {
        fill: #4deaff;
      }

      .cls-3 {
        fill: #555;
      }

      .cls-4 {
        fill: #ffad97;
      }

      .cls-5 {
        fill: #48e5c6;
      }

      .cls-6 {
        fill: #33e2d9;
      }
    </style>
  </defs>
  <title>素材元件</title>
  <g>
    <path class="cls-1" d="M69.28,6.2a35.29,35.29,0,0,0-7.2-.8,36.15,36.15,0,0,0-24.8,10.4c-8.4,8.1-12.1,19-10.1,29.8a36.54,36.54,0,0,0,14.1,22c7.6,5.6,16.5,7.9,25.2,6.4,16.6-2.8,29.6-20.7,29.8-34.2a26.91,26.91,0,0,0-.6-6.3C93.18,20.4,82.28,9.1,69.28,6.2Z"/>
    <path class="cls-2" d="M41.18,78.6a5.17,5.17,0,0,1,4.5-.6,5.58,5.58,0,0,1,2.9,4.6c.2,3.5-2.3,5.9-4.5,7.5-1.6,1.2-3.5,2.4-5.2,1.2-.9-.7-1.5-2.1-2.5-2.4-.5-.1-.9,0-1.4-.1-1.4-.4-1.8-3.3-.9-5a5.84,5.84,0,0,1,3.7-2.9,8,8,0,0,0,4-2.4"/>
    <path class="cls-3" d="M36.38,80.6c1.8-.7,4.2-1,5.5.9s.1,4.1-1.3,5.5a10.14,10.14,0,0,1-3.5,2.3c-2.2.7-2.7-.4-4.3-1.4-.4-.2-.7-.3-1.1-.5-.6-.3-1.7-.6-1.9-1.6s.8-2.1,1.6-2.6c1.9-1.3,4.1-1.2,5.9-2.9.8-.7-.4-1.9-1.2-1.2-2.5,2.4-9,2.3-7.8,7.5.4,1.7,1.3,1.9,2.7,2.3,1.9.5,2.7,2.5,4.8,2.4,3.5-.2,8.2-4.1,8.3-7.8.1-4.5-4.5-5.9-8.1-4.5C35,79.4,35.38,81,36.38,80.6Z"/>
    <ellipse class="cls-4" cx="66.98" cy="19.7" rx="6" ry="4.6"/>
    <ellipse class="cls-4" cx="36.08" cy="38.4" rx="6" ry="4.6"/>
    <ellipse class="cls-4" cx="73.48" cy="63.8" rx="6" ry="4.6"/>
    <path class="cls-3" d="M61.38,75.9a35.14,35.14,0,0,1-20.9-7.1,37.78,37.78,0,0,1-14.7-23c-2.2-11.2,1.7-22.6,10.4-31.1,9.2-8.8,21.7-12.6,33.4-9.9,13.5,3.1,24.8,14.8,27.5,28.5a35.73,35.73,0,0,1,.6,6.5c-.1,14-13.7,32.7-30.9,35.6A32.87,32.87,0,0,1,61.38,75.9Zm.7-70.6a36.15,36.15,0,0,0-24.8,10.4c-8.4,8.1-12.1,19-10.1,29.8a36.54,36.54,0,0,0,14.1,22c7.6,5.6,16.5,7.9,25.2,6.4,16.6-2.8,29.6-20.7,29.8-34.2a26.91,26.91,0,0,0-.6-6.3A35.44,35.44,0,0,0,69.28,6.1,35.29,35.29,0,0,0,62.08,5.3Z"/>
    <path class="cls-2" d="M25.28,17A10,10,0,0,1,32,15.8a3.63,3.63,0,0,1,1.7.7c.5.4.8,1.1,1.3,1.5s1.3.8,1.9,1.2c1.2.6,2.7,1.4,3.1,2.7.5,2.2-3.7,5.6-9,4.4a41.3,41.3,0,0,0-12.6-.9c-3.7.1-9.1.6-8.1-2.2s3.7-6,4.7-5.8c1.9.6,3.7,2.2,5.7,2.5a.76.76,0,0,0,.9-.3A30.87,30.87,0,0,1,25.28,17Z"/>
    <path class="cls-2" d="M85.48,70.4c-2.1-.9-2.3-6.9-4.5-6.5-.6.1-1.2,1.4-1.7,1.7s-.8.9-1.3,1.3-3.5,6.2-4.1,6.5c-1.2.6-2.7,1.2-3.1,2.4-.5,1.9,3.7,5,9,3.8a48.2,48.2,0,0,1,12.6-.8c3.7.1,9.1.6,8.1-1.9s-3.7-5.3-4.7-5c-1.9.5-3.7,1.9-5.7,2.2a.9.9,0,0,1-.9-.2C88.08,72.9,86.88,71,85.48,70.4Z"/>
    <path class="cls-3" d="M55.08,62a13,13,0,0,1-13-12.7,13.56,13.56,0,0,1,3.5-9.4,13.07,13.07,0,0,1,9.1-4.1,12.85,12.85,0,0,1,10.9,5.5.9.9,0,0,1-.1,1,.87.87,0,0,1-1-.1,11.16,11.16,0,0,0-9.8-4.8,11.7,11.7,0,0,0-8.1,3.6,11.53,11.53,0,0,0,8.7,19.5,11.4,11.4,0,0,0,10.1-6.6.7.7,0,1,1,1.3.5,12.78,12.78,0,0,1-11.4,7.4C55.28,62,55.18,62,55.08,62Z"/>
    <path class="cls-3" d="M67.58,25.8c-3.5,0-6.4-2.2-6.4-5s2.9-5,6.4-5S74,18,74,20.8,71.08,25.8,67.58,25.8Zm0-9.2c-3.2,0-5.7,1.9-5.7,4.2s2.6,4.2,5.7,4.2,5.7-1.9,5.7-4.2S70.68,16.6,67.58,16.6Z"/>
    <path class="cls-3" d="M36.58,42.3c-3.5,0-6.4-2.2-6.4-5s2.9-5,6.4-5,6.4,2.2,6.4,5S40.18,42.3,36.58,42.3Zm0-9.2c-3.2,0-5.7,1.9-5.7,4.2s2.6,4.2,5.7,4.2,5.7-1.9,5.7-4.2S39.68,33.1,36.58,33.1Z"/>
    <path class="cls-3" d="M72.88,67.7c-3.5,0-6.4-2.2-6.4-5s2.9-5,6.4-5,6.4,2.2,6.4,5S76.38,67.7,72.88,67.7Zm0-9.2c-3.2,0-5.7,1.9-5.7,4.2s2.6,4.2,5.7,4.2,5.7-1.9,5.7-4.2S76.08,58.5,72.88,58.5Z"/>
    <path class="cls-5" d="M65.58,36.3a9.56,9.56,0,1,1,.6,9.7"/>
    <path class="cls-6" d="M62.78,44.6a9.56,9.56,0,1,0-.6,9.7"/>
    <path class="cls-3" d="M74.88,53.7a13.2,13.2,0,0,1-10.8-5.8.75.75,0,0,1,.2-1,.78.78,0,0,1,1,.2A11.6,11.6,0,1,0,74.88,29a11.47,11.47,0,0,0-10.3,6.3.67.67,0,0,1-1.2-.6A13,13,0,0,1,88,40.6,13.14,13.14,0,0,1,74.88,53.7Z"/>
  </g>
</svg>
