<svg id="圖層_1" data-name="圖層 1" xmlns="http://www.w3.org/2000/svg" viewBox="0 0 107.63 99.5">
  <defs>
    <style>
      .cls-1 {
        fill: #fff;
      }

      .cls-2, .cls-5 {
        fill: #555;
      }

      .cls-2 {
        stroke: #555;
        stroke-miterlimit: 10;
        stroke-width: 0.25px;
      }

      .cls-3 {
        fill: #45afff;
      }

      .cls-4 {
        fill: #fff876;
      }

      .cls-6 {
        fill: #b2b2b2;
      }

      .cls-7 {
        fill: #e80000;
      }

      .cls-8 {
        fill: #d1d1d1;
      }

      .cls-9 {
        fill: #4deaff;
      }

      .cls-10 {
        fill: #0eafc9;
      }
    </style>
  </defs>
  <title>素材元件</title>
  <g>
    <path class="cls-1" d="M79.2,42.8c-.1,16.3-12.6,30.9-28.5,33.7C33.3,79.6,16.3,66,13.1,48.5,8.8,25.3,31.4,4.6,53.4,9.7c12.6,2.9,22.8,13.9,25.3,27A40.71,40.71,0,0,1,79.2,42.8Z"/>
    <path class="cls-2" d="M45.7,77.5a32.51,32.51,0,0,1-19.6-6.9A36.77,36.77,0,0,1,12.3,48.5c-2-10.9,1.8-22.3,10.3-30.5S42.7,6.5,53.4,8.9c12.7,3,23.3,14.3,25.8,27.5a26,26,0,0,1,.5,6.2C79.6,59,66.8,74.1,50.6,77A19.4,19.4,0,0,1,45.7,77.5Zm.7-67.9a33.07,33.07,0,0,0-22.8,9.5c-8.1,7.8-11.9,18.7-9.9,29.3A36,36,0,0,0,26.9,69.7a30.32,30.32,0,0,0,23.6,6.2c15.5-2.7,27.8-17.2,27.9-33a30.39,30.39,0,0,0-.5-6C75.5,24.2,65.3,13.3,53.1,10.5A21.68,21.68,0,0,0,46.4,9.6Z"/>
    <path class="cls-3" d="M62.8,58.5,49.1,61.3V50.9a.56.56,0,0,1,.5-.6l12.7-1.8a.73.73,0,0,1,.9.8Z"/>
    <path class="cls-4" d="M67,45s-.8-.1-1.4-.2c-1.8-.5-3.5-1.9-3.5-3.9,0-2.3,2.3-4.1,5.1-4.1s5,1.8,5.1,4.1A3.47,3.47,0,0,1,68.8,45"/>
    <path class="cls-4" d="M35.8,26.5s.8-.1,1.4-.2c1.8-.5,3.5-1.9,3.5-3.9,0-2.3-2.3-4.1-5.1-4.1s-5,1.8-5.1,4.1A3.47,3.47,0,0,0,34,26.5"/>
    <path class="cls-5" d="M35.1,27.9a5.74,5.74,0,0,1-.1-1.2,4.3,4.3,0,0,1-2.6-1.2,4.1,4.1,0,0,1-.9-3.2c.2-2.5,2.5-4.3,5.4-4.3s5.4,2,5.4,4.4c0,2.2-1.9,3.6-3.7,4.2a11.48,11.48,0,0,1-1.4.2,12,12,0,0,0-1.7,1.1S35.1,28.1,35.1,27.9Zm.4-1.8.1,1a11.67,11.67,0,0,0,1.4-.9l.1-.1s.8-.1,1.3-.2c1.7-.4,3.4-1.8,3.4-3.6,0-2.1-2.2-3.9-4.9-3.9A4.66,4.66,0,0,0,32,22.3a3,3,0,0,0,.8,2.7,3.69,3.69,0,0,0,2.5,1.1Z"/>
    <path class="cls-5" d="M68.2,47c-.1.2-.4,0-.4,0-.4-.3-1.5-1-1.7-1.1a11.48,11.48,0,0,1-1.4-.2A4.57,4.57,0,0,1,61,41.5c0-2.5,2.5-4.4,5.4-4.4s5.2,1.9,5.4,4.3a4.22,4.22,0,0,1-.9,3.2,4.55,4.55,0,0,1-2.6,1.2A6.25,6.25,0,0,1,68.2,47Zm-1.8-9.3c-2.7,0-4.9,1.8-4.9,3.9,0,1.9,1.7,3.2,3.4,3.6.5.1,1.3.2,1.3.2l.1.1a12.83,12.83,0,0,1,1.4.9l.1-1h.3a3.69,3.69,0,0,0,2.5-1.1,3.65,3.65,0,0,0,.8-2.7A4.84,4.84,0,0,0,66.4,37.7Z"/>
    <path class="cls-5" d="M24.6,44.7a2.1,2.1,0,0,1-1.1-.4l-6.2-5.7a.73.73,0,0,1-.2-.6.82.82,0,0,1,.5-.5l13.3-3,7.7,6.4a.55.55,0,0,1,.2.5.78.78,0,0,1-.4.4L24.9,44.7Zm6.3-9.5-13,3L24.1,44a1,1,0,0,0,.9.2l13.3-2.9Z"/>
    <path class="cls-6" d="M23.5,42.5l-4.1-3.8c-.2-.2-.1-.3.1-.4l8.7-2,5,4.2c.1.1.1.2-.1.2l-8.9,1.9C24,42.9,23.7,42.8,23.5,42.5Z"/>
    <path class="cls-1" d="M38.8,41.4l-14.1,3V33.2a.56.56,0,0,1,.5-.6l13-2a.85.85,0,0,1,1,.8Z"/>
    <path class="cls-5" d="M24.4,44.8V33.2a.88.88,0,0,1,.8-.9l13-2a1,1,0,0,1,.9.2,1.23,1.23,0,0,1,.4.8l-.4,10.2Zm14-14h0l-13.1,2c-.2,0-.3.2-.3.4V44.1l13.5-2.9.4-9.7a.52.52,0,0,0-.2-.4Q38.55,30.8,38.4,30.8Z"/>
    <path class="cls-5" d="M31.5,38.1a1.6,1.6,0,0,1-.8-.3.75.75,0,0,1-.2-1,1.76,1.76,0,0,1,.9-.8s1.6-.8,2.4-.3c.2.2.4.4.4.6.1.8-1,1.2-1.7,1.4-.2.1-.3.2-.5.2A.55.55,0,0,1,31.5,38.1ZM33.2,36a4.19,4.19,0,0,0-1.6.4c-.3.2-.6.3-.7.6a.56.56,0,0,0,.2.6,1.08,1.08,0,0,0,.8.2c.2-.1.3-.2.5-.2.6-.2,1.5-.5,1.5-1.1,0-.2-.1-.3-.2-.3A.55.55,0,0,0,33.2,36Z"/>
    <path class="cls-7" d="M31.2,38.9h0c-.2-.1-.2-.2-.2-.2l2.1-3.6c.1-.1.2-.2.2-.1s.2.2.1.2l-2.1,3.6C31.4,38.9,31.3,38.9,31.2,38.9Z"/>
    <path class="cls-5" d="M59.8,36.8h-.3L47.1,34.1c-.1-.1-.3-.1-.4-.4-.1-.1,0-.4.1-.5l7.1-5.9H54l12.2,2.8c.2.1.4.2.4.4a.66.66,0,0,1-.1.6l-5.7,5.3A1.43,1.43,0,0,1,59.8,36.8ZM47.2,33.6l12.3,2.7a.78.78,0,0,0,.8-.2L66,30.8,53.9,28Z"/>
    <path class="cls-6" d="M60.8,34.9l3.8-3.5a.25.25,0,0,0-.1-.4l-8.1-1.8-4.6,3.9c-.1.1-.1.2.1.2l8.2,1.8A1.45,1.45,0,0,0,60.8,34.9Z"/>
    <path class="cls-1" d="M46.7,33.7l13.1,2.8V26.2a.56.56,0,0,0-.5-.6l-12-1.8a.77.77,0,0,0-.9.8Z"/>
    <path class="cls-5" d="M60,36.8,46.4,33.9,46,24.5a.91.91,0,0,1,.4-.8.83.83,0,0,1,.8-.2l12,1.8a.85.85,0,0,1,.7.8V36.8ZM46.9,33.5l12.5,2.7V26.1a.54.54,0,0,0-.3-.4l-12-1.8c-.1-.1-.3,0-.4.1s-.1.2-.1.4Z"/>
    <path class="cls-5" d="M51.4,30.1a.68.68,0,0,1-.4-.6.74.74,0,0,1,.4-.9,1.38,1.38,0,0,1,1.1-.1s1.6.3,1.9,1a.85.85,0,0,1,0,.7c-.4.7-1.4.4-2.1.2-.2,0-.3,0-.4-.1A.59.59,0,0,1,51.4,30.1Zm2.4-.7a4.24,4.24,0,0,0-1.4-.6c-.3,0-.6-.1-.8.1a.65.65,0,0,0-.2.5c.1.2.3.5.5.5a.9.9,0,0,1,.5.1c.6.2,1.4.4,1.7,0q.15-.3,0-.3C54,29.5,53.9,29.5,53.8,29.4Z"/>
    <path class="cls-7" d="M50.8,30.6h0a.19.19,0,0,1,0-.3l3.5-1.7c.1,0,.2,0,.2.1s0,.2-.1.2l-3.5,1.7Z"/>
    <path class="cls-5" d="M57,69a1.5,1.5,0,0,1-1.1-.4l-6.2-5.7a.61.61,0,0,1-.1-.6c.1-.2.2-.4.4-.4l13.4-3.3,7.1,6L69,66.3h-.1L57.1,69Zm6.4-9.9L50.2,62.3a.1.1,0,0,0-.1.1l6.2,5.8a1,1,0,0,0,.9.2l11.6-2.7,1.1-1.2Z"/>
    <path class="cls-8" d="M56.5,67.5l-5-4.6a.35.35,0,0,1,.1-.5l11.8-2.6c.1,0,.1,0,.2.1l5.7,5a.25.25,0,0,1-.1.4L57.4,67.9A1.39,1.39,0,0,1,56.5,67.5Z"/>
    <path class="cls-5" d="M49.5,62.5V51.1a1,1,0,0,1,.7-.9l12.9-2a1,1,0,0,1,.9.2.91.91,0,0,1,.4.8L64,59.3ZM63.4,48.7h-.1l-12.9,2a.45.45,0,0,0-.3.4V61.9L63.5,59l.4-9.7c0-.1-.1-.4-.2-.4C63.6,48.7,63.5,48.7,63.4,48.7Z"/>
    <path class="cls-5" d="M34,64.9a.76.76,0,0,1-.4-.1L20.9,61.2c-.1-.1-.3-.1-.4-.4-.1-.1,0-.4.1-.5l7.1-5.2,12.5,3.1c.2.1.4.2.4.4a1.27,1.27,0,0,1-.1.6l-5.7,5.3C34.7,64.8,34.3,64.9,34,64.9ZM21.2,60.8l12.6,3.6a.78.78,0,0,0,.8-.2l5.7-5.3v-.4l-.1.3-12.3-3Z"/>
    <path class="cls-8" d="M34.5,63.6l4.6-4.3c.1-.1.1-.4-.1-.4L28.1,56.4c-.1,0-.1,0-.2.1l-5.4,3.9c-.1.1-.1.3.1.3l11.1,3.1A.88.88,0,0,0,34.5,63.6Z"/>
    <path class="cls-1" d="M27.7,55.7l13,2.8V48.9a.56.56,0,0,0-.5-.6l-11.9-.8a.77.77,0,0,0-.9.8Z"/>
    <path class="cls-5" d="M40.9,58.9,27.4,56l-.3-7.7a.91.91,0,0,1,.4-.8.83.83,0,0,1,.8-.2l11.8.8a.85.85,0,0,1,.7.8l.1,10ZM28,55.5l12.5,2.7V48.9a.54.54,0,0,0-.3-.4l-11.8-.8c-.2,0-.4,0-.4.1s-.1.2-.1.4Z"/>
    <path class="cls-9" d="M28.7,55.3l11,2.4V49.6a.51.51,0,0,0-.4-.5l-10-.7a.64.64,0,0,0-.8.6Z"/>
    <path class="cls-4" d="M39.5,44.6a13.8,13.8,0,0,1,1.4-.1c1.8-.4,3.5-1.5,3.5-3.1,0-1.8-2.3-3.2-5.1-3.2s-5,1.5-5.1,3.2c-.4,3.2,3.5,3.2,3.5,3.2"/>
    <path class="cls-5" d="M38.3,46.3a4.14,4.14,0,0,1-.1-1,4.62,4.62,0,0,1-2.9-1.2,2.2,2.2,0,0,1-.6-2.2c.2-2,2.5-3.4,5.4-3.4S45.5,40,45.5,42c0,1.8-1.9,2.9-3.7,3.3a8.17,8.17,0,0,1-1.4.1l-1.8.9C38.5,46.4,38.3,46.4,38.3,46.3Zm.4-1.4.1.8a14.09,14.09,0,0,1,1.5-.7h.1a13.8,13.8,0,0,1,1.4-.1c1.6-.4,3.3-1.3,3.3-2.8s-2.2-2.9-4.9-2.9-4.7,1.3-4.9,2.9a2.07,2.07,0,0,0,.5,1.8A4.5,4.5,0,0,0,38.5,45h.2Z"/>
    <path class="cls-9" d="M74.4,36.3c.4-1.4,2.1-.7,3.8-2.1a5.59,5.59,0,0,1,3.7-1.3c.9.1,1.3,1.3,2,1.9s1.6.2,2,.4c1,.6.7,2.2,0,3-1,1-2.7-.1-4.1-.1-1.6-.1-3,1.3-4.6,1.3S74,37.8,74.4,36.3Z"/>
    <path class="cls-9" d="M3.8,54.8c.2-2.2,3.5-1.8,5-2.7s3.1-1.8,4.8-1.7,1.5,1.6,5.3,3c1.8.7,2,2.9,0,3.9-1.7.9-3.6-.1-5.5-.1-2.1-.1-3.9,1.7-6.1,1.7C5.4,58.9,3.7,56.8,3.8,54.8Z"/>
    <path class="cls-9" d="M14.2,81.1c-3.3-2.7,1.5-10.6,4.2-13.4s8-3.4,10.3-.2c1.4,2,2.2,5.5,4.6,5.1a4.71,4.71,0,0,0,2.5-1.7,10.89,10.89,0,0,1,10.4-2.3c2.8.9,5.4,3,8.4,2.6,1.5-.2,2.9-1.1,4.3-1.5,1.9-.6,4.1-.2,6,0,5,.6,10.2.9,15.1-.5a18,18,0,0,1,5-1.1c5-.1,9,4.6,14,4.4,1.4-.1,2.9-.5,4,.3,1.3,1,.9,3.2-.1,4.6a8.69,8.69,0,0,1-5.5,3.4c-3.5.6-7-1.2-10.6-1.4-3.1-.1-6.2,1-9.2.7-3.5-.2-7.1-2-10.2-.6-2.3,1-3.7,3.5-5.6,5.1-2.7,2.1-6.3,2.4-9.7,2.6-5.4.3-11.6.4-15.4-3.6-1.2-1.3-2.2-2.9-3.8-3.3a7.11,7.11,0,0,0-3.8.6,28.29,28.29,0,0,1-11.2,1.3A6.18,6.18,0,0,1,14.2,81.1Z"/>
    <path class="cls-10" d="M11.3,78.7c1.9-2.8,3.9-5.5,6.1-8.2,2.1-2.5,4.9-6.6,8.6-4.7,4.1,2.1,5,8.1,10.1,8.7,2.7.3,5.6-.5,8.3-.6a17.32,17.32,0,0,1,5.1.3c1.4.3,2.6,1.1,4.1,1.4,2.5.5,4.5-1,6.8-1.7a15.9,15.9,0,0,1,10.1.8c.7.3,1.1-.9.3-1.3a17.3,17.3,0,0,0-8.4-1.3,18.9,18.9,0,0,0-4.1,1,16,16,0,0,1-2.3,1c-1.8.4-2.7-.1-4.3-.7a18.72,18.72,0,0,0-8.8-.9c-3.7.3-7.5,1.5-10.3-1.7-2.7-2.9-5.4-8.6-10.3-6.9-2.5.9-4.2,3.4-5.8,5.3q-3.3,4-6.3,8.4C9.7,78.8,10.9,79.4,11.3,78.7Z"/>
    <path class="cls-10" d="M80.8,73.4c1.7-.4,3.3.5,4.7,1.3.7.4,1.4-.7.6-1.1-1.8-1-3.6-1.9-5.7-1.4C79.7,72.3,80,73.6,80.8,73.4Z"/>
    <path class="cls-10" d="M89.1,73.1a10.78,10.78,0,0,1,3.4,2.1c.6.5,1.5-.4.9-.9a14.68,14.68,0,0,0-4-2.4C88.6,71.6,88.3,72.8,89.1,73.1Z"/>
    <path class="cls-10" d="M100.4,73.8a2.28,2.28,0,0,1,1.8,3.4c-.4.7.7,1.4,1.1.6a3.49,3.49,0,0,0-2.5-5.3C99.9,72.4,99.6,73.7,100.4,73.8Z"/>
    <path class="cls-10" d="M105.4,75.2c1.1,8-10.8,5.7-15.2,6.3a64.81,64.81,0,0,0-6.3,1.7c-3.8.9-6.4-.2-9.5-2.2a.65.65,0,0,0-.9.2,8.84,8.84,0,0,1-9.6,3.3c-.8-.2-1.1,1-.3,1.3a10.18,10.18,0,0,0,11-3.8,2.92,2.92,0,0,1-.9.2c2.7,1.7,5.4,3.1,8.6,2.7a35.55,35.55,0,0,0,5.6-1.5,24.1,24.1,0,0,1,7.1-.6c5,.2,12.6-1.1,11.6-7.8C106.5,74,105.3,74.4,105.4,75.2Z"/>
  </g>
</svg>
