<svg id="圖層_1" data-name="圖層 1" xmlns="http://www.w3.org/2000/svg" viewBox="0 0 276.79 161">
  <defs>
    <style>
      .cls-1 {
        fill: #c60000;
      }

      .cls-2 {
        fill: #f779ee;
      }
    </style>
  </defs>
  <title>素材元件</title>
  <g>
    <path d="M38.18,43.7c11.4,0,19.4,1.6,25.2,3.9V38.2c-4.9-1.6-12.7-3.2-25-3.2-15.7,0-23.3,3.2-27,6.9-3.4,3.5-5.2,8.1-5.2,14s1.8,10.6,5.2,14c3.8,3.8,11.1,6.9,26.5,6.9,12.3,0,19.9-1.7,24.6-6.4,2.6-2.6,3.9-6.2,3.9-12.4V52.8H32.08v7.8h24.1a5,5,0,0,1-1.4,4.3c-2.5,2.5-8.7,3.3-16.9,3.3-10,0-15.3-1.8-17.7-4.3q-2.7-2.7-2.7-8.1c0-3.6,1-6.3,3-8.3s7.4-3.8,17.7-3.8Z"/>
    <path d="M229.78,36.5H217l-20.4,30.6-20.4-30.6h-13.3l26.7,38.9h13.5Z"/>
    <path class="cls-1" d="M159.48,9.5h-11.1l-72.3,92.4h11.2Z"/>
    <path d="M143.08,42c-3.6-3.7-10.6-7-26-7-14.8,0-22.4,3.3-26.1,7-3.4,3.4-5.2,7.6-5.2,13.9s1.8,10.5,5.2,13.9c3.6,3.7,11,7,26.1,7s22.4-3.3,26-7c3.4-3.4,5.2-7.6,5.2-13.9S146.48,45.4,143.08,42Zm-26,25.9c-9.8,0-14.9-2.1-17.1-4.3-1.7-1.7-2.9-3.9-2.9-8.1s1-6.5,2.8-8.2c2.2-2.3,7.3-4.1,17.2-4.1s14.8,1.8,17.1,4.2c1.8,1.8,2.9,4,2.9,8.2s-1,6.5-2.8,8.2C131.88,66.1,126.88,67.9,117.08,67.9Z"/>
    <path d="M114.08,112c6.8,0,10.8-2.2,10.8-6v-.4c0-3.3-2.6-5-8.5-5.6l-4.9-.5c-1.9-.2-2.7-.6-2.7-1.3V98c0-.8,1.8-1.3,5.1-1.3,4,0,5.7.6,5.7,2v.2h5.2v-.2c0-4.1-3.8-6.4-10.8-6.4-6.7,0-10.6,2.2-10.6,6v.4c0,3.2,2.5,4.9,8,5.5l4.9.5c2.4.2,3.1.6,3.1,1.3v.2c0,1-1.8,1.5-5.3,1.5-4.3,0-6.1-.6-6.1-2v-.2h-5.2v.2C102.88,109.7,107,112,114.08,112Z"/>
    <path d="M145.38,92.7V104a6.06,6.06,0,0,1-5.4,3c-3.4,0-5.2-1.8-5.2-5.1V92.6h-5.5V102c0,6.7,3.5,10.1,9.9,10a9.47,9.47,0,0,0,6.4-2.3l.2,1.8h5.1V92.7Z"/>
    <path d="M183.28,92.2a10,10,0,0,0-7.7,3.3c-1.5-2.2-4.1-3.3-7.7-3.3a9.47,9.47,0,0,0-6.4,2.3l-.2-1.8h-5.1v18.9h5.5V100.3a6,6,0,0,1,5.4-3.1c3.1,0,4.7,1.8,4.7,5v9.3h5.5v-9.3a10.87,10.87,0,0,0-.1-1.8,6,6,0,0,1,5.5-3.2c3.1,0,4.8,1.8,4.8,5v9.3H193v-9.3C193.08,95.7,189.68,92.2,183.28,92.2Z"/>
    <path d="M225.08,92.2a10,10,0,0,0-7.7,3.3c-1.5-2.2-4.1-3.3-7.7-3.3a9.47,9.47,0,0,0-6.4,2.3l-.2-1.8H198v18.9h5.5V100.3a6,6,0,0,1,5.4-3.1c3.1,0,4.7,1.8,4.7,5v9.3h5.5v-9.3a10.87,10.87,0,0,0-.1-1.8,6,6,0,0,1,5.5-3.2c3.1,0,4.8,1.8,4.8,5v9.3h5.5v-9.3C234.78,95.7,231.38,92.2,225.08,92.2Z"/>
    <path d="M242.58,90.5a3.21,3.21,0,1,0-3.4-3.2A3.15,3.15,0,0,0,242.58,90.5Zm-2.7,21.1h5.4V92.7h-5.4Z"/>
    <path d="M267.18,97.5V92.7h-7.8v-5h-5.3v3.6c0,1.1-.3,1.4-1.4,1.4h-5.1v4.8h6.3V105c0,4,2.7,6.5,7,6.5h5.2v-4.8h-4.4a2,2,0,0,1-2.3-2.1V97.4h7.8Z"/>
    <path d="M107.78,153.1h2.8v-9.8h4.8v-2.5h-12.5v2.5h4.8v9.8Z"/>
    <path d="M126.58,150.7c-.6,0-.9-.3-.9-.8v-2.3c0-2.6-1.9-4.2-5.3-4.2-3.2,0-5.3,1.5-5.3,3.7v.1h2.8v-.1c0-.8.9-1.2,2.5-1.2s2.4.5,2.5,1.4l-4.7.5c-2.1.2-3.2,1.2-3.2,2.7,0,1.8,1.6,2.9,4.2,2.9a5.81,5.81,0,0,0,4.1-1.4,2.66,2.66,0,0,0,2.4,1.1h1.6v-2.4Zm-7.1.4c-1.1,0-1.7-.2-1.7-.8s.4-.7,1.2-.8l4-.5v.6A3.89,3.89,0,0,1,119.48,151.1Z"/>
    <path d="M130.28,142.6A1.61,1.61,0,0,0,132,141a1.55,1.55,0,0,0-1.7-1.6,1.6,1.6,0,1,0,0,3.2Zm-1.4,10.5h2.7v-9.4h-2.7Z"/>
    <path d="M140.08,143.4a4.77,4.77,0,0,0-3.2,1.1l-.1-.9h-2.5V153H137v-5.7a3,3,0,0,1,2.7-1.5,2.3,2.3,0,0,1,2.6,2.5V153H145v-4.7C145.08,145.1,143.38,143.4,140.08,143.4Z"/>
    <path d="M158.88,150.7c-.6,0-.9-.3-.9-.8v-2.3c0-2.6-1.9-4.2-5.3-4.2-3.2,0-5.3,1.5-5.3,3.7v.1h2.8v-.1c0-.8.9-1.2,2.5-1.2s2.4.5,2.5,1.4l-4.7.5c-2.1.2-3.2,1.2-3.2,2.7,0,1.8,1.6,2.9,4.2,2.9a5.81,5.81,0,0,0,4.1-1.4,2.66,2.66,0,0,0,2.4,1.1h1.6v-2.4Zm-7.1.4c-1.1,0-1.7-.2-1.7-.8s.4-.7,1.2-.8l4-.5v.6A3.89,3.89,0,0,1,151.78,151.1Z"/>
    <path d="M167,143.4a4.77,4.77,0,0,0-3.2,1.1l-.1-.9h-2.5V153h2.7v-5.7a3,3,0,0,1,2.7-1.5,2.3,2.3,0,0,1,2.6,2.5V153h2.7v-4.7C172,145.1,170.28,143.4,167,143.4Z"/>
    <path d="M174.08,155.8h2.5l1.8-5.1v-.4h-3Z"/>
    <path d="M186,153.1h2.8v-9.8h4.8v-2.5h-12.5v2.5h4.8v9.8Z"/>
    <path d="M204.78,150.7c-.6,0-.9-.3-.9-.8v-2.3c0-2.6-1.9-4.2-5.3-4.2-3.2,0-5.3,1.5-5.3,3.7v.1h2.8v-.1c0-.8.9-1.2,2.5-1.2s2.4.5,2.5,1.4l-4.7.5c-2.1.2-3.2,1.2-3.2,2.7,0,1.8,1.6,2.9,4.2,2.9a5.81,5.81,0,0,0,4.1-1.4,2.66,2.66,0,0,0,2.4,1.1h1.6v-2.4Zm-7.1.4c-1.1,0-1.7-.2-1.7-.8s.4-.7,1.2-.8l4-.5v.6A3.89,3.89,0,0,1,197.68,151.1Z"/>
    <path d="M208.38,142.6a1.61,1.61,0,0,0,1.7-1.6,1.55,1.55,0,0,0-1.7-1.6,1.6,1.6,0,1,0,0,3.2Zm-1.3,10.5h2.7v-9.4h-2.7Z"/>
    <path d="M228.08,143.6l-2.7,7-2.8-7h-2.8l-2.8,6.9-2.6-6.9h-2.9v.4l3.7,9h3.6l2.4-6,2.4,6h3.6l3.7-9v-.4Z"/>
    <path d="M243.38,150.7c-.6,0-.9-.3-.9-.8v-2.3c0-2.6-1.9-4.2-5.3-4.2-3.2,0-5.3,1.5-5.3,3.7v.1h2.8v-.1c0-.8.9-1.2,2.5-1.2s2.4.5,2.5,1.4l-4.7.5c-2.1.2-3.2,1.2-3.2,2.7,0,1.8,1.6,2.9,4.2,2.9a5.81,5.81,0,0,0,4.1-1.4,2.66,2.66,0,0,0,2.4,1.1h1.6v-2.4Zm-7.1.4c-1.1,0-1.7-.2-1.7-.8s.4-.7,1.2-.8l4-.5v.6A3.89,3.89,0,0,1,236.28,151.1Z"/>
    <path d="M251.48,143.4a4.77,4.77,0,0,0-3.2,1.1l-.1-.9h-2.5V153h2.7v-5.7a3,3,0,0,1,2.7-1.5,2.3,2.3,0,0,1,2.6,2.5V153h2.7v-4.7C256.48,145.1,254.78,143.4,251.48,143.4Z"/>
    <path class="cls-2" d="M108.68,130.4l2.1-1.2c2.8-1.6,3.9-2.8,3.9-4.5v-.2c0-2.5-2.2-4-5.9-4-3.9,0-5.9,1.6-5.9,4.6v.4h3.2v-.4c0-1.2,1-1.8,2.7-1.8s2.5.5,2.5,1.4v.2c0,.7-.4,1.1-2.3,2.2l-6.2,3.5v2.6h12.1v-2.7h-6.2Z"/>
    <path class="cls-2" d="M123.58,133.3c4.2,0,6.9-2.3,6.9-5.9v-1.1c0-3.5-2.8-5.9-6.9-5.9s-7,2.4-7,5.9v1.1C116.68,131,119.48,133.3,123.58,133.3Zm0-3.1q-3.6,0-3.6-2.7v-1.2c0-1.8,1.3-2.7,3.6-2.7s3.6,1,3.6,2.7v1.2Q127.18,130.2,123.58,130.2Z"/>
    <path class="cls-2" d="M138.38,130.4l2.1-1.2c2.8-1.6,3.9-2.8,3.9-4.5v-.2c0-2.5-2.2-4-5.9-4-3.9,0-5.9,1.6-5.9,4.6v.4h3.2v-.4c0-1.2,1-1.8,2.7-1.8s2.5.5,2.5,1.4v.2c0,.7-.4,1.1-2.3,2.2l-6.2,3.5v2.6h12.1v-2.7h-6.2Z"/>
    <path class="cls-2" d="M153.18,133.3c4.2,0,6.9-2.3,6.9-5.9v-1.1c0-3.5-2.8-5.9-6.9-5.9s-7,2.4-7,5.9v1.1C146.28,131,149.08,133.3,153.18,133.3Zm0-3.1q-3.6,0-3.6-2.7v-1.2c0-1.8,1.3-2.7,3.6-2.7s3.6,1,3.6,2.7v1.2Q156.78,130.2,153.18,130.2Z"/>
    <path class="cls-2" d="M163.48,133.3a1.82,1.82,0,0,0,1.9-1.8,1.9,1.9,0,1,0-1.9,1.8Z"/>
    <path class="cls-2" d="M172.08,120.7h-3.3c0,.8-.5,1.2-1.8,1.2h-1.8V125h1.9a4.67,4.67,0,0,0,1.7-.3v8.4h3.3V120.7Z"/>
    <path class="cls-2" d="M181.08,130.4l2.1-1.2c2.8-1.6,3.9-2.8,3.9-4.5v-.2c0-2.5-2.2-4-5.9-4-3.9,0-5.9,1.6-5.9,4.6v.4h3.2v-.4c0-1.2,1-1.8,2.7-1.8s2.5.5,2.5,1.4v.2c0,.7-.4,1.1-2.3,2.2l-6.2,3.5v2.6h12.1v-2.7h-6.2Z"/>
    <path class="cls-2" d="M191.38,133.3a1.82,1.82,0,0,0,1.9-1.8,1.9,1.9,0,1,0-1.9,1.8Z"/>
    <path class="cls-2" d="M204.08,125.7l3.7-2.1v-2.9h-12.3v2.9h7.3l-3.5,2.1V128h2.4c2.2,0,3.1.3,3.1,1.1v.2c0,.8-1,1.2-3.1,1.2s-3.2-.5-3.2-1.4V129h-3.3v.1c0,2.8,2.2,4.2,6.4,4.3s6.5-1.3,6.5-3.9v-.2C208.08,127.3,206.68,126.1,204.08,125.7Z"/>
    <rect class="cls-2" x="209.98" y="126.4" width="8.8" height="2.9"/>
    <path class="cls-2" d="M227.78,125.2a7.65,7.65,0,0,0-4,.9v-.3c0-1.6,1.2-2.4,3.5-2.4,1.9,0,3.1.5,3.1,1.4v.1h3.2v-.1c0-2.7-2.3-4.2-6.3-4.2-4.4,0-6.9,2-6.9,5.3v2.5c0,3.1,2.5,5,6.8,5s6.6-1.5,6.6-4.2V129C233.88,126.5,231.68,125.2,227.78,125.2Zm2.8,4c0,.9-1.1,1.3-3.1,1.3q-3.45,0-3.6-1.8a6.3,6.3,0,0,1,3.7-.8c2-.1,3,.3,3,1.3Z"/>
  </g>
</svg>
