<svg id="圖層_1" data-name="圖層 1" xmlns="http://www.w3.org/2000/svg" viewBox="0 0 129.1 88.5">
  <defs>
    <style>
      .cls-1 {
        fill: #4deaff;
      }

      .cls-2 {
        fill: #0eafc9;
      }

      .cls-3 {
        fill: #82f497;
      }

      .cls-4 {
        fill: #555;
      }

      .cls-5 {
        fill: #fff;
      }
    </style>
  </defs>
  <title>素材元件</title>
  <g>
    <path class="cls-1" d="M26.6,52.4s2.1-9.8.5-8.5c-1.4,1.1-6.1,2.6-7.6,3.5-4.6,2.5-10.6-.7-14.7,3.1a3.55,3.55,0,0,0-1.1,1.6c-.5,1.8.6,3.1,1.6,4.1,8.6,8.6,18.1,17.2,29.2,18.5,10.2,1.2,20.9-3.9,30.6.1,1.8.7,3.5,1.8,5.3,2,3.7.5,7.2-2.2,11-2.5,4.5-.4,8.8,2.9,13.3,2.2,6.3-.9,10.2-8.8,16.1-11.4,3.2-1.4,6.7-1.1,9.7-3.2a6.8,6.8,0,0,0,2.6-3.9c.8-3.1-.9-5.1-2.6-6.6-4.8-4.2-16.8-7.9-22.7-6.8,1.8.8-1.7,7.5-3.2,9-8.3,7.9-7.1,2.9-17,4.9-3.5.7-10,4.5-15.7-1.9-2.1-2.4-10.1,5.4-12.8,4.6-7.7-2.3-6.2-5.8-14.1-6.7Z"/>
    <path class="cls-2" d="M96.8,50.5a39,39,0,0,1,13.6-1.4c4.5.2,13.4,1.4,12.7,7.8-.7,6.9-10,5.9-14.5,9.3-3.9,2.9-6.9,8.4-12,9.5-3.2.8-6.3-1.1-9.3-1.8a13.74,13.74,0,0,0-7.5.5c-3.2,1-6.4,2.5-9.7.8-2.4-1.2-4.2-2.5-7.1-2.8-7-.7-14,1.5-21,1.5-7.3.1-13.5-2.8-19.2-7.1A72.2,72.2,0,0,1,14,59c-1.2-1.2-3.8-3.5-4.4-5a3.42,3.42,0,0,1,1.8-4.3,8.87,8.87,0,0,1,3.2-.8c2.6-.2,5.4.3,8-.5,3.1-.9,7.2-7.3,10.4-4.4.6.6,1.6-.4.9-.9-1.8-1.6-3.9-1.4-5.8-.2-1.6,1.1-2.8,2.8-4.5,3.7-2,1.1-4.4,1-6.5,1-2.4,0-5,0-7,1.5C7.8,50.8,7.5,53,9,55.3c2.1,3.1,5.2,5.8,8,8.2a67.09,67.09,0,0,0,9,6.9c7.4,4.6,14.8,5.2,23.3,4.2,4.2-.5,8.6-1.3,12.9-1.1a12.65,12.65,0,0,1,6.5,2.2,8.92,8.92,0,0,0,4.4,1.5c3.1.1,5.9-1.6,8.8-2.2,4.5-1,8,1.6,12.4,1.9,6.2.4,9.9-5.5,14.1-9.1,3.3-2.8,6.9-2.9,10.7-4.4a8.46,8.46,0,0,0,4.9-4.9c2.4-6.2-4.3-9.8-9.4-10.6-5.8-.9-12.5-.8-18.2,1.1C95.6,49.5,96,50.7,96.8,50.5Z"/>
    <path class="cls-3" d="M94,39.7a7.56,7.56,0,0,0-4.8-5.3,9.19,9.19,0,0,0-6.7.5,4.14,4.14,0,0,1-1.9.5,3.38,3.38,0,0,1-1.8-1.2c-1.5-1.8-2.4-4.2-3.7-6.3s-3-4-5.1-4.2a3.91,3.91,0,0,0-3.8,4.7c-2.4-3.5-2.2-8.5-3.8-12.7C61,11.9,61.4,9,58,8a2.13,2.13,0,0,0-1.9.1A3.46,3.46,0,0,0,55,9.6c-4,8.8-3.2,20.3-6.8,29.3-.1-2.2.9-1.7-.3-3.5-.6-.9-2.5-4.6-3.5-4.4a5.59,5.59,0,0,0-3.8,4.5c-.5,2-.6,4.2-1.7,5.8a20,20,0,0,0-5.2-5.6,1,1,0,0,0-1.5.4A31.78,31.78,0,0,0,29,45.2a2.22,2.22,0,0,0,.1,1.6,1.44,1.44,0,0,0,1.1.7c4.8,1.6,10.4.6,14.5,3.9,1.6,1.3,3,3.3,4.9,3.3A7.28,7.28,0,0,0,52,54c2.1-1,4.1-1.9,6.2-2.9a3.86,3.86,0,0,1,3.1-.5,7.94,7.94,0,0,1,2.2,1.9A6,6,0,0,0,70,54c2.2-.9,4.2-3.1,6.5-2.8a13.59,13.59,0,0,1,2.8,1.1c2.5.9,5.3.1,7.6-1.6a27.55,27.55,0,0,0,5.8-6.4,8.27,8.27,0,0,0,1.6-2.9,3.09,3.09,0,0,0-.9-3"/>
    <path class="cls-4" d="M98.7,44.3a9.19,9.19,0,0,0-7.8-6.8c-2.2-.3-3.9.8-6,1-3.9.4-5.4-4.2-6.7-6.9-1.1-2.1-.9-6.5-3.8-6.9-3.4-.5-5.9,4.8-7.7,6.9.5.1.9.1,1.4.2a42.59,42.59,0,0,1-6.4-17.5c-.4-2.7-2.7-7.4-6.2-5.1-1.7,1.1-2.4,4.2-3,6a59,59,0,0,0-1.9,9.3c-.9,6.4-1.5,13-3.8,19.1a11.14,11.14,0,0,0,1.7.2c-.1-3.3-.8-10.2-5.7-9.6S38.5,42.9,36.7,46h1.5a24,24,0,0,0-7-7.2.93.93,0,0,0-1.2.3A32.92,32.92,0,0,0,25.8,50c-.5,3,.6,3.9,3.5,4.7,3.7.9,7.5.7,11.1,2.1C43.5,58,45.6,62,49,62.2s6.6-2.8,9.7-3.9c4.1-1.4,4.2.9,6.8,2.4a7.44,7.44,0,0,0,4.1,1.1,9.36,9.36,0,0,0,3.7-1.1c2.6-1.4,4.2-2.9,7.4-1.6a9.57,9.57,0,0,0,8.1-.2c3.6-1.7,6.1-5,8.4-8.1,1.7-2.2,3.6-5.7.9-7.9-.9-.7-2.1.5-1.2,1.2,3.2,2.7-4.3,10-6.4,11.7s-4.7,2.9-7.4,2.4c-1.5-.3-2.7-1.4-4.2-1.5-3.7-.4-6,3.6-9.7,3.5s-5.1-4.9-8.8-4.3a16.18,16.18,0,0,0-4.1,1.7c-1.8.8-5.6,3.4-7.6,2.9-1.8-.4-3.1-2.4-4.5-3.4a17.84,17.84,0,0,0-4.1-2.2c-3.2-1.1-6.7-1-10-1.7-5.4-1.2-.3-10.3,1.4-13l-1.2.3A22,22,0,0,1,36.7,47a.89.89,0,0,0,1.5,0c1.4-2.4,1.4-4.9,2.2-7.5.2-.5.8-3.1,2.3-3.4,1.7-.4,2.8,1.3,3,1.6,1.1,1.8,1.1,4.1,1.1,6.1a.86.86,0,0,0,1.7.2c3.6-9.5,2.8-20.1,6.1-29.7.5-1.4,1-4.1,3.2-3.7,1.5.3,1.8,1.9,2.1,3.1.4,2,.4,4.1.9,6.1a46.24,46.24,0,0,0,5.8,12.8,1,1,0,0,0,1.4.2c1.2-1.5,2.2-3.1,3.5-4.6.7-.8,2.1-2.7,3.5-.8a5.85,5.85,0,0,1,.4,1.9,26.76,26.76,0,0,0,4.1,8.5c1.6,2.4,3,3.5,5.8,2.5,4.8-1.8,9.9-.8,11.6,4.6A1,1,0,0,0,98.7,44.3Z"/>
    <path class="cls-5" d="M77.5,42.1c-.4-.9-.8-1.8-1.2-2.6a4.2,4.2,0,0,0-.9-1.9c-.1-.1-.3-.2-.4-.1-.5.2-.9.8-1.3,1.2-.7.7-1.4,1.5-2,2.2-.4.4.2,1.1.6.6s1.1-1.2,1.6-1.8c.3-.3.9-1.3,1.4-1.4a.6.6,0,0,0-.4-.1,6,6,0,0,1,.9,2.2,21.4,21.4,0,0,0,1,2.2C77,43.1,77.7,42.7,77.5,42.1Z"/>
    <path class="cls-5" d="M75.3,47.5a14.27,14.27,0,0,0-.8-2.2,7.74,7.74,0,0,0-.7-1.6c-.1-.2-.3-.2-.5-.2a7.5,7.5,0,0,0-2,1,7,7,0,0,0-1.7,1.3c-.4.4.2,1.1.6.6a4.18,4.18,0,0,1,1.5-1.1,6.08,6.08,0,0,1,1.8-.9c-.2-.1-.4-.1-.5-.2a5.63,5.63,0,0,1,.7,1.8c.2.6.4,1.3.6,1.9C74.6,48.3,75.5,48,75.3,47.5Z"/>
    <path class="cls-5" d="M69.5,40.5a9.17,9.17,0,0,0-.9-2.3c-.3-.5-.7-1.5-1.3-1.8s-1,.3-1.4.6l-2.4,1.8a.42.42,0,0,0,.6.6c.5-.4.9-.8,1.4-1.2A5.27,5.27,0,0,1,67,37.1a.6.6,0,0,0-.4-.1,7.31,7.31,0,0,1,1.9,3.7C68.8,41.3,69.7,41,69.5,40.5Z"/>
    <path class="cls-5" d="M68.3,44.6a11.72,11.72,0,0,0-.9-2.4A3.11,3.11,0,0,0,66,40.6c-.5-.2-1.1.2-1.6.5-.9.5-1.9,1-2.9,1.5-.5.2-.1,1,.5.8a11.94,11.94,0,0,1,1.6-.8c.5-.2,1.2-.8,1.6-.8,1.2-.2,1.9,2.2,2.1,3.1C67.6,45.3,68.4,45.1,68.3,44.6Z"/>
    <path class="cls-5" d="M62.8,36.8c-.3-.8-.6-1.5-.9-2.2-.2-.5-.5-1.4-.9-1.5s-.8.2-1.1.4c-.7.5-1.3,1-1.9,1.5a.42.42,0,0,0,.6.6,12,12,0,0,1,1.2-1.1c.2-.2.5-.3.7-.5s.2-.1.2-.2c-.2-.1-.3-.1-.1.1,0,.4.5,1,.6,1.4.2.6.5,1.1.7,1.7S63,37.4,62.8,36.8Z"/>
    <path class="cls-5" d="M60.6,40.4a7.58,7.58,0,0,0-.6-1.6,3.13,3.13,0,0,0-.8-1.1c-.4-.2-.7.1-1,.2A8.28,8.28,0,0,0,56.7,39a.42.42,0,1,0,.6.6,7.05,7.05,0,0,1,.9-.7c.2-.2.6-.5.8-.2a3.51,3.51,0,0,1,.5.8,7.6,7.6,0,0,1,.4,1.1C59.9,41.2,60.7,41,60.6,40.4Z"/>
    <path class="cls-5" d="M57.3,33.3a9.83,9.83,0,0,1-.5-1.6,2.57,2.57,0,0,0-.5-1.2c-.8-.5-1.8.5-2.4,1s.2,1,.6.6c.3-.2.5-.4.8-.6a.76.76,0,0,1,.4-.2c.1,0,.1.2.2.4.2.6.4,1.3.6,1.9C56.6,34,57.4,33.8,57.3,33.3Z"/>
    <path class="cls-5" d="M60,31.7a5.64,5.64,0,0,0-.4-1.2,1.6,1.6,0,0,0-.5-1,.75.75,0,0,0-.8-.1c-.4.2-.7.5-1.1.7a.47.47,0,0,0,.5.8c.2-.1.4-.3.6-.4l.4-.2c-.1-.1-.1-.1-.2-.1.1.1.1.1.1.2a13.14,13.14,0,0,1,.5,1.5A.46.46,0,1,0,60,31.7Z"/>
    <path class="cls-5" d="M65.6,34.7a4.87,4.87,0,0,0-.4-1.1,2.18,2.18,0,0,0-.5-.8c-.6-.5-1.4.4-1.9.7a.47.47,0,0,0,.5.8c.2-.2.4-.3.6-.5s.2-.2.3-.2,0-.2.1.1a6.12,6.12,0,0,1,.5,1.2C64.9,35.4,65.7,35.2,65.6,34.7Z"/>
    <path class="cls-5" d="M71.9,37.3a5,5,0,0,0-.2-1.2,2.22,2.22,0,0,0-.5-1.1c-.6-.6-1.5.5-2,.8a.42.42,0,0,0,.6.6,2.65,2.65,0,0,1,.6-.5l.4-.2c-.1,0-.2,0-.2-.1.1.1.1.1.1.2a4,4,0,0,1,.3,1.5C71.1,37.8,72,37.8,71.9,37.3Z"/>
    <path class="cls-5" d="M82.2,43.6a7.89,7.89,0,0,0-1.4-2.3c-.7-.6-1.5.1-2.1.6a.42.42,0,0,0,.6.6,1.76,1.76,0,0,0,.5-.4.76.76,0,0,1,.4-.2c.1-.1.1-.1-.1-.1l.1.1.3.3a5.48,5.48,0,0,1,.8,1.5C81.5,44.2,82.4,44.1,82.2,43.6Z"/>
    <path class="cls-5" d="M84.1,47.3c-.4-.6-.8-1.1-1.2-1.6s-.9-1.1-1.4-1.2-.6.1-1,.4c-.7.6-1.5,1.2-2.2,1.8a.42.42,0,1,0,.6.6,25.25,25.25,0,0,1,2.5-2.1h-.5a6.65,6.65,0,0,1,2.2,2.5C83.6,48.2,84.4,47.8,84.1,47.3Z"/>
    <path class="cls-5" d="M54.7,37.3c-.2-.5-.5-.9-.7-1.4-.2-.3-.3-.7-.6-.9-.6-.4-1.5.6-1.9,1.1s.2,1.1.6.6l.6-.6c.1-.1.1-.1.2-.1s.2-.1.1-.1-.1-.1-.1,0,.1.1.1.2c.3.6.6,1.1.9,1.7S54.9,37.8,54.7,37.3Z"/>
    <path class="cls-5" d="M57.9,23a7.37,7.37,0,0,0-.4-1.4,2.22,2.22,0,0,0-.5-1.1.61.61,0,0,0-.8.1,9.38,9.38,0,0,0-.9,1.2c-.4.5.3,1.1.6.6a5.55,5.55,0,0,0,.6-.8c.1-.1.2-.2.2-.3s.1-.2-.2-.2a.31.31,0,0,1,.1.2,12.09,12.09,0,0,1,.5,1.8A.41.41,0,1,0,57.9,23Z"/>
    <path class="cls-5" d="M43.8,46.7c0-.6-.1-1.9-.7-2.2-.4-.2-.6,0-.9.2-.4.4-.8.7-1.2,1.1a.42.42,0,0,0,.6.6,2.65,2.65,0,0,1,.6-.5l.5-.5c.1-.1.2-.1.1-.1s.1.3.1.3.1.2.1.4a2.2,2.2,0,0,1,.1.8C42.9,47.2,43.8,47.2,43.8,46.7Z"/>
  </g>
</svg>
