<svg id="圖層_1" data-name="圖層 1" xmlns="http://www.w3.org/2000/svg" viewBox="0 0 428.5 57.98">
  <defs>
    <style>
      .cls-1 {
        fill: #c60000;
      }

      .cls-2 {
        fill: #f8f8f8;
      }
    </style>
  </defs>
  <title>素材元件</title>
  <g>
    <path d="M25.17,22.47c6.2,0,10.54.87,13.69,2.12V19.48a44.1,44.1,0,0,0-13.58-1.73c-8.52,0-12.65,1.73-14.66,3.74A10.41,10.41,0,0,0,7.79,29.1a10.33,10.33,0,0,0,2.83,7.6c2.06,2.07,6,3.75,14.39,3.75,6.68,0,10.81-.92,13.36-3.48,1.41-1.41,2.12-3.36,2.12-6.73V27.41H21.86v4.24H35A2.72,2.72,0,0,1,34.19,34c-1.36,1.35-4.72,1.79-9.18,1.79-5.43,0-8.31-1-9.61-2.34A6,6,0,0,1,13.93,29a6,6,0,0,1,1.63-4.5c1.14-1.09,4-2.07,9.61-2.07Z"/>
    <path d="M129.24,18.56h-7L111.21,35.18,100.13,18.56H92.9l14.51,21.13h7.33Z"/>
    <path class="cls-1" d="M91.06,3.9H85L45.76,54.08h6.08Z"/>
    <path d="M82.15,21.55c-2-2-5.76-3.8-14.12-3.8-8,0-12.17,1.79-14.18,3.8A9.89,9.89,0,0,0,51,29.1a9.9,9.9,0,0,0,2.82,7.55c2,2,6,3.8,14.18,3.8s12.16-1.79,14.12-3.8A9.86,9.86,0,0,0,85,29.1C85,25.68,84,23.39,82.15,21.55ZM68,35.62c-5.32,0-8.09-1.15-9.29-2.34a5.62,5.62,0,0,1-1.57-4.4c0-2.28.54-3.53,1.52-4.45,1.19-1.25,4-2.23,9.34-2.23s8,1,9.29,2.28a5.66,5.66,0,0,1,1.57,4.45c0,2.29-.54,3.53-1.52,4.46C76.07,34.64,73.35,35.62,68,35.62Z"/>
    <g>
      <path d="M162.06,40c6.49,0,10.31-2.1,10.31-5.72v-.39c0-3.15-2.48-4.77-8.11-5.34l-4.68-.48c-1.82-.19-2.58-.57-2.58-1.24v-.19c0-.76,1.72-1.24,4.87-1.24,3.82,0,5.44.57,5.44,1.91v.19h5v-.19c0-3.92-3.62-6.11-10.31-6.11-6.39,0-10.11,2.1-10.11,5.73v.38c0,3.05,2.38,4.68,7.63,5.25l4.68.48c2.29.19,3,.57,3,1.24v.19c0,.95-1.72,1.43-5.06,1.43-4.1,0-5.82-.57-5.82-1.91v-.19h-5V34C151.37,37.79,155.28,40,162.06,40Z"/>
      <path d="M191.94,21.56V32.35a5.76,5.76,0,0,1-5.15,2.86c-3.25,0-5-1.72-5-4.87V21.46h-5.25v9c0,6.39,3.34,9.64,9.45,9.54a9,9,0,0,0,6.11-2.19l.19,1.72h4.87V21.56Z"/>
      <path d="M228.12,21.08a9.6,9.6,0,0,0-7.35,3.15c-1.43-2.1-3.91-3.15-7.35-3.15a9,9,0,0,0-6.11,2.2l-.19-1.72h-4.87v18h5.25V28.82a5.68,5.68,0,0,1,5.16-3c3,0,4.48,1.71,4.48,4.77v8.88h5.25V30.63a11,11,0,0,0-.09-1.72,5.72,5.72,0,0,1,5.25-3.05c3,0,4.58,1.71,4.58,4.77v8.88h5.25V30.63C237.48,24.42,234.23,21.08,228.12,21.08Z"/>
      <path d="M268,21.08a9.57,9.57,0,0,0-7.35,3.15c-1.43-2.1-3.92-3.15-7.35-3.15a9,9,0,0,0-6.11,2.2L247,21.56h-4.87v18h5.25V28.82a5.65,5.65,0,0,1,5.15-3c3,0,4.49,1.71,4.49,4.77v8.88h5.25V30.63a9.93,9.93,0,0,0-.1-1.72,5.73,5.73,0,0,1,5.26-3.05c3,0,4.58,1.71,4.58,4.77v8.88h5.25V30.63C277.29,24.42,274,21.08,268,21.08Z"/>
      <path d="M284.73,19.46a3.06,3.06,0,1,0-3.24-3.06A3,3,0,0,0,284.73,19.46ZM282.16,39.6h5.15v-18h-5.15Z"/>
      <path d="M308.22,26.14V21.56h-7.45V16.79h-5.06v3.43c0,1.05-.28,1.34-1.33,1.34h-4.87v4.58h6V33.3c0,3.82,2.58,6.21,6.69,6.21h5V34.93H303a1.92,1.92,0,0,1-2.2-2V26.05h7.45Z"/>
    </g>
    <g>
      <path class="cls-2" d="M339.57,34.94l3.31-1.89c4.42-2.53,6.16-4.42,6.16-7.11v-.31c0-3.95-3.48-6.32-9.32-6.32-6.15,0-9.31,2.53-9.31,7.27v.63h5v-.63c0-1.9,1.58-2.85,4.26-2.85,2.53,0,3.95.79,3.95,2.21v.32c0,1.1-.63,1.74-3.63,3.47l-9.79,5.53v4.1h19.1V35.1h-9.78Z"/>
      <path class="cls-2" d="M363.09,39.52c6.63,0,10.89-3.63,10.89-9.31V28.47c0-5.53-4.42-9.31-10.89-9.31s-11,3.78-11,9.31v1.74C352.2,35.89,356.62,39.52,363.09,39.52Zm0-4.89q-5.68,0-5.69-4.27V28.47c0-2.84,2.06-4.26,5.69-4.26s5.68,1.58,5.68,4.26v1.89Q368.77,34.64,363.09,34.63Z"/>
      <path class="cls-2" d="M386.45,34.94l3.32-1.89c4.42-2.53,6.15-4.42,6.15-7.11v-.31c0-3.95-3.47-6.32-9.31-6.32-6.16,0-9.32,2.53-9.32,7.27v.63h5.06v-.63c0-1.9,1.57-2.85,4.26-2.85,2.52,0,3.94.79,3.94,2.21v.32c0,1.1-.63,1.74-3.63,3.47l-9.78,5.53v4.1h19.1V35.1h-9.79Z"/>
      <path class="cls-2" d="M409.81,39.52c6.63,0,10.9-3.63,10.9-9.31V28.47c0-5.53-4.42-9.31-10.9-9.31s-11.05,3.78-11.05,9.31v1.74C398.92,35.89,403.34,39.52,409.81,39.52Zm0-4.89q-5.69,0-5.68-4.27V28.47c0-2.84,2.05-4.26,5.68-4.26s5.69,1.58,5.69,4.26v1.89Q415.5,34.64,409.81,34.63Z"/>
    </g>
  </g>
</svg>
