<svg width="16" height="16" viewBox="0 0 16 16" fill="none" xmlns="http://www.w3.org/2000/svg">
<path d="M16 8C16 3.58125 12.4187 0 8 0C3.58125 0 0 3.58125 0 8C0 12.4187 3.58125 16 8 16C8.04688 16 8.09375 16 8.14062 15.9969V9.77188H6.42188V7.76875H8.14062V6.29375C8.14062 4.58437 9.18438 3.65313 10.7094 3.65313C11.4406 3.65313 12.0688 3.70625 12.25 3.73125V5.51875H11.2C10.3719 5.51875 10.2094 5.9125 10.2094 6.49062V7.76562H12.1938L11.9344 9.76875H10.2094V15.6906C13.5531 14.7312 16 11.6531 16 8Z" fill="white"/>
</svg>
