<svg width="123" height="50" viewBox="0 0 123 50" fill="none" xmlns="http://www.w3.org/2000/svg">
<path d="M106.662 16.0445C110.369 16.6552 114.182 17.3676 117.466 19.3013C120.644 21.235 123.292 24.5936 122.974 28.1556C122.55 33.6514 115.983 36.9082 110.263 36.9082C108.992 36.9082 107.615 36.8064 106.344 37.2135C104.755 37.8242 103.696 39.249 102.637 40.4703C97.8699 46.2714 90.4552 50.953 82.8286 49.8335C79.1213 49.3246 75.7317 47.4927 72.5539 45.6607C70.6473 44.643 68.7407 43.5235 67.1518 42.2004C64.6096 40.0632 62.597 37.2135 59.7371 35.5851C57.7245 34.5674 55.5001 34.1603 53.3816 33.2443C51.2631 32.3284 49.3564 30.7 49.2505 28.461C49.1446 25.8148 51.7927 23.7794 54.4408 22.9652C62.7029 20.6244 69.5881 15.1286 77.9561 14.1108C87.0656 12.9913 97.4462 14.5179 106.662 16.0445Z" fill="#64DDDA"/>
<path d="M98.6819 17.1563C95.7378 6.55223 85.6435 -1.09497 74.0771 0.128584C68.8196 0.74036 63.6673 2.98354 59.9871 6.75615C56.0966 10.6307 53.6782 17.4622 48.4207 19.9093C42.2169 22.7643 36.0131 16.1367 29.599 18.9917C26.2343 20.4191 23.6056 24.0898 25.8137 27.5565C28.5476 31.9409 37.4852 34.1841 42.2169 35.8155C48.5259 37.8548 55.3605 39.0783 61.8798 37.5489C69.4505 35.8155 74.8131 28.882 82.5941 28.0663C88.4825 27.4546 95.212 27.9644 97.315 21.2348C98.051 18.8897 94.2657 17.8701 93.5296 20.2152C92.0575 25.0075 85.7486 23.7839 82.0684 24.1918C79.65 24.4976 77.4418 25.1094 75.3389 26.129C69.5557 28.984 65.3497 33.2664 58.515 34.0821C51.0494 34.9998 43.4787 32.3488 36.7492 29.4938C35.3822 28.882 32.9617 27.6564 31.702 27.1487C28.5086 25.8619 29.4276 22.4451 33.9102 22.0505C35.9585 21.8701 40.5345 23.9878 43.689 24.2937C53.4679 25.4153 56.8326 15.5249 62.3004 9.917C72.8153 -0.993004 91.0061 3.9012 94.8966 18.074C95.5275 20.5211 99.3128 19.5015 98.6819 17.1563Z" fill="#0EAFC9"/>
<path d="M4.50213 12.7879C6.50993 9.29249 11.8704 9.32521 13.0413 13.5882C13.7953 16.4101 11.3935 17.1045 9.21276 17.3393C7.45219 17.5151 3.11365 16.6248 4.93983 13.869C5.46175 13.0102 4.26358 12.1073 3.74166 12.9661C2.27656 15.2428 3.81068 18.0265 6.32955 18.6725C8.78825 19.3984 13.5699 18.8697 14.536 16.0919C15.5022 13.314 13.5687 10.2293 11.1308 9.14344C8.31315 7.8967 4.92989 9.22874 3.44401 11.8654C2.78203 12.7438 3.98021 13.6467 4.50213 12.7879Z" fill="#4FCDCA"/>
</svg>
