<svg id="圖層_1" data-name="圖層 1" xmlns="http://www.w3.org/2000/svg" viewBox="0 0 382.83 186.92">
  <defs>
    <style>
      .cls-1 {
        fill: #50bc83;
      }

      .cls-2 {
        fill: #82f497;
      }

      .cls-3 {
        fill: #64ddda;
      }

      .cls-4 {
        fill: #88e591;
      }

      .cls-5 {
        fill: #4deaff;
      }

      .cls-6 {
        fill: #fff;
      }

      .cls-7 {
        fill: #555;
      }
    </style>
  </defs>
  <title>素材元件</title>
  <g>
    <path class="cls-1" d="M75.28,70.22c-6.1-7.3,18.7-40,42.8-52,3.1-1.5,15-11.6,18.8-11.6a15.28,15.28,0,0,1,11.8,5.9c8.4,10.5,16.4,24.4,24.4,35.1a7.22,7.22,0,0,0,4.2,3.1c2.8.8,6.1-.3,8.5-1.5,5.7-2.9,10-6.9,15.7-9.8s13.8-4.6,19.8-2c6.7,2.9,8.4,9.8,15.8,11.7,2.6.7,5.6.5,8.4.3,14.1-1.2,30.7-3.9,40.9,2.9,2.9,1.9,4.9,4.5,8.2,6.2,7.2,3.6,17.1,1.4,25.7-.1s20.3-.8,23,5c1.9,4-2.1,8.5-7.4,10.5s-11.7,2.3-17.9,2.5c-24.7.9-49.5,8.1-74.3,8.9-11.7.4-23.3.8-35,.7C167.38,85.82,90.58,88.62,75.28,70.22Z"/>
    <path class="cls-2" d="M18,117.72c-8.1-1.9,8.7-23.9,17.8-51.2,5.1-15.3,17-49,34.9-53.8s24.1,14.8,34.2,25.9c31.9,34.9,48.6,77,29.4,80-4.8.7-47.4-7.1-66.5-6.7C44.38,112.42,23.68,119,18,117.72Z"/>
    <path class="cls-3" d="M113.28,106.92c-2.9-5,16.1-19.1,25.1-33.6,11.3-18.3,32-50.2,36-49.7,4.4.5,16.9,22.6,18.6,24.1a155.38,155.38,0,0,1,34.6,40.8c1.6,2.8,3.1,6.3.5,8.8-1.5,1.5-3.9,2.2-6.3,2.9-12.5,3.8-25.1,13.4-38.7,14.7-21.1,1.9-42.9,7.7-63.3,3.3"/>
    <path class="cls-4" d="M219.28,108c-2.1-11.4,2.2-23.2,12-32.5,5.5-5.3,13.5-10,22.9-10.5s18.3,3.2,26,7.1c8.2,4.1,16.4,8.4,22.5,14s10.1,12.5,9.1,19.4a3.19,3.19,0,0,1-1,2.1,7.54,7.54,0,0,1-3.5.9c-12.7,1.1-25.5,2.2-38.3,1.6s-25.7-2.8-36.1-7.9"/>
    <path class="cls-1" d="M55,72.62c2.2-3.3,6.5-4.5,10.9-5,7.2-.8,13.4,3.5,18,7.4a486.11,486.11,0,0,1,38.9,36.6c3.6-8.1,11-15.5,20.7-20.7,3.8-2,8.8-3.8,13.2-2.5a14.35,14.35,0,0,1,5.9,3.8c6.6,6.2,13.2,12.3,19.8,18.5,1.5-9.7,18.8-13.9,32.9-13.6s29.4,2.6,41.5-2.4c4.8-1.9,9.7-5.1,15-4.1s7.4,5.2,9.6,8.7,7.7,7.1,12.5,5.2c3.2-1.2,3.8-4.2,6.2-6.1,4-3.1,11.1-2.5,17-1.5,11.7,1.8,21.6,2.3,28.1,10,2.7,3.2,11.5,8.5,7.4,12.5-1.6,1.6-11.1,1-13.4,7.1-4.7,12.7-58.7-7.4-84.9,5-6.8,3.2-15-1.7-22.6-2.7-16.3-2.2-32.7,1.5-48.8,4.1s-33.4,19.3-47.3,13.2c-3.5-1.5-6.5-3.5-10.3-4.6-7.5-2.3-16.3-1-24.3.3-22,3.6-44.7-8.2-66.7-4.6-6.1,1-12.4,2-18.5,1.2s-12.1-3.9-12.8-8.2c-.6-3.8,2.9-7.3,6.2-10.4C15.58,114.22,32.18,107.12,55,72.62Z"/>
    <path class="cls-5" d="M39.68,130.92c6.9,2.9,14.3,5.7,21.8,4.7,4.1-.5,7.9-2.2,11.8-3.5a83,83,0,0,1,45.8-2.2c7.2,1.7,14.3,4.5,21.8,4.7,5.4.2,10.9-1,16.3-.2s11,4.7,11.1,10.1c.2,5.9-5.9,10.2-11.8,10.7-2.7.2-5.5-.2-8,.5-3.7,1.1-6.3,4.2-9.5,6.2-15.5,9.8-37.6-7.9-53.6,1.2-4.6,2.6-7.8,7.1-12.1,10.3-9.6,7-24.4,5.5-32.3-3.4-1.5-1.7-2.9-3.7-5.1-4.6-3.7-1.4-7.5,1.1-11.4,1.6-12.8,1.9-25.9-18.5-23.1-30.2C5.28,119.52,28.78,126.42,39.68,130.92Z"/>
    <path class="cls-5" d="M232.08,126.32c2.1-.4,4.6-1,6.3.3,2.3,1.7,1.6,5.4-.2,7.7-3.5,4.7-9.7,6.5-15.5,6.5s-11.5-1.6-17.2-2.6-11.8-1.3-17.1,1.1c-2.1.9-4.3,2.4-6.6,1.9a8.21,8.21,0,0,1-3.9-2.5c-2.2-2.1-4.5-4.2-6.8-6.3-10.3-9.6,17.3-8.8,22.4-9.8C207.08,120.12,219.08,128.32,232.08,126.32Z"/>
    <path class="cls-5" d="M303.48,139.52a4.22,4.22,0,0,1-3.9,2.4,8.23,8.23,0,0,1-4.5-1.4c-1.6-.9-3.2-2.4-3.1-4.1.2-2.5,3.5-3.1,5.9-2.5C301.38,134.72,304.18,137.92,303.48,139.52Z"/>
    <path class="cls-6" d="M67.18,73.42c-7.4,5.4-13.1,12.6-18.1,20.2-1.4,2.1-15.5,24.4-16.5,23.8-1.2-.8-2.3,1.1-1.1,1.9,2.8,1.9,6.3-4.7,7.6-6.5,3.1-4.2,5.8-8.7,8.7-13,5.8-9,11.9-18,20.6-24.4C69.38,74.52,68.28,72.62,67.18,73.42Z"/>
    <path class="cls-6" d="M74.18,75.12a57.72,57.72,0,0,0-8.5,21.8c-.2,1.4,1.9,2,2.1.6a54.69,54.69,0,0,1,8.4-21.3C76.88,75.12,75,73.92,74.18,75.12Z"/>
    <path class="cls-6" d="M79.28,76.22c-.3,5.2-.5,10.5-.8,15.8-.1,1.2,1.9,1.5,2.2.3a15.26,15.26,0,0,1,5.9-9.5c-.5-.2-1.1-.4-1.6-.6.9,4.1,1.8,8.2,2.6,12.4.2,1.2,2.2.9,2.2-.3-.2-2.4,2.8-3.1,4.5-2.2a9.33,9.33,0,0,1,3.3,3.8c1.6,2.7,3,5.5,4.5,8.2.6,1.2,2.6.1,1.9-1.1-1.5-2.9-3-5.8-4.7-8.7a9.76,9.76,0,0,0-4.8-4.6c-3.1-1.1-7.2.9-6.9,4.5l2.2-.3c-.9-4.1-1.8-8.2-2.6-12.4-.1-.6-1.1-1.1-1.6-.6a17,17,0,0,0-7,10.8l2.2.3c.3-5.2.5-10.5.8-15.8A1.15,1.15,0,0,0,79.28,76.22Z"/>
    <path class="cls-6" d="M47.88,54.92A55.07,55.07,0,0,1,54,43.42c2.4-3.4,6.4-9.1,11.2-7.9,3.7.9,5.1,5.4,6.4,8.4a65.39,65.39,0,0,0,5.7,10.4,1.12,1.12,0,0,0,1.9,0c2-3.6,5.7-8.3,9.6-4.1,1.7,1.8,2.9,3.8,5.4,4.7a1.13,1.13,0,0,0,1.1-.3,8.14,8.14,0,0,0,1.5-3.1c.4-1.2.3-2.4,2.1-2.6,1.2-.1,2.9,1.2,3.8,1.9a30.71,30.71,0,0,1,7.7,9.5c.6,1.2,2.6.1,1.9-1.1-2.3-4.4-5.7-9-10.1-11.4-1.5-.8-3.4-1.4-5.1-.7s-1.9,2.4-2.5,3.9-.9,1.5-2,.4c-.7-.7-1.3-1.6-2-2.4a7,7,0,0,0-4.1-2.6c-4.3-.7-7.4,3.7-9.2,6.9h1.9c-3.1-4.4-4.9-9.3-7.4-14-1.6-3.2-4.3-6.1-8.2-5.9-4.4.1-7.8,4-10.3,7.2a57.29,57.29,0,0,0-7.7,13.9C45.18,55.72,47.38,56.22,47.88,54.92Z"/>
    <path class="cls-6" d="M113.88,48.12c2.6,1.6,5.4,3.4,8,5,1.2.8,2.3-1.2,1.1-1.9-2.6-1.6-5.4-3.4-8-5C113.78,45.42,112.68,47.32,113.88,48.12Z"/>
    <path class="cls-6" d="M134.28,115.62a32.78,32.78,0,0,1,9.4-12.1c3.1-2.5,5.9.9,8.2,3.1a36.87,36.87,0,0,1,5.2,6.6c.5.7,1.9.7,2-.2.2-1.2-.7-2.4-1.5-3.5a51.06,51.06,0,0,0-5.5-5.7c-1.8-1.6-4.2-4.1-6.9-3.5s-5.3,3.7-7,5.6a35.31,35.31,0,0,0-5.7,8.7C131.88,115.82,133.78,116.92,134.28,115.62Z"/>
    <path class="cls-6" d="M162.28,102.92c-1.4-1.2-4.8-3.7-5.5-3.5-2.9.9,1.9,3.2,2.3,3.6.8.6,1.5,1.4,2.2,2,1.5,1.4,3,2.7,4.5,4.1,1.1.9,2.6-.6,1.6-1.6C165.58,105.92,164,104.42,162.28,102.92Z"/>
    <path class="cls-6" d="M162.28,99.32c2.6,1.9,5.2,3.9,7.8,5.9,1.1.8,2.2-1.1,1.1-1.9-2.6-1.9-5.2-3.9-7.8-5.9C162.28,96.52,161.18,98.42,162.28,99.32Z"/>
    <path class="cls-6" d="M206.18,109.62c4-2,9.2-4.5,13.5-1.9,2.2,1.4,3.4,5.4,6.5,4.9,1.5-.2,2.4-1.6,3.7-2.3,2.1-1.1,4.5-.7,6.7-.2,2.9.6,6.4,2.8,9.4,1.2a9.12,9.12,0,0,0,2.4-2.4c1.9-2.4,3.2-2.9,6.2-2.4,2.5.4,5.3.9,7.4-.9s2.4-4.5,3.3-6.9c.8-2.2,2.4-4.2,5.1-2.9,2.5,1.2,3.2,4.4,3.8,6.8a1.09,1.09,0,0,0,2.1-.6c-.9-3.4-2.1-7.4-5.8-8.6-2.9-1-5.5.5-6.7,3.2-1.6,3.4-1.4,8.5-6.6,8-3.2-.3-6.3-1.5-9,1-2.1,1.9-2.4,4.3-5.9,3.8-2-.3-4-1.3-6-1.7a11.79,11.79,0,0,0-5.6-.1c-1.6.4-2.6,1.8-3.9,2.2-2.4.8-3.4-2.2-4.9-3.5a9.06,9.06,0,0,0-5-1.9c-4.2-.5-8,1.4-11.7,3.2A1.12,1.12,0,1,0,206.18,109.62Z"/>
    <path class="cls-6" d="M296,110.22c1.2.7,2.4,1.4,3.5,2.1s2.4-1.2,1.1-1.9-2.4-1.4-3.5-2.1S294.88,109.42,296,110.22Z"/>
    <path class="cls-6" d="M316.48,104c1.7.8,3.4,1.5,5.1,2.3,1.3.6,2.4-1.4,1.1-1.9-1.7-.8-3.4-1.5-5.1-2.3C316.38,101.52,315.18,103.42,316.48,104Z"/>
    <path class="cls-6" d="M157.38,60.22c2.6-4.2,5.2-8.5,7.9-12.8a14.15,14.15,0,0,1,1.8-2.9c.2-1.1.7-1.3,1.4-.5.2.4.5.7.7,1.1,1,1.6,1.6,3.4,2.6,5.1,1.1,2,3.2,5.3,6,4.2,1.9-.7,1.8-2.8,4.2-3.1,3-.3,5,2.9,6.4,5,.8,1.2,2.7.1,1.9-1.1-2.1-3.2-4.9-6.8-9.2-6-1.8.4-2.6,2.2-4.4,2.3s-2.4-1.4-3.2-2.9a38.37,38.37,0,0,0-1.8-3.5c-1.2-2.4-3.5-6-5.9-2.7-3.8,5.2-6.9,11.2-10.3,16.7C154.68,60.32,156.58,61.42,157.38,60.22Z"/>
    <path class="cls-6" d="M196.68,56l3.4,2.8c1.1.9,2.6-.6,1.6-1.6l-3.4-2.8C197.18,53.52,195.58,55,196.68,56Z"/>
    <path class="cls-7" d="M9.48,134.82q14.7-27.9,30.4-55.4c5.2-9.1,10.4-18.1,15.8-27,2.5-4.1,4.8-9,8.4-12.2s9.5-4.3,12.5.2,3.2,12.9,9.8,14.2c.4.1,1.1-.1,1.2-.5,3.8-8.6,9.4-17,16.7-22.9,4.3-3.5,9.3-4.8,14.1-1.4,4.1,2.9,6.9,7.7,9.2,12.1,7.6,14.7,11.5,34.3,28.7,40.9a1,1,0,0,0,1.2-.5c2.7-4.7,5.6-9.7,10.4-12.6,5.1-3,11-2.5,14.7,2.2,2.5,3.2,4.8,4.3,8.6,2.3a11.29,11.29,0,0,1,8.8-1.1,32.18,32.18,0,0,1,8.4,4.4,1.13,1.13,0,0,0,1.5-.4c5.8-10.4,17-21.8,29.9-16.2,5.6,2.4,10,6.9,15,10.3a56.76,56.76,0,0,0,15.7,7.5,60.32,60.32,0,0,0,34.7.5,31.39,31.39,0,0,1,8-1.5c3.9-.1,6,1.6,7.9,4.9a13,13,0,0,0,10,6.7c5.6.8,11-.9,16.3-2.6,6.4-2.1,14.5-4.6,20.4.1,1.1.9,2.6-.7,1.6-1.6-9.5-7.6-21.1.2-31.3,1.8a18.69,18.69,0,0,1-8.8-.3c-3.7-1.1-5.1-3.6-7-6.6-2.6-4.2-7.1-4.9-11.7-4.2-6.4.9-12.4,3.2-19,3.5a61.75,61.75,0,0,1-20-2.5,57.62,57.62,0,0,1-17.5-8.8c-5.1-3.7-9.8-8.3-16-10-13.1-3.7-24.1,7.7-30,18.1a8.33,8.33,0,0,0,1.5-.4c-4.5-2.9-10.1-6.4-15.7-4.9a13,13,0,0,0-3.2,1.4c-1.1.6-2.8,1.2-4,.8a5.46,5.46,0,0,1-1.8-1.9c-1.5-1.8-2.8-3.5-5-4.4-11-4.8-19.3,6.5-24,14.7a6.12,6.12,0,0,1,1.2-.5c-20.1-7.6-20.8-33.6-32.9-48.5-2.6-3.2-6.1-6.1-10.4-6.7-3.8-.4-7.2,1.2-10.2,3.5-7.8,6.1-13.8,15-17.8,23.9a6.12,6.12,0,0,1,1.2-.5c-6.1-1.2-5.9-10.9-9.8-14.8-5.9-6-14.1-.7-18,4.7-6.4,9-11.5,19-17,28.5-5.6,9.7-11.1,19.4-16.5,29.2-6.2,11.1-12.2,22.3-18.1,33.6C6.88,134.92,8.88,136,9.48,134.82Z"/>
  </g>
</svg>
