<svg width="350" height="55" viewBox="0 0 350 55" fill="none" xmlns="http://www.w3.org/2000/svg">
<path fill-rule="evenodd" clip-rule="evenodd" d="M24.3191 21.4127C29.5204 21.4127 33.21 22.1604 35.8594 23.2007V18.9096C33.6164 18.1945 30.073 17.4468 24.4329 17.4468C17.2324 17.4468 13.7866 18.9096 12.0799 20.6C10.5033 22.1929 9.69058 24.3059 9.69058 27.0041C9.69058 29.7022 10.5033 31.8477 12.0799 33.4081C13.8191 35.1635 17.1674 36.5614 24.2053 36.5614C29.8292 36.5614 33.2913 35.7812 35.4368 33.6357C36.6071 32.4654 37.2247 30.8075 37.2247 27.9468V25.5737H21.5397V29.1496H32.5436C32.5761 29.5722 32.5761 30.5149 31.926 31.1326C30.7882 32.2703 27.96 32.6604 24.2053 32.6604C19.6217 32.6604 17.2324 31.8152 16.1109 30.71C15.2982 29.8648 14.8593 28.662 14.8593 27.0041C14.8593 25.3787 15.3144 24.1109 16.2084 23.2007C17.1836 22.2254 19.6055 21.4127 24.3191 21.4127C24.3191 21.4127 19.6055 21.4127 24.3191 21.4127Z" fill="black"/>
<path fill-rule="evenodd" clip-rule="evenodd" d="M111.895 18.1295H106.06L96.7141 32.1078L87.3843 18.1295H81.2891L93.4958 35.9112H99.6885L111.895 18.1295Z" fill="black"/>
<path d="M79.7613 5.80899H74.69L41.6295 48.0366H46.7658L79.7613 5.80899Z" fill="#C60000"/>
<path fill-rule="evenodd" clip-rule="evenodd" d="M72.2682 20.665C70.6103 18.9746 67.4083 17.4468 60.3703 17.4468C53.5924 17.4468 50.1466 18.9421 48.4562 20.665C46.9121 22.2254 46.0831 24.1434 46.0831 27.0366C46.0831 29.9298 46.9121 31.8152 48.4562 33.3756C50.1141 35.066 53.4624 36.5939 60.3703 36.5939C67.2782 36.5939 70.594 35.066 72.2682 33.3756C73.8123 31.8152 74.6413 29.8973 74.6413 27.0041C74.6413 24.1109 73.8123 22.1929 72.2682 20.665ZM60.3703 32.4979C55.868 32.4979 53.5437 31.5552 52.5359 30.5474C51.7557 29.7672 51.2031 28.7595 51.2031 26.8415C51.2031 24.9236 51.6745 23.8833 52.5034 23.0706C53.5274 22.0304 55.8517 21.2177 60.3541 21.2177C64.8564 21.2177 67.1157 22.0629 68.156 23.1356C68.9849 23.9808 69.4888 24.9561 69.4888 26.874C69.4888 28.792 69.0174 29.8322 68.1885 30.6449C67.1482 31.6852 64.8727 32.4979 60.3703 32.4979Z" fill="black"/>
<path d="M220.659 38.5292C219.666 38.8431 218.803 39.4707 218.07 40.1507C217.757 40.4384 217.39 40.8568 217.547 41.3014C217.678 41.7198 218.227 41.8768 218.672 41.9814C219.273 42.1383 219.901 42.2691 220.503 42.426C221.104 42.5567 221.732 42.7136 222.307 42.5567C223.066 42.3475 223.589 41.6675 223.772 40.9614C223.955 40.2553 224.373 39.523 223.745 38.7908C223.301 38.3723 222.438 38.3462 221.836 38.3462C221.444 38.3462 221.052 38.4246 220.659 38.5292Z" fill="#64DDDA"/>
<path fill-rule="evenodd" clip-rule="evenodd" d="M221.706 39.1307C221.732 39.1046 221.758 39.1046 221.784 39.1046C223.222 38.66 225.341 38.6861 224.818 40.9353C224.478 42.5567 223.772 43.969 222.046 43.6028C221.549 43.4982 221.026 43.3413 220.529 43.1844C220.44 43.1582 220.348 43.1352 220.255 43.112C219.883 43.0191 219.498 42.9229 219.247 42.609C218.149 41.2229 220.686 39.6015 221.653 39.1569C221.653 39.1569 221.679 39.1307 221.706 39.1307ZM221.732 42.8444C222.856 43.1582 223.641 42.949 224.033 41.6152C224.269 40.883 224.609 39.7061 223.615 39.5492C223.092 39.4446 222.386 39.5753 221.862 39.7322C221.261 39.9676 218.567 41.9291 220.215 42.3998C220.712 42.5567 221.235 42.7136 221.732 42.8444Z" fill="#555555"/>
<path d="M220.659 38.5292C219.666 38.8431 218.803 39.4707 218.07 40.1507C217.757 40.4384 217.39 40.8568 217.547 41.3014C217.678 41.7198 218.227 41.8768 218.672 41.9814C219.273 42.1383 219.901 42.2691 220.503 42.426C221.104 42.5567 221.732 42.7136 222.307 42.5567C223.066 42.3475 223.589 41.6675 223.772 40.9614C223.955 40.2553 224.373 39.523 223.745 38.7908C223.301 38.3723 222.438 38.3462 221.836 38.3462C221.444 38.3462 221.052 38.4246 220.659 38.5292Z" fill="#64DDDA"/>
<path fill-rule="evenodd" clip-rule="evenodd" d="M221.706 39.1307C221.732 39.1046 221.758 39.1046 221.784 39.1046C223.222 38.66 225.341 38.6861 224.818 40.9353C224.478 42.5567 223.772 43.969 222.046 43.6028C221.549 43.4982 221.026 43.3413 220.529 43.1844C220.44 43.1582 220.348 43.1352 220.255 43.112C219.883 43.0191 219.498 42.9229 219.247 42.609C218.149 41.2229 220.686 39.6015 221.653 39.1569C221.653 39.1569 221.679 39.1307 221.706 39.1307ZM221.732 42.8444C222.856 43.1582 223.641 42.949 224.033 41.6152C224.269 40.883 224.609 39.7061 223.615 39.5492C223.092 39.4446 222.386 39.5753 221.862 39.7322C221.261 39.9676 218.567 41.9291 220.215 42.3998C220.712 42.5567 221.235 42.7136 221.732 42.8444Z" fill="#555555"/>
<path d="M265.804 36.7788C267.294 36.5434 268.837 36.5695 270.328 36.8834C270.511 36.9357 270.72 36.9618 270.851 37.1187C271.165 37.4587 270.877 38.0602 270.563 38.3741C270.223 38.6879 269.805 38.9756 269.726 39.4463C269.596 40.3355 270.746 40.7801 270.982 41.6431C271.243 42.5585 270.276 43.3954 269.413 43.5523C268.523 43.7092 267.582 43.5261 266.771 43.9446C265.934 44.3892 265.49 45.3307 264.81 46.0368C264.156 46.7168 263.345 47.1352 262.534 47.5275C261.07 48.2598 259.579 48.992 258.115 49.7505C257.016 50.2997 255.892 50.875 254.663 51.1104C253.303 51.3719 251.89 51.1889 250.504 51.0058C248.307 50.7181 245.98 50.352 244.306 48.7567C243.652 48.129 243.129 47.3444 242.319 47.0306C241.377 46.6645 240.357 47.0567 239.389 47.0829C237.219 47.1614 235.31 45.566 233.191 44.9907C232.067 44.6769 230.916 44.6507 229.765 44.4415C228.615 44.2323 227.464 43.7354 226.758 42.7677C226.052 41.7739 225.973 40.1786 226.862 39.394C227.647 38.6879 228.824 38.7925 229.713 38.2433C230.158 37.9556 230.524 37.511 230.942 37.1972C231.91 36.4649 233.322 36.4911 234.29 37.2495" fill="#77EFFF"/>
<path d="M235.31 38.5572C235.153 35.9157 235.859 33.222 237.297 31.0514C237.585 30.6068 237.925 30.1622 238.422 30.0576C239.337 29.8222 240.122 30.8421 240.409 31.8098C240.697 32.7774 240.776 33.8758 241.482 34.582C241.665 34.7912 241.952 34.9219 242.214 34.8173C242.371 34.765 242.475 34.6081 242.554 34.4774C245.326 30.4237 246.66 24.9578 250.661 22.3164C250.975 22.1072 251.315 21.9241 251.681 21.9764C252.44 22.081 252.675 23.101 252.806 23.9117C253.25 26.9716 254.27 29.953 255.787 32.5944C256.284 31.1298 257.095 29.796 258.167 28.7499C258.35 28.5669 258.585 28.3838 258.821 28.4099C259.135 28.4361 259.318 28.7761 259.448 29.0899C260.05 30.4499 260.521 31.9144 260.808 33.3789C260.573 32.6467 261.253 31.8359 261.985 31.8359C262.718 31.8359 263.345 32.4636 263.607 33.1697C263.868 33.8758 263.842 34.6866 263.79 35.445C263.764 35.8373 263.738 36.2819 264.025 36.5173C264.208 36.6742 264.47 36.6742 264.679 36.7788C265.281 37.0403 265.437 37.9295 265.176 38.5572C264.914 39.1848 264.365 39.6294 263.842 40.0217C261.279 41.957 258.219 44.0231 255.212 43.0293C254.793 42.8985 254.375 42.7154 253.983 42.82C253.643 42.8985 253.381 43.16 253.12 43.4215C252.361 44.18 251.629 44.9907 250.714 45.4876C248.778 46.5599 246.215 46.0368 244.777 44.3107C244.071 43.4477 243.652 42.3493 242.998 41.4078C242.371 40.4663 241.351 39.6556 240.279 39.8125C239.651 39.8909 239.076 40.2832 238.474 40.2048C237.297 40.0217 236.853 38.2956 235.702 37.9818" fill="#F779EE"/>
<path d="M235.623 38.4525C235.127 37.9556 236.016 35.4973 236.173 34.8958C236.356 34.2943 236.539 33.7189 236.8 33.1436C237.14 32.359 237.69 30.8683 238.369 30.3191C240.226 28.8545 240.671 32.699 241.063 33.562C241.299 34.0589 241.612 34.5819 242.162 34.8173C243.495 35.3927 244.254 33.4574 244.751 32.5682C246.764 28.9591 248.151 24.6178 251.472 21.9241C252.073 21.4272 253.12 21.218 253.381 22.1595C253.538 22.6564 253.59 23.1794 253.695 23.7025C253.904 24.7486 254.166 25.7685 254.479 26.7885C255.081 28.6976 255.866 30.5544 256.807 32.3328C257.016 32.7251 257.565 32.5943 257.696 32.2282C257.958 31.5221 259.605 27.913 260.468 28.2792C260.965 28.4884 261.305 30.0837 261.462 30.5806C261.724 31.3913 261.933 32.2021 262.116 33.0389C262.221 33.4835 263.005 33.5097 263.058 33.0389C263.084 32.2021 263.633 31.9667 264.679 32.3067C265.019 32.6467 265.202 33.0651 265.228 33.5358C265.281 33.9804 265.228 34.425 265.254 34.8696C265.281 35.5496 265.385 36.1773 265.83 36.7265C266.039 36.9618 266.405 37.1187 266.562 37.3541C267.216 38.2956 266.3 39.0279 265.673 39.5509C264.81 40.2832 263.894 40.9893 262.953 41.5908C262.038 42.1662 261.044 42.6893 259.972 42.9246C258.795 43.1862 257.749 42.8985 256.572 42.8462C254.584 42.7677 253.747 43.9707 252.257 45.043C250.609 46.246 248.307 46.1937 246.66 44.9907C245.065 43.8138 244.672 41.6693 243.182 40.3878C242.711 39.9955 242.188 39.7079 241.56 39.6032C240.592 39.4463 239.572 39.9694 238.631 39.7079C237.846 39.4986 237.48 38.6356 236.748 38.3479C236.277 38.1649 235.65 38.2172 235.179 38.3479C234.577 38.5048 234.839 39.4463 235.44 39.2894C236.382 39.0279 236.853 39.7079 237.533 40.2048C238.056 40.597 238.631 40.7278 239.259 40.7278C240.409 40.7017 241.482 40.2309 242.502 41.0678C243.365 41.7739 243.809 42.8723 244.385 43.7877C245.954 46.3506 249.04 47.7106 251.917 46.4029C252.57 46.1152 253.093 45.6707 253.643 45.1999C254.715 44.2584 255.578 43.7354 257.069 43.8923C259.004 44.0753 260.573 43.9969 262.351 43.1077C263.999 42.2708 265.882 40.9893 267.111 39.6032C268.079 38.5048 267.948 37.4064 267.007 36.4388C265.96 35.3665 266.484 34.425 266.222 33.1174C266.091 32.4374 265.725 31.7836 265.124 31.3913C263.894 30.5806 262.378 31.3913 262.168 32.8036H263.11C262.822 31.4175 262.43 30.0837 261.881 28.8022C261.645 28.2269 261.305 27.1284 260.468 27.1546C259.684 27.1808 259.004 28.2269 258.585 28.7499C257.801 29.7176 257.252 30.816 256.807 31.9928C257.095 31.9667 257.409 31.9144 257.696 31.8882C256.676 29.9791 255.866 28.0176 255.264 25.9254C255.003 24.9839 254.767 24.0163 254.584 23.0486C254.453 22.3425 254.349 21.5056 253.904 20.9041C252.021 18.4458 248.464 23.7809 247.627 25.1147C246.555 26.8408 245.718 28.6976 244.803 30.5021C244.358 31.3913 243.888 32.2544 243.391 33.1174C243.103 33.5881 243.182 33.7189 242.606 33.6143C242.083 33.5358 242.083 33.4051 241.926 32.9082C241.717 32.3328 241.639 31.7052 241.429 31.1036C241.037 30.0052 240.069 28.7761 238.736 29.0637C237.323 29.3776 236.539 31.5482 236.016 32.699C235.493 33.8497 235.153 35.0527 234.891 36.308C234.734 37.1187 234.316 38.531 234.996 39.211C235.388 39.6032 236.068 38.8971 235.623 38.4525Z" fill="#555555"/>
<path d="M266.457 35.445C267.268 35.3404 268.079 35.2619 268.89 35.3142C269.203 35.3404 269.543 35.3665 269.857 35.3927C270.537 35.4711 270.773 35.3142 270.877 36.0465C270.982 36.8572 270.093 37.0141 269.988 37.8249C269.91 38.4002 270.276 38.6879 270.563 39.1325C271.06 39.8909 271.479 40.8586 270.459 41.4339C269.753 41.8262 268.89 41.6432 268.131 41.7739C266.248 42.1139 265.647 44.0492 264.156 44.9907C262.168 46.2722 259.841 47.266 257.696 48.2598C255.133 49.4628 252.727 49.332 249.981 48.8874C247.654 48.5213 245.954 47.7367 244.28 46.0368C243.783 45.5399 243.234 45.0953 242.502 44.9645C241.403 44.7553 240.279 45.2261 239.154 45.0691C237.01 44.7815 235.205 43.2908 233.087 42.8723C231.727 42.6108 230.262 42.637 228.981 42.0354C227.542 41.3555 226.313 39.4463 227.595 38.0341C228.379 37.1711 229.818 37.2757 230.759 36.5434C231.177 36.2296 231.517 35.785 231.988 35.5234C232.904 35.0265 233.924 35.2096 234.734 35.7588C235.048 35.968 235.336 35.4711 235.022 35.2619C234.237 34.7389 233.348 34.5035 232.407 34.7389C232.014 34.8435 231.648 35.0265 231.308 35.2619C230.498 35.8634 229.948 36.4388 228.928 36.7265C227.072 37.2234 225.921 38.6356 226.732 40.597C227.778 43.1862 230.916 42.9769 233.165 43.4738C235.676 44.023 237.742 45.906 240.436 45.6445C241.612 45.5399 242.58 45.2784 243.574 46.1676C244.018 46.5598 244.358 47.0306 244.803 47.4229C245.692 48.2075 246.738 48.7044 247.863 49.0182C250.243 49.6982 253.303 50.2212 255.735 49.5935C257.121 49.2536 258.402 48.5213 259.684 47.8675C261.096 47.1614 262.534 46.5075 263.921 45.7491C264.914 45.1999 265.594 44.5461 266.3 43.6569C267.059 42.6893 267.791 42.3754 269.046 42.2447C269.517 42.1924 269.988 42.2185 270.433 42.0354C271.296 41.6955 272.054 40.8586 271.819 39.8909C271.74 39.5509 271.505 39.2633 271.269 39.0017C270.773 38.4002 270.354 38.3479 271.06 37.1449C271.191 36.9357 271.453 36.8049 271.609 36.5695C273.126 34.085 267.294 34.6866 266.3 34.8173C265.934 34.9219 266.091 35.4973 266.457 35.445Z" fill="#0EAFC9"/>
<path d="M251.76 42.7416C250.374 40.2571 249.537 36.5434 250.53 33.6928C250.949 32.5159 251.498 33.6143 251.707 34.2943C251.917 34.9481 252.021 35.6281 252.152 36.2819C252.544 38.2172 253.172 40.1002 253.669 42.0093C253.747 42.2447 254.113 42.1401 254.035 41.9047C253.355 39.4463 252.806 36.9357 252.152 34.4773C251.995 33.8758 251.472 32.0713 250.53 32.8297C249.694 33.5097 249.798 35.6281 249.798 36.5696C249.746 38.8187 250.321 40.9894 251.42 42.9246C251.55 43.16 251.89 42.9769 251.76 42.7416Z" fill="#FCFCFC"/>
<path d="M250.217 42.1924C248.909 38.6356 247.183 33.5097 249.537 30.0576C249.824 29.6391 250.138 29.2207 250.504 28.8807C251.341 28.1223 252.335 28.5407 252.858 29.456C253.512 30.6068 253.773 31.9405 254.087 33.1959C254.767 35.968 255.552 38.7141 256.284 41.4601C256.362 41.6955 256.729 41.5909 256.65 41.3555C256.153 39.4986 255.63 37.6418 255.133 35.7588C254.689 34.0589 254.349 32.2805 253.773 30.6329C253.172 28.9068 251.995 26.9454 250.19 28.593C246.398 32.0451 248.307 38.1649 249.798 42.297C249.929 42.5323 250.321 42.4277 250.217 42.1924Z" fill="#FCFCFC"/>
<path d="M249.04 45.0169C246.817 41.4601 246.712 36.8311 247.314 32.7774C247.601 30.7898 248.072 28.7499 249.014 26.9454C249.903 25.2193 251.603 24.0425 252.309 22.2641C252.413 22.0287 252.021 21.9241 251.943 22.1595C251.498 23.3102 250.557 24.0163 249.824 24.9578C249.197 25.7424 248.7 26.6839 248.281 27.6254C247.497 29.4822 247.078 31.5221 246.843 33.5097C246.372 37.4326 246.581 41.8001 248.726 45.2522C248.831 45.4353 249.17 45.2522 249.04 45.0169Z" fill="#FCFCFC"/>
<path fill-rule="evenodd" clip-rule="evenodd" d="M125.032 34.2683C129.49 34.2683 132.14 32.8069 132.14 30.3052V30.0575C132.14 27.8778 130.456 26.788 126.567 26.3917L123.322 26.0697C122.059 25.9458 121.564 25.6981 121.564 25.2028V25.0541C121.564 24.5092 122.728 24.1872 124.908 24.1872C127.558 24.1872 128.648 24.5835 128.648 25.5V25.6486H132.091V25.5C132.091 22.7754 129.564 21.2645 125.007 21.2645C120.598 21.2645 118.022 22.7258 118.022 25.2028V25.4504C118.022 27.5806 119.657 28.6704 123.298 29.042L126.493 29.364C128.053 29.5126 128.549 29.7355 128.549 30.2309V30.3547C128.549 31.0235 127.385 31.3455 125.081 31.3455C122.282 31.3455 121.093 30.9492 121.093 30.0327V29.9089H117.65V30.0327C117.65 32.7326 120.375 34.2683 125.032 34.2683Z" fill="black"/>
<path fill-rule="evenodd" clip-rule="evenodd" d="M145.64 21.5617V29.0172C144.996 30.2309 143.658 30.9987 142.098 30.9987C139.844 30.9987 138.655 29.8346 138.655 27.6797V21.5617H135.064V27.6797C135.064 32.0638 137.342 34.293 141.603 34.2683C143.262 34.2435 144.699 33.7481 145.789 32.7821L145.888 33.971H149.232V21.5617H145.64Z" fill="black"/>
<path fill-rule="evenodd" clip-rule="evenodd" d="M170.533 21.2645C168.427 21.2645 166.718 22.0323 165.48 23.4441C164.464 22.0075 162.755 21.2645 160.427 21.2645C158.767 21.2645 157.331 21.7846 156.216 22.7506L156.117 21.5617H152.773V33.971H156.365V26.565C157.033 25.3266 158.346 24.534 159.931 24.534C161.938 24.534 163.052 25.7229 163.052 27.8283V33.971H166.644V27.8283C166.644 27.4072 166.619 27.0109 166.594 26.6394C167.238 25.3514 168.601 24.534 170.211 24.534C172.217 24.534 173.356 25.7229 173.356 27.8283V33.971H176.948V27.8283C176.948 23.5432 174.719 21.2645 170.533 21.2645Z" fill="black"/>
<path fill-rule="evenodd" clip-rule="evenodd" d="M197.979 21.2645C195.873 21.2645 194.164 22.0323 192.926 23.4441C191.91 22.0075 190.201 21.2645 187.873 21.2645C186.213 21.2645 184.777 21.7846 183.662 22.7506L183.563 21.5617H180.219V33.971H183.811V26.565C184.479 25.3266 185.792 24.534 187.377 24.534C189.384 24.534 190.498 25.7229 190.498 27.8283V33.971H194.09V27.8283C194.09 27.4072 194.065 27.0109 194.04 26.6394C194.684 25.3514 196.047 24.534 197.657 24.534C199.663 24.534 200.802 25.7229 200.802 27.8283V33.971H204.394V27.8283C204.394 23.5432 202.165 21.2645 197.979 21.2645Z" fill="black"/>
<path fill-rule="evenodd" clip-rule="evenodd" d="M209.471 20.1251C210.784 20.1251 211.7 19.2582 211.7 18.0197C211.7 16.7565 210.809 15.9143 209.471 15.9143C208.133 15.9143 207.242 16.7812 207.242 18.0197C207.242 19.2582 208.158 20.1251 209.471 20.1251ZM207.688 33.971H211.254V21.5617H207.688V33.971Z" fill="black"/>
<path fill-rule="evenodd" clip-rule="evenodd" d="M225.694 24.7321V21.5617H220.542V18.2674H217.05V20.6452C217.05 21.3388 216.827 21.5617 216.133 21.5617H212.814V24.7321H216.951V29.686C216.951 32.3363 218.709 33.971 221.558 33.971H224.951V30.8253H222.028C221.062 30.8253 220.542 30.33 220.542 29.4383V24.7321H225.694Z" fill="black"/>
<path d="M280.643 31.252L283.185 29.8304C286.803 27.7843 287.923 26.492 287.923 24.4027V24.1874C287.923 21.3227 285.468 19.5997 281.311 19.5997C277.046 19.5997 274.763 21.3658 274.763 24.6612V25.1135H277.951V24.6827C277.951 23.2181 279.135 22.4427 281.375 22.4427C283.508 22.4427 284.671 23.1104 284.671 24.3381V24.532C284.671 25.6089 284.197 26.1258 281.505 27.6335L274.72 31.4458V33.9874H288.268V31.252H280.643Z" fill="#F779EE"/>
<path fill-rule="evenodd" clip-rule="evenodd" d="M305.951 27.7412C305.951 31.6612 302.914 34.2458 298.305 34.2458C293.696 34.2458 290.594 31.6181 290.594 27.7412V26.1258C290.594 22.2274 293.696 19.5997 298.305 19.5997C302.893 19.5997 305.951 22.2274 305.951 26.1258V27.7412ZM293.803 27.8058C293.803 30.0243 295.397 31.252 298.305 31.252C301.191 31.252 302.742 30.0458 302.742 27.8058V26.0827C302.742 23.8858 301.126 22.5935 298.283 22.5935C295.44 22.5935 293.803 23.8643 293.803 26.0827V27.8058Z" fill="#F779EE"/>
<path d="M314.502 31.252L317.043 29.8304C320.662 27.7843 321.782 26.492 321.782 24.4027V24.1874C321.782 21.3227 319.326 19.5997 315.169 19.5997C310.905 19.5997 308.622 21.3658 308.622 24.6612V25.1135H311.809V24.6827C311.809 23.2181 312.994 22.4427 315.234 22.4427C317.366 22.4427 318.529 23.1104 318.529 24.3381V24.532C318.529 25.6089 318.056 26.1258 315.363 27.6335L308.579 31.4458V33.9874H322.126V31.252H314.502Z" fill="#F779EE"/>
<path fill-rule="evenodd" clip-rule="evenodd" d="M339.81 27.7412C339.81 31.6612 336.773 34.2458 332.164 34.2458C327.554 34.2458 324.453 31.6181 324.453 27.7412V26.1258C324.453 22.2274 327.554 19.5997 332.164 19.5997C336.751 19.5997 339.81 22.2274 339.81 26.1258V27.7412ZM327.662 27.8058C327.662 30.0243 329.256 31.252 332.164 31.252C335.05 31.252 336.601 30.0458 336.601 27.8058V26.0827C336.601 23.8858 334.985 22.5935 332.142 22.5935C329.299 22.5935 327.662 23.8643 327.662 26.0827V27.8058Z" fill="#F779EE"/>
</svg>
