<svg id="圖層_1" data-name="圖層 1" xmlns="http://www.w3.org/2000/svg" viewBox="0 0 151.16 88.5">
  <defs>
    <style>
      .cls-1 {
        fill: #64ddda;
      }

      .cls-2 {
        fill: #555;
      }

      .cls-3 {
        fill: #4deaff;
      }

      .cls-4 {
        fill: #f779ee;
      }

      .cls-5 {
        fill: #0eafc9;
      }

      .cls-6 {
        fill: #fcfcfc;
      }
    </style>
  </defs>
  <title>素材元件</title>
  <g>
    <path class="cls-1" d="M11.28,57.4a16.82,16.82,0,0,0-6,3.7c-.7.7-1.6,1.6-1.2,2.6s1.6,1.3,2.6,1.6c1.4.4,2.8.7,4.2,1a8.28,8.28,0,0,0,4.1.3,5.28,5.28,0,0,0,3.4-3.7c.4-1.6,1.4-3.3-.1-5-1-1-3-1-4.4-1A13.18,13.18,0,0,0,11.28,57.4Z"/>
    <path class="cls-2" d="M13.88,58.7c-.1,0-.1,0-.2.1a.1.1,0,0,0-.1.1c-2.2,1-8.1,4.7-5.5,7.9.7.9,1.9,1,2.9,1.3a35.74,35.74,0,0,0,3.5,1c4,.8,5.6-2.4,6.4-6.1C22,57.7,17.18,57.7,13.88,58.7ZM19,64.5c-.9,3.1-2.7,3.5-5.3,2.8-1.1-.3-2.3-.7-3.5-1-3.8-1.1,2.4-5.6,3.8-6.1a7.86,7.86,0,0,1,4-.4C20.38,60.1,19.58,62.8,19,64.5Z"/>
    <path class="cls-3" d="M113.68,42.8a30.29,30.29,0,0,1,10.4.2,2.57,2.57,0,0,1,1.2.5c.7.8.1,2.2-.7,2.9a4.7,4.7,0,0,0-1.9,2.5c-.3,2,2.3,3.1,2.9,5,.6,2.1-1.6,4-3.6,4.4s-4.2-.1-6.1.9-2.9,3.2-4.5,4.8a17.29,17.29,0,0,1-5.2,3.4L96,72.5a28.26,28.26,0,0,1-7.9,3.1c-3.1.6-6.4.2-9.6-.2-5-.7-10.4-1.5-14.2-5.2-1.5-1.4-2.7-3.2-4.6-4-2.2-.8-4.5.1-6.7.1-5,.2-9.4-3.5-14.2-4.8-2.6-.7-5.2-.8-7.9-1.3s-5.3-1.6-6.9-3.8-1.8-6,.2-7.8c1.8-1.6,4.5-1.4,6.6-2.6,1-.7,1.9-1.7,2.8-2.4a6.45,6.45,0,0,1,7.7.1"/>
    <path class="cls-4" d="M43.58,46.9a28.41,28.41,0,0,1,4.6-17.3,4.85,4.85,0,0,1,2.6-2.3c2.1-.5,3.9,1.8,4.6,4s.8,4.7,2.5,6.4a1.42,1.42,0,0,0,1.7.5c.4-.1.6-.5.8-.8,6.4-9.3,9.4-21.9,18.6-27.9a3.41,3.41,0,0,1,2.3-.8c1.7.2,2.3,2.6,2.6,4.4a56.66,56.66,0,0,0,6.9,20,21.23,21.23,0,0,1,5.5-8.8,2.48,2.48,0,0,1,1.5-.8c.7.1,1.1.8,1.4,1.6a42.21,42.21,0,0,1,3.1,9.9,2.86,2.86,0,0,1,2.7-3.5,4.24,4.24,0,0,1,3.7,3.1,13,13,0,0,1,.4,5.2,3,3,0,0,0,.5,2.5c.4.4,1,.4,1.5.6,1.4.6,1.7,2.6,1.1,4.1a9.19,9.19,0,0,1-3.1,3.4c-5.9,4.4-12.9,9.2-19.8,6.9a5.76,5.76,0,0,0-2.8-.5,4.57,4.57,0,0,0-2,1.4c-1.7,1.7-3.4,3.6-5.5,4.7a11,11,0,0,1-13.6-2.7c-1.6-2-2.6-4.5-4.1-6.7s-3.8-4-6.3-3.7c-1.4.2-2.8,1.1-4.1.9-2.7-.4-3.7-4.4-6.4-5.1"/>
    <path class="cls-2" d="M44.28,46.7c-1.1-1.1.9-6.8,1.3-8.2a27,27,0,0,1,1.4-4c.8-1.8,2-5.2,3.6-6.5,4.3-3.4,5.3,5.5,6.2,7.5a5.86,5.86,0,0,0,2.5,2.9c3.1,1.3,4.8-3.1,6-5.2,4.6-8.3,7.8-18.3,15.4-24.5,1.4-1.1,3.8-1.6,4.4.5a19.72,19.72,0,0,1,.7,3.5c.5,2.4,1.1,4.7,1.8,7.1a79.05,79.05,0,0,0,5.3,12.7,1.11,1.11,0,0,0,2-.2c.6-1.6,4.4-9.9,6.4-9.1,1.1.5,1.9,4.1,2.3,5.3.6,1.9,1.1,3.7,1.5,5.6.2,1,2,1.1,2.2,0,.1-1.9,1.3-2.5,3.7-1.7a4.32,4.32,0,0,1,1.3,2.8c.1,1,0,2,.1,3.1a7.27,7.27,0,0,0,1.3,4.3c.5.5,1.3.9,1.7,1.4,1.5,2.2-.6,3.8-2,5a57.26,57.26,0,0,1-6.3,4.7,23.92,23.92,0,0,1-6.9,3.1c-2.7.6-5.1-.1-7.8-.2-4.6-.2-6.5,2.6-9.9,5a11.12,11.12,0,0,1-12.9-.1c-3.7-2.7-4.6-7.6-8-10.6a7.56,7.56,0,0,0-3.7-1.8c-2.2-.4-4.6.8-6.7.2-1.8-.5-2.6-2.5-4.3-3.1a6.3,6.3,0,0,0-3.6,0,1.14,1.14,0,0,0,.6,2.2c2.2-.6,3.2,1,4.8,2.1a6.31,6.31,0,0,0,4,1.2c2.6-.1,5.1-1.1,7.5.8,2,1.6,3,4.1,4.3,6.3,3.6,5.9,10.7,9,17.3,6a18,18,0,0,0,4-2.8c2.5-2.2,4.4-3.4,7.9-3,4.4.4,8.1.2,12.1-1.8a37.79,37.79,0,0,0,10.9-8.1c2.2-2.5,1.9-5-.2-7.3-2.4-2.5-1.2-4.6-1.8-7.6a5.93,5.93,0,0,0-2.5-4,4.41,4.41,0,0,0-6.8,3.2h2.2a54.59,54.59,0,0,0-2.8-9.2c-.5-1.3-1.3-3.8-3.2-3.8s-3.4,2.5-4.3,3.7a24.79,24.79,0,0,0-4.1,7.5,15,15,0,0,1,2-.2,74.36,74.36,0,0,1-5.6-13.7c-.6-2.2-1.1-4.4-1.6-6.6-.3-1.6-.5-3.5-1.6-4.9C82.08.6,73.88,12.8,72,15.9c-2.5,4-4.4,8.2-6.5,12.4-1,2-2.1,4-3.2,6-.7,1.1-.5,1.4-1.8,1.1s-1.2-.5-1.6-1.6c-.5-1.3-.7-2.8-1.1-4.1-.9-2.5-3.1-5.3-6.2-4.7s-5,5.7-6.3,8.4a38.2,38.2,0,0,0-2.6,8.3c-.4,1.9-1.3,5.1.2,6.7C43.78,49.3,45.28,47.7,44.28,46.7Z"/>
    <path class="cls-5" d="M115.18,39.8a35.05,35.05,0,0,1,5.6-.3c.7.1,1.5.1,2.2.2,1.6.2,2.1-.2,2.3,1.5.2,1.9-1.8,2.2-2,4.1-.2,1.3.7,2,1.3,3,1.1,1.7,2.1,4-.2,5.3-1.6.9-3.6.5-5.3.8-4.3.8-5.7,5.2-9.1,7.4-4.6,2.9-9.9,5.2-14.8,7.5-5.9,2.8-11.4,2.5-17.7,1.4a21,21,0,0,1-13.1-6.6,7.91,7.91,0,0,0-4.1-2.5c-2.5-.5-5.1.6-7.7.2-4.9-.7-9.1-4.1-13.9-5-3.1-.6-6.5-.5-9.4-1.9-3.3-1.6-6.1-6-3.2-9.2,1.8-2,5.1-1.7,7.3-3.4a31.12,31.12,0,0,1,2.8-2.3,6.2,6.2,0,0,1,6.3.5c.7.5,1.4-.7.7-1.1a7.48,7.48,0,0,0-6-1.2,8.23,8.23,0,0,0-2.5,1.2c-1.9,1.4-3.1,2.7-5.5,3.4-4.3,1.1-6.9,4.4-5,8.9,2.4,6,9.6,5.5,14.8,6.6,5.8,1.3,10.5,5.6,16.7,5,2.7-.2,4.9-.8,7.2,1.2,1,.9,1.8,2,2.8,2.9a18.16,18.16,0,0,0,7,3.7c5.5,1.6,12.5,2.8,18.1,1.3,3.2-.8,6.1-2.5,9.1-4,3.2-1.6,6.6-3.1,9.7-4.9a19.44,19.44,0,0,0,5.5-4.8c1.7-2.2,3.4-2.9,6.3-3.2a11.27,11.27,0,0,0,3.2-.5c2-.8,3.7-2.7,3.2-4.9a4.35,4.35,0,0,0-1.3-2c-1.1-1.4-2.1-1.5-.5-4.3.3-.5.9-.8,1.3-1.3,3.5-5.7-9.9-4.3-12.2-4A.66.66,0,1,0,115.18,39.8Z"/>
    <path class="cls-6" d="M81.38,56.5c-3.2-5.7-5.1-14.2-2.8-20.8,1-2.7,2.2-.2,2.7,1.4a37.83,37.83,0,0,1,1,4.6c.9,4.4,2.3,8.8,3.5,13.2.2.5,1,.3.8-.2-1.6-5.6-2.8-11.4-4.3-17.1-.4-1.4-1.6-5.5-3.7-3.8-1.9,1.6-1.7,6.4-1.7,8.6A28.34,28.34,0,0,0,80.58,57,.47.47,0,0,0,81.38,56.5Z"/>
    <path class="cls-6" d="M77.88,55.3c-3-8.2-7-20-1.6-27.9a19.86,19.86,0,0,1,2.2-2.7c1.9-1.7,4.2-.8,5.4,1.3,1.5,2.6,2.1,5.7,2.8,8.6,1.6,6.4,3.4,12.7,5,19,.2.5,1,.3.8-.2-1.1-4.3-2.3-8.5-3.5-12.9-1-3.9-1.8-8-3.1-11.8-1.4-4-4.1-8.5-8.2-4.7-8.7,7.9-4.3,22-.9,31.5C77.18,56,78.08,55.8,77.88,55.3Z"/>
    <path class="cls-6" d="M75.18,61.8c-5.1-8.2-5.3-18.8-4-28.1.7-4.6,1.7-9.3,3.9-13.4,2-4,6-6.7,7.6-10.8.2-.5-.7-.8-.8-.2-1,2.6-3.2,4.3-4.9,6.4a28.39,28.39,0,0,0-3.5,6.1,49.38,49.38,0,0,0-3.3,13.5c-1.1,9-.6,19.1,4.3,27C74.68,62.7,75.48,62.3,75.18,61.8Z"/>
    <path class="cls-3" d="M127.58,77.2a12.08,12.08,0,0,0,12.2,2.5,3.45,3.45,0,0,0,2.3-4.1,3.36,3.36,0,0,0-4.1-2.3,5.39,5.39,0,0,1-5.7-.8C129.08,69.8,124.38,74.4,127.58,77.2Z"/>
  </g>
</svg>
