<svg id="圖層_1" data-name="圖層 1" xmlns="http://www.w3.org/2000/svg" viewBox="0 0 126.69 91.4">
  <defs>
    <style>
      .cls-1 {
        fill: #4deaff;
      }

      .cls-2 {
        fill: #f26161;
      }

      .cls-3 {
        fill: #555;
      }

      .cls-4 {
        fill: #fff;
      }
    </style>
  </defs>
  <title>素材元件</title>
  <g>
    <path class="cls-1" d="M42.5,64.2c-3.3,0-8.2.8-8.8,4.4-.5,2.9,2.5,5.3,5.2,6.6,11.7,5.6,26.4,6,45.5-3.1,2.2-1,4.8.5,7.2.8A23.73,23.73,0,0,0,110.5,68a5,5,0,0,0,1.8-4c-.1-3-1-8.2-5.4-10.8-1.7-1-3.8.4-5.7,1.1s-5.3-.7-7.8-.7c-7.1,0-23.5,13.2-32.4,15C54.9,69.8,47.1,64.2,42.5,64.2Z"/>
    <path class="cls-1" d="M20.5,70.1a4.94,4.94,0,0,0-2.6,2,10.74,10.74,0,0,0-2,3.2,3.39,3.39,0,0,0,.7,3.5c1.5,1.3,3.9.4,5-1.2a6,6,0,0,1,.9-1.3c1.5-1.1,3.4,1.1,5.2.8,1.3-.2,2-1.8,1.8-3.1a4.64,4.64,0,0,0-2.4-2.9A9,9,0,0,0,20.5,70.1Z"/>
    <path class="cls-2" d="M84.5,26.7c-5.1.2-11,1-13.6,5.4-1.2,2.1-1.6,4.8-3.7,6-1.1.6-2.3.6-3.4,1.3-2.2,1.3-2.6,4.5-4.6,5.9s-4.8.8-7.3.3-5.5-.5-6.8,1.7c-1.1,1.8-.3,4.1.5,6,1.5,3.8,3.1,7.5,4.6,11.2a3.82,3.82,0,0,0,1.2,1.8,3.74,3.74,0,0,0,2.4.3,42.87,42.87,0,0,0,17.3-6.2c2.2-1.4,4.8-3.2,7.4-2.4,1.3.4,2.5,1.5,3.8,1.4a4.57,4.57,0,0,0,2-.9c4.8-3.4,9.9-7.1,12.7-12.3,1.2-2.2,1.9-4.7,3.6-6.6,3.1-3.6,9.1-4.9,10-9.5a7.77,7.77,0,0,0-1.4-5.5,13.53,13.53,0,0,0-15-5.4c-1.6.5-3.1,1.3-4.8,1.3-1.3,0-2.7-.5-3.9-.1-1.9.8-2.2,3.4-2.1,5.5"/>
    <path class="cls-3" d="M86.1,26.8c-5.5.3-12.3,1-15.5,6.3-.8,1.4-1.1,2.9-1.9,4.2-1.4,2.1-3.2,2-5.1,3.1-3.3,1.9-3.2,6.9-7.7,7.1-3.1.1-6.1-1.5-9.3-.7a5.17,5.17,0,0,0-4.2,5.6c.2,3.6,2.5,7.2,3.8,10.5,1.1,2.5,1.9,7.5,5.1,8.4,3,.8,7.6-.9,10.4-1.8A48,48,0,0,0,73.1,64c2.6-1.6,4.5-2.6,7.5-1.3a5.59,5.59,0,0,0,3.3.8c1.5-.2,2.8-1.4,3.9-2.2,1.6-1.2,3.2-2.4,4.8-3.7a28.21,28.21,0,0,0,7.1-7.9c2-3.4,2.9-6.9,6.1-9.4,4.1-3.1,10.4-5.7,9-12.1-1.6-6.9-9.5-11-16.1-10.3a28.35,28.35,0,0,0-5.2,1.4c-2.2.6-4.6-.4-6.8.5-2.8,1.1-3.1,4.4-3,6.9a1.1,1.1,0,0,0,2.2,0c-.1-2.5-.1-4.6,3.1-4.9,1.1-.1,2.2.3,3.3.1,3.1-.4,5.6-2.1,8.8-1.8,5.5.4,15.4,6.9,10.4,13.3-2.9,3.7-7.8,4.7-10.4,8.8-1.5,2.3-2.2,4.9-3.8,7.2a29.93,29.93,0,0,1-7,7.2c-1.4,1.1-2.9,2.2-4.4,3.2-1.7,1.2-3.1,1.1-5.1.5-2.4-.7-4-.9-6.4.2-2.8,1.3-5.2,3.2-7.9,4.5a44,44,0,0,1-10.6,3.5c-2.7.5-4.7,1.1-5.9-2-.6-1.4-1.2-2.9-1.8-4.3-.8-1.8-1.5-3.6-2.2-5.4s-2.3-4.7-1.1-6.6c1.8-2.8,6.2-1.1,8.8-.8,2.1.3,4.4.2,6.1-1.1,2.6-2.1,2.7-5.5,6.2-6.7a7.4,7.4,0,0,0,4.8-4c1.5-3,2.4-5.5,5.7-6.9,2.9-1.4,6.3-1.6,9.5-1.8A1.05,1.05,0,1,0,86.1,26.8Z"/>
    <path class="cls-4" d="M54,63.2c3.2-2.9,3.9-7.5,6.9-10.5s6.4-1.6,9.7-.2a2.58,2.58,0,0,0,2.9-.3c1.8-1.4,2.9-3.7,4.7-5.2s4.1-2.4,6.4-1.2a10.08,10.08,0,0,0,1.8.9,5,5,0,0,0,4.1-1.5c1.5-1.2,2.7-3,4.9-2.8a12.86,12.86,0,0,0,1.9.4.37.37,0,0,0,.4-.4c.1-.4.1-.5-.2-.8a.38.38,0,0,0-.6,0,.1.1,0,0,0-.1.1.42.42,0,1,0,.6.6c.5-.4-1.9-1.1-2.3-1.1a5.68,5.68,0,0,0-2.2.7,14.31,14.31,0,0,0-2.4,1.9A3.89,3.89,0,0,1,87,45.2c-1.8-.1-1.4-.1-2.5-.7-3.9-1.9-7.6,2.1-9.8,5-.9,1.2-.9,1.5-2.5,1.8s-1.6,0-2.8-.5a12,12,0,0,0-2.7-.8A7.63,7.63,0,0,0,61,51.5c-3.6,2.8-4.2,7.9-7.5,11C53,62.9,53.6,63.6,54,63.2Z"/>
    <path class="cls-4" d="M66.9,47.1c1.7-1.1,4-.1,5.9-.9s3.2-2.5,4.6-4a10,10,0,0,1,3.3-2.8c2.6-1.1,3,0,5,.5a4.21,4.21,0,0,0,3.1-.3c1.5-.7,2.4-2.1,3.9-2.9s2.1-.4,3.7.1a3.81,3.81,0,0,0,1.5.1c1.6-.5,2.5-2.2,4.3-2.7,1.2-.4,2.1-.2,2.8-1.4.3-.5-.5-.9-.8-.5-.7,1.4-3.1,1-4.2,1.8-1.5,1.1-1.2,2-3.8,1.6-.5-.1-.8-.4-1.3-.4-3.2-.4-4.8,3.8-7.9,3.8-1.8,0-3.1-1.2-4.9-1a7.93,7.93,0,0,0-4.2,2.5c-1.8,1.8-3.4,4.4-6,5.1-1.9.4-3.5-.4-5.2.7C66,46.6,66.4,47.4,66.9,47.1Z"/>
  </g>
</svg>
