<svg id="圖層_1" data-name="圖層 1" xmlns="http://www.w3.org/2000/svg" viewBox="0 0 695.11 213">
  <defs>
    <style>
      .cls-1 {
        fill: #4deaff;
      }

      .cls-2 {
        fill: #555;
      }

      .cls-3 {
        fill: #45afff;
      }

      .cls-4 {
        fill: #50bc83;
      }

      .cls-5 {
        fill: #88e591;
      }

      .cls-6 {
        fill: #fff;
      }

      .cls-7 {
        fill: #0eafc9;
      }
    </style>
  </defs>
  <title>素材元件</title>
  <g>
    <path class="cls-1" d="M139.21,84c-2.1.2-3.5,1.9-2.7,3.2s3.5,1.9,5.2,1.1a2.16,2.16,0,0,0,1.5-2.5,3,3,0,0,0-3.1-1.6"/>
    <path class="cls-2" d="M138.91,84.9a3.17,3.17,0,0,0-2.6,3.3,3.12,3.12,0,0,0,3,2.7,3.08,3.08,0,0,0,3.3-2.6,2.81,2.81,0,0,0-2.9-3.2.65.65,0,0,0,0,1.3,1.56,1.56,0,0,1,1.4,2.2,1.79,1.79,0,0,1-2.2.9c-2-.5-1.7-3,.2-3.4C140.11,86,139.81,84.8,138.91,84.9Z"/>
    <path class="cls-3" d="M517.41,126.2c31.9-1.9,65.5-6.7,94.7,5.4,12.1,5,23.2,13.1,29.3,24.3s6.2,25.4-1.4,35.6c-14,18.5-44,15.3-66.4,6.8s-46.5-20.2-69.1-12.4C492,190.2,482,200.2,469,202.8c-18.7,3.8-36.6-8.2-55.5-11.1-14.4-2.2-28.9,1.1-43.2,3.7a469.1,469.1,0,0,1-122.4,5.9c-7.9-.6-16.5-1.8-22.1-7.1-9.1-8.6-5.8-23.6,1.7-33.4,30-39.4,93.8-30.6,138.1-34C416.61,122.8,466.41,129.3,517.41,126.2Z"/>
    <path class="cls-1" d="M107.61,114.5c18.3-7.7,38.9-9.8,56.8-.8,14.4,7.3,26.3,21.3,41.3,26.2,19.3,6.2,39.9-3.7,59.7.3,11.6,2.3,22.2,9.2,33.6,12.7,11.6,3.5,23.7,3.1,35.6,4.1,19.5,1.5,38.8,6.4,58.4,6.4,22.6,0,44.8-6.5,67.3-8.5,25.5-2.4,54.8,3.4,68.9,29.1-14.5,2.6-29.2-1.4-43.7-4.4-30.1-6.2-60.7-7.9-91.2-9.7-12.2-.7-24.6-1.4-36.7,1.4-14.2,3.2-27.7,11.1-42.2,11.5-20.3.6-40-13.8-59.9-9.2-8.4,1.9-16.1,7.1-24.4,9.7-8.9,2.8-18.3,2.6-27.4,2.4-48.4-1.2-120.6,6.2-169,4.9-7.5-.2-19.2,2.5-20.7-9-1.3-9.5,17.4-12.5,37.4-29.1C68.81,138,87.21,123.1,107.61,114.5Z"/>
    <path class="cls-4" d="M158.61,126.1c16.7-1.3,18.6-3.2,32.3-12.7q38.4-26.7,76.9-53.5c5.2-3.6,12.8-7.1,16.9-1.4a9.32,9.32,0,0,1,1.7,4.9c.5,6.8.2,16.2,7.4,19.2a10.2,10.2,0,0,0,8.7-.5,28.51,28.51,0,0,0,12.8-13.8c.4-1.1,1.8-.8,2.7,0,5.8,5.5,15.4,14.3,19.7,14.3s21.8-17.8,25.1-31.4,12.5-43.3,23.6-43.3c13.6,0,33.9,50.3,47.3,80.4,3-14.1,12.2-27.6,25.9-31.9s31.2,4.4,32.9,18.7a31.23,31.23,0,0,1,32.1-13.3c8.3,1.8,15.4,6.9,22.8,11.1,14.7,8,31.2,12,47.5,15.9,18.2,4.4,73.8,45.8,92,50.2"/>
    <path class="cls-5" d="M159.71,122.3q36.3-21.6,72.6-43c3.8-2.3,8.2-4.7,12.5-3.4,2.5.7,4.4,2.5,6.2,4.4,13.4,14.3,18.3,31.5,33.6,43.8a10.38,10.38,0,0,0,5.1,2.6c2.4.3,4.7-.9,6.7-2.2,12.6-7.7,24.7-15.3,39.5-14.9,6.4.2,12.4,2.7,18.8,2.8,4.8.1,9.5-1.2,14.1-2.5,20.7-5.5,44-9.7,62.5,1.1,7.8,4.6,15.1,11.9,24.1,11.7,6.4-.1,12-4,18-6.2,9.1-3.4,19.2-2.9,28.9-2.4,26.5,1.5,53.1,2.9,79.1,8.1,13.4,2.6,29.1,8.8,31.5,22.3a6.05,6.05,0,0,1-.4,4,6.42,6.42,0,0,1-3.8,2.6c-15,5-31.2-2.4-46.9-1.2-8.3.6-16.3,3.5-24.4,4.9-14.5,2.6-29.4.5-44.1-.3-45.7-11.6-92.4-4.8-144.7,8.7a296.15,296.15,0,0,1-89.1-14.4c-9.6-3.1-19.2,1.5-29.2.5-8.1-.8-16.3.3-24.4.5-14.9.4-29.7-10.4-44-14.4-4.2-1.2-8.9-3-10.4-7.1s3.8-9.4,6.9-6.4"/>
    <path class="cls-2" d="M145.91,140.7c18-1.6,33-12.2,47.4-22.2,17.3-12,34.6-24.1,51.9-36.1,8.3-5.8,16.4-12.1,25-17.3,3.1-1.9,7.5-4.1,11.1-2.5,4.2,1.9,3.9,7.1,4.2,11.1.4,5.5,1.5,12.1,7,15,7.2,3.7,15.1-2.1,19.7-7.5a26.86,26.86,0,0,0,3.1-4.4c.5-1,.6-1.9,1.7-2.1s1.9.9,2.7,1.6a104.62,104.62,0,0,0,8.4,6.5c3.1,2.1,8.3,6.2,12.4,4.6,4.4-1.8,8.4-5.9,11.6-9.2,4.7-4.8,9.1-10.2,11.8-16.3,2.2-5,3.2-10.7,4.9-15.9a151,151,0,0,1,7.5-19.3c2.1-4.3,4.7-10.3,9-12.9,2.8-1.6,4.8.9,6.5,2.9,7.5,8.6,12.7,19.6,18,29.6,6.7,12.9,12.9,26.1,19,39.3,1.4,2.9,2.6,5.8,3.9,8.8a1.11,1.11,0,0,0,2-.2c3.1-13.8,12.2-28.3,27-31.6,12.6-2.8,27.9,4.9,29.7,18.4.1,1,1.5.9,2,.2A30.16,30.16,0,0,1,514.11,68c9.8-1.5,18.4,2.8,26.6,7.6a133,133,0,0,0,26,12c9.3,3.1,18.9,5.1,28.3,7.7s18.5,8.5,26.9,13.5c11.5,6.9,22.9,14.2,34.4,21.1q8.55,5.25,17.4,9.9c4.1,2.1,8.4,4.3,12.8,5.4a1.09,1.09,0,0,0,.6-2.1c-9.8-2.4-19.1-8.7-27.6-13.8-12-7.2-23.7-14.7-35.6-21.8-8.8-5.2-18-11.4-28-14.3-9.4-2.6-18.9-4.5-28.1-7.6-10.1-3.3-19.1-8-28.3-13.2-8.4-4.8-17.1-8.2-26.9-6.4a32.48,32.48,0,0,0-21.1,14,13.55,13.55,0,0,0,2,.2c-2-14.2-17.7-22.3-31-20.1-16.1,2.6-26.6,18.5-29.9,33.4a13.55,13.55,0,0,1,2-.2c-5.8-13-11.8-25.9-18.1-38.7-5.8-11.6-11.7-23.4-19-34.1-3.1-4.5-8.1-12.7-14.1-7.9-4,3.1-6.6,8.2-8.7,12.7a164.3,164.3,0,0,0-7.4,18.4c-1.9,5.7-2.9,12-5.4,17.4-3,6.5-7.8,12.1-12.9,17.1a60.23,60.23,0,0,1-6.7,5.6c-1.4.9-2.7,2.1-4.4,1.7-2.9-.5-5.9-2.8-8.3-4.4a90.14,90.14,0,0,1-9.2-7.1c-1.6-1.4-3.8-3.5-5.7-1.1-1.1,1.5-1.7,3.4-2.8,4.9a25.64,25.64,0,0,1-5.1,5.3c-4,3.2-9.6,6.3-14.4,2.7-3.2-2.3-4.1-6.5-4.5-10.1-.6-5.6.2-13.4-6.5-15.7-7-2.3-14.4,4.2-19.6,7.8-17.5,12.1-34.9,24.3-52.4,36.5-8.4,5.8-16.6,11.7-25,17.4-7.8,5.3-16,10.4-24.9,13.5a58,58,0,0,1-13.7,3.1C144.51,138.6,144.51,140.8,145.91,140.7Z"/>
    <path class="cls-6" d="M383.51,54.1a205.5,205.5,0,0,0,9.3,25.6c.6,1.3,2.5.2,1.9-1.1a170.88,170.88,0,0,1-9.1-25.1C385.21,52.2,383.11,52.8,383.51,54.1Z"/>
    <path class="cls-6" d="M375.81,67.4a43.78,43.78,0,0,0,.3,12c.2,1.4,2.4.8,2.1-.6a43.53,43.53,0,0,1-.2-11.4C378.11,66,375.91,66,375.81,67.4Z"/>
    <path class="cls-6" d="M510.71,80.5a73.8,73.8,0,0,1,9.7,5.9c1.1.8,2.2-1.1,1.1-1.9a73.8,73.8,0,0,0-9.7-5.9C510.61,78,509.51,79.9,510.71,80.5Z"/>
    <path class="cls-6" d="M523.61,77.7a29.25,29.25,0,0,1,10.2,7.9c.9,1.1,2.5-.5,1.6-1.6a32.92,32.92,0,0,0-10.7-8.2A1.1,1.1,0,1,0,523.61,77.7Z"/>
    <path class="cls-6" d="M540.51,87a10.89,10.89,0,0,1,4.9,3.8c.8,1.2,2.7.1,1.9-1.1a12.8,12.8,0,0,0-6.2-4.8C539.81,84.5,539.21,86.6,540.51,87Z"/>
    <path class="cls-6" d="M515.41,99.1a49.51,49.51,0,0,0,9.4,8.3c1.2.8,2.3-1.1,1.1-1.9a45.17,45.17,0,0,1-9-7.9C516,96.5,514.51,98,515.41,99.1Z"/>
    <path class="cls-6" d="M533.71,98.2c1.4,2.1,2.8,4.1,4.2,6.2.8,1.2,2.7.1,1.9-1.1-1.4-2.1-2.8-4.1-4.2-6.2C534.91,96,533,97.1,533.71,98.2Z"/>
    <path class="cls-6" d="M546.81,103.2l3.6,5.7a1.1,1.1,0,0,0,1.9-1.1l-3.6-5.7A1.1,1.1,0,1,0,546.81,103.2Z"/>
    <path class="cls-6" d="M461.71,82.7a12.87,12.87,0,0,1,6.9,1.7c1.2.7,2.4-1.2,1.1-1.9a14.78,14.78,0,0,0-7.9-2C460.31,80.6,460.31,82.8,461.71,82.7Z"/>
    <path class="cls-6" d="M475.41,75.2c2.1,1.2,4.1,2.5,6.2,3.7,1.2.7,2.4-1.2,1.1-1.9-2.1-1.2-4.1-2.5-6.2-3.7A1.1,1.1,0,0,0,475.41,75.2Z"/>
    <path class="cls-6" d="M458.21,103.9a6.31,6.31,0,0,1,7.1,4.1c.5,1.4,2.6.8,2.1-.6a8.65,8.65,0,0,0-9.8-5.7C456.21,102,456.81,104.2,458.21,103.9Z"/>
    <path class="cls-6" d="M482.41,101.4c1.1,1.8,2.2,3.7,3.2,5.5a1.1,1.1,0,0,0,1.9-1.1c-1.1-1.8-2.2-3.7-3.2-5.5C483.61,99.1,481.61,100.2,482.41,101.4Z"/>
    <path class="cls-6" d="M306,99.3c-.8,2.2-1.7,4.5-2.5,6.8-.5,1.4,1.6,1.9,2.1.6.8-2.2,1.7-4.5,2.5-6.8C308.71,98.5,306.61,97.9,306,99.3Z"/>
    <path class="cls-6" d="M329.71,103.4a10.31,10.31,0,0,0-.7,5.2,1.17,1.17,0,0,0,1.4.8,1.23,1.23,0,0,0,.8-1.4,6,6,0,0,1,.5-3.5,1.13,1.13,0,0,0-.4-1.5C330.81,102.7,329.91,102.8,329.71,103.4Z"/>
    <path class="cls-6" d="M378.81,131.4a12.37,12.37,0,0,0,3,10.4c.9,1.1,2.5-.5,1.6-1.6A9.76,9.76,0,0,1,381,132C381.21,130.6,379.11,130,378.81,131.4Z"/>
    <path class="cls-6" d="M394.31,126.8a13.3,13.3,0,0,0,3.7,10c.9,1.1,2.5-.5,1.6-1.6a12,12,0,0,1-3-8.5C396.61,125.4,394.41,125.4,394.31,126.8Z"/>
    <path class="cls-6" d="M400.11,124.3c1.2,2.3,2.4,4.5,3.7,6.8.6,1.2,2.6.1,1.9-1.1-1.2-2.3-2.4-4.5-3.7-6.8C401.41,121.9,399.51,123,400.11,124.3Z"/>
    <path class="cls-6" d="M414.31,122.7a3.43,3.43,0,0,0,2.6,2.7,1.14,1.14,0,0,0,.6-2.2c-.1,0-.2-.1-.3-.1l-.1-.1c-.1-.1-.2-.1-.1-.1-.1-.1-.2-.1-.2-.2l-.1-.1a.31.31,0,0,1-.1-.2c-.1-.2,0,.1-.1-.1s-.1-.2-.1-.3a1.17,1.17,0,0,0-1.4-.8A1.57,1.57,0,0,0,414.31,122.7Z"/>
    <path class="cls-6" d="M515.51,129.8a29.71,29.71,0,0,1,8.4.5c1.4.3,2-1.8.6-2.1a29.93,29.93,0,0,0-9-.6C514.11,127.7,514.11,129.9,515.51,129.8Z"/>
    <path class="cls-6" d="M543.31,127.1a22.07,22.07,0,0,1,8.9,9.5c.6,1.3,2.5.2,1.9-1.1a23.55,23.55,0,0,0-9.7-10.3C543.21,124.6,542.11,126.4,543.31,127.1Z"/>
    <path class="cls-6" d="M382.21,28q3,3.3,5.7,6.9c.8,1.1,2.8.1,1.9-1.1a87.93,87.93,0,0,0-6-7.4C382.81,25.4,381.21,27,382.21,28Z"/>
    <path class="cls-6" d="M384,39.5l3.2,3.2a1.13,1.13,0,0,0,1.6-1.6l-3.2-3.2A1.13,1.13,0,0,0,384,39.5Z"/>
    <path class="cls-6" d="M393.81,43.3c.8,1.1,1.5,2.3,2.2,3.4s2.7.1,1.9-1.1-1.5-2.3-2.2-3.4S393,42.1,393.81,43.3Z"/>
    <path class="cls-6" d="M392.51,54.1a31.14,31.14,0,0,1,3.5,5.4c.6,1.2,2.6.1,1.9-1.1a37.64,37.64,0,0,0-3.9-5.9C393.21,51.5,391.61,53,392.51,54.1Z"/>
    <path class="cls-6" d="M266.51,74.3a15.49,15.49,0,0,0-2.6,3.7c-.6,1.2,1.2,2.4,1.9,1.1a18.12,18.12,0,0,1,2.2-3.2C269.11,74.8,267.51,73.2,266.51,74.3Z"/>
    <path class="cls-6" d="M236.71,92.3a48.92,48.92,0,0,0-4.7,9.1c-.5,1.4,1.6,1.9,2.1.6a40.34,40.34,0,0,1,4.4-8.5A1.08,1.08,0,1,0,236.71,92.3Z"/>
    <path class="cls-6" d="M246,86.2a46,46,0,0,0-1.9,5.2,1.09,1.09,0,0,0,2.1.6c.5-1.6,1-3.1,1.6-4.7C248.51,86,246.61,84.9,246,86.2Z"/>
    <path class="cls-6" d="M251.41,93.3v5.1a1.1,1.1,0,0,0,2.2,0V93.3A1.1,1.1,0,0,0,251.41,93.3Z"/>
    <path class="cls-6" d="M242.81,100.5c-.6,2.1-1.2,4.1-1.8,6.1a1.09,1.09,0,0,0,2.1.6c.6-2.1,1.2-4.1,1.8-6.1C245.41,99.7,243.31,99.1,242.81,100.5Z"/>
    <path class="cls-6" d="M225.91,102a43.32,43.32,0,0,0-7.2,12.5c-.5,1.3,1.6,1.9,2.1.6a41.29,41.29,0,0,1,6.7-11.5C228.31,102.4,226.81,100.9,225.91,102Z"/>
    <path class="cls-6" d="M228,113.8a27,27,0,0,1-.4,2.8c-.1.6.6,1.1,1.1,1.1a1.18,1.18,0,0,0,1.1-1.1,27,27,0,0,1,.4-2.8c.1-.6-.6-1.1-1.1-1.1A1.18,1.18,0,0,0,228,113.8Z"/>
    <path class="cls-6" d="M251.91,113.7c.4,1.1.8,2.2,1.2,3.2.5,1.3,2.6.8,2.1-.6-.4-1.1-.8-2.2-1.2-3.2C253.51,111.8,251.41,112.3,251.91,113.7Z"/>
    <path class="cls-6" d="M244.51,126.6a10.22,10.22,0,0,0,.5,3.8,1.09,1.09,0,0,0,2.1-.6,11.7,11.7,0,0,1-.4-3.2C246.81,125.1,244.61,125.1,244.51,126.6Z"/>
    <path class="cls-6" d="M266.61,129.3c.1.3.3.5.4.8a1.13,1.13,0,0,0,1.5.4,1.24,1.24,0,0,0,.4-1.5c-.1-.3-.3-.5-.4-.8a1.13,1.13,0,0,0-1.5-.4A1.15,1.15,0,0,0,266.61,129.3Z"/>
    <path class="cls-7" d="M17.21,167.1c22-8.9,38.3-29.3,62.5-33a59.2,59.2,0,0,1,35.6,5.7c9.6,5,17.7,12.7,27.8,17.1a31.59,31.59,0,0,0,14.1,2.9c6.1-.3,11.6-2.9,17.3-4.9a46.43,46.43,0,0,1,19.9-2.3c6.7.6,13.3,2,20.1,2.7,12.9,1.2,24.6-2.9,37-5.6a54.55,54.55,0,0,1,20.9-.8c6.2,1,12.2,2.9,18.3,4,7.4,1.4,14.3.9,21.6-.4a59.67,59.67,0,0,1,11.1-1.1,54.44,54.44,0,0,1,11.4,2,66.45,66.45,0,0,0,42.8-4.6c1.3-.6.6-2.7-.7-2.1a63.89,63.89,0,0,1-40.6,4.8c-6.3-1.4-12.2-2.8-18.7-2-7.2.8-14.1,2.8-21.5,2-12.5-1.3-24.1-6.5-36.8-5.3-13,1.2-25.3,7.1-38.5,7.3-13,.2-25.9-4.8-39-2.8-5.9.9-11.2,3.5-16.9,5.3a29,29,0,0,1-18.2.2c-10.5-3.6-18.8-11.4-28.2-16.9A61.45,61.45,0,0,0,86,131.4c-12.9.5-24.5,5.5-35.3,12.4-11.4,7.3-21.9,16.2-34.6,21.3C15.21,165.5,15.91,167.6,17.21,167.1Z"/>
  </g>
</svg>
