<svg id="圖層_1" data-name="圖層 1" xmlns="http://www.w3.org/2000/svg" viewBox="0 0 81.79 95">
  <defs>
    <style>
      .cls-1 {
        fill: #4deaff;
      }

      .cls-2 {
        fill: none;
        stroke: #555;
        stroke-miterlimit: 10;
        stroke-width: 3px;
      }
    </style>
  </defs>
  <title>scene</title>
  <path class="cls-1" d="M10.81,57.66c.31,15.61,13.41,34.45,31,34.94,18.8.51,30.75-20.26,33.33-34.94C79.13,35.08,64,9.78,50,9.36,43.41,9.16,38.36,14.62,29.71,24,19.2,35.33,10.56,44.67,10.81,57.66Z"/>
  <path class="cls-2" d="M10.9,74.86C19.44,86,36.78,89.25,49.76,84c22.76-9.28,21.72-40.58,21.57-43.84C71.22,38,69.54,10,53.15,5.35,37.7,1,22.35,21.05,19.64,24.6,17.68,27.16-3.66,55.84,10.9,74.86Z"/>
</svg>
