<svg id="圖層_1" data-name="圖層 1" xmlns="http://www.w3.org/2000/svg" viewBox="0 0 80.1 90.58">
  <defs>
    <style>
      .cls-1 {
        fill: #88e591;
      }

      .cls-2 {
        fill: none;
        stroke: #555;
        stroke-miterlimit: 10;
        stroke-width: 3px;
      }
    </style>
  </defs>
  <title>scene</title>
  <path class="cls-1" d="M76.17,50.06C77.51,35,71.64,12.13,55.65,8.1c-15.33-3.87-30.48,12-36.74,23.65-9.48,17.7-9,45.35,6.53,54.34,12.13,7,27.54-.75,29.64-1.84C73.63,74.57,75.91,52.94,76.17,50.06Z"/>
  <path class="cls-2" d="M72.91,45.57c.91-13.2-3.82-34.76-20.33-40C36.37.42,20,14.58,13.08,26.23,2.86,43.35,3.64,70.45,19.62,80.57c12.93,8.2,29.18,1.07,30.79.33C70.73,71.62,72.78,47.52,72.91,45.57Z"/>
</svg>
