<svg id="圖層_1" data-name="圖層 1" xmlns="http://www.w3.org/2000/svg" viewBox="0 0 181.32 99.5">
  <defs>
    <style>
      .cls-1 {
        fill: #fff;
      }

      .cls-2 {
        fill: #ff7e64;
      }

      .cls-3 {
        fill: #ffe771;
      }

      .cls-4 {
        fill: #2f7cc9;
      }

      .cls-5, .cls-8 {
        fill: #555;
      }

      .cls-6 {
        fill: #50a4ff;
      }

      .cls-7 {
        fill: #fffdfd;
      }

      .cls-8 {
        stroke: #555;
        stroke-miterlimit: 10;
        stroke-width: 0.75px;
      }

      .cls-9 {
        fill: #4deaff;
      }

      .cls-10 {
        fill: #0eafc9;
      }
    </style>
  </defs>
  <title>素材元件</title>
  <g>
    <path class="cls-1" d="M70.12,10.3a32.47,32.47,0,0,0-6.9-.8,34.08,34.08,0,0,0-23.8,10c-8.1,7.9-11.7,18.3-9.7,28.7a35,35,0,0,0,13.6,21.2,31.7,31.7,0,0,0,24.2,6.2c15.9-2.7,28.5-17.2,28.6-32.9a30.53,30.53,0,0,0-.6-6A34.14,34.14,0,0,0,70.12,10.3Z"/>
    <path class="cls-1" d="M81.72,58.3a2,2,0,0,0,3.1.9c.3-.2.6-.7.8-.6s.4.4.6.4a1,1,0,0,0,.9-.2,17.88,17.88,0,0,1,1.4-1.3,1.41,1.41,0,0,0,.7-.6.45.45,0,1,0-.8-.4c-.2.3-1,.6-1.3.9s-.5.9-.8.8c.1,0-.6-.5-.5-.5a.85.85,0,0,0-.7,0l-.3.3c-.9.7-1.8,1.2-2.4,0C82.22,57.3,81.42,57.8,81.72,58.3Z"/>
    <path class="cls-1" d="M88.42,52.5a2.33,2.33,0,0,0,2,1,1.39,1.39,0,0,0,1.2-1.3,2.09,2.09,0,0,1-.6.4,1.78,1.78,0,0,0,2.3-1.1c.2-.6-.7-.8-.9-.2a1,1,0,0,1-1.2.5.49.49,0,0,0-.6.4l-.4.4a.84.84,0,0,1-.7-.2,2.65,2.65,0,0,1-.6-.5C88.62,51.5,88,52.1,88.42,52.5Z"/>
    <path class="cls-1" d="M81.72,58.3a2,2,0,0,0,3.1.9c.3-.2.6-.7.8-.6s.4.4.6.4a1,1,0,0,0,.9-.2,17.88,17.88,0,0,1,1.4-1.3,1.41,1.41,0,0,0,.7-.6.45.45,0,1,0-.8-.4c-.2.3-1,.6-1.3.9s-.5.9-.8.8c.1,0-.6-.5-.5-.5a.85.85,0,0,0-.7,0l-.3.3c-.9.7-1.8,1.2-2.4,0C82.22,57.3,81.42,57.8,81.72,58.3Z"/>
    <path class="cls-1" d="M88.42,52.5a2.33,2.33,0,0,0,2,1,1.39,1.39,0,0,0,1.2-1.3,2.09,2.09,0,0,1-.6.4,1.78,1.78,0,0,0,2.3-1.1c.2-.6-.7-.8-.9-.2a1,1,0,0,1-1.2.5.49.49,0,0,0-.6.4l-.4.4a.84.84,0,0,1-.7-.2,2.65,2.65,0,0,1-.6-.5C88.62,51.5,88,52.1,88.42,52.5Z"/>
    <path class="cls-1" d="M81.72,58.3a2,2,0,0,0,3.1.9c.3-.2.6-.7.8-.6s.4.4.6.4a1,1,0,0,0,.9-.2,17.88,17.88,0,0,1,1.4-1.3,1.41,1.41,0,0,0,.7-.6.45.45,0,1,0-.8-.4c-.2.3-1,.6-1.3.9s-.5.9-.8.8c.1,0-.6-.5-.5-.5a.85.85,0,0,0-.7,0l-.3.3c-.9.7-1.8,1.2-2.4,0C82.22,57.3,81.42,57.8,81.72,58.3Z"/>
    <path class="cls-1" d="M88.42,52.5a2.33,2.33,0,0,0,2,1,1.39,1.39,0,0,0,1.2-1.3,2.09,2.09,0,0,1-.6.4,1.78,1.78,0,0,0,2.3-1.1c.2-.6-.7-.8-.9-.2a1,1,0,0,1-1.2.5.49.49,0,0,0-.6.4l-.4.4a.84.84,0,0,1-.7-.2,2.65,2.65,0,0,1-.6-.5C88.62,51.5,88,52.1,88.42,52.5Z"/>
    <rect class="cls-2" x="28.72" y="41.4" width="65.8" height="4.5"/>
    <path class="cls-3" d="M30.22,47.5l18.7.3-.5,23.6C48.52,71.4,33.12,63.5,30.22,47.5Z"/>
    <path class="cls-3" d="M93.92,47.9l-18.7.3.5,23.6C75.72,71.7,91,63.9,93.92,47.9Z"/>
    <path class="cls-4" d="M96.32,47.7,60,47H28.82V45.8h31.1l36.3.7v1.2Z"/>
    <path class="cls-4" d="M96.82,42l-36.3-.7H29.42V40.1h31.2l36.3.7V42Z"/>
    <path class="cls-1" d="M50.42,73.3c0-6.1.5-34.6.5-34.6s5.5-6.2,6.7-7.6c1.6-1.9,3.3-3.8,4.9-5.6l4.1,4.7c2.2,2.5,6.9,7.3,6.9,7.3s.7,25.8.7,30.6v5.2"/>
    <path class="cls-5" d="M74.92,73.4h-1.2V68.2c0-4.5-.6-27.8-.7-30.4-.9-.9-4.8-5-6.8-7.2l-3.7-4.2-4.4,5.1c-1.1,1.2-5.7,6.5-6.6,7.5,0,2.7-.5,28.6-.5,34.3h-1.2c0-6.1.5-34.3.5-34.6v-.2l.2-.2c0-.1,5.5-6.2,6.7-7.6l5.4-6.1,4.6,5.2c2.1,2.4,6.9,7.2,6.9,7.3l.2.2v.2c0,.2.7,25.9.7,30.7v5.2Z"/>
    <path class="cls-6" d="M51,74l11.1,2.4,11.1-2.3V68.9c0-4.8-.5-30.8-.5-30.8l-9.5-11.6h-.9L51.42,39.3c0-.2-.4,28.5-.4,34.7"/>
    <path class="cls-1" d="M67.42,41a4.92,4.92,0,1,1-.6-2.3A3.35,3.35,0,0,1,67.42,41Z"/>
    <path class="cls-5" d="M62.52,46.5a5.51,5.51,0,0,1-5-3.3,5.37,5.37,0,0,1,.7-5.7,5.6,5.6,0,0,1,4.9-1.9,5.26,5.26,0,0,1,4.2,2.8,5.83,5.83,0,0,1,.6,2.6A5.34,5.34,0,0,1,62.52,46.5Zm.1-9.7a4.68,4.68,0,0,0-3.4,1.5,4.09,4.09,0,0,0-.5,4.4,4.24,4.24,0,0,0,3.9,2.6,4.47,4.47,0,0,0,4.3-4.3,4.55,4.55,0,0,0-.5-2,4.17,4.17,0,0,0-3.2-2.2Z"/>
    <path class="cls-7" d="M54.82,74.5v-19a9.64,9.64,0,0,1,0-2.4c.3-.7.4-.5,1.3-.5h4.7c1.2,0,9.6-.5,9.6.6-.1,7.4,0,14.8,0,22.2"/>
    <path class="cls-8" d="M62.52,76.7A33.22,33.22,0,0,1,42.82,70a35.85,35.85,0,0,1-13.9-21.7c-2-10.7,1.6-21.4,9.9-29.4,8.7-8.4,20.5-11.9,31.5-9.4,12.8,2.9,23.5,14,26,27a31.79,31.79,0,0,1,.6,6.2,33.93,33.93,0,0,1-8.6,21.9,35.77,35.77,0,0,1-20.7,11.8A43.61,43.61,0,0,1,62.52,76.7Zm.7-67.2a34.08,34.08,0,0,0-23.8,10c-8.1,7.9-11.7,18.3-9.7,28.7a35,35,0,0,0,13.6,21.2,31.7,31.7,0,0,0,24.2,6.2c15.9-2.7,28.5-17.2,28.6-32.9a30.53,30.53,0,0,0-.6-6,34.16,34.16,0,0,0-25.4-26.3A26.66,26.66,0,0,0,63.22,9.5Z"/>
    <path class="cls-3" d="M56.32,73.3V57.5a6,6,0,0,1,0-1.9c.2-.6.3-.4,1-.4h3.6c1,0,7.5-.4,7.4.5-.1,6.1,0,12.3,0,18.4"/>
    <path class="cls-1" d="M32.52,49.5a3.08,3.08,0,0,0,2.7,2.5c.6,0,1.6,0,2-.4s.5-1,.8-1.6h-.8a2.77,2.77,0,0,0,5.2-1c.1-.6-.8-.8-.9-.2a2,2,0,0,1-3.5.8.47.47,0,0,0-.8,0,3.88,3.88,0,0,1-.6,1.1c-1.3,1.4-2.9-.3-3.2-1.5C33.32,48.7,32.42,48.9,32.52,49.5Z"/>
    <path class="cls-1" d="M39.22,54.2a2.3,2.3,0,0,0,3,2.2l.6-.3c.1-.1.5-.6.6-.6a3.1,3.1,0,0,0,.7.2,3.42,3.42,0,0,0,1.7-.3,1.57,1.57,0,0,0,.8-2.2c-.2-.5-1-.1-.8.4s-1,1.1-1.4,1.1a1.42,1.42,0,0,1-.6-.2c-.2,0-.4-.2-.6-.1s-.4.3-.6.5a1.3,1.3,0,0,1-1.3.5,1.27,1.27,0,0,1-1.2-1.4C40,53.6,39.12,53.6,39.22,54.2Z"/>
    <path class="cls-1" d="M36.92,59.3a2.48,2.48,0,0,0,4.6.4h-.8a2.14,2.14,0,0,0,3.9-.5c.2-.6-.7-.8-.9-.2a1.19,1.19,0,0,1-2.2.3.47.47,0,0,0-.8,0,1.62,1.62,0,0,1-3-.2A.42.42,0,1,0,36.92,59.3Z"/>
    <path class="cls-1" d="M77.52,50.1a2.13,2.13,0,0,0,1.6,2,3.15,3.15,0,0,0,2.8-1.3h-.6a2.55,2.55,0,0,0,4-.3c.4-.4-.2-1.1-.6-.6-.8.9-1.8,1.3-2.8.3-.2-.2-.5-.2-.6,0-.5.6-2.6,2.4-2.8-.1C78.42,49.5,77.52,49.5,77.52,50.1Z"/>
    <path class="cls-1" d="M78.42,55.1a2.06,2.06,0,0,0,1.7,1,4.4,4.4,0,0,0,1-.2,2.19,2.19,0,0,0,.5-.3s.6-.6.3-.6c.1,0,1,.5,1.3.6h1.1a2.84,2.84,0,0,0,1.8-1.6c.2-.5-.5-1-.8-.4-.6,1.3-1.8,1.4-3,.7a.3.3,0,0,0-.4,0c-.7.5-1.6,2-2.6.4C78.92,54.2,78.12,54.6,78.42,55.1Z"/>
    <path class="cls-1" d="M77.22,60.7a1.6,1.6,0,0,0,.8,1.4,2.49,2.49,0,0,0,.8.1c.4-.1.6-.4,1-.4s.5.2.8.3a2.77,2.77,0,0,0,.9.1,2.6,2.6,0,0,0,1.6-.9c.4-.5-.4-.9-.8-.4a1.27,1.27,0,0,1-1.5.4c-.2-.1-.4-.3-.6-.4s-.4,0-.7,0c-.1,0-.2.1-.3.2-.3.3-.7.2-1.1-.3C78.12,60.2,77.22,60.2,77.22,60.7Z"/>
    <path class="cls-1" d="M77.62,65.8a1.83,1.83,0,0,0,2.4,0,.42.42,0,0,0-.6-.6.78.78,0,0,1-1.1,0A.46.46,0,1,0,77.62,65.8Z"/>
    <path class="cls-1" d="M43.62,62.5a2,2,0,0,0,3.4.9.42.42,0,0,0-.6-.6,1,1,0,0,1-1.8-.5C44.32,61.7,43.42,61.9,43.62,62.5Z"/>
    <path class="cls-1" d="M41.52,66.1a2,2,0,0,0,3-.8c.2-.5-.5-1-.8-.4a1.1,1.1,0,0,1-1.8.4C41.52,65,41,65.8,41.52,66.1Z"/>
    <path class="cls-2" d="M62.62,11.6l13.9,3.5V16s-13.1,4.1-13.7,3.7"/>
    <path class="cls-5" d="M63.22,25.7H62V12.1l16.2,4.1.1,1.1c-10.3,3.3-13.8,4.1-15,4.2v4.2Zm0-12v6.7c1.4-.1,7.6-1.9,12.6-3.5Z"/>
    <path class="cls-9" d="M151.32,55.7c-2.6-2.1-3.8,1.5-4,2.6a.64.64,0,0,0,0,.6.47.47,0,0,0,.5.4h1.8a2.77,2.77,0,0,1,.9.1,9.22,9.22,0,0,1,.8.5,3.61,3.61,0,0,0,4.2-.2c.4-.3.2-1.8-.3-2.2C154.62,56.8,152.92,56.9,151.32,55.7Z"/>
    <path class="cls-9" d="M156.52,61.4c.2-1.3,2.3-1.6,3.7-1.9a.85.85,0,0,1,.7,0c.5.2.7.8,1,1.3.9,1.3,2.9,1.1,4.4.4s2.6-1.9,4.2-2.1c2.5-.4,6,2,5.8,2.8-.3,1-2.1,1.4-3.6,1.4a7.44,7.44,0,0,0-2.6.2c-.8.2-1.5.9-2.4,1a22.75,22.75,0,0,1-2.6-.2c-1.4,0-2.8.9-4.1.5S156.32,63.2,156.52,61.4Z"/>
    <path class="cls-9" d="M22.42,74.1c2.5-3.5,4.5-7.1,7.9-10a29.1,29.1,0,0,1,12.1-6.2,9.13,9.13,0,0,1,6.7.8,13.84,13.84,0,0,1,3.3,3.1,62.71,62.71,0,0,0,12.8,10.8,1.8,1.8,0,0,0,.9.4c1.6.2,6.2-4.2,7.7-4.9,3.5-1.9,7.7-3.4,11.6-1.9,2.1.8,3.9,1.9,6,2.8,4.5,1.8,9.3,1.5,14,1.4,3.1-.1,6.4.8,9.5.4,3.4-.4,6.1-2.5,9.3-3.5,4.5-1.3,9.2.6,13.3,2.4a33.77,33.77,0,0,1,5.8,2.7c.5.4,1.1.9,1.1,1.5a1.46,1.46,0,0,1-.6.9c-5.6,5.8-15.9,5.4-22.7,9.4-9.5,5.5-19.7,5.9-30.5,5.8-3.3-.1-6.7-.1-10-.1-7.3-.1-14.7-.1-21.9-1.4-9.6-1.7-48.6,5.9-48.6-1.3,0-1.1,4.2-4.3,4.9-5.1,2.4-2.6,5.2-4.9,7.2-7.8Z"/>
    <path class="cls-10" d="M16.82,70.2c3.6-5.1,6.8-10,12.4-13.1,2.7-1.5,5.9-2.9,9.1-2.9,3.8-.1,5.8,2.2,8.1,4.8a74.55,74.55,0,0,0,6.5,6.1c1.7,1.4,4.4,4.1,6.6,4.5,2.4.4,4.8-2.3,6.5-3.7a19.77,19.77,0,0,1,6.8-3.4c3.9-.9,6.8.4,10.2,2.1,4.8,2.3,9.8,2.4,15.1,2.2s10.1,1.2,15.1-1.1c3.2-1.5,6.2-2.8,9.8-2.3,3.1.5,5.9,1.8,8.8,2.9,1.2.5,3,.9,4,1.8,2.2,2,.2,3-1.5,4a28.69,28.69,0,0,1-6.8,2.8c-4.2,1.2-8.6,2-12.5,4a49.68,49.68,0,0,1-17.6,5.6,149.43,149.43,0,0,1-17.7.4c-6.2-.1-12.5,0-18.7-.4-4-.2-7.9-1.2-11.9-1.2-6.5-.1-13.1.7-19.6,1.2-7.1.6-14.9,1.8-22,.4-.8-.2-2.2-.4-2.8-1.1-1.1-1.3.8-2.5,1.7-3.4a50.33,50.33,0,0,0,10.4-10.2c.5-.7-.6-1.4-1.1-.6-3.1,4.2-7.2,7.4-10.8,11.1-1.4,1.4-2.4,2.8-.8,4.4,1.4,1.3,3.7,1.5,5.4,1.7a72.07,72.07,0,0,0,10.4.1C28,86.5,36,85.5,44,85.1a39.32,39.32,0,0,1,8.4.1,183.6,183.6,0,0,0,21,1.4c12.3.1,25.6,1.4,37.2-3.5,2.9-1.2,5.5-2.9,8.4-4,2.6-.9,5.2-1.5,7.9-2.2a35.94,35.94,0,0,0,6.7-2.4c1.5-.8,4.2-2.1,5-3.8,1.6-3.4-5.9-5.4-7.9-6.2a24.54,24.54,0,0,0-8.8-2.4c-2.8-.1-5.2.9-7.8,2.1a18.84,18.84,0,0,1-10.5,1.6c-3.4-.3-6.8-.1-10.3-.2a24,24,0,0,1-10.2-2.5c-2.5-1.2-4.9-2.4-7.8-2.2a17.12,17.12,0,0,0-8.2,2.8c-1.9,1.2-3.4,2.8-5.4,4-1.6,1-2.6.2-4-.8a40.74,40.74,0,0,1-5.2-4.1c-2.7-2.3-4.9-5.1-7.5-7.5-4.4-4-10.6-2.2-15.4.3-6.3,3.2-9.8,8.4-13.8,14.1C15.22,70.2,16.32,70.9,16.82,70.2Z"/>
  </g>
</svg>
