<svg width="1920" height="823" viewBox="0 0 1920 823" fill="none" xmlns="http://www.w3.org/2000/svg">
<path d="M0 0H1920V823H0V0Z" fill="#50BC83"/>
<path d="M122.5 369.5H1798.5" stroke="#555555" stroke-width="15" stroke-linecap="round"/>
<path d="M242 400C258.569 400 272 386.569 272 370C272 353.431 258.569 340 242 340C225.431 340 212 353.431 212 370C212 386.569 225.431 400 242 400Z" fill="white"/>
<path d="M240.584 220H257.18V217.156H249.872C248.54 217.156 246.92 217.3 245.552 217.408C251.744 211.54 255.884 206.176 255.884 200.92C255.884 196.204 252.932 193.108 248.216 193.108C244.868 193.108 242.6 194.656 240.44 196.996L242.348 198.868C243.788 197.14 245.66 195.808 247.82 195.808C251.096 195.808 252.68 198.004 252.68 201.028C252.68 205.564 248.864 210.82 240.584 218.056V220ZM268.977 220.468C273.981 220.468 277.185 215.896 277.185 206.716C277.185 197.572 273.981 193.108 268.977 193.108C263.937 193.108 260.733 197.536 260.733 206.716C260.733 215.896 263.937 220.468 268.977 220.468ZM268.977 217.84C265.953 217.84 263.937 214.492 263.937 206.716C263.937 199.012 265.953 195.772 268.977 195.772C271.965 195.772 273.981 199.012 273.981 206.716C273.981 214.492 271.965 217.84 268.977 217.84ZM282.106 220H296.578V217.264H291.286V193.612H288.766C287.326 194.44 285.634 195.052 283.294 195.484V197.572H287.974V217.264H282.106V220ZM300.49 220H317.086V217.156H309.778C308.446 217.156 306.826 217.3 305.458 217.408C311.65 211.54 315.79 206.176 315.79 200.92C315.79 196.204 312.838 193.108 308.122 193.108C304.774 193.108 302.506 194.656 300.346 196.996L302.254 198.868C303.694 197.14 305.566 195.808 307.726 195.808C311.002 195.808 312.586 198.004 312.586 201.028C312.586 205.564 308.77 210.82 300.49 218.056V220ZM335.35 220.468C339.958 220.468 342.478 217.84 342.478 214.672C342.478 210.964 339.346 209.812 336.502 208.732C334.306 207.904 332.182 207.22 332.182 205.348C332.182 203.836 333.298 202.54 335.746 202.54C337.51 202.54 338.878 203.26 340.246 204.268L341.83 202.144C340.282 200.956 338.158 199.948 335.746 199.948C331.498 199.948 329.014 202.396 329.014 205.492C329.014 208.804 332.11 210.136 334.846 211.144C337.006 211.972 339.31 212.872 339.31 214.852C339.31 216.544 338.05 217.912 335.458 217.912C333.118 217.912 331.354 216.976 329.662 215.608L328.042 217.768C329.914 219.316 332.578 220.468 335.35 220.468ZM352.766 220.468C355.466 220.468 357.41 219.064 359.246 216.94H359.354L359.606 220H362.342V200.452H359.066V214.312C357.194 216.652 355.79 217.624 353.774 217.624C351.182 217.624 350.102 216.076 350.102 212.44V200.452H346.826V212.836C346.826 217.804 348.662 220.468 352.766 220.468ZM368.945 220H372.221V205.816C374.021 203.8 375.677 202.828 377.153 202.828C379.637 202.828 380.789 204.376 380.789 208.048V220H384.065V205.816C385.901 203.8 387.485 202.828 388.997 202.828C391.481 202.828 392.633 204.376 392.633 208.048V220H395.909V207.616C395.909 202.612 394.001 199.948 389.969 199.948C387.593 199.948 385.541 201.496 383.525 203.692C382.733 201.388 381.113 199.948 378.125 199.948C375.785 199.948 373.733 201.424 372.041 203.296H371.933L371.645 200.452H368.945V220ZM402.273 220H405.549V205.816C407.349 203.8 409.005 202.828 410.481 202.828C412.965 202.828 414.117 204.376 414.117 208.048V220H417.393V205.816C419.229 203.8 420.813 202.828 422.325 202.828C424.809 202.828 425.961 204.376 425.961 208.048V220H429.237V207.616C429.237 202.612 427.329 199.948 423.297 199.948C420.921 199.948 418.869 201.496 416.853 203.692C416.061 201.388 414.441 199.948 411.453 199.948C409.113 199.948 407.061 201.424 405.369 203.296H405.261L404.973 200.452H402.273V220ZM435.601 220H438.877V200.452H435.601V220ZM437.257 196.42C438.553 196.42 439.525 195.52 439.525 194.296C439.525 192.964 438.553 192.172 437.257 192.172C435.961 192.172 434.989 192.964 434.989 194.296C434.989 195.52 435.961 196.42 437.257 196.42ZM451.671 220.468C452.859 220.468 454.155 220.108 455.271 219.748L454.623 217.3C453.975 217.552 453.075 217.804 452.391 217.804C450.123 217.804 449.367 216.436 449.367 214.024V203.116H454.659V200.452H449.367V194.98H446.631L446.235 200.452L443.175 200.632V203.116H446.091V213.952C446.091 217.876 447.495 220.468 451.671 220.468Z" fill="#F8F8F8"/>
<path d="M242.5 348.5V226.5" stroke="#F8F8F8" stroke-width="3" stroke-linecap="round"/>
<path d="M438 400C454.569 400 468 386.569 468 370C468 353.431 454.569 340 438 340C421.431 340 408 353.431 408 370C408 386.569 421.431 400 438 400Z" fill="white"/>
<path d="M439.584 561H456.18V558.156H448.872C447.54 558.156 445.92 558.3 444.552 558.408C450.744 552.54 454.884 547.176 454.884 541.92C454.884 537.204 451.932 534.108 447.216 534.108C443.868 534.108 441.6 535.656 439.44 537.996L441.348 539.868C442.788 538.14 444.66 536.808 446.82 536.808C450.096 536.808 451.68 539.004 451.68 542.028C451.68 546.564 447.864 551.82 439.584 559.056V561ZM467.977 561.468C472.981 561.468 476.185 556.896 476.185 547.716C476.185 538.572 472.981 534.108 467.977 534.108C462.937 534.108 459.733 538.536 459.733 547.716C459.733 556.896 462.937 561.468 467.977 561.468ZM467.977 558.84C464.953 558.84 462.937 555.492 462.937 547.716C462.937 540.012 464.953 536.772 467.977 536.772C470.965 536.772 472.981 540.012 472.981 547.716C472.981 555.492 470.965 558.84 467.977 558.84ZM481.106 561H495.578V558.264H490.286V534.612H487.766C486.326 535.44 484.634 536.052 482.294 536.484V538.572H486.974V558.264H481.106V561ZM502.046 551.1L508.058 542.1C508.814 540.804 509.534 539.508 510.182 538.212H510.326C510.254 539.58 510.11 541.704 510.11 543V551.1H502.046ZM516.734 551.1H513.242V534.612H509.606L498.626 551.568V553.728H510.11V561H513.242V553.728H516.734V551.1ZM534.35 561.468C538.958 561.468 541.478 558.84 541.478 555.672C541.478 551.964 538.346 550.812 535.502 549.732C533.306 548.904 531.182 548.22 531.182 546.348C531.182 544.836 532.298 543.54 534.746 543.54C536.51 543.54 537.878 544.26 539.246 545.268L540.83 543.144C539.282 541.956 537.158 540.948 534.746 540.948C530.498 540.948 528.014 543.396 528.014 546.492C528.014 549.804 531.11 551.136 533.846 552.144C536.006 552.972 538.31 553.872 538.31 555.852C538.31 557.544 537.05 558.912 534.458 558.912C532.118 558.912 530.354 557.976 528.662 556.608L527.042 558.768C528.914 560.316 531.578 561.468 534.35 561.468ZM551.766 561.468C554.466 561.468 556.41 560.064 558.246 557.94H558.354L558.606 561H561.342V541.452H558.066V555.312C556.194 557.652 554.79 558.624 552.774 558.624C550.182 558.624 549.102 557.076 549.102 553.44V541.452H545.826V553.836C545.826 558.804 547.662 561.468 551.766 561.468ZM567.945 561H571.221V546.816C573.021 544.8 574.677 543.828 576.153 543.828C578.637 543.828 579.789 545.376 579.789 549.048V561H583.065V546.816C584.901 544.8 586.485 543.828 587.997 543.828C590.481 543.828 591.633 545.376 591.633 549.048V561H594.909V548.616C594.909 543.612 593.001 540.948 588.969 540.948C586.593 540.948 584.541 542.496 582.525 544.692C581.733 542.388 580.113 540.948 577.125 540.948C574.785 540.948 572.733 542.424 571.041 544.296H570.933L570.645 541.452H567.945V561ZM601.273 561H604.549V546.816C606.349 544.8 608.005 543.828 609.481 543.828C611.965 543.828 613.117 545.376 613.117 549.048V561H616.393V546.816C618.229 544.8 619.813 543.828 621.325 543.828C623.809 543.828 624.961 545.376 624.961 549.048V561H628.237V548.616C628.237 543.612 626.329 540.948 622.297 540.948C619.921 540.948 617.869 542.496 615.853 544.692C615.061 542.388 613.441 540.948 610.453 540.948C608.113 540.948 606.061 542.424 604.369 544.296H604.261L603.973 541.452H601.273V561ZM634.601 561H637.877V541.452H634.601V561ZM636.257 537.42C637.553 537.42 638.525 536.52 638.525 535.296C638.525 533.964 637.553 533.172 636.257 533.172C634.961 533.172 633.989 533.964 633.989 535.296C633.989 536.52 634.961 537.42 636.257 537.42ZM650.671 561.468C651.859 561.468 653.155 561.108 654.271 560.748L653.623 558.3C652.975 558.552 652.075 558.804 651.391 558.804C649.123 558.804 648.367 557.436 648.367 555.024V544.116H653.659V541.452H648.367V535.98H645.631L645.235 541.452L642.175 541.632V544.116H645.091V554.952C645.091 558.876 646.495 561.468 650.671 561.468Z" fill="#F8F8F8"/>
<path d="M438.5 512.5V390.5" stroke="#F8F8F8" stroke-width="3" stroke-linecap="round"/>
<path d="M1025 400C1041.57 400 1055 386.569 1055 370C1055 353.431 1041.57 340 1025 340C1008.43 340 995 353.431 995 370C995 386.569 1008.43 400 1025 400Z" fill="white"/>
<path d="M1016.58 220H1033.18V217.156H1025.87C1024.54 217.156 1022.92 217.3 1021.55 217.408C1027.74 211.54 1031.88 206.176 1031.88 200.92C1031.88 196.204 1028.93 193.108 1024.22 193.108C1020.87 193.108 1018.6 194.656 1016.44 196.996L1018.35 198.868C1019.79 197.14 1021.66 195.808 1023.82 195.808C1027.1 195.808 1028.68 198.004 1028.68 201.028C1028.68 205.564 1024.86 210.82 1016.58 218.056V220ZM1044.98 220.468C1049.98 220.468 1053.18 215.896 1053.18 206.716C1053.18 197.572 1049.98 193.108 1044.98 193.108C1039.94 193.108 1036.73 197.536 1036.73 206.716C1036.73 215.896 1039.94 220.468 1044.98 220.468ZM1044.98 217.84C1041.95 217.84 1039.94 214.492 1039.94 206.716C1039.94 199.012 1041.95 195.772 1044.98 195.772C1047.96 195.772 1049.98 199.012 1049.98 206.716C1049.98 214.492 1047.96 217.84 1044.98 217.84ZM1056.52 220H1073.12V217.156H1065.81C1064.48 217.156 1062.86 217.3 1061.49 217.408C1067.68 211.54 1071.82 206.176 1071.82 200.92C1071.82 196.204 1068.87 193.108 1064.15 193.108C1060.81 193.108 1058.54 194.656 1056.38 196.996L1058.29 198.868C1059.73 197.14 1061.6 195.808 1063.76 195.808C1067.03 195.808 1068.62 198.004 1068.62 201.028C1068.62 205.564 1064.8 210.82 1056.52 218.056V220ZM1084.91 220.468C1089.92 220.468 1093.12 215.896 1093.12 206.716C1093.12 197.572 1089.92 193.108 1084.91 193.108C1079.87 193.108 1076.67 197.536 1076.67 206.716C1076.67 215.896 1079.87 220.468 1084.91 220.468ZM1084.91 217.84C1081.89 217.84 1079.87 214.492 1079.87 206.716C1079.87 199.012 1081.89 195.772 1084.91 195.772C1087.9 195.772 1089.92 199.012 1089.92 206.716C1089.92 214.492 1087.9 217.84 1084.91 217.84ZM1111.35 220.468C1115.96 220.468 1118.48 217.84 1118.48 214.672C1118.48 210.964 1115.35 209.812 1112.5 208.732C1110.31 207.904 1108.18 207.22 1108.18 205.348C1108.18 203.836 1109.3 202.54 1111.75 202.54C1113.51 202.54 1114.88 203.26 1116.25 204.268L1117.83 202.144C1116.28 200.956 1114.16 199.948 1111.75 199.948C1107.5 199.948 1105.01 202.396 1105.01 205.492C1105.01 208.804 1108.11 210.136 1110.85 211.144C1113.01 211.972 1115.31 212.872 1115.31 214.852C1115.31 216.544 1114.05 217.912 1111.46 217.912C1109.12 217.912 1107.35 216.976 1105.66 215.608L1104.04 217.768C1105.91 219.316 1108.58 220.468 1111.35 220.468ZM1128.77 220.468C1131.47 220.468 1133.41 219.064 1135.25 216.94H1135.35L1135.61 220H1138.34V200.452H1135.07V214.312C1133.19 216.652 1131.79 217.624 1129.77 217.624C1127.18 217.624 1126.1 216.076 1126.1 212.44V200.452H1122.83V212.836C1122.83 217.804 1124.66 220.468 1128.77 220.468ZM1144.94 220H1148.22V205.816C1150.02 203.8 1151.68 202.828 1153.15 202.828C1155.64 202.828 1156.79 204.376 1156.79 208.048V220H1160.06V205.816C1161.9 203.8 1163.48 202.828 1165 202.828C1167.48 202.828 1168.63 204.376 1168.63 208.048V220H1171.91V207.616C1171.91 202.612 1170 199.948 1165.97 199.948C1163.59 199.948 1161.54 201.496 1159.52 203.692C1158.73 201.388 1157.11 199.948 1154.12 199.948C1151.78 199.948 1149.73 201.424 1148.04 203.296H1147.93L1147.64 200.452H1144.94V220ZM1178.27 220H1181.55V205.816C1183.35 203.8 1185 202.828 1186.48 202.828C1188.96 202.828 1190.12 204.376 1190.12 208.048V220H1193.39V205.816C1195.23 203.8 1196.81 202.828 1198.32 202.828C1200.81 202.828 1201.96 204.376 1201.96 208.048V220H1205.24V207.616C1205.24 202.612 1203.33 199.948 1199.3 199.948C1196.92 199.948 1194.87 201.496 1192.85 203.692C1192.06 201.388 1190.44 199.948 1187.45 199.948C1185.11 199.948 1183.06 201.424 1181.37 203.296H1181.26L1180.97 200.452H1178.27V220ZM1211.6 220H1214.88V200.452H1211.6V220ZM1213.26 196.42C1214.55 196.42 1215.53 195.52 1215.53 194.296C1215.53 192.964 1214.55 192.172 1213.26 192.172C1211.96 192.172 1210.99 192.964 1210.99 194.296C1210.99 195.52 1211.96 196.42 1213.26 196.42ZM1227.67 220.468C1228.86 220.468 1230.16 220.108 1231.27 219.748L1230.62 217.3C1229.98 217.552 1229.08 217.804 1228.39 217.804C1226.12 217.804 1225.37 216.436 1225.37 214.024V203.116H1230.66V200.452H1225.37V194.98H1222.63L1222.24 200.452L1219.18 200.632V203.116H1222.09V213.952C1222.09 217.876 1223.5 220.468 1227.67 220.468Z" fill="#F8F8F8"/>
<path d="M1024.5 348.5V226.5" stroke="#F8F8F8" stroke-width="3" stroke-linecap="round"/>
<path d="M633 400C649.569 400 663 386.569 663 370C663 353.431 649.569 340 633 340C616.431 340 603 353.431 603 370C603 386.569 616.431 400 633 400Z" fill="white"/>
<path d="M628.584 220H645.18V217.156H637.872C636.54 217.156 634.92 217.3 633.552 217.408C639.744 211.54 643.884 206.176 643.884 200.92C643.884 196.204 640.932 193.108 636.216 193.108C632.868 193.108 630.6 194.656 628.44 196.996L630.348 198.868C631.788 197.14 633.66 195.808 635.82 195.808C639.096 195.808 640.68 198.004 640.68 201.028C640.68 205.564 636.864 210.82 628.584 218.056V220ZM656.977 220.468C661.981 220.468 665.185 215.896 665.185 206.716C665.185 197.572 661.981 193.108 656.977 193.108C651.937 193.108 648.733 197.536 648.733 206.716C648.733 215.896 651.937 220.468 656.977 220.468ZM656.977 217.84C653.953 217.84 651.937 214.492 651.937 206.716C651.937 199.012 653.953 195.772 656.977 195.772C659.965 195.772 661.981 199.012 661.981 206.716C661.981 214.492 659.965 217.84 656.977 217.84ZM670.106 220H684.578V217.264H679.286V193.612H676.766C675.326 194.44 673.634 195.052 671.294 195.484V197.572H675.974V217.264H670.106V220ZM697.742 217.912C694.43 217.912 692.45 214.924 692.054 209.452C693.782 207.004 695.798 206.068 697.454 206.068C700.658 206.068 702.206 208.336 702.206 211.9C702.206 215.5 700.262 217.912 697.742 217.912ZM704.834 195.808C703.394 194.26 701.414 193.108 698.678 193.108C693.566 193.108 688.922 197.068 688.922 207.4C688.922 216.112 692.666 220.468 697.742 220.468C701.846 220.468 705.302 217.012 705.302 211.9C705.302 206.392 702.458 203.62 697.994 203.62C695.906 203.62 693.602 204.844 691.982 206.824C692.126 198.616 695.186 195.844 698.786 195.844C700.406 195.844 701.99 196.6 703.034 197.86L704.834 195.808ZM723.35 220.468C727.958 220.468 730.478 217.84 730.478 214.672C730.478 210.964 727.346 209.812 724.502 208.732C722.306 207.904 720.182 207.22 720.182 205.348C720.182 203.836 721.298 202.54 723.746 202.54C725.51 202.54 726.878 203.26 728.246 204.268L729.83 202.144C728.282 200.956 726.158 199.948 723.746 199.948C719.498 199.948 717.014 202.396 717.014 205.492C717.014 208.804 720.11 210.136 722.846 211.144C725.006 211.972 727.31 212.872 727.31 214.852C727.31 216.544 726.05 217.912 723.458 217.912C721.118 217.912 719.354 216.976 717.662 215.608L716.042 217.768C717.914 219.316 720.578 220.468 723.35 220.468ZM740.766 220.468C743.466 220.468 745.41 219.064 747.246 216.94H747.354L747.606 220H750.342V200.452H747.066V214.312C745.194 216.652 743.79 217.624 741.774 217.624C739.182 217.624 738.102 216.076 738.102 212.44V200.452H734.826V212.836C734.826 217.804 736.662 220.468 740.766 220.468ZM756.945 220H760.221V205.816C762.021 203.8 763.677 202.828 765.153 202.828C767.637 202.828 768.789 204.376 768.789 208.048V220H772.065V205.816C773.901 203.8 775.485 202.828 776.997 202.828C779.481 202.828 780.633 204.376 780.633 208.048V220H783.909V207.616C783.909 202.612 782.001 199.948 777.969 199.948C775.593 199.948 773.541 201.496 771.525 203.692C770.733 201.388 769.113 199.948 766.125 199.948C763.785 199.948 761.733 201.424 760.041 203.296H759.933L759.645 200.452H756.945V220ZM790.273 220H793.549V205.816C795.349 203.8 797.005 202.828 798.481 202.828C800.965 202.828 802.117 204.376 802.117 208.048V220H805.393V205.816C807.229 203.8 808.813 202.828 810.325 202.828C812.809 202.828 813.961 204.376 813.961 208.048V220H817.237V207.616C817.237 202.612 815.329 199.948 811.297 199.948C808.921 199.948 806.869 201.496 804.853 203.692C804.061 201.388 802.441 199.948 799.453 199.948C797.113 199.948 795.061 201.424 793.369 203.296H793.261L792.973 200.452H790.273V220ZM823.601 220H826.877V200.452H823.601V220ZM825.257 196.42C826.553 196.42 827.525 195.52 827.525 194.296C827.525 192.964 826.553 192.172 825.257 192.172C823.961 192.172 822.989 192.964 822.989 194.296C822.989 195.52 823.961 196.42 825.257 196.42ZM839.671 220.468C840.859 220.468 842.155 220.108 843.271 219.748L842.623 217.3C841.975 217.552 841.075 217.804 840.391 217.804C838.123 217.804 837.367 216.436 837.367 214.024V203.116H842.659V200.452H837.367V194.98H834.631L834.235 200.452L831.175 200.632V203.116H834.091V213.952C834.091 217.876 835.495 220.468 839.671 220.468Z" fill="#F8F8F8"/>
<path d="M633.5 348.5V226.5" stroke="#F8F8F8" stroke-width="3" stroke-linecap="round"/>
<path d="M829 400C845.569 400 859 386.569 859 370C859 353.431 845.569 340 829 340C812.431 340 799 353.431 799 370C799 386.569 812.431 400 829 400Z" fill="white"/>
<path d="M830.584 561H847.18V558.156H839.872C838.54 558.156 836.92 558.3 835.552 558.408C841.744 552.54 845.884 547.176 845.884 541.92C845.884 537.204 842.932 534.108 838.216 534.108C834.868 534.108 832.6 535.656 830.44 537.996L832.348 539.868C833.788 538.14 835.66 536.808 837.82 536.808C841.096 536.808 842.68 539.004 842.68 542.028C842.68 546.564 838.864 551.82 830.584 559.056V561ZM858.977 561.468C863.981 561.468 867.185 556.896 867.185 547.716C867.185 538.572 863.981 534.108 858.977 534.108C853.937 534.108 850.733 538.536 850.733 547.716C850.733 556.896 853.937 561.468 858.977 561.468ZM858.977 558.84C855.953 558.84 853.937 555.492 853.937 547.716C853.937 540.012 855.953 536.772 858.977 536.772C861.965 536.772 863.981 540.012 863.981 547.716C863.981 555.492 861.965 558.84 858.977 558.84ZM872.106 561H886.578V558.264H881.286V534.612H878.766C877.326 535.44 875.634 536.052 873.294 536.484V538.572H877.974V558.264H872.106V561ZM898.95 561.468C903.918 561.468 907.23 558.48 907.23 554.628C907.23 551.028 905.07 549.048 902.766 547.716V547.536C904.35 546.312 906.294 543.936 906.294 541.164C906.294 537.096 903.558 534.216 899.058 534.216C894.918 534.216 891.822 536.88 891.822 540.912C891.822 543.684 893.442 545.664 895.386 546.996V547.176C892.974 548.472 890.526 550.92 890.526 554.448C890.526 558.516 894.09 561.468 898.95 561.468ZM900.75 546.672C897.654 545.448 894.81 544.08 894.81 540.912C894.81 538.356 896.574 536.628 898.986 536.628C901.83 536.628 903.486 538.752 903.486 541.344C903.486 543.288 902.55 545.088 900.75 546.672ZM899.022 559.02C895.854 559.02 893.514 556.968 893.514 554.16C893.514 551.64 894.99 549.552 897.114 548.184C900.858 549.696 904.098 551.028 904.098 554.556C904.098 557.184 902.046 559.02 899.022 559.02ZM925.35 561.468C929.958 561.468 932.478 558.84 932.478 555.672C932.478 551.964 929.346 550.812 926.502 549.732C924.306 548.904 922.182 548.22 922.182 546.348C922.182 544.836 923.298 543.54 925.746 543.54C927.51 543.54 928.878 544.26 930.246 545.268L931.83 543.144C930.282 541.956 928.158 540.948 925.746 540.948C921.498 540.948 919.014 543.396 919.014 546.492C919.014 549.804 922.11 551.136 924.846 552.144C927.006 552.972 929.31 553.872 929.31 555.852C929.31 557.544 928.05 558.912 925.458 558.912C923.118 558.912 921.354 557.976 919.662 556.608L918.042 558.768C919.914 560.316 922.578 561.468 925.35 561.468ZM942.766 561.468C945.466 561.468 947.41 560.064 949.246 557.94H949.354L949.606 561H952.342V541.452H949.066V555.312C947.194 557.652 945.79 558.624 943.774 558.624C941.182 558.624 940.102 557.076 940.102 553.44V541.452H936.826V553.836C936.826 558.804 938.662 561.468 942.766 561.468ZM958.945 561H962.221V546.816C964.021 544.8 965.677 543.828 967.153 543.828C969.637 543.828 970.789 545.376 970.789 549.048V561H974.065V546.816C975.901 544.8 977.485 543.828 978.997 543.828C981.481 543.828 982.633 545.376 982.633 549.048V561H985.909V548.616C985.909 543.612 984.001 540.948 979.969 540.948C977.593 540.948 975.541 542.496 973.525 544.692C972.733 542.388 971.113 540.948 968.125 540.948C965.785 540.948 963.733 542.424 962.041 544.296H961.933L961.645 541.452H958.945V561ZM992.273 561H995.549V546.816C997.349 544.8 999.005 543.828 1000.48 543.828C1002.96 543.828 1004.12 545.376 1004.12 549.048V561H1007.39V546.816C1009.23 544.8 1010.81 543.828 1012.32 543.828C1014.81 543.828 1015.96 545.376 1015.96 549.048V561H1019.24V548.616C1019.24 543.612 1017.33 540.948 1013.3 540.948C1010.92 540.948 1008.87 542.496 1006.85 544.692C1006.06 542.388 1004.44 540.948 1001.45 540.948C999.113 540.948 997.061 542.424 995.369 544.296H995.261L994.973 541.452H992.273V561ZM1025.6 561H1028.88V541.452H1025.6V561ZM1027.26 537.42C1028.55 537.42 1029.53 536.52 1029.53 535.296C1029.53 533.964 1028.55 533.172 1027.26 533.172C1025.96 533.172 1024.99 533.964 1024.99 535.296C1024.99 536.52 1025.96 537.42 1027.26 537.42ZM1041.67 561.468C1042.86 561.468 1044.16 561.108 1045.27 560.748L1044.62 558.3C1043.98 558.552 1043.08 558.804 1042.39 558.804C1040.12 558.804 1039.37 557.436 1039.37 555.024V544.116H1044.66V541.452H1039.37V535.98H1036.63L1036.24 541.452L1033.18 541.632V544.116H1036.09V554.952C1036.09 558.876 1037.5 561.468 1041.67 561.468Z" fill="#F8F8F8"/>
<path d="M829.5 512.5V390.5" stroke="#F8F8F8" stroke-width="3" stroke-linecap="round"/>
<path d="M1416 400C1432.57 400 1446 386.569 1446 370C1446 353.431 1432.57 340 1416 340C1399.43 340 1386 353.431 1386 370C1386 386.569 1399.43 400 1416 400Z" fill="white"/>
<path d="M1431.08 194.188V198.868H1422.66V194.188H1431.08ZM1422.66 206.248V201.28H1431.08V206.248H1422.66ZM1427.41 211.576C1428.06 212.692 1428.82 213.988 1429.54 215.284L1422.66 217.516V208.66H1433.71V191.776H1420V216.688C1420 218.056 1419.1 218.668 1418.48 218.956C1418.92 219.64 1419.42 220.936 1419.6 221.692C1420.36 221.116 1421.54 220.612 1430.62 217.408C1431.3 218.74 1431.88 220.036 1432.27 221.008L1434.68 219.676C1433.68 217.3 1431.52 213.412 1429.68 210.496L1427.41 211.576ZM1448.8 191.992H1437.02V222.772H1439.65V194.512H1446.17V212.584C1446.17 213.088 1445.99 213.232 1445.48 213.232C1445.02 213.268 1443.36 213.268 1441.49 213.196C1441.88 213.952 1442.17 215.032 1442.28 215.752C1444.91 215.788 1446.53 215.752 1447.5 215.284C1448.47 214.852 1448.8 214.096 1448.8 212.584V191.992ZM1461.18 217.372V207.328H1479.04V217.372H1461.18ZM1479.04 194.98V204.7H1461.18V194.98H1479.04ZM1458.48 192.352V222.34H1461.18V220H1479.04V222.196H1481.84V192.352H1458.48ZM1517.88 193.972V202.216H1509.67V193.972H1517.88ZM1518.28 216.904C1521.44 216.904 1522.2 215.392 1522.6 210.496C1521.84 210.352 1520.8 209.92 1520.18 209.452C1519.97 213.556 1519.72 214.456 1518.17 214.456H1511.8C1510 214.456 1509.67 214.132 1509.67 212.584V204.592H1520.47V191.596H1507.08V212.584C1507.08 216.004 1508.16 216.904 1511.58 216.904H1518.28ZM1499.74 210.964H1504.88V208.588H1499.74V203.26H1505.21V200.848H1499.16V196.312H1504.34V193.936H1499.16V189.94H1496.6V193.936H1490.77V196.312H1496.6V200.848H1489.87V203.26H1497.25V216.76C1495.81 215.536 1494.77 213.772 1493.98 211.252C1494.08 209.668 1494.16 207.976 1494.19 206.248L1491.67 206.068C1491.56 212.476 1491.17 218.164 1489.08 221.764C1489.69 222.052 1490.84 222.736 1491.31 223.06C1492.39 221.044 1493.04 218.596 1493.47 215.716C1496.1 220.612 1500.38 221.836 1507.98 221.836H1521.7C1521.88 221.044 1522.38 219.82 1522.81 219.172C1520.62 219.28 1509.67 219.28 1507.94 219.244C1504.52 219.244 1501.86 218.992 1499.74 218.2V210.964ZM1556.62 204.304C1554.71 201.892 1550.71 198.4 1547.47 195.988L1545.35 197.356C1546.79 198.472 1548.34 199.804 1549.81 201.136L1533.18 201.82C1535.45 199.768 1537.75 197.176 1539.88 194.404H1556.87V191.884H1526.88V194.404H1536.38C1534.33 197.248 1531.88 199.732 1530.98 200.488C1530.01 201.424 1529.18 202.036 1528.5 202.144C1528.82 202.864 1529.22 204.196 1529.36 204.808C1530.7 204.34 1532.64 204.268 1552.04 203.332C1552.98 204.268 1553.77 205.168 1554.35 205.924L1556.62 204.304ZM1543.3 218.848V212.224H1555V209.74H1543.3V205.06H1540.6V209.74H1529.22V212.224H1540.6V218.848H1526.09V221.368H1558.02V218.848H1543.3ZM1569.4 207.544C1566.26 207.544 1564.68 205.24 1564.68 201.676C1564.68 198.076 1566.62 195.7 1569.14 195.7C1572.53 195.7 1574.54 198.58 1574.9 204.016C1573.14 206.536 1571.16 207.544 1569.4 207.544ZM1562.09 217.768C1563.56 219.316 1565.58 220.468 1568.42 220.468C1573.39 220.468 1578 216.364 1578 205.672C1578 197.284 1574.22 193.108 1569.14 193.108C1565.04 193.108 1561.58 196.564 1561.58 201.676C1561.58 207.148 1564.46 209.992 1568.86 209.992C1571.09 209.992 1573.36 208.696 1574.94 206.716C1574.69 214.924 1571.74 217.732 1568.32 217.732C1566.62 217.732 1565 216.976 1563.89 215.716L1562.09 217.768ZM1580.36 226.444H1582.78L1593.54 191.452H1591.16L1580.36 226.444ZM1597.23 220H1611.71V217.264H1606.41V193.612H1603.89C1602.45 194.44 1600.76 195.052 1598.42 195.484V197.572H1603.1V217.264H1597.23V220Z" fill="#F8F8F8"/>
<path d="M1415.5 348.5V226.5" stroke="#F8F8F8" stroke-width="3" stroke-linecap="round"/>
<path d="M1455.48 262.816V267.008H1439V262.816H1455.48ZM1436.63 270.528H1439V268.992H1455.48V270.528H1457.88V260.864H1436.63V270.528ZM1439 254.304H1447.19V256.672H1439V254.304ZM1447.19 248.736H1439V246.56H1447.19V248.736ZM1447.19 252.608H1439V250.432H1447.19V252.608ZM1449.5 256.672V254.304H1457.59V252.608H1449.5V250.432H1457.5V248.736H1449.5V246.56H1459.03V244.768H1449.98C1449.53 243.68 1448.76 242.304 1448.09 241.216L1445.91 241.824C1446.42 242.72 1446.97 243.808 1447.38 244.768H1439.8C1440.31 243.808 1440.86 242.816 1441.3 241.856L1439.06 241.152C1437.5 244.768 1434.87 248.288 1432.12 250.56C1432.63 250.976 1433.46 251.904 1433.82 252.32C1434.78 251.456 1435.74 250.432 1436.66 249.28V259.808H1439V258.528H1459.77V256.672H1449.5ZM1481.37 246.944H1476.34V244.48H1481.37V246.944ZM1488.76 248.736V252.416H1483.64V248.736H1488.76ZM1476.34 248.736H1481.37V252.416H1476.34V248.736ZM1469.27 248.736H1474.14V252.416H1469.27V248.736ZM1474.14 246.944H1467.06V254.24H1491.1V246.944H1483.64V244.48H1492.66V242.496H1465.14V244.48H1474.14V246.944ZM1489.4 258.24V256.352H1468.7V258.24H1489.4ZM1471.74 263.2C1470.07 265.184 1467.26 267.04 1464.54 268.224C1465.05 268.576 1465.98 269.408 1466.33 269.792C1468.98 268.416 1472.02 266.272 1473.91 263.968L1471.74 263.2ZM1483.64 264.544C1486.26 266.048 1489.62 268.224 1491.26 269.664L1493.08 268.288C1491.32 266.816 1487.93 264.704 1485.34 263.296L1483.64 264.544ZM1464.79 260.448V262.4H1477.82V270.528H1480.15V262.4H1493.27V260.448H1464.79Z" fill="#555555"/>
<path d="M1221 400C1237.57 400 1251 386.569 1251 370C1251 353.431 1237.57 340 1221 340C1204.43 340 1191 353.431 1191 370C1191 386.569 1204.43 400 1221 400Z" fill="white"/>
<path d="M1231.08 535.188V539.868H1222.66V535.188H1231.08ZM1222.66 547.248V542.28H1231.08V547.248H1222.66ZM1227.41 552.576C1228.06 553.692 1228.82 554.988 1229.54 556.284L1222.66 558.516V549.66H1233.71V532.776H1220V557.688C1220 559.056 1219.1 559.668 1218.48 559.956C1218.92 560.64 1219.42 561.936 1219.6 562.692C1220.36 562.116 1221.54 561.612 1230.62 558.408C1231.3 559.74 1231.88 561.036 1232.27 562.008L1234.68 560.676C1233.68 558.3 1231.52 554.412 1229.68 551.496L1227.41 552.576ZM1248.8 532.992H1237.02V563.772H1239.65V535.512H1246.17V553.584C1246.17 554.088 1245.99 554.232 1245.48 554.232C1245.02 554.268 1243.36 554.268 1241.49 554.196C1241.88 554.952 1242.17 556.032 1242.28 556.752C1244.91 556.788 1246.53 556.752 1247.5 556.284C1248.47 555.852 1248.8 555.096 1248.8 553.584V532.992ZM1261.18 558.372V548.328H1279.04V558.372H1261.18ZM1279.04 535.98V545.7H1261.18V535.98H1279.04ZM1258.48 533.352V563.34H1261.18V561H1279.04V563.196H1281.84V533.352H1258.48ZM1317.88 534.972V543.216H1309.67V534.972H1317.88ZM1318.28 557.904C1321.44 557.904 1322.2 556.392 1322.6 551.496C1321.84 551.352 1320.8 550.92 1320.18 550.452C1319.97 554.556 1319.72 555.456 1318.17 555.456H1311.8C1310 555.456 1309.67 555.132 1309.67 553.584V545.592H1320.47V532.596H1307.08V553.584C1307.08 557.004 1308.16 557.904 1311.58 557.904H1318.28ZM1299.74 551.964H1304.88V549.588H1299.74V544.26H1305.21V541.848H1299.16V537.312H1304.34V534.936H1299.16V530.94H1296.6V534.936H1290.77V537.312H1296.6V541.848H1289.87V544.26H1297.25V557.76C1295.81 556.536 1294.77 554.772 1293.98 552.252C1294.08 550.668 1294.16 548.976 1294.19 547.248L1291.67 547.068C1291.56 553.476 1291.17 559.164 1289.08 562.764C1289.69 563.052 1290.84 563.736 1291.31 564.06C1292.39 562.044 1293.04 559.596 1293.47 556.716C1296.1 561.612 1300.38 562.836 1307.98 562.836H1321.7C1321.88 562.044 1322.38 560.82 1322.81 560.172C1320.62 560.28 1309.67 560.28 1307.94 560.244C1304.52 560.244 1301.86 559.992 1299.74 559.2V551.964ZM1356.62 545.304C1354.71 542.892 1350.71 539.4 1347.47 536.988L1345.35 538.356C1346.79 539.472 1348.34 540.804 1349.81 542.136L1333.18 542.82C1335.45 540.768 1337.75 538.176 1339.88 535.404H1356.87V532.884H1326.88V535.404H1336.38C1334.33 538.248 1331.88 540.732 1330.98 541.488C1330.01 542.424 1329.18 543.036 1328.5 543.144C1328.82 543.864 1329.22 545.196 1329.36 545.808C1330.7 545.34 1332.64 545.268 1352.04 544.332C1352.98 545.268 1353.77 546.168 1354.35 546.924L1356.62 545.304ZM1343.3 559.848V553.224H1355V550.74H1343.3V546.06H1340.6V550.74H1329.22V553.224H1340.6V559.848H1326.09V562.368H1358.02V559.848H1343.3ZM1370.84 558.912C1367.52 558.912 1365.54 555.924 1365.15 550.452C1366.88 548.004 1368.89 547.068 1370.55 547.068C1373.75 547.068 1375.3 549.336 1375.3 552.9C1375.3 556.5 1373.36 558.912 1370.84 558.912ZM1377.93 536.808C1376.49 535.26 1374.51 534.108 1371.77 534.108C1366.66 534.108 1362.02 538.068 1362.02 548.4C1362.02 557.112 1365.76 561.468 1370.84 561.468C1374.94 561.468 1378.4 558.012 1378.4 552.9C1378.4 547.392 1375.55 544.62 1371.09 544.62C1369 544.62 1366.7 545.844 1365.08 547.824C1365.22 539.616 1368.28 536.844 1371.88 536.844C1373.5 536.844 1375.08 537.6 1376.13 538.86L1377.93 536.808ZM1380.36 567.444H1382.78L1393.54 532.452H1391.16L1380.36 567.444ZM1398.21 551.1L1404.22 542.1C1404.97 540.804 1405.69 539.508 1406.34 538.212H1406.49C1406.41 539.58 1406.27 541.704 1406.27 543V551.1H1398.21ZM1412.89 551.1H1409.4V534.612H1405.77L1394.79 551.568V553.728H1406.27V561H1409.4V553.728H1412.89V551.1Z" fill="#F8F8F8"/>
<path d="M1220.5 512.5V390.5" stroke="#F8F8F8" stroke-width="3" stroke-linecap="round"/>
<path d="M1249.38 585.608H1254.94V590.728C1254.94 593.096 1255.46 594.024 1257.66 594.024H1260.35C1260.99 594.024 1261.66 593.992 1262.08 593.864C1261.98 593.32 1261.92 592.424 1261.89 591.816C1261.47 591.912 1260.77 591.976 1260.29 591.976H1257.82C1257.31 591.976 1257.22 591.656 1257.22 590.76V583.368H1247.14V586.888C1247.14 589.16 1246.56 591.784 1243.04 593.736C1243.46 594.12 1244.29 595.016 1244.58 595.496C1248.51 593.224 1249.38 589.8 1249.38 586.952V585.608ZM1243.55 598.44L1243.23 596.264L1240.26 597.128V590.888H1244.22V588.648H1240.26V582.248H1237.92V588.648H1233.57V590.888H1237.92V597.768C1236.13 598.28 1234.5 598.728 1233.18 599.048L1233.89 601.352L1237.92 600.168V608.424C1237.92 608.872 1237.76 609.032 1237.31 609.032C1236.93 609.032 1235.55 609.064 1234.02 609C1234.3 609.64 1234.66 610.6 1234.75 611.208C1236.93 611.208 1238.27 611.144 1239.07 610.76C1239.9 610.408 1240.26 609.768 1240.26 608.424V599.432L1243.55 598.44ZM1257.12 598.504C1255.97 600.936 1254.21 602.952 1252.13 604.616C1250.08 602.888 1248.38 600.84 1247.26 598.504H1257.12ZM1258.78 596.168L1258.34 596.264H1244.03V598.504H1245.28L1244.96 598.632C1246.24 601.48 1248 603.944 1250.18 605.96C1247.58 607.56 1244.61 608.68 1241.54 609.352C1241.98 609.864 1242.5 610.856 1242.72 611.528C1246.08 610.664 1249.31 609.384 1252.1 607.496C1254.59 609.32 1257.63 610.664 1261.06 611.496C1261.38 610.824 1262.02 609.832 1262.56 609.32C1259.36 608.648 1256.48 607.528 1254.08 606.024C1256.83 603.72 1259.04 600.712 1260.32 596.872L1258.78 596.168ZM1272.51 593.576H1276.7V591.368H1272.51V585.736C1273.89 585.384 1275.17 585 1276.22 584.552L1274.75 582.632C1272.61 583.592 1268.9 584.424 1265.73 584.936C1266.02 585.512 1266.34 586.28 1266.4 586.824C1267.65 586.664 1268.96 586.44 1270.27 586.184V591.368H1265.73V593.576H1269.89C1268.77 597.16 1266.78 601.288 1264.93 603.56C1265.34 604.104 1265.95 605.128 1266.21 605.8C1267.65 603.912 1269.12 600.84 1270.27 597.736V611.528H1272.51V596.872C1273.38 598.12 1274.43 599.656 1274.85 600.488L1276.26 598.568C1275.71 597.832 1273.34 595.208 1272.51 594.376V593.576ZM1293.92 597.576H1276.54V611.464H1278.69V599.592H1291.71V609.192C1291.71 609.512 1291.62 609.608 1291.3 609.608C1291.01 609.64 1289.98 609.64 1288.83 609.608C1289.09 610.152 1289.38 610.92 1289.47 611.464C1291.2 611.496 1292.32 611.464 1292.99 611.112C1293.73 610.792 1293.92 610.28 1293.92 609.224V597.576ZM1287.71 606.184H1282.69V603.176H1287.71V606.184ZM1289.6 601.448H1280.86V607.912H1289.6V601.448ZM1289.7 594.024H1280.64V591.112H1289.7V594.024ZM1291.94 589.352H1278.53V595.784H1291.94V589.352ZM1286.59 585.512C1286.21 584.488 1285.63 583.144 1285.02 582.088L1282.88 582.664C1283.3 583.528 1283.74 584.584 1284.1 585.512H1276.19V587.592H1294.43V585.512H1286.59Z" fill="#555555"/>
<path d="M1612 400C1628.57 400 1642 386.569 1642 370C1642 353.431 1628.57 340 1612 340C1595.43 340 1582 353.431 1582 370C1582 386.569 1595.43 400 1612 400Z" fill="white"/>
<path d="M1615.17 561H1629.64V558.264H1624.35V534.612H1621.83C1620.39 535.44 1618.7 536.052 1616.36 536.484V538.572H1621.04V558.264H1615.17V561ZM1633.55 561H1650.15V558.156H1642.84C1641.51 558.156 1639.89 558.3 1638.52 558.408C1644.71 552.54 1648.85 547.176 1648.85 541.92C1648.85 537.204 1645.9 534.108 1641.18 534.108C1637.84 534.108 1635.57 535.656 1633.41 537.996L1635.32 539.868C1636.76 538.14 1638.63 536.808 1640.79 536.808C1644.06 536.808 1645.65 539.004 1645.65 542.028C1645.65 546.564 1641.83 551.82 1633.55 559.056V561ZM1652.33 567.444H1654.75L1665.51 532.452H1663.13L1652.33 567.444ZM1675.54 561.468C1680.22 561.468 1684 558.66 1684 553.944C1684 550.344 1681.52 547.968 1678.38 547.248V547.104C1681.19 546.06 1683.1 543.936 1683.1 540.732C1683.1 536.484 1679.86 534.108 1675.43 534.108C1672.37 534.108 1670.03 535.44 1668.05 537.276L1669.82 539.364C1671.29 537.888 1673.16 536.808 1675.29 536.736C1678.02 536.808 1679.75 538.428 1679.75 540.984C1679.75 543.828 1677.88 546.024 1672.44 546.024V548.544C1678.53 548.544 1680.65 550.668 1680.65 553.836C1680.65 556.86 1678.42 558.732 1675.29 558.732C1672.3 558.732 1670.28 557.328 1668.74 555.708L1667.08 557.868C1668.81 559.74 1671.4 561.468 1675.54 561.468ZM1699.54 550.668C1701.27 550.668 1703.07 549.588 1704.54 547.068L1702.67 545.736C1701.77 547.464 1700.76 548.184 1699.61 548.184C1697.34 548.184 1695.62 544.8 1692.48 544.8C1690.72 544.8 1688.92 545.88 1687.44 548.4L1689.28 549.696C1690.22 547.968 1691.22 547.248 1692.38 547.248C1694.64 547.248 1696.34 550.668 1699.54 550.668ZM1709.14 561H1723.61V558.264H1718.32V534.612H1715.8C1714.36 535.44 1712.67 536.052 1710.33 536.484V538.572H1715.01V558.264H1709.14V561ZM1727.53 561H1744.12V558.156H1736.81C1735.48 558.156 1733.86 558.3 1732.49 558.408C1738.69 552.54 1742.83 547.176 1742.83 541.92C1742.83 537.204 1739.87 534.108 1735.16 534.108C1731.81 534.108 1729.54 535.656 1727.38 537.996L1729.29 539.868C1730.73 538.14 1732.6 536.808 1734.76 536.808C1738.04 536.808 1739.62 539.004 1739.62 542.028C1739.62 546.564 1735.81 551.82 1727.53 559.056V561ZM1746.31 567.444H1748.72L1759.48 532.452H1757.11L1746.31 567.444ZM1770.84 558.912C1767.53 558.912 1765.55 555.924 1765.16 550.452C1766.88 548.004 1768.9 547.068 1770.56 547.068C1773.76 547.068 1775.31 549.336 1775.31 552.9C1775.31 556.5 1773.36 558.912 1770.84 558.912ZM1777.94 536.808C1776.5 535.26 1774.52 534.108 1771.78 534.108C1766.67 534.108 1762.02 538.068 1762.02 548.4C1762.02 557.112 1765.77 561.468 1770.84 561.468C1774.95 561.468 1778.4 558.012 1778.4 552.9C1778.4 547.392 1775.56 544.62 1771.1 544.62C1769.01 544.62 1766.7 545.844 1765.08 547.824C1765.23 539.616 1768.29 536.844 1771.89 536.844C1773.51 536.844 1775.09 537.6 1776.14 538.86L1777.94 536.808Z" fill="#F8F8F8"/>
<path d="M1611.5 512.5V390.5" stroke="#F8F8F8" stroke-width="3" stroke-linecap="round"/>
<path d="M1620.8 617C1626.18 617 1629.57 614.216 1629.57 610.984C1629.57 608.136 1627.55 606.856 1623.52 606.856H1620.13C1617.79 606.856 1617.09 606.088 1617.09 604.968C1617.09 604.008 1617.57 603.432 1618.21 602.888C1618.98 603.272 1619.94 603.496 1620.8 603.496C1624.32 603.496 1627.14 601.16 1627.14 597.448C1627.14 595.944 1626.56 594.664 1625.73 593.864H1629.28V591.624H1623.23C1622.62 591.4 1621.76 591.176 1620.8 591.176C1617.28 591.176 1614.27 593.576 1614.27 597.384C1614.27 599.464 1615.39 601.128 1616.54 602.056V602.184C1615.65 602.824 1614.59 603.976 1614.59 605.416C1614.59 606.792 1615.26 607.72 1616.19 608.264V608.392C1614.56 609.448 1613.6 610.856 1613.6 612.328C1613.6 615.336 1616.54 617 1620.8 617ZM1620.8 601.512C1618.78 601.512 1617.09 599.912 1617.09 597.384C1617.09 594.824 1618.75 593.32 1620.8 593.32C1622.85 593.32 1624.48 594.856 1624.48 597.384C1624.48 599.912 1622.78 601.512 1620.8 601.512ZM1621.22 615.016C1618.05 615.016 1616.16 613.8 1616.16 611.944C1616.16 610.92 1616.7 609.896 1617.95 609C1618.72 609.192 1619.55 609.288 1620.19 609.288H1623.2C1625.5 609.288 1626.75 609.832 1626.75 611.432C1626.75 613.256 1624.54 615.016 1621.22 615.016ZM1638.93 609.416C1643.38 609.416 1646.22 605.352 1646.22 597.192C1646.22 589.064 1643.38 585.096 1638.93 585.096C1634.45 585.096 1631.6 589.032 1631.6 597.192C1631.6 605.352 1634.45 609.416 1638.93 609.416ZM1638.93 607.08C1636.24 607.08 1634.45 604.104 1634.45 597.192C1634.45 590.344 1636.24 587.464 1638.93 587.464C1641.58 587.464 1643.38 590.344 1643.38 597.192C1643.38 604.104 1641.58 607.08 1638.93 607.08ZM1654.47 609H1657.86L1664.04 591.624H1661.16L1657.86 601.512C1657.35 603.208 1656.77 605 1656.26 606.632H1656.13C1655.59 605 1655.05 603.208 1654.5 601.512L1651.24 591.624H1648.2L1654.47 609ZM1679.11 609.416C1683.21 609.416 1685.45 607.08 1685.45 604.264C1685.45 600.968 1682.67 599.944 1680.14 598.984C1678.19 598.248 1676.3 597.64 1676.3 595.976C1676.3 594.632 1677.29 593.48 1679.47 593.48C1681.03 593.48 1682.25 594.12 1683.47 595.016L1684.87 593.128C1683.5 592.072 1681.61 591.176 1679.47 591.176C1675.69 591.176 1673.48 593.352 1673.48 596.104C1673.48 599.048 1676.23 600.232 1678.67 601.128C1680.59 601.864 1682.63 602.664 1682.63 604.424C1682.63 605.928 1681.51 607.144 1679.21 607.144C1677.13 607.144 1675.56 606.312 1674.06 605.096L1672.62 607.016C1674.28 608.392 1676.65 609.416 1679.11 609.416ZM1694.59 609.416C1696.99 609.416 1698.72 608.168 1700.35 606.28H1700.45L1700.67 609H1703.11V591.624H1700.19V603.944C1698.53 606.024 1697.28 606.888 1695.49 606.888C1693.19 606.888 1692.23 605.512 1692.23 602.28V591.624H1689.31V602.632C1689.31 607.048 1690.95 609.416 1694.59 609.416ZM1708.98 609H1711.89V596.392C1713.49 594.6 1714.96 593.736 1716.27 593.736C1718.48 593.736 1719.5 595.112 1719.5 598.376V609H1722.42V596.392C1724.05 594.6 1725.46 593.736 1726.8 593.736C1729.01 593.736 1730.03 595.112 1730.03 598.376V609H1732.94V597.992C1732.94 593.544 1731.25 591.176 1727.66 591.176C1725.55 591.176 1723.73 592.552 1721.94 594.504C1721.23 592.456 1719.79 591.176 1717.14 591.176C1715.06 591.176 1713.23 592.488 1711.73 594.152H1711.63L1711.38 591.624H1708.98V609ZM1738.6 609H1741.51V596.392C1743.11 594.6 1744.58 593.736 1745.9 593.736C1748.1 593.736 1749.13 595.112 1749.13 598.376V609H1752.04V596.392C1753.67 594.6 1755.08 593.736 1756.42 593.736C1758.63 593.736 1759.66 595.112 1759.66 598.376V609H1762.57V597.992C1762.57 593.544 1760.87 591.176 1757.29 591.176C1755.18 591.176 1753.35 592.552 1751.56 594.504C1750.86 592.456 1749.42 591.176 1746.76 591.176C1744.68 591.176 1742.86 592.488 1741.35 594.152H1741.26L1741 591.624H1738.6V609ZM1768.23 609H1771.14V591.624H1768.23V609ZM1769.7 588.04C1770.85 588.04 1771.71 587.24 1771.71 586.152C1771.71 584.968 1770.85 584.264 1769.7 584.264C1768.55 584.264 1767.68 584.968 1767.68 586.152C1767.68 587.24 1768.55 588.04 1769.7 588.04ZM1782.51 609.416C1783.57 609.416 1784.72 609.096 1785.71 608.776L1785.13 606.6C1784.56 606.824 1783.76 607.048 1783.15 607.048C1781.13 607.048 1780.46 605.832 1780.46 603.688V593.992H1785.17V591.624H1780.46V586.76H1778.03L1777.68 591.624L1774.96 591.784V593.992H1777.55V603.624C1777.55 607.112 1778.8 609.416 1782.51 609.416Z" fill="#555555"/>
</svg>
