<svg id="圖層_1" data-name="圖層 1" xmlns="http://www.w3.org/2000/svg" viewBox="0 0 144.81 88.25">
  <defs>
    <style>
      .cls-1 {
        fill: #4deaff;
      }

      .cls-2 {
        fill: #ff7e64;
      }

      .cls-3 {
        fill: #555;
      }

      .cls-4 {
        fill: #45afff;
      }

      .cls-5 {
        fill: #64ddda;
      }

      .cls-6 {
        fill: #0eafc9;
      }

      .cls-7 {
        fill: #fff;
      }
    </style>
  </defs>
  <title>素材元件</title>
  <g>
    <path class="cls-1" d="M36.81,51.9a11.87,11.87,0,0,0-5.3.5,6.09,6.09,0,0,0-3.9,3.3c-.7,1.7,0,4,1.7,4.4-3.3,1.1-6.5,2.2-9.8,3.3a7.89,7.89,0,0,0-3,1.6,3.08,3.08,0,0,0-.6,3.4c1.1,1.8,3.6.6,5.6.1,6.5-1.8,12.2,5.8,18.9,5.9,2.1,0,4.3-.7,6.4-.5,2.8.4,5.1,2.6,7.7,3.5,3.2,1.1,6.8.4,10,1.6,1.4.6,2.8,1.5,4.4,1.6a5.08,5.08,0,0,0,2.9-1c3.4-2.3,4.6-7.8,2.4-11.6-.8-1.4-2-2.9-1.3-4.4.4-.9,1.3-1.3,2-2,1.6-1.6,1.4-4.6-.1-6.3a6.06,6.06,0,0,0-6-1.6c-2.5.6-5.3,2.2-7.3.5"/>
    <path class="cls-2" d="M62.51,73.1c-.8.8-4.8.2-5.7.2H40.11a.37.37,0,0,1-.3-.1v-.4c.1-1.9.4-3.8.5-5.6.2-2.4.5-4.9.7-7.3.5-4.7.9-9.5,1.3-14.3.4-4.5.8-8.9,1.2-13.4a1.34,1.34,0,0,1,.2-.9c.8-1.3,4.9-.5,6.1-.5,3,.1,6.1.5,9.1.3Q60.26,42.2,61,53.3l.9,11.1c.2,1.9.3,3.8.5,5.7a12.74,12.74,0,0,1,.2,2.7C62.51,73,62.51,73,62.51,73.1Z"/>
    <path class="cls-2" d="M56.11,22.1h-9.7c-1.5,0-3.3.9-3.3-.3,0-1.4,6.2-7.5,7.8-7.5s6.9,6.2,7.4,7.5S57.61,22.1,56.11,22.1Z"/>
    <path class="cls-3" d="M54.81,31.5a21.12,21.12,0,0,1-2.6-.2,18.48,18.48,0,0,0-2.3-.1c-2.5,0-5.1,0-7.6.1h-.4a2.11,2.11,0,0,1-1.3-.5c-.9-.9-.8-2.7-.7-4.9,0-.5.1-.9.1-1.2a1.53,1.53,0,0,1,.5-1.1c2.4-2.1,16-.8,16.9-.7a1.35,1.35,0,0,1,1,.5,1.94,1.94,0,0,1,.3,1.2c0,.4.1.8.1,1.4.2,1.7.5,3.6-.7,4.7a1.91,1.91,0,0,1-1,.5A7.55,7.55,0,0,1,54.81,31.5Zm-4.9-1.9c.8,0,1.6.1,2.4.1a13.4,13.4,0,0,0,4.5-.1c.1,0,.2-.1.3-.2.5-.5.3-2.1.2-3.2-.1-.5-.1-1.1-.2-1.5v-.2c-2.8-.5-14.2-.9-15.5.2a5.74,5.74,0,0,1-.1,1.2c-.1,1-.2,3.1.2,3.6h.5C44.81,29.6,47.41,29.6,49.91,29.6Z"/>
    <path class="cls-3" d="M41.71,24.4a2,2,0,0,1-1.1-.3,1.43,1.43,0,0,1-.5-1.3c0-1.7,3.8-6.2,5.8-8.2,2.2-2.2,3.1-2.5,3.6-2.5,2.6,0,8.5,8.9,9,10.3.1.4.4,1.2-.1,1.7s-1.1.3-1.7.2a5.9,5.9,0,0,0-1.4-.2H44.51a6.75,6.75,0,0,0-1.4.2C42.61,24.3,42.21,24.4,41.71,24.4Zm0-1.7a6.53,6.53,0,0,0,1.1-.2,9.91,9.91,0,0,1,1.8-.2h10.8a6.05,6.05,0,0,1,1.5.2c-1.1-2.2-6-8.7-7.3-8.9C48.11,13.9,41.81,21.2,41.71,22.7Z"/>
    <path class="cls-3" d="M49.61,13a.43.43,0,0,1-.4-.4V9.9a.4.4,0,1,1,.8,0v2.7A.37.37,0,0,1,49.61,13Z"/>
    <path class="cls-3" d="M58.71,72.5a14.22,14.22,0,0,1-2.7-.2,7.75,7.75,0,0,1-.9-.1H38.41a1.06,1.06,0,0,1-1-.5,1.51,1.51,0,0,1-.2-.8c.1-1.2.2-2.3.3-3.5a13.55,13.55,0,0,0,.2-2l2.2-23.1c.3-3.5.7-7,1-10.5a3.45,3.45,0,0,1,.3-1.3c.8-1.3,3.3-1.2,5.9-.9.4,0,.7.1.9.1,1.2,0,2.3.1,3.4.2A52.79,52.79,0,0,0,57,30h.8l.1.7c.9,7.3,1.6,14.6,2.1,21.5.2,1.8.3,3.6.5,5.4s.3,3.5.5,5.3.3,3.7.5,5.5a1.76,1.76,0,0,0,.1.6,5.38,5.38,0,0,1,.1,2.5c0,.1-.1.2-.2.3A4.46,4.46,0,0,1,58.71,72.5Zm-10.5-1.9H55a5.38,5.38,0,0,1,1.1.1,17,17,0,0,0,3.9,0,5.9,5.9,0,0,0-.2-1.4c0-.3-.1-.5-.1-.7-.2-1.9-.3-3.7-.5-5.5s-.3-3.5-.5-5.3-.3-3.6-.5-5.4c-.6-6.6-1.2-13.6-2.1-20.6a43.49,43.49,0,0,1-5.1-.2c-1.1-.1-2.3-.1-3.4-.2a5.38,5.38,0,0,1-1.1-.1c-3.2-.3-4.1-.1-4.3.2,0,.1-.1.4-.1.5-.3,3.5-.7,7.1-1,10.5l-2.2,23.1c-.1.7-.1,1.4-.2,2l-.3,3Z"/>
    <path class="cls-4" d="M44.91,77.7a4.59,4.59,0,0,1,.3-4.1,14.43,14.43,0,0,1,2.7-3.3,2.75,2.75,0,0,1,2.6-1.1c.9.3,1.2,1.4,2,1.9,1.2.8,2.8-.1,3.9-1.1s2.3-2.2,3.7-2a15.87,15.87,0,0,1,2,.7c1.2.3,2.4-.2,3.6-.5s2.6-.5,3.5.5c1.2,1.2.3,3.4-1.1,4.3s-3.2,1.1-4.7,1.7c-2.1.9-3.7,2.5-5.5,3.8a3.33,3.33,0,0,1-2.1.9c-.3,0-.7-.2-1-.2a3.32,3.32,0,0,0-1.6.5,13.76,13.76,0,0,1-5.6,1.2,1.64,1.64,0,0,1-1-.2c-1-.6-.6-2.4-1.5-3.1"/>
    <path class="cls-5" d="M41.91,85.2c7.2,5.6,17.8,2.3,25.6-.5,3.7-1.4,2.1-7.4-1.6-6a61,61,0,0,1-11.1,3.1c-2.6.5-6.1.8-8.4-.9a3.24,3.24,0,0,0-4.4,0A3,3,0,0,0,41.91,85.2Z"/>
    <path class="cls-6" d="M29.91,71.4c.9,3.4,3.8,5.3,7.2,4.1.9-.3.8-.6,1.8.3.3.2.4.7.7.9a3.77,3.77,0,0,0,2.1,1c2.1.4,4-.8,5.6-1.9.5-.3,0-1.1-.5-.8-1.8,1.2-4.6,3-6.6,1.1-.7-.7-.9-1.9-2.1-1.9s-2.3.9-3.6.7c-2.2-.2-3.3-1.9-3.8-3.8C30.71,70.6,29.81,70.9,29.91,71.4Z"/>
    <path class="cls-3" d="M47.61,79.4a4.75,4.75,0,0,1,.9-4.6c.7-1,2.6-3.5,4.1-2.6.7.4.9,1.3,1.7,1.6a2.8,2.8,0,0,0,2,.2,5.29,5.29,0,0,0,2.3-1.3,12,12,0,0,0,1.2-1.1,3.84,3.84,0,0,1,3.3-.5,7,7,0,0,0,2.9.2c1.2-.2,4.2-1.7,4.9.2,1,2.9-4.3,3.6-6,4.3a16.09,16.09,0,0,0-2.8,1.7c-1,.7-2,1.9-3.1,2.4s-1.9.1-3,.3a34,34,0,0,0-3.4,1.2c-1.5.3-3.4.8-4.1-.9-.3-.7-.3-1.3-.9-1.9a.78.78,0,0,0-1.1,1.1c.7.7.5,1.9,1.1,2.7a2.52,2.52,0,0,0,2,.9c2.8.2,5.4-1.4,8.1-1.4,2.3-.1,4-2.1,5.8-3.4,2.3-1.6,5.4-1.6,7.5-3.4,3-2.5,1.3-6.7-2.6-6a13.32,13.32,0,0,0-1.9.5,6.13,6.13,0,0,1-3.3-.2,3.87,3.87,0,0,0-2.6,0c-1.2.5-2.1,1.6-3.1,2.3s-1.9,1-3,.2c-.4-.3-.6-.8-1-1.1-1.9-1.4-3.8.5-5.1,1.9-1.9,2-3.2,4.5-2.2,7.2C46.41,80.7,47.91,80.4,47.61,79.4Z"/>
    <path class="cls-7" d="M45.51,34.2a26.2,26.2,0,0,1-.1,2.8c-.1.6.9.6.9,0a26.2,26.2,0,0,0,.1-2.8C46.41,33.6,45.41,33.6,45.51,34.2Z"/>
    <path class="cls-7" d="M44.51,42.9V45a.45.45,0,0,0,.9,0V42.9A.45.45,0,1,0,44.51,42.9Z"/>
    <path class="cls-7" d="M46.71,39.7v2.6a.45.45,0,0,0,.9,0V39.7A.46.46,0,1,0,46.71,39.7Z"/>
    <path class="cls-7" d="M44,52.6c0,1.1.1,2.1.1,3.2a.45.45,0,0,0,.9,0c0-1.1-.1-2.1-.1-3.2C44.91,52,43.91,52,44,52.6Z"/>
    <path class="cls-7" d="M45.21,48c.1.5.1,1,.2,1.5,0,.2.4.4.6.3a.42.42,0,0,0,.3-.6c-.1-.5-.1-1-.2-1.5,0-.2-.4-.4-.6-.3A.45.45,0,0,0,45.21,48Z"/>
    <path class="cls-7" d="M47.51,44.9v.7a.45.45,0,0,0,.9,0v-.7A.45.45,0,1,0,47.51,44.9Z"/>
    <path class="cls-7" d="M46.81,54.2c0,1.2.1,2.3.2,3.5a.45.45,0,1,0,.9,0c0-1.2-.1-2.3-.2-3.5A.45.45,0,1,0,46.81,54.2Z"/>
    <path class="cls-7" d="M48.91,36.7v2.7a.45.45,0,1,0,.9,0V36.7A.45.45,0,0,0,48.91,36.7Z"/>
    <path class="cls-7" d="M50.31,46.1a15.48,15.48,0,0,1,.1,2.2.45.45,0,0,0,.9,0,9.74,9.74,0,0,0-.2-2.4C51.11,45.3,50.21,45.5,50.31,46.1Z"/>
    <path class="cls-7" d="M52.41,41.4a2.77,2.77,0,0,1,.1.9.54.54,0,0,0,.5.5c.3,0,.4-.2.5-.5a4.87,4.87,0,0,0-.1-1.2C53.11,40.6,52.11,40.8,52.41,41.4Z"/>
    <path class="cls-7" d="M55.11,50c0,.5.1.9.1,1.4s1,.6.9,0S56,50.5,56,50A.45.45,0,1,0,55.11,50Z"/>
    <path class="cls-7" d="M55.61,57.7c0,.4.1.8.1,1.2a.54.54,0,0,0,.5.5.47.47,0,0,0,.5-.5c0-.4-.1-.8-.1-1.2a.54.54,0,0,0-.5-.5C55.81,57.3,55.51,57.5,55.61,57.7Z"/>
    <path class="cls-7" d="M54.51,35.1v.7a.45.45,0,0,0,.9,0v-.7A.45.45,0,0,0,54.51,35.1Z"/>
    <path class="cls-1" d="M36.81,51.9a11.87,11.87,0,0,0-5.3.5,6.09,6.09,0,0,0-3.9,3.3c-.7,1.7,0,4,1.7,4.4-3.3,1.1-6.5,2.2-9.8,3.3a7.89,7.89,0,0,0-3,1.6,3.08,3.08,0,0,0-.6,3.4c1.1,1.8,3.6.6,5.6.1,6.5-1.8,12.2,5.8,18.9,5.9,2.1,0,4.3-.7,6.4-.5,2.8.4,5.1,2.6,7.7,3.5,3.2,1.1,6.8.4,10,1.6,1.4.6,2.8,1.5,4.4,1.6a5.08,5.08,0,0,0,2.9-1c3.4-2.3,4.6-7.8,2.4-11.6-.8-1.4-2-2.9-1.3-4.4.4-.9,1.3-1.3,2-2,1.6-1.6,1.4-4.6-.1-6.3a6.06,6.06,0,0,0-6-1.6c-2.5.6-5.3,2.2-7.3.5"/>
    <path class="cls-2" d="M62.51,73.1c-.8.8-4.8.2-5.7.2H40.11a.37.37,0,0,1-.3-.1v-.4c.1-1.9.4-3.8.5-5.6.2-2.4.5-4.9.7-7.3.5-4.7.9-9.5,1.3-14.3.4-4.5.8-8.9,1.2-13.4a1.34,1.34,0,0,1,.2-.9c.8-1.3,4.9-.5,6.1-.5,3,.1,6.1.5,9.1.3Q60.26,42.2,61,53.3l.9,11.1c.2,1.9.3,3.8.5,5.7a12.74,12.74,0,0,1,.2,2.7C62.51,73,62.51,73,62.51,73.1Z"/>
    <path class="cls-2" d="M56.11,22.1h-9.7c-1.5,0-3.3.9-3.3-.3,0-1.4,6.2-7.5,7.8-7.5s6.9,6.2,7.4,7.5S57.61,22.1,56.11,22.1Z"/>
    <path class="cls-3" d="M54.81,31.5a21.12,21.12,0,0,1-2.6-.2,18.48,18.48,0,0,0-2.3-.1c-2.5,0-5.1,0-7.6.1h-.4a2.11,2.11,0,0,1-1.3-.5c-.9-.9-.8-2.7-.7-4.9,0-.5.1-.9.1-1.2a1.53,1.53,0,0,1,.5-1.1c2.4-2.1,16-.8,16.9-.7a1.35,1.35,0,0,1,1,.5,1.94,1.94,0,0,1,.3,1.2c0,.4.1.8.1,1.4.2,1.7.5,3.6-.7,4.7a1.91,1.91,0,0,1-1,.5A7.55,7.55,0,0,1,54.81,31.5Zm-4.9-1.9c.8,0,1.6.1,2.4.1a13.4,13.4,0,0,0,4.5-.1c.1,0,.2-.1.3-.2.5-.5.3-2.1.2-3.2-.1-.5-.1-1.1-.2-1.5v-.2c-2.8-.5-14.2-.9-15.5.2a5.74,5.74,0,0,1-.1,1.2c-.1,1-.2,3.1.2,3.6h.5C44.81,29.6,47.41,29.6,49.91,29.6Z"/>
    <path class="cls-3" d="M41.71,24.4a2,2,0,0,1-1.1-.3,1.43,1.43,0,0,1-.5-1.3c0-1.7,3.8-6.2,5.8-8.2,2.2-2.2,3.1-2.5,3.6-2.5,2.6,0,8.5,8.9,9,10.3.1.4.4,1.2-.1,1.7s-1.1.3-1.7.2a5.9,5.9,0,0,0-1.4-.2H44.51a6.75,6.75,0,0,0-1.4.2C42.61,24.3,42.21,24.4,41.71,24.4Zm0-1.7a6.53,6.53,0,0,0,1.1-.2,9.91,9.91,0,0,1,1.8-.2h10.8a6.05,6.05,0,0,1,1.5.2c-1.1-2.2-6-8.7-7.3-8.9C48.11,13.9,41.81,21.2,41.71,22.7Z"/>
    <path class="cls-3" d="M49.61,13a.43.43,0,0,1-.4-.4V9.9a.4.4,0,1,1,.8,0v2.7A.37.37,0,0,1,49.61,13Z"/>
    <path class="cls-3" d="M58.71,72.5a14.22,14.22,0,0,1-2.7-.2,7.75,7.75,0,0,1-.9-.1H38.41a1.06,1.06,0,0,1-1-.5,1.51,1.51,0,0,1-.2-.8c.1-1.2.2-2.3.3-3.5a13.55,13.55,0,0,0,.2-2l2.2-23.1c.3-3.5.7-7,1-10.5a3.45,3.45,0,0,1,.3-1.3c.8-1.3,3.3-1.2,5.9-.9.4,0,.7.1.9.1,1.2,0,2.3.1,3.4.2A52.79,52.79,0,0,0,57,30h.8l.1.7c.9,7.3,1.6,14.6,2.1,21.5.2,1.8.3,3.6.5,5.4s.3,3.5.5,5.3.3,3.7.5,5.5a1.76,1.76,0,0,0,.1.6,5.38,5.38,0,0,1,.1,2.5c0,.1-.1.2-.2.3A4.46,4.46,0,0,1,58.71,72.5Zm-10.5-1.9H55a5.38,5.38,0,0,1,1.1.1,17,17,0,0,0,3.9,0,5.9,5.9,0,0,0-.2-1.4c0-.3-.1-.5-.1-.7-.2-1.9-.3-3.7-.5-5.5s-.3-3.5-.5-5.3-.3-3.6-.5-5.4c-.6-6.6-1.2-13.6-2.1-20.6a43.49,43.49,0,0,1-5.1-.2c-1.1-.1-2.3-.1-3.4-.2a5.38,5.38,0,0,1-1.1-.1c-3.2-.3-4.1-.1-4.3.2,0,.1-.1.4-.1.5-.3,3.5-.7,7.1-1,10.5l-2.2,23.1c-.1.7-.1,1.4-.2,2l-.3,3Z"/>
    <path class="cls-4" d="M44.91,77.7a4.59,4.59,0,0,1,.3-4.1,14.43,14.43,0,0,1,2.7-3.3,2.75,2.75,0,0,1,2.6-1.1c.9.3,1.2,1.4,2,1.9,1.2.8,2.8-.1,3.9-1.1s2.3-2.2,3.7-2a15.87,15.87,0,0,1,2,.7c1.2.3,2.4-.2,3.6-.5s2.6-.5,3.5.5c1.2,1.2.3,3.4-1.1,4.3s-3.2,1.1-4.7,1.7c-2.1.9-3.7,2.5-5.5,3.8a3.33,3.33,0,0,1-2.1.9c-.3,0-.7-.2-1-.2a3.32,3.32,0,0,0-1.6.5,13.76,13.76,0,0,1-5.6,1.2,1.64,1.64,0,0,1-1-.2c-1-.6-.6-2.4-1.5-3.1"/>
    <path class="cls-5" d="M41.91,85.2c7.2,5.6,17.8,2.3,25.6-.5,3.7-1.4,2.1-7.4-1.6-6a61,61,0,0,1-11.1,3.1c-2.6.5-6.1.8-8.4-.9a3.24,3.24,0,0,0-4.4,0A3,3,0,0,0,41.91,85.2Z"/>
    <path class="cls-6" d="M29.91,71.4c.9,3.4,3.8,5.3,7.2,4.1.9-.3.8-.6,1.8.3.3.2.4.7.7.9a3.77,3.77,0,0,0,2.1,1c2.1.4,4-.8,5.6-1.9.5-.3,0-1.1-.5-.8-1.8,1.2-4.6,3-6.6,1.1-.7-.7-.9-1.9-2.1-1.9s-2.3.9-3.6.7c-2.2-.2-3.3-1.9-3.8-3.8C30.71,70.6,29.81,70.9,29.91,71.4Z"/>
    <path class="cls-3" d="M47.61,79.4a4.75,4.75,0,0,1,.9-4.6c.7-1,2.6-3.5,4.1-2.6.7.4.9,1.3,1.7,1.6a2.8,2.8,0,0,0,2,.2,5.29,5.29,0,0,0,2.3-1.3,12,12,0,0,0,1.2-1.1,3.84,3.84,0,0,1,3.3-.5,7,7,0,0,0,2.9.2c1.2-.2,4.2-1.7,4.9.2,1,2.9-4.3,3.6-6,4.3a16.09,16.09,0,0,0-2.8,1.7c-1,.7-2,1.9-3.1,2.4s-1.9.1-3,.3a34,34,0,0,0-3.4,1.2c-1.5.3-3.4.8-4.1-.9-.3-.7-.3-1.3-.9-1.9a.78.78,0,0,0-1.1,1.1c.7.7.5,1.9,1.1,2.7a2.52,2.52,0,0,0,2,.9c2.8.2,5.4-1.4,8.1-1.4,2.3-.1,4-2.1,5.8-3.4,2.3-1.6,5.4-1.6,7.5-3.4,3-2.5,1.3-6.7-2.6-6a13.32,13.32,0,0,0-1.9.5,6.13,6.13,0,0,1-3.3-.2,3.87,3.87,0,0,0-2.6,0c-1.2.5-2.1,1.6-3.1,2.3s-1.9,1-3,.2c-.4-.3-.6-.8-1-1.1-1.9-1.4-3.8.5-5.1,1.9-1.9,2-3.2,4.5-2.2,7.2C46.41,80.7,47.91,80.4,47.61,79.4Z"/>
    <path class="cls-7" d="M45.51,34.2a26.2,26.2,0,0,1-.1,2.8c-.1.6.9.6.9,0a26.2,26.2,0,0,0,.1-2.8C46.41,33.6,45.41,33.6,45.51,34.2Z"/>
    <path class="cls-7" d="M44.51,42.9V45a.45.45,0,0,0,.9,0V42.9A.45.45,0,1,0,44.51,42.9Z"/>
    <path class="cls-7" d="M46.71,39.7v2.6a.45.45,0,0,0,.9,0V39.7A.46.46,0,1,0,46.71,39.7Z"/>
    <path class="cls-7" d="M44,52.6c0,1.1.1,2.1.1,3.2a.45.45,0,0,0,.9,0c0-1.1-.1-2.1-.1-3.2C44.91,52,43.91,52,44,52.6Z"/>
    <path class="cls-7" d="M45.21,48c.1.5.1,1,.2,1.5,0,.2.4.4.6.3a.42.42,0,0,0,.3-.6c-.1-.5-.1-1-.2-1.5,0-.2-.4-.4-.6-.3A.45.45,0,0,0,45.21,48Z"/>
    <path class="cls-7" d="M47.51,44.9v.7a.45.45,0,0,0,.9,0v-.7A.45.45,0,1,0,47.51,44.9Z"/>
    <path class="cls-7" d="M46.81,54.2c0,1.2.1,2.3.2,3.5a.45.45,0,1,0,.9,0c0-1.2-.1-2.3-.2-3.5A.45.45,0,1,0,46.81,54.2Z"/>
    <path class="cls-7" d="M48.91,36.7v2.7a.45.45,0,1,0,.9,0V36.7A.45.45,0,0,0,48.91,36.7Z"/>
    <path class="cls-7" d="M50.31,46.1a15.48,15.48,0,0,1,.1,2.2.45.45,0,0,0,.9,0,9.74,9.74,0,0,0-.2-2.4C51.11,45.3,50.21,45.5,50.31,46.1Z"/>
    <path class="cls-7" d="M52.41,41.4a2.77,2.77,0,0,1,.1.9.54.54,0,0,0,.5.5c.3,0,.4-.2.5-.5a4.87,4.87,0,0,0-.1-1.2C53.11,40.6,52.11,40.8,52.41,41.4Z"/>
    <path class="cls-7" d="M55.11,50c0,.5.1.9.1,1.4s1,.6.9,0S56,50.5,56,50A.45.45,0,1,0,55.11,50Z"/>
    <path class="cls-7" d="M55.61,57.7c0,.4.1.8.1,1.2a.54.54,0,0,0,.5.5.47.47,0,0,0,.5-.5c0-.4-.1-.8-.1-1.2a.54.54,0,0,0-.5-.5C55.81,57.3,55.51,57.5,55.61,57.7Z"/>
    <path class="cls-7" d="M54.51,35.1v.7a.45.45,0,0,0,.9,0v-.7A.45.45,0,0,0,54.51,35.1Z"/>
    <path class="cls-1" d="M36.81,51.9a11.87,11.87,0,0,0-5.3.5,6.09,6.09,0,0,0-3.9,3.3c-.7,1.7,0,4,1.7,4.4-3.3,1.1-6.5,2.2-9.8,3.3a7.89,7.89,0,0,0-3,1.6,3.08,3.08,0,0,0-.6,3.4c1.1,1.8,3.6.6,5.6.1,6.5-1.8,12.2,5.8,18.9,5.9,2.1,0,4.3-.7,6.4-.5,2.8.4,5.1,2.6,7.7,3.5,3.2,1.1,6.8.4,10,1.6,1.4.6,2.8,1.5,4.4,1.6a5.08,5.08,0,0,0,2.9-1c3.4-2.3,4.6-7.8,2.4-11.6-.8-1.4-2-2.9-1.3-4.4.4-.9,1.3-1.3,2-2,1.6-1.6,1.4-4.6-.1-6.3a6.06,6.06,0,0,0-6-1.6c-2.5.6-5.3,2.2-7.3.5"/>
    <path class="cls-2" d="M62.51,73.1c-.8.8-4.8.2-5.7.2H40.11a.37.37,0,0,1-.3-.1v-.4c.1-1.9.4-3.8.5-5.6.2-2.4.5-4.9.7-7.3.5-4.7.9-9.5,1.3-14.3.4-4.5.8-8.9,1.2-13.4a1.34,1.34,0,0,1,.2-.9c.8-1.3,4.9-.5,6.1-.5,3,.1,6.1.5,9.1.3Q60.26,42.2,61,53.3l.9,11.1c.2,1.9.3,3.8.5,5.7a12.74,12.74,0,0,1,.2,2.7C62.51,73,62.51,73,62.51,73.1Z"/>
    <path class="cls-2" d="M56.11,22.1h-9.7c-1.5,0-3.3.9-3.3-.3,0-1.4,6.2-7.5,7.8-7.5s6.9,6.2,7.4,7.5S57.61,22.1,56.11,22.1Z"/>
    <path class="cls-3" d="M54.81,31.5a21.12,21.12,0,0,1-2.6-.2,18.48,18.48,0,0,0-2.3-.1c-2.5,0-5.1,0-7.6.1h-.4a2.11,2.11,0,0,1-1.3-.5c-.9-.9-.8-2.7-.7-4.9,0-.5.1-.9.1-1.2a1.53,1.53,0,0,1,.5-1.1c2.4-2.1,16-.8,16.9-.7a1.35,1.35,0,0,1,1,.5,1.94,1.94,0,0,1,.3,1.2c0,.4.1.8.1,1.4.2,1.7.5,3.6-.7,4.7a1.91,1.91,0,0,1-1,.5A7.55,7.55,0,0,1,54.81,31.5Zm-4.9-1.9c.8,0,1.6.1,2.4.1a13.4,13.4,0,0,0,4.5-.1c.1,0,.2-.1.3-.2.5-.5.3-2.1.2-3.2-.1-.5-.1-1.1-.2-1.5v-.2c-2.8-.5-14.2-.9-15.5.2a5.74,5.74,0,0,1-.1,1.2c-.1,1-.2,3.1.2,3.6h.5C44.81,29.6,47.41,29.6,49.91,29.6Z"/>
    <path class="cls-3" d="M41.71,24.4a2,2,0,0,1-1.1-.3,1.43,1.43,0,0,1-.5-1.3c0-1.7,3.8-6.2,5.8-8.2,2.2-2.2,3.1-2.5,3.6-2.5,2.6,0,8.5,8.9,9,10.3.1.4.4,1.2-.1,1.7s-1.1.3-1.7.2a5.9,5.9,0,0,0-1.4-.2H44.51a6.75,6.75,0,0,0-1.4.2C42.61,24.3,42.21,24.4,41.71,24.4Zm0-1.7a6.53,6.53,0,0,0,1.1-.2,9.91,9.91,0,0,1,1.8-.2h10.8a6.05,6.05,0,0,1,1.5.2c-1.1-2.2-6-8.7-7.3-8.9C48.11,13.9,41.81,21.2,41.71,22.7Z"/>
    <path class="cls-3" d="M49.61,13a.43.43,0,0,1-.4-.4V9.9a.4.4,0,1,1,.8,0v2.7A.37.37,0,0,1,49.61,13Z"/>
    <path class="cls-3" d="M58.71,72.5a14.22,14.22,0,0,1-2.7-.2,7.75,7.75,0,0,1-.9-.1H38.41a1.06,1.06,0,0,1-1-.5,1.51,1.51,0,0,1-.2-.8c.1-1.2.2-2.3.3-3.5a13.55,13.55,0,0,0,.2-2l2.2-23.1c.3-3.5.7-7,1-10.5a3.45,3.45,0,0,1,.3-1.3c.8-1.3,3.3-1.2,5.9-.9.4,0,.7.1.9.1,1.2,0,2.3.1,3.4.2A52.79,52.79,0,0,0,57,30h.8l.1.7c.9,7.3,1.6,14.6,2.1,21.5.2,1.8.3,3.6.5,5.4s.3,3.5.5,5.3.3,3.7.5,5.5a1.76,1.76,0,0,0,.1.6,5.38,5.38,0,0,1,.1,2.5c0,.1-.1.2-.2.3A4.46,4.46,0,0,1,58.71,72.5Zm-10.5-1.9H55a5.38,5.38,0,0,1,1.1.1,17,17,0,0,0,3.9,0,5.9,5.9,0,0,0-.2-1.4c0-.3-.1-.5-.1-.7-.2-1.9-.3-3.7-.5-5.5s-.3-3.5-.5-5.3-.3-3.6-.5-5.4c-.6-6.6-1.2-13.6-2.1-20.6a43.49,43.49,0,0,1-5.1-.2c-1.1-.1-2.3-.1-3.4-.2a5.38,5.38,0,0,1-1.1-.1c-3.2-.3-4.1-.1-4.3.2,0,.1-.1.4-.1.5-.3,3.5-.7,7.1-1,10.5l-2.2,23.1c-.1.7-.1,1.4-.2,2l-.3,3Z"/>
    <path class="cls-4" d="M44.91,77.7a4.59,4.59,0,0,1,.3-4.1,14.43,14.43,0,0,1,2.7-3.3,2.75,2.75,0,0,1,2.6-1.1c.9.3,1.2,1.4,2,1.9,1.2.8,2.8-.1,3.9-1.1s2.3-2.2,3.7-2a15.87,15.87,0,0,1,2,.7c1.2.3,2.4-.2,3.6-.5s2.6-.5,3.5.5c1.2,1.2.3,3.4-1.1,4.3s-3.2,1.1-4.7,1.7c-2.1.9-3.7,2.5-5.5,3.8a3.33,3.33,0,0,1-2.1.9c-.3,0-.7-.2-1-.2a3.32,3.32,0,0,0-1.6.5,13.76,13.76,0,0,1-5.6,1.2,1.64,1.64,0,0,1-1-.2c-1-.6-.6-2.4-1.5-3.1"/>
    <path class="cls-5" d="M41.91,85.2c7.2,5.6,17.8,2.3,25.6-.5,3.7-1.4,2.1-7.4-1.6-6a61,61,0,0,1-11.1,3.1c-2.6.5-6.1.8-8.4-.9a3.24,3.24,0,0,0-4.4,0A3,3,0,0,0,41.91,85.2Z"/>
    <path class="cls-6" d="M29.91,71.4c.9,3.4,3.8,5.3,7.2,4.1.9-.3.8-.6,1.8.3.3.2.4.7.7.9a3.77,3.77,0,0,0,2.1,1c2.1.4,4-.8,5.6-1.9.5-.3,0-1.1-.5-.8-1.8,1.2-4.6,3-6.6,1.1-.7-.7-.9-1.9-2.1-1.9s-2.3.9-3.6.7c-2.2-.2-3.3-1.9-3.8-3.8C30.71,70.6,29.81,70.9,29.91,71.4Z"/>
    <path class="cls-3" d="M47.61,79.4a4.75,4.75,0,0,1,.9-4.6c.7-1,2.6-3.5,4.1-2.6.7.4.9,1.3,1.7,1.6a2.8,2.8,0,0,0,2,.2,5.29,5.29,0,0,0,2.3-1.3,12,12,0,0,0,1.2-1.1,3.84,3.84,0,0,1,3.3-.5,7,7,0,0,0,2.9.2c1.2-.2,4.2-1.7,4.9.2,1,2.9-4.3,3.6-6,4.3a16.09,16.09,0,0,0-2.8,1.7c-1,.7-2,1.9-3.1,2.4s-1.9.1-3,.3a34,34,0,0,0-3.4,1.2c-1.5.3-3.4.8-4.1-.9-.3-.7-.3-1.3-.9-1.9a.78.78,0,0,0-1.1,1.1c.7.7.5,1.9,1.1,2.7a2.52,2.52,0,0,0,2,.9c2.8.2,5.4-1.4,8.1-1.4,2.3-.1,4-2.1,5.8-3.4,2.3-1.6,5.4-1.6,7.5-3.4,3-2.5,1.3-6.7-2.6-6a13.32,13.32,0,0,0-1.9.5,6.13,6.13,0,0,1-3.3-.2,3.87,3.87,0,0,0-2.6,0c-1.2.5-2.1,1.6-3.1,2.3s-1.9,1-3,.2c-.4-.3-.6-.8-1-1.1-1.9-1.4-3.8.5-5.1,1.9-1.9,2-3.2,4.5-2.2,7.2C46.41,80.7,47.91,80.4,47.61,79.4Z"/>
    <path class="cls-7" d="M45.51,34.2a26.2,26.2,0,0,1-.1,2.8c-.1.6.9.6.9,0a26.2,26.2,0,0,0,.1-2.8C46.41,33.6,45.41,33.6,45.51,34.2Z"/>
    <path class="cls-7" d="M44.51,42.9V45a.45.45,0,0,0,.9,0V42.9A.45.45,0,1,0,44.51,42.9Z"/>
    <path class="cls-7" d="M46.71,39.7v2.6a.45.45,0,0,0,.9,0V39.7A.46.46,0,1,0,46.71,39.7Z"/>
    <path class="cls-7" d="M44,52.6c0,1.1.1,2.1.1,3.2a.45.45,0,0,0,.9,0c0-1.1-.1-2.1-.1-3.2C44.91,52,43.91,52,44,52.6Z"/>
    <path class="cls-7" d="M45.21,48c.1.5.1,1,.2,1.5,0,.2.4.4.6.3a.42.42,0,0,0,.3-.6c-.1-.5-.1-1-.2-1.5,0-.2-.4-.4-.6-.3A.45.45,0,0,0,45.21,48Z"/>
    <path class="cls-7" d="M47.51,44.9v.7a.45.45,0,0,0,.9,0v-.7A.45.45,0,1,0,47.51,44.9Z"/>
    <path class="cls-7" d="M46.81,54.2c0,1.2.1,2.3.2,3.5a.45.45,0,1,0,.9,0c0-1.2-.1-2.3-.2-3.5A.45.45,0,1,0,46.81,54.2Z"/>
    <path class="cls-7" d="M48.91,36.7v2.7a.45.45,0,1,0,.9,0V36.7A.45.45,0,0,0,48.91,36.7Z"/>
    <path class="cls-7" d="M50.31,46.1a15.48,15.48,0,0,1,.1,2.2.45.45,0,0,0,.9,0,9.74,9.74,0,0,0-.2-2.4C51.11,45.3,50.21,45.5,50.31,46.1Z"/>
    <path class="cls-7" d="M52.41,41.4a2.77,2.77,0,0,1,.1.9.54.54,0,0,0,.5.5c.3,0,.4-.2.5-.5a4.87,4.87,0,0,0-.1-1.2C53.11,40.6,52.11,40.8,52.41,41.4Z"/>
    <path class="cls-7" d="M55.11,50c0,.5.1.9.1,1.4s1,.6.9,0S56,50.5,56,50A.45.45,0,1,0,55.11,50Z"/>
    <path class="cls-7" d="M55.61,57.7c0,.4.1.8.1,1.2a.54.54,0,0,0,.5.5.47.47,0,0,0,.5-.5c0-.4-.1-.8-.1-1.2a.54.54,0,0,0-.5-.5C55.81,57.3,55.51,57.5,55.61,57.7Z"/>
    <path class="cls-7" d="M54.51,35.1v.7a.45.45,0,0,0,.9,0v-.7A.45.45,0,0,0,54.51,35.1Z"/>
    <path class="cls-5" d="M117.61,29.7a15.82,15.82,0,0,1,5.6,1.7c1.6,1,3,2.8,2.8,4.8-.2,3-3.6,4.7-6.6,4.7a4.42,4.42,0,0,0-2,.2,5.19,5.19,0,0,0-1.9,1.7c-2.5,3.1-6.3,5.6-10.2,5a16.53,16.53,0,0,1-5.3-2.2,10.65,10.65,0,0,1-2.8-1.9c-1.3-1.1-2.4-2.7-3.8-3.6-1-.5-2.2-.8-3.3-1.3A3.11,3.11,0,0,1,88,36.2c-.1-1.4,1.3-2.5,2.7-3,4.3-1.3,7.8-4.2,12.1-4.8C107.51,28.1,112.91,28.9,117.61,29.7Z"/>
    <path class="cls-3" d="M113.41,30.8a12,12,0,0,0-12.8-9.1,11.59,11.59,0,0,0-7.3,3.6c-2,2.1-3.3,5.7-6,7.1-3.2,1.5-6.4-2-9.8-.5-1.7.8-3.1,2.7-2,4.6,1.4,2.4,6.1,3.6,8.5,4.4a18.74,18.74,0,0,0,10.2.9c3.9-.9,6.7-4.6,10.8-5.1,3.1-.3,6.6-.1,7.7-3.7.4-1.3-1.6-1.8-2-.5-.8,2.6-4,1.9-6,2.1a12.92,12.92,0,0,0-3.5,1c-3,1.5-5.2,3.8-8.7,4.3-3.9.5-7.8-.9-11.3-2.5-.7-.3-2-1-2.6-1.3-1.7-.7-1.2-2.5,1.1-2.7,1.1-.1,3.4,1,5.1,1.2,5.1.6,6.8-4.7,9.7-7.7a9.94,9.94,0,0,1,16.9,4.4C111.71,32.7,113.71,32.1,113.41,30.8Z"/>
  </g>
</svg>
