<svg width="81" height="34" viewBox="0 0 81 34" fill="none" xmlns="http://www.w3.org/2000/svg">
<path d="M65.2098 19.5882C73.7498 15.7432 74.6497 11.3322 70.0768 7.20043C61.9997 -0.038669 39.1201 -0.952732 28.8602 4.78273C18.6003 10.5182 4.8834 6.61807 1.42627 13.3858C-2.0438 20.179 12.8013 17.6389 24.1764 19.5882C35.5515 19.5881 50.6282 26.1462 65.2098 19.5882Z" fill="#4DEAFF"/>
<path d="M70.6088 26.6911C79.1488 22.8462 80.0487 18.4351 75.4758 14.3034C67.3987 7.06431 59.6399 15.1064 44.5847 14.3034C29.5295 13.5004 17.0392 14.3034 13.5821 21.0712C10.112 27.8643 24.3996 24.7419 35.7746 26.6912C47.1497 26.6911 56.0272 33.2492 70.6088 26.6911Z" stroke="#555555" stroke-width="5.00059" stroke-miterlimit="10"/>
</svg>
