<svg id="圖層_1" data-name="圖層 1" xmlns="http://www.w3.org/2000/svg" viewBox="0 0 124.93 91.4">
  <defs>
    <style>
      .cls-1 {
        fill: #4deaff;
      }

      .cls-2 {
        fill: #64ddda;
      }

      .cls-3 {
        fill: #45afff;
      }

      .cls-4 {
        fill: #0eafc9;
      }

      .cls-5 {
        fill: #fff;
      }

      .cls-6 {
        fill: #555;
      }
    </style>
  </defs>
  <title>素材元件</title>
  <g>
    <path class="cls-1" d="M28.13,60.8a10,10,0,0,0-6.2,6c-.9,2.8.4,6.4,3.2,7.4,1.6.6,3.4.3,5.1.3a15.87,15.87,0,0,1,7.7,2.1c2.4,1.5,4.5,3.7,7.4,4.1,5.1.6,9.4-4.9,14.4-3.9,2.1.4,3.8,1.9,5.9,2.1,1.9.2,3.7-.8,5.5-1.5a19.34,19.34,0,0,1,11.4-.6,15.07,15.07,0,0,0,4.7.9,17.61,17.61,0,0,0,3.9-1.2c3.4-1.1,7-.5,10.6-.8s7.5-2,8.3-5.4c.7-2.8-1-5.7-3.4-7.3a14.84,14.84,0,0,0-3.1-1.5c-1.6-.7-3.4-1.4-5-2.1"/>
    <path class="cls-2" d="M50.63,21.5h-.2a2.09,2.09,0,0,1-.6-.4,31.93,31.93,0,0,0-4.3-3.2A6.2,6.2,0,0,0,41,16.7a4.47,4.47,0,0,0-3.7,3.5,1.64,1.64,0,0,0,.2,1.2c.8,1.1,3.2.7,4.3.8,1.8.1,7.9-.3,7.9,2.6.1,2.4-.2,12,.6,14.1.1.3.8,0,.8,0s.8-9.3.8-11.7c0-1.3-.3-3.5.9-4.4,2.5-1.8,6.1-1.5,8.8-.3.8.4,1.7.8,2.4.2.4-.2.5-.6.6-1.1a3.72,3.72,0,0,0-.1-3.1c-.7-1.4-2.5-1.8-4.1-1.8a16.19,16.19,0,0,0-9.1,4.1A.68.68,0,0,1,50.63,21.5Z"/>
    <path class="cls-3" d="M32.63,69.1a10.91,10.91,0,0,1-1.1-.6c-2.1-1.5-2.7-4.3-2.9-6.8a22.2,22.2,0,0,1,2.1-11.4c8.3-14.7,32.9-11,39.9,2.9,1.3,2.5,2.5,5.7,5.1,6.2,4.4,1,7.5-6.3,12-5.8,3.5.4,4.8,5.1,5.4,8.9.2,1.2.5,5.5-.8,6.1a2,2,0,0,1-.8.1c-9.5.2-19.1.5-28.6.7-8.8.2-17.5.9-26.3.5A7.78,7.78,0,0,1,32.63,69.1Z"/>
    <path class="cls-4" d="M27.63,57.1c-4.8.4-10.2,1.5-14,4.5-2.4,1.9-4.3,5.2-2.1,8,2.8,3.5,7.6,1.9,11.3,1.8,3.1-.1,5.5,1.4,8.4,1.8,2.5.4,5-.3,7.5-.1,2.9.2,4.4,2.7,7.1,3.4,2.4.6,4.5-.7,6.7-1.2,3.2-.8,6.5-.2,9.7.1s6.5.5,9.7.6c5.2.2,11.4,1,16.5-.8a9.06,9.06,0,0,0,2.2-1.1c.5-.4,1.1-1.2,1.5-1.5.7-.4,1.8.1,2.5.2a10.46,10.46,0,0,0,4.3-.3c3.6-.9,7.5-4,7.2-8.1-.2-3.7-3.9-6.6-7.5-5.4a.68.68,0,0,0,.4,1.3c4.9-1.7,7.1,4.8,4.3,8.1s-7.2,3.7-11.1,2.6a.83.83,0,0,0-.8.3c-2.5,3.8-7.6,3.5-11.5,3.5-4.6,0-9.2-.1-13.8-.4-4.2-.3-8.7-1.2-12.9-.6-1.8.3-3.4,1.2-5.1,1.5-3.4.4-4.1-1.7-6.7-2.8-3.2-1.4-6.8-.1-10.1-.6-2.1-.3-3.9-1.4-6-1.6a18.53,18.53,0,0,0-4.7.2c-2.1.2-4.2.6-6.2-.2-3.8-1.5-2.8-5.2-.2-7.4,3.6-2.9,8.8-4,13.2-4.4C28.43,58.3,28.53,57,27.63,57.1Z"/>
    <path class="cls-1" d="M29.83,20.5a4.91,4.91,0,0,0-3.7.7,1.58,1.58,0,0,0-.5,2.1,1.49,1.49,0,0,0,2.1.5,1,1,0,0,0,.5-.4l.2-.1c.4-.1-.2,0,.2-.1H29a1.52,1.52,0,0,0,1.9-1.1A1.54,1.54,0,0,0,29.83,20.5Z"/>
    <path class="cls-1" d="M39.43,24.8c-.3.2-.6.3-.9.5a1.49,1.49,0,0,0-.5,2.1,1.58,1.58,0,0,0,2.1.5c.3-.2.6-.3.9-.5a1.49,1.49,0,0,0,.5-2.1A1.6,1.6,0,0,0,39.43,24.8Z"/>
    <path class="cls-1" d="M62,27.8a2.07,2.07,0,0,0,.6.2,1.6,1.6,0,0,0,1.9-1.1,1.56,1.56,0,0,0-1.1-1.9,2.07,2.07,0,0,0-.6-.2,1.6,1.6,0,0,0-1.9,1.1A1.69,1.69,0,0,0,62,27.8Z"/>
    <path class="cls-1" d="M74.23,21.8h0c.1,0,.1,0,.2.1s.2.1.4.1c-.3-.2,0,0,.1.1s.3.2.4.3a1.6,1.6,0,0,0,2.1-.5,1.69,1.69,0,0,0-.5-2.1,5.77,5.77,0,0,0-2.6-.9c-.8-.1-1.5.8-1.5,1.5S73.33,21.7,74.23,21.8Z"/>
    <path class="cls-5" d="M40.23,68.1a21.28,21.28,0,0,1,12.4-4.2c3.9,0,7.6,2,11.5,1.4,4.1-.6,7.6-1.9,11.9-1.5s9,2.5,13.4,2.2a.35.35,0,1,0,0-.7c-4.8.3-9.7-2-14.4-2.3a22.44,22.44,0,0,0-5.2.2c-2.5.5-4.9,1.6-7.5,1.5-4.1-.1-7.7-1.9-12-1.5a20.73,20.73,0,0,0-10.4,4.2C39.43,67.7,39.83,68.4,40.23,68.1Z"/>
    <path class="cls-5" d="M45.43,67.1a15,15,0,0,1,10.2-.9c.4.1.6-.6.2-.7a15.48,15.48,0,0,0-10.8,1C44.73,66.7,45,67.2,45.43,67.1Z"/>
    <path class="cls-5" d="M69,65.8a17,17,0,0,1,7.1-.2.36.36,0,0,0,.2-.7,16.82,16.82,0,0,0-7.4.2C68.43,65.2,68.63,65.9,69,65.8Z"/>
    <path class="cls-5" d="M58.63,66.3H60a.35.35,0,1,0,0-.7h-1.4A.35.35,0,1,0,58.63,66.3Z"/>
    <path class="cls-5" d="M65.93,66.3a2.77,2.77,0,0,0,.9.1c.2,0,.4-.1.4-.2a.3.3,0,0,0-.2-.4,2.77,2.77,0,0,0-.9-.1c-.2,0-.4.1-.4.2S65.73,66.3,65.93,66.3Z"/>
    <path class="cls-5" d="M78.53,65.5a2.21,2.21,0,0,0,1.6,0c.4-.2.2-.8-.2-.7a1.28,1.28,0,0,1-1.2,0A.36.36,0,0,0,78.53,65.5Z"/>
    <path class="cls-5" d="M39.83,66.1a7,7,0,0,0,1-.8c.4-.3-.1-.8-.5-.5a7,7,0,0,0-1,.8C39,65.8,39.53,66.4,39.83,66.1Z"/>
    <path class="cls-5" d="M43.63,63.9a2,2,0,0,1,1.4-.6.35.35,0,1,0,0-.7,2.73,2.73,0,0,0-1.9.8C42.83,63.7,43.33,64.2,43.63,63.9Z"/>
    <path class="cls-5" d="M47.83,62.4a13.55,13.55,0,0,1,2-.2c.5-.1.5-.8,0-.7a13.55,13.55,0,0,1-2,.2C47.43,61.7,47.43,62.4,47.83,62.4Z"/>
    <path class="cls-5" d="M52.53,62.1a2.82,2.82,0,0,1,1.8.2c.4.2.6-.5.2-.7a3.36,3.36,0,0,0-2.2-.2C51.83,61.5,52,62.2,52.53,62.1Z"/>
    <path class="cls-5" d="M57.13,62.7a1.42,1.42,0,0,0,.6.2c.4.2.6-.5.2-.7a1.42,1.42,0,0,0-.6-.2C56.93,61.9,56.73,62.5,57.13,62.7Z"/>
    <path class="cls-5" d="M60.23,63.4a1.8,1.8,0,0,0,1.2.3c.5,0,.5-.8,0-.7a1.88,1.88,0,0,1-.8-.2C60.23,62.5,59.93,63.1,60.23,63.4Z"/>
    <path class="cls-5" d="M64.63,63.8c.4-.1.6-.1,1-.2s.2-.8-.2-.7-.6.1-1,.2S64.13,63.8,64.63,63.8Z"/>
    <path class="cls-5" d="M68.63,62.6a1.27,1.27,0,0,1,.6-.1c.5-.1.2-.8-.2-.7a1.27,1.27,0,0,1-.6.1C68,62,68.23,62.7,68.63,62.6Z"/>
    <path class="cls-5" d="M73,62.1h1.1a.35.35,0,1,0,0-.7H73A.35.35,0,1,0,73,62.1Z"/>
    <path class="cls-5" d="M77.33,62.4a2.92,2.92,0,0,0,.9.2c.4.1.6-.5.2-.7a2.92,2.92,0,0,0-.9-.2C77,61.6,76.93,62.2,77.33,62.4Z"/>
    <path class="cls-5" d="M81.23,63.4a9.29,9.29,0,0,1,1.3.4c.4.1.6-.5.2-.7a9.29,9.29,0,0,1-1.3-.4C81,62.5,80.83,63.2,81.23,63.4Z"/>
    <path class="cls-5" d="M85.73,64.1a1.52,1.52,0,0,0,1.3.3c.5-.1.2-.8-.2-.7s-.5-.1-.8-.2C85.73,63.2,85.43,63.8,85.73,64.1Z"/>
    <path class="cls-5" d="M90.53,63.8a5.9,5.9,0,0,0,.8-.4c.4-.2.1-.8-.4-.6a5.9,5.9,0,0,0-.8.4C89.83,63.4,90.13,64.1,90.53,63.8Z"/>
    <path class="cls-5" d="M91.53,64.9a.35.35,0,1,0,0-.7A.35.35,0,1,0,91.53,64.9Z"/>
    <path class="cls-5" d="M37.73,66.9a.35.35,0,1,0,0-.7A.35.35,0,1,0,37.73,66.9Z"/>
    <path class="cls-6" d="M35,66.7c-5.8-3.2-4.2-14.1-1.3-18.8a17.51,17.51,0,0,1,10.2-7.7,25.28,25.28,0,0,1,24.3,6.2,20.81,20.81,0,0,1,3.7,5.1c1.1,2.1,1.9,4.5,3.9,5.9,2.6,1.8,5.3.2,7.4-1.5,1.6-1.4,3.4-3.5,5.7-3.6,3.3-.1,4.4,4.1,4.9,6.7.3,1.5,1,4.7.3,6.1-1.1,2.2-8.7,1.4-11.1,1.4-7.9.2-16,.4-23.9.7-3.8.2-7.5.4-11.3.4-4.1.1-9.1.5-13-1-.8-.3-1.1.9-.4,1.3,3.4,1.4,7.4,1.1,11,1.1,4.5,0,9.1-.2,13.6-.4,8.7-.4,17.4-.5,26.1-.8,2.3-.1,4.5-.1,6.8-.2a4,4,0,0,0,2.4-.4c1.5-.9,1.2-3.9,1.1-5.3-.2-3.7-1.2-9.7-5.3-10.9-4.9-1.4-7.1,4.9-11.2,5.7-3.8.7-5.2-4.7-6.7-7.2a20.52,20.52,0,0,0-4.7-5.5c-6.9-5.8-17.4-8-26-4.7A18.34,18.34,0,0,0,30.93,50c-1.8,5.3-2.5,14.4,3.2,17.6C35.13,68.2,35.83,67.1,35,66.7Z"/>
  </g>
</svg>
