<svg id="圖層_1" data-name="圖層 1" xmlns="http://www.w3.org/2000/svg" viewBox="0 0 169.43 99.5">
  <defs>
    <style>
      .cls-1 {
        fill: #fff;
      }

      .cls-2 {
        fill: #4deaff;
      }

      .cls-3, .cls-5 {
        fill: #555;
      }

      .cls-4 {
        fill: #73ffd0;
      }

      .cls-5 {
        stroke: #555;
        stroke-miterlimit: 10;
        stroke-width: 0.75px;
      }

      .cls-6 {
        fill: #383838;
      }

      .cls-7 {
        fill: #5ecca5;
      }

      .cls-8 {
        fill: #4d92ec;
      }

      .cls-9 {
        fill: #ffcb00;
      }

      .cls-10 {
        fill: #ffde1a;
      }

      .cls-11 {
        fill: none;
      }

      .cls-12 {
        fill: #0eafc9;
      }

      .cls-13 {
        fill: #64ddda;
      }
    </style>
  </defs>
  <title>素材元件</title>
  <g>
    <path class="cls-1" d="M94.73,3.6a32.32,32.32,0,0,0-6.9-.7,34.23,34.23,0,0,0-23.5,9.8c-8,7.7-11.5,18-9.5,28.3a34.32,34.32,0,0,0,13.4,20.9A31.35,31.35,0,0,0,92.13,68c15.7-2.7,28.1-16.9,28.2-32.5a38.08,38.08,0,0,0-.5-5.9C117.33,17,107,6.3,94.73,3.6Z"/>
    <path class="cls-2" d="M81.83,88.4a9.22,9.22,0,0,0,14.1-2.2c1.6-2.7-2.6-5.2-4.3-2.5-1.4,2.2-4.2,3-6.3,1.2C82.93,82.9,79.33,86.4,81.83,88.4Z"/>
    <path class="cls-2" d="M106.13,78.3c1.7,1.5,3.6,2.8,6,2.4a4.4,4.4,0,0,0,3.7-4.3c.1-3.2-4.8-3.2-4.9,0,0-.3.4-.6.4-.7,0,.2-.5,0-.1,0a5.37,5.37,0,0,1-1.6-1,2.51,2.51,0,0,0-3.5,0C105.23,75.8,105.13,77.5,106.13,78.3Z"/>
    <path class="cls-2" d="M35.63,92.3a8.91,8.91,0,0,0,9.1,1.8,2.55,2.55,0,0,0,1.7-3,2.42,2.42,0,0,0-3-1.7,4,4,0,0,1-4.3-.6C36.73,86.7,33.23,90.2,35.63,92.3Z"/>
    <path class="cls-2" d="M81.83,88.4a9.22,9.22,0,0,0,14.1-2.2c1.6-2.7-2.6-5.2-4.3-2.5-1.4,2.2-4.2,3-6.3,1.2C82.93,82.9,79.33,86.4,81.83,88.4Z"/>
    <path class="cls-2" d="M106.13,78.3c1.7,1.5,3.6,2.8,6,2.4a4.4,4.4,0,0,0,3.7-4.3c.1-3.2-4.8-3.2-4.9,0,0-.3.4-.6.4-.7,0,.2-.5,0-.1,0a5.37,5.37,0,0,1-1.6-1,2.51,2.51,0,0,0-3.5,0C105.23,75.8,105.13,77.5,106.13,78.3Z"/>
    <path class="cls-2" d="M35.63,92.3a8.91,8.91,0,0,0,9.1,1.8,2.55,2.55,0,0,0,1.7-3,2.42,2.42,0,0,0-3-1.7,4,4,0,0,1-4.3-.6C36.73,86.7,33.23,90.2,35.63,92.3Z"/>
    <path class="cls-2" d="M22.23,67.6c-1.5-.6-5.4.2-6.9,2.1-1.8,2.3-5.2,2.5-7.1,2.3-1.2-.1-3,.4-2.1,2s1.7,1.7,3,2.3.7,2.9,4,2,4.2-3.1,6-3.8c4.2-1.6,5.9-3.3,6.2-4.7C25.73,67.9,22.23,67.6,22.23,67.6Z"/>
    <path class="cls-3" d="M13,73.9c1,1.2,2.3.9,3.4.1a39.56,39.56,0,0,1,3.4-2.2c1-.5,4.7-2.3,6.2-1.2,1.7,1.2.2,2.8-.4,3.4a5.67,5.67,0,0,1-1.8,1.2,9.57,9.57,0,0,1-4.7,1.1,3,3,0,0,0-1.8.4c-.7.4-2,1.6-3,1.2-1.8-.7-1.4-2.6-.7-3.9.3-.6-.6-1.1-.8-.5-1.1,2.6-1.4,5.9,2.3,5.3a6,6,0,0,0,2.2-.9,7.11,7.11,0,0,1,3.2-.7,9.29,9.29,0,0,0,4.8-1.7c2-1.4,4.2-4.4,1.1-5.9-1.6-.8-3.7-.1-5.2.5a19.22,19.22,0,0,0-2.9,1.4c-.9.5-3.7,3-4.7,1.7C13.33,72.7,12.63,73.4,13,73.9Z"/>
    <path class="cls-3" d="M51.33,48.9a2.46,2.46,0,0,0-2.6.2,5.35,5.35,0,0,0-1.3,1.3,5.91,5.91,0,0,1-2.6,1.7c-1.6.7-3.6,1.8-2.3,3.8s4,1.8,5.7.8a6.76,6.76,0,0,0,2.6-2.7c.2-.4.9-3.2,0-3.7s-.2,1.8-.6,2.7a6,6,0,0,1-2.4,2.8c-1.1.6-3.3,1.1-4.1-.1-1.5-2.1,1.2-2.5,2.3-2.9,1.4-.6,3.2-3.7,4.8-3C51.43,50,51.93,49.1,51.33,48.9Z"/>
    <path class="cls-2" d="M81.83,88.4a9.22,9.22,0,0,0,14.1-2.2c1.6-2.7-2.6-5.2-4.3-2.5-1.4,2.2-4.2,3-6.3,1.2C82.93,82.9,79.33,86.4,81.83,88.4Z"/>
    <path class="cls-2" d="M106.13,78.3c1.7,1.5,3.6,2.8,6,2.4a4.4,4.4,0,0,0,3.7-4.3c.1-3.2-4.8-3.2-4.9,0,0-.3.4-.6.4-.7,0,.2-.5,0-.1,0a5.37,5.37,0,0,1-1.6-1,2.51,2.51,0,0,0-3.5,0C105.23,75.8,105.13,77.5,106.13,78.3Z"/>
    <path class="cls-2" d="M35.63,92.3a8.91,8.91,0,0,0,9.1,1.8,2.55,2.55,0,0,0,1.7-3,2.42,2.42,0,0,0-3-1.7,4,4,0,0,1-4.3-.6C36.73,86.7,33.23,90.2,35.63,92.3Z"/>
    <path class="cls-4" d="M65.43,19.4a4.8,4.8,0,0,0-1.7.5c-1.5.9-1.7,3-1.6,4.8a4,4,0,0,0,.7,2.6,4.61,4.61,0,0,0,1.7.9c.7.2,1.5.5,2.2.7a2.47,2.47,0,0,1,.9.4,3,3,0,0,1,.8,2c.1.7.7,1.5,1.5,1.4.3,0,.5-.2.8-.2s.5.5.6.9c.5,2.2,2,4.6,4.3,4.5a7.57,7.57,0,0,1,1.5-.1,6.94,6.94,0,0,1,1.3.5c2.6,1.1,5.5-.2,7.9-1.5a4,4,0,0,0,2-1.6,7.79,7.79,0,0,0,.4-2.1A5.22,5.22,0,0,1,93,29a2.7,2.7,0,0,0,1.5-.3,2,2,0,0,0,.9-1.1,9,9,0,0,0,.2-8,7.84,7.84,0,0,0-1-1.5,9.34,9.34,0,0,0-1.5-1.3c-2.4-1.7-5.1-3.5-8-3.2a10.6,10.6,0,0,0-4.2,1.5c-2.3,1.2-2.2,3.6-4.8,3.7C72.43,19,69,18.8,65.43,19.4Z"/>
    <path class="cls-5" d="M87.13,69.2a32.64,32.64,0,0,1-19.5-6.7A35.54,35.54,0,0,1,53.93,41c-2-10.5,1.5-21.1,9.8-29.1,8.6-8.3,20.2-11.8,31.2-9.3,12.7,2.9,23.2,13.9,25.7,26.7a30.78,30.78,0,0,1,.6,6.1c-.1,15.9-12.8,30.6-28.9,33.3A23.47,23.47,0,0,1,87.13,69.2Zm.7-66.4a34.23,34.23,0,0,0-23.5,9.8c-8,7.7-11.5,18-9.5,28.3a34.32,34.32,0,0,0,13.4,20.9,31.35,31.35,0,0,0,23.9,6.1c15.7-2.7,28.1-16.9,28.2-32.5a38.08,38.08,0,0,0-.5-5.9c-2.4-12.5-12.7-23.2-25-25.9A34.17,34.17,0,0,0,87.83,2.8Z"/>
    <path class="cls-6" d="M80.43,38.8a5.7,5.7,0,0,1-2.2-.4c-.1,0-.2-.1-.4-.2a3.18,3.18,0,0,0-.9-.3h-1.5c-2.4.1-4-2.4-4.5-4.7-.1-.3-.2-.7-.4-.7a.6.6,0,0,0-.4.1c-.1,0-.2.1-.3.1-.8.1-1.5-.7-1.7-1.5,0-.1-.1-.3-.1-.4a2.1,2.1,0,0,0-.7-1.4,2,2,0,0,0-.8-.4l-2.2-.7a4.37,4.37,0,0,1-1.8-.9,4.12,4.12,0,0,1-.8-2.7c0-1.8.1-4,1.7-5a4.76,4.76,0,0,1,1.8-.5,53.14,53.14,0,0,1,6.8-.5c1.2,0,2.5-.1,3.7-.2,1.5-.1,2-.9,2.7-1.8a5.6,5.6,0,0,1,2.1-1.9,11.05,11.05,0,0,1,4.3-1.5c2.9-.3,5.5,1.4,8.1,3.3a18.26,18.26,0,0,1,1.6,1.3,4.88,4.88,0,0,1,1,1.6,9.43,9.43,0,0,1-.2,8.2,2.13,2.13,0,0,1-1,1.1,2.66,2.66,0,0,1-1.2.3h-.3a4.78,4.78,0,0,0-4.1,3.9,1.27,1.27,0,0,1-.1.6,2.6,2.6,0,0,1-.4,1.5,3.83,3.83,0,0,1-2.1,1.7A11.17,11.17,0,0,1,80.43,38.8Zm-3.6-1.3h.3a1.78,1.78,0,0,1,1,.4c.1,0,.2.1.3.1,2.5,1.1,5.3-.2,7.7-1.5A4.13,4.13,0,0,0,88,35a3.19,3.19,0,0,0,.3-1.4,2,2,0,0,1,.1-.7,5.42,5.42,0,0,1,4.5-4.3h.4a4.25,4.25,0,0,0,1.1-.2,2,2,0,0,0,.8-1,9.26,9.26,0,0,0,.2-7.8,9.88,9.88,0,0,0-.9-1.5A8.78,8.78,0,0,0,93,16.9c-2.6-1.8-5.1-3.4-7.8-3.2a9.66,9.66,0,0,0-4.1,1.5,4.74,4.74,0,0,0-1.9,1.8,3.83,3.83,0,0,1-3,1.9c-1.2.1-2.5.1-3.7.2a50.35,50.35,0,0,0-6.7.5,3.77,3.77,0,0,0-1.6.5c-1.5.8-1.5,2.9-1.5,4.6a3.53,3.53,0,0,0,.7,2.5A4,4,0,0,0,65,28l2.2.7a2.35,2.35,0,0,1,1,.5,2.72,2.72,0,0,1,.8,1.7c0,.1.1.3.1.4.2.7.7,1.3,1.2,1.2a.37.37,0,0,0,.3-.1,1.48,1.48,0,0,1,.7-.1c.5.1.7.8.7,1.1.5,2.2,1.9,4.4,4,4.3h.6C76.33,37.5,76.63,37.5,76.83,37.5Z"/>
    <path class="cls-7" d="M72.43,50.8a3.53,3.53,0,0,1,.8-1.3c1.1-1.3,3.2-1.2,4.7-.6a1.56,1.56,0,0,1,.8.6,5,5,0,0,1,.2,1.2,2.46,2.46,0,0,0,2.3,1.8,17.2,17.2,0,0,0,3.2-.2c.5,0,1.2.1,1.4.6s-.1.7-.4,1.1c-1.3,1.6-3.1,3.1-5.1,2.8a3.35,3.35,0,0,0-1,0c-.4.2-.5.6-.8.9-.9,1.3-2.8,1.3-4.2,2a1.8,1.8,0,0,1-.9.4,1.89,1.89,0,0,1-1.9-.9C69.83,56.6,71.23,53.4,72.43,50.8Z"/>
    <path class="cls-6" d="M73.13,60.4a2.53,2.53,0,0,1-1.8-1c-1.9-2.8-.3-6.3.8-8.7a3.92,3.92,0,0,1,.8-1.4c1.3-1.4,3.5-1.2,5-.7a1.27,1.27,0,0,1,.9.7,1.49,1.49,0,0,1,.2.9v.4a2.5,2.5,0,0,0,2.2,1.7,7.41,7.41,0,0,0,2.1-.1c.4,0,.7-.1,1.1-.1.9,0,1.5.2,1.6.7a2,2,0,0,1-.4,1.3c-1.2,1.5-3.1,3.2-5.4,2.9H80c-.3,0-.5-.1-.7,0a1,1,0,0,0-.5.6c0,.1-.1.2-.2.3A4.31,4.31,0,0,1,76,59.4c-.5.2-1.1.4-1.6.6-.1,0-.1.1-.2.1a4.35,4.35,0,0,1-.7.4A.6.6,0,0,0,73.13,60.4Zm-.5-9.5c-1.1,2.2-2.6,5.6-.8,8.3a1.69,1.69,0,0,0,1.7.8c.2,0,.4-.2.6-.3a.35.35,0,0,0,.2-.1A8.51,8.51,0,0,1,76,59a4.3,4.3,0,0,0,2.4-1.3c0-.1.1-.2.2-.3a1.58,1.58,0,0,1,.7-.7,1.38,1.38,0,0,1,.9,0h.2c2,.3,3.8-1.3,4.9-2.7a1.8,1.8,0,0,0,.4-.9c-.1-.5-1-.4-1.1-.4-.4,0-.7.1-1,.1a8.13,8.13,0,0,1-2.2.1,2.67,2.67,0,0,1-2.5-2v-.4a1.48,1.48,0,0,0-.1-.7,1.28,1.28,0,0,0-.7-.5c-1.4-.5-3.4-.7-4.5.6C73,50,72.83,50.5,72.63,50.9Z"/>
    <path class="cls-1" d="M109,48a1.5,1.5,0,0,0,.7,2,5.63,5.63,0,0,0,1.3,0l2.2-.6c.5-.1,1.1-.1,1.3.4.1.2,0,.6.2.7h.3a3.37,3.37,0,0,0,2.2-1.7,5.31,5.31,0,0,0,.6-2.7c0-2.6-1.7-4-3.3-1.8a5.06,5.06,0,0,1-2.1,2C111.13,46.6,109.63,46.6,109,48Z"/>
    <path class="cls-6" d="M114.83,50.6h-.2c-.3-.1-.3-.4-.3-.6v-.2c-.1-.3-.7-.3-1-.2l-2.2.6a2.23,2.23,0,0,1-1.4,0,1.09,1.09,0,0,1-.8-.8,2,2,0,0,1,0-1.5,3.41,3.41,0,0,1,2.5-1.7,3,3,0,0,0,1-.4,3.57,3.57,0,0,0,1.8-1.6l.2-.2c.9-1.2,1.7-1.2,2.2-1.1.9.3,1.5,1.5,1.5,3a5.81,5.81,0,0,1-.6,2.8,3.71,3.71,0,0,1-2.3,1.8A1.58,1.58,0,0,1,114.83,50.6Zm-1.1-1.6a1,1,0,0,1,1,.6v.5h.1a3.11,3.11,0,0,0,2-1.6,5.26,5.26,0,0,0,.6-2.6c0-1.4-.5-2.4-1.2-2.6-.5-.2-1.1.2-1.7.9l-.2.2a5,5,0,0,1-2,1.8c-.4.1-.7.3-1.1.4-.9.3-1.8.5-2.2,1.4a1.08,1.08,0,0,0,0,1.1,1,1,0,0,0,.6.5,2,2,0,0,0,1.1-.1l2.2-.6A1.23,1.23,0,0,0,113.73,49Z"/>
    <path class="cls-1" d="M107.13,15.6a6.91,6.91,0,0,0-1.6,2.2.88.88,0,0,0-.1.7.67.67,0,0,0,.7.4,20.21,20.21,0,0,0,3.4.6,1.27,1.27,0,0,0,.6-.1c.2-.1.2-.4.2-.6a5.92,5.92,0,0,0-.1-1.9,1.89,1.89,0,0,0-1.3-1.3c-.6-.1-1.3.3-1.8,0"/>
    <path class="cls-6" d="M109.73,19.8h-.2a21.36,21.36,0,0,1-3.5-.6,1,1,0,0,1-.8-.5,1.34,1.34,0,0,1,.1-.9,9.12,9.12,0,0,1,1.7-2.3l.2.2v-.1a2.72,2.72,0,0,0,.9,0c.3,0,.6-.1.9-.1a2,2,0,0,1,1.5,1.4,6.89,6.89,0,0,1,.1,2,.74.74,0,0,1-.3.7C110,19.7,109.93,19.8,109.73,19.8Zm-2.6-3.9a5.58,5.58,0,0,0-1.4,2c-.1.2-.2.4-.1.5s.3.2.5.3a34.31,34.31,0,0,0,3.4.6h.4a.6.6,0,0,0,.1-.4,10.8,10.8,0,0,0,0-1.8c-.1-.5-.6-1.1-1.1-1.1a1.7,1.7,0,0,0-.7.1C107.83,16,107.43,16.1,107.13,15.9Z"/>
    <circle class="cls-8" cx="96.53" cy="34.4" r="15.5"/>
    <path class="cls-6" d="M96.53,50.2a15.7,15.7,0,1,1,15.7-15.7A15.73,15.73,0,0,1,96.53,50.2Zm0-31.1a15.3,15.3,0,1,0,15.3,15.3A15.36,15.36,0,0,0,96.53,19.1Z"/>
    <path class="cls-6" d="M95.63,50.8a15.7,15.7,0,1,1,15.7-15.7A15.66,15.66,0,0,1,95.63,50.8Zm0-31a15.3,15.3,0,1,0,15.3,15.3A15.3,15.3,0,0,0,95.63,19.8Z"/>
    <path class="cls-9" d="M97.53,44.4a.76.76,0,0,1-.4-.1c-.4-.2-.4-.6-.3-1a5.17,5.17,0,0,0,.8-1.9,1.42,1.42,0,0,0-.7-1.4c-.2-.1-.4-.1-.6-.2a2.52,2.52,0,0,1-1.5-1,1.29,1.29,0,0,1-.1-1.2,2,2,0,0,1,1.2-1.2,4.22,4.22,0,0,1,1.9-.3h.3a3,3,0,0,0,2.2-.6,1.27,1.27,0,0,0,.4-.7c0-.2,0-.4-.2-.4-.3-.3-.8-.3-1.4-.4l-3.5-.2a2,2,0,0,1-1-.2,1.27,1.27,0,0,1-.7-.9,2.26,2.26,0,0,1,.4-1.7,5,5,0,0,1,3.5-2.2c.5-.1.9-.1,1.4-.2a4.67,4.67,0,0,0,1.7-.3,4.67,4.67,0,0,0-2.8-.6c-1.9,0-4.1,0-5.2,1.2a.71.71,0,0,1-1-1c1.5-1.6,4-1.7,6.3-1.7,1.5,0,3.2.2,4.1,1.4a1.31,1.31,0,0,1,.3,1,.82.82,0,0,1-.7.7,5.59,5.59,0,0,1-2.5.5,4.87,4.87,0,0,0-1.2.1,4.16,4.16,0,0,0-2.6,1.6,1,1,0,0,0-.2.6h.4l3.5.2a3.36,3.36,0,0,1,2.2.7,2.13,2.13,0,0,1,.7,1.5,2.43,2.43,0,0,1-.9,1.8,4.59,4.59,0,0,1-3.1.9h-.3a3.18,3.18,0,0,0-1.4.2c-.2.1-.4.3-.4.4v.1a2.15,2.15,0,0,0,.7.4,6.89,6.89,0,0,1,.8.3A2.76,2.76,0,0,1,99,41.4a5.51,5.51,0,0,1-1,2.5A.47.47,0,0,1,97.53,44.4Z"/>
    <path class="cls-10" d="M97.23,28.7a.47.47,0,0,1-.5-.5V22.9a.5.5,0,1,1,1,0v5.3A.47.47,0,0,1,97.23,28.7Z"/>
    <path class="cls-10" d="M97.23,36.1a.47.47,0,0,1-.5-.5V31.1a.5.5,0,0,1,1,0v4.5A.47.47,0,0,1,97.23,36.1Z"/>
    <path class="cls-10" d="M97.13,45.9a.47.47,0,0,1-.5-.5V38.7a.5.5,0,1,1,1,0v6.7A.47.47,0,0,1,97.13,45.9Z"/>
    <path class="cls-1" d="M85.23,29.6a7.46,7.46,0,0,0,.7,1.2.57.57,0,1,0,.8-.8c-.2-.3-.4-.7-.6-1a.44.44,0,0,0-.7-.2A.54.54,0,0,0,85.23,29.6Z"/>
    <path class="cls-1" d="M87.13,29a2.46,2.46,0,0,1-.4,1.1c-.4.6.6,1.2,1,.6a4.28,4.28,0,0,0,.5-1.6.54.54,0,0,0-.5-.5C87.43,28.5,87.23,28.7,87.13,29Z"/>
    <path class="cls-1" d="M84.83,32.3a3.64,3.64,0,0,0,1.4,1.6.51.51,0,0,0,.5-.9,2.94,2.94,0,0,1-1-1.2.44.44,0,0,0-.7-.2A.43.43,0,0,0,84.83,32.3Z"/>
    <path class="cls-1" d="M87.63,31.6a2.09,2.09,0,0,1-.7,1.3c-.3.2-.4.5-.2.7s.5.4.7.2a2.47,2.47,0,0,0,1.2-1.9.67.67,0,0,0-.4-.7A.43.43,0,0,0,87.63,31.6Z"/>
    <path class="cls-1" d="M84.93,35.7A4.84,4.84,0,0,0,87,37.6c.6.3,1.2-.6.6-1a4.36,4.36,0,0,1-1.7-1.6C85.53,34.6,84.53,35.2,84.93,35.7Z"/>
    <path class="cls-1" d="M87.73,34.9a7.79,7.79,0,0,1-.4,2.1c-.2.7.7,1.2,1,.6a5.83,5.83,0,0,0,.6-2.6A.6.6,0,0,0,87.73,34.9Z"/>
    <path class="cls-1" d="M85.63,39.9a2.27,2.27,0,0,0,1.6,1.1.57.57,0,0,0,.3-1.1,1.46,1.46,0,0,1-.9-.6c-.2-.3-.5-.4-.7-.2C85.53,39.3,85.43,39.6,85.63,39.9Z"/>
    <path class="cls-1" d="M88.63,38.4a4.18,4.18,0,0,1-1.1,1.5c-.2.2-.4.5-.2.7s.5.4.7.2a4.28,4.28,0,0,0,1.5-1.8c.1-.3.1-.6-.2-.7C89.23,38.1,88.83,38.1,88.63,38.4Z"/>
    <path class="cls-1" d="M87,42.7a3.55,3.55,0,0,0,2.5,1.4.55.55,0,0,0,0-1.1,2,2,0,0,1-1.5-.8c-.2-.2-.5-.4-.7-.2C86.93,42.1,86.83,42.5,87,42.7Z"/>
    <path class="cls-1" d="M89.43,41c-.1.9.1,1.7-.6,2.4-.5.5.3,1.3.8.8a2.48,2.48,0,0,0,.8-1.4,10.87,10.87,0,0,0,.1-1.8C90.63,40.3,89.53,40.3,89.43,41Z"/>
    <path class="cls-1" d="M104.73,26.9a7.74,7.74,0,0,0,.7,1.6.58.58,0,0,0,1-.6,6.94,6.94,0,0,1-.5-1.3C105.63,26,104.53,26.3,104.73,26.9Z"/>
    <path class="cls-1" d="M106.33,26.7a1.19,1.19,0,0,1-.4,1.1c-.5.5.3,1.3.8.8a2.58,2.58,0,0,0,.7-2.2A.57.57,0,0,0,106.33,26.7Z"/>
    <path class="cls-1" d="M103.83,30.6a5.67,5.67,0,0,0,1.2,1.8c.5.5,1.3-.3.8-.8a6.42,6.42,0,0,1-1-1.3.57.57,0,0,0-.7-.4C103.83,30.1,103.63,30.4,103.83,30.6Z"/>
    <path class="cls-1" d="M106.43,30.2a6.1,6.1,0,0,1-1.2,1.6.57.57,0,1,0,.8.8,4.89,4.89,0,0,0,1.4-1.8c.1-.3.1-.6-.2-.7A.46.46,0,0,0,106.43,30.2Z"/>
    <path class="cls-1" d="M103.73,33.9a4.45,4.45,0,0,0,1.2,2.1c.5.5,1.3-.3.8-.8a2.6,2.6,0,0,1-.9-1.6A.57.57,0,0,0,103.73,33.9Z"/>
    <path class="cls-1" d="M107.33,34.1a3.19,3.19,0,0,1-1.8,1.4.57.57,0,0,0,.3,1.1,4.21,4.21,0,0,0,2.6-2.1.57.57,0,0,0-.4-.7C107.63,33.6,107.43,33.8,107.33,34.1Z"/>
    <path class="cls-1" d="M103.33,38.1a11.4,11.4,0,0,0,1,1.9c.4.6,1.4,0,1-.6a5.56,5.56,0,0,1-.9-1.7C104.23,37.1,103.13,37.4,103.33,38.1Z"/>
    <path class="cls-1" d="M106.93,38.1a3.7,3.7,0,0,1-2,1.5c-.7.2-.4,1.2.3,1.1a4.54,4.54,0,0,0,2.7-2C108.23,38,107.23,37.4,106.93,38.1Z"/>
    <path class="cls-1" d="M103.13,42.1a3.32,3.32,0,0,0,1.7,1.6.57.57,0,1,0,.3-1.1,1.82,1.82,0,0,1-1-1.1.44.44,0,0,0-.7-.2C103,41.5,102.93,41.8,103.13,42.1Z"/>
    <path class="cls-1" d="M106.63,41.4a3.35,3.35,0,0,1-1.8,1.5c-.3.1-.2.7.1.5a4.1,4.1,0,0,0,2.1-1.8C107.23,41.3,106.83,41.1,106.63,41.4Z"/>
    <path class="cls-1" d="M86.23,27a54.2,54.2,0,0,0,.6,5.8,51.36,51.36,0,0,0,.6,5.5c.5,2.8,1.4,6.1,3.6,8,.3.2.7-.2.4-.4-2.3-2-3.2-5.9-3.6-8.9-.4-3.3-.9-6.7-1-10C86.73,26.7,86.23,26.7,86.23,27Z"/>
    <path class="cls-1" d="M105.53,26.1c.7,3.6.2,6.8-.3,10.4-.4,2.7-.3,6.5-2.4,8.5-.3.3.1.6.4.4,2.2-2.1,2.1-5.9,2.6-8.8.5-3.7,1.1-6.9.3-10.7C106,25.6,105.53,25.7,105.53,26.1Z"/>
    <path class="cls-11" d="M64.63,40.9a2.35,2.35,0,0,1,2.3,0,2,2,0,0,1,.6.7,5.53,5.53,0,0,1,.4,5,4.13,4.13,0,0,1-.7,1.1,4.84,4.84,0,0,1-2.4,1.1,4.73,4.73,0,0,1-1.7.1c-1.2-.2-2.1-1.3-2.9-2.3a1.91,1.91,0,0,1-.5-1C59.43,43.8,63.43,41.5,64.63,40.9Z"/>
    <path class="cls-2" d="M145.83,65.8c-3.1-2.3-5.7-8.3-8.4-12.8-1.5-2.3-3.2-4.9-6.5-5.8a4.16,4.16,0,0,0-2.2-.2,3.19,3.19,0,0,0-1.6.9l-12,9.3c0-1.6-3.6-2.1-5.5-1.1s-3.1,2.6-5.1,3.4a11.59,11.59,0,0,1-7.8.1c-2.5-.7-4.3-4.2-6.6-3.3-2.9,1.1-7.1,6.9-11,10.2a3.84,3.84,0,0,1-2.3,1.1c-.8,0-1.3-.7-2-1-4.3-1.6-5.3-2-9.1-5.4-2.7.4-1,4.4-3.8,4.7A2.92,2.92,0,0,1,59,64.1c-.4-1-.3-2-1.1-2.9-1.8-1.6-5.7-.7-7.4.9s-2.3,3.8-4.1,5.4c-1.1,1.1-2.7,1.8-3.7,2.9s-.8,3.2.2,3.6,4-1.5,6.1-.9,4.2,1.5,6.5,1.3,4.1-1.7,6.4-2.3c3.1-.9,6.6-.1,9.5,1.1s5.6,2.6,8.8,3.3c5.5,1.1,11.2-.4,16.6-1.5a89.83,89.83,0,0,1,27.4-.8,91.24,91.24,0,0,0,11.6,1.2c3.9,0,8.1-.9,10.5-3C148.93,70.2,148.33,67.6,145.83,65.8Z"/>
    <path class="cls-12" d="M41.53,68.8c2.9-2.5,5.9-4.9,8.9-7.4,1.1-.9,2.4-2.2,4-2.2a4,4,0,0,1,3.1,2c1,1.3,1.5,2.9,2.6,4.3,4,5,11,1.8,16.1,1.6,3.7-.1,6.4,2,9.7,3.1a9.88,9.88,0,0,0,7.7-.7c3.4-1.6,6.5-3.3,10.3-3.8a23,23,0,0,1,11.3,1.4c.6.2.8-.7.3-1a23.86,23.86,0,0,0-19.4,1.1,23.11,23.11,0,0,1-5.8,2.5c-2.2.4-4.2-.4-6.1-1.3-3.2-1.5-5.9-2.6-9.5-2.2s-7.2,1.8-10.7.7c-4-1.2-4-5.5-7-7.7-2.2-1.7-4.4-.7-6.3.8-3.3,2.6-6.6,5.4-9.8,8.1C40.33,68.5,41,69.2,41.53,68.8Z"/>
    <path class="cls-12" d="M116.13,62.9c2.4-2.2,4.7-4.4,7.1-6.7,1.1-1.1,2.2-2.1,3.4-3.2.6-.6,1.2-1.1,1.8-1.8a11.36,11.36,0,0,1,2.8-2.2c.8-.4,2.5,1.4,2.8,1.8a18.26,18.26,0,0,1,1.3,1.6,26.37,26.37,0,0,1,2.3,3.5,80.1,80.1,0,0,1,3.8,7.8c.2.5,1,.1.9-.4a34.53,34.53,0,0,1-1-5.6c0-1.1.3-2.5,1.5-1.3a16.29,16.29,0,0,1,1.7,2.2c1.2,1.5,2.4,3.3,4.4,3.8a9.15,9.15,0,0,0,3.3,0c2.2-.4,3.7-.3,5.3,1.2s2.9,3.3,5.1,3.8c.6.1.9-.8.3-1-2.9-.7-4.1-4-6.9-5a8.14,8.14,0,0,0-4.1,0c-2.9.4-4.4-.7-6.1-2.9-.9-1.2-2.9-4.9-5-3.9-.8.4-.7,1.3-.6,2.1.3,2.2.8,4.5,1.2,6.8.3-.1.6-.3.9-.4a73.48,73.48,0,0,0-4.9-9.7,29.72,29.72,0,0,0-2.7-3.5c-.7-.8-1.8-2.2-3.1-2.3-1.1-.1-1.9.9-2.6,1.6-1.5,1.4-2.9,2.7-4.3,4.1-3.1,2.9-6.2,5.8-9.2,8.7C114.93,62.6,115.63,63.3,116.13,62.9Z"/>
    <path class="cls-13" d="M49.23,25.1c-1.5-1-5.8-1.8-8.9-1.2-.9.2-2.1.8-1.9,1.9a1.78,1.78,0,0,0,.8,1.1c.7.7,1.3,1.7,2.2,2.1,2.4,1.1,7.2,1.4,8.1.6S50.53,25.9,49.23,25.1Z"/>
    <path class="cls-3" d="M50,29.3c-.8-.9-1.9-1.9-3.3-1.6a1.81,1.81,0,0,0-1.2,2.6,3.85,3.85,0,0,0,3.2,2.1,1.81,1.81,0,0,0,1.7-2.3c-.2-.6-1.2-.3-1,.3.4,1.1-1,1.2-1.7.9a2.73,2.73,0,0,1-1.4-1.4c-.3-.9.5-1.3,1.3-1.1a4.31,4.31,0,0,1,1.7,1.3C49.73,30.4,50.43,29.7,50,29.3Z"/>
  </g>
</svg>
