<svg id="圖層_1" data-name="圖層 1" xmlns="http://www.w3.org/2000/svg" viewBox="0 0 250.5 88.5">
  <defs>
    <style>
      .cls-1 {
        fill: #4deaff;
      }

      .cls-2 {
        fill: #64ddda;
      }

      .cls-3 {
        fill: #d3c13d;
      }

      .cls-4 {
        fill: #eddc43;
      }

      .cls-5 {
        fill: #555;
      }

      .cls-6 {
        fill: #fff;
      }
    </style>
  </defs>
  <title>素材元件</title>
  <g>
    <path class="cls-1" d="M15.1,51.5c-1.4.3-2.8-.1-4.3-.1s-3.1.5-3.6,1.8.4,3,1.8,3.7a9.38,9.38,0,0,0,4.4.5,7,7,0,0,0,3.8-1c1-.9,1.1-2.8-.1-3.4-.5-.2-1.2-.1-1.8-.3s-1.1-.9-.7-1.4"/>
    <path class="cls-1" d="M98.6,73.7a3.59,3.59,0,0,0,4.7,3.4,3.53,3.53,0,0,0,.7-5.7,6.46,6.46,0,0,0-3.4-1c-1-.1-2.5.2-2.4,1.2"/>
    <path class="cls-2" d="M48.2,42.6c-5.4-2.5-11.4.8-16.4,4a5.32,5.32,0,0,0-2.2,2c-1.4,2.4,1,5.4,3.7,6.3s5.6.5,8.2,1.4c4.4,1.5,7.4,9.5,11.9,10.7,3.4.8,11.5-1.5,14.9-2.5,10.3-2.8,16.7-4.9,26.9-1.7,3.5,1.1,7,2.5,10.6,2.1,1.8-.2,3.5-.9,5.2-.8,4.8.3,8.6-.8,13.5-1.2,7.4-.5,15.5,7,21.6,2.8,5.8-4,6.8-14.9,12.7-18.8a3.13,3.13,0,0,0,1.1-.9c1.8-2.2-1.5-7.3-4.2-7-2.5.2-3.8,3.4-6.3,3.7"/>
    <path class="cls-3" d="M109.2,28.6a13.87,13.87,0,0,1,2.8-3.9,14.93,14.93,0,0,1,9.7-4.5c4.5-.2,5.8,4.2,6.1,7.9.2,3.1,1.1,6.9,4.5,7.8a16,16,0,0,0,3.8.1c3.1.1,6.2,1.5,7.6,3.9a5.29,5.29,0,0,1-1.8,7.1,2.84,2.84,0,0,0-1.1.8c-.4.6,0,1.2.1,1.8a3.13,3.13,0,0,1-.2,1.9,5.34,5.34,0,0,1-2.9,3,18.92,18.92,0,0,1-6.7,1.2c-2.3.1-4.2-2.1-6.5-1.9-4.7.2-9.9,2.8-14.6,2.8a4.19,4.19,0,0,1-2.5-.5,3.53,3.53,0,0,1-.8-1.3"/>
    <path class="cls-4" d="M108.8,31a9.49,9.49,0,0,0-3.7-10.8c-3.4-2.2-8.3,1-11.2,3.9-2.1,2.1-3.1,2.5-4.6,5.1s-4.4,4.9-7.2,4.1c-1.1-.3-2-1-3.1-1.4-2.3-.9-5.1-10.8-6.9-9.1s-2.5,4.1-3.7,6.3-3.3,4.2-5.7,3.8c-1.7-.3-2.9-1.8-4.4-2.7-3.7-2.4-9.4,9.5-11.4,13.5A8.58,8.58,0,0,0,51,54.9c1.3.5,3.6-.8,4.9-.6,2.7.3,4.5,2.1,7.2,2.2,6.3.5,13.1-1.9,19.4-1.9,4.3,0,8.1,2.6,12.4,2.4,3.2-.2,6.5-.4,9.4-2,5.2-3,7.1-9.6,8.4-15.5.6-2.5,1.2-5.1.6-7.7C112.9,29.3,108.8,31,108.8,31Z"/>
    <path class="cls-5" d="M112.2,31.8c2.2-4.1,6.7-7.8,11.5-7.9,4.5-.1,4.7,4.9,5.2,8.1.3,2.4,1,4.8,2.9,6.4,2.7,2.2,6.3.7,9.4,1.8,2.2.8,4.2,2.5,4.2,5.1s-2.1,2.6-3.2,4.4.1,3.8-1.4,5.5c-1.6,1.9-5.3,2.3-7.7,2.1-1.8-.1-3.1-1.2-4.8-1.7a9,9,0,0,0-4,0c-2.8.4-13.2,4.8-14.8,1.3-.6-1.3-2.5-.2-1.9,1.1,1.5,3.2,5.5,2.5,8.5,1.8,2.2-.5,4.2-1.1,6.4-1.6a10.75,10.75,0,0,1,7.5.5,13.63,13.63,0,0,0,10.3-.5,7.88,7.88,0,0,0,3.1-2.6c1-1.7.2-3.7,1.4-5.2,1.7-2.1,3.2-3.7,2.5-6.8s-3.6-4.9-6.4-5.7c-1.8-.5-3.7-.2-5.5-.4-2.8-.3-3.8-2.5-4.3-5-.5-2.9-.4-5.9-2.4-8.4-5.3-6.8-15.7,1.3-18.5,6.6C109.6,32,111.5,33.1,112.2,31.8Z"/>
    <path class="cls-5" d="M111.8,35.4c.7-2.6-.4-4.9-2.1-6.9s-4.7-5-7.4-5c-3.1-.1-4.8,3.5-6.8,5.2a30.19,30.19,0,0,0-3.9,3.2c-1.7,2-3.4,4.9-6.5,4.3s-4.5-3.3-6-5.8c-.8-1.2-1.9-3.5-3.7-3.4-2.5.2-3.7,4.4-4.7,6.1a6.52,6.52,0,0,1-2.5,2.7c-1.6.8-3.1.2-4.5-.8-.9-.6-1.7-1.4-2.8-1.4-4.5-.3-8,7.1-9.8,10.3-1.3,2.4-2.4,4.5-2.1,7.2a9.31,9.31,0,0,0,4.2,6.5,4.91,4.91,0,0,0,3.1.7c2.3-.2,3.8-.6,6.1.3,3.9,1.6,7.6,1.4,11.8.8,4.8-.6,9.8-1.9,14.7-.8,4.2,1,7.5,2,11.8,1.5,8.4-.9,12.3-6.7,14.4-14.4.8-2.9,2.7-8.2.8-11-1.2-1.7-3.8-1.3-5.4-.6-1.3.5-.8,2.6.6,2.1a5.34,5.34,0,0,1,1.8-.5c2.4.1,1.5,3.4,1.2,4.9a45.92,45.92,0,0,1-2.8,9.6c-3.1,6.7-10.2,9-17.2,7.4-2.9-.6-5.6-1.8-8.5-1.8a53.39,53.39,0,0,0-9.7,1.1c-3.7.6-7.9,1.4-11.5,0A16.17,16.17,0,0,0,60,55.5c-1.2-.1-2.2.4-3.4.5-3.4.3-5.6-3.5-5.4-6.5.2-2.4,1.9-4.8,3.1-6.8A26.24,26.24,0,0,1,58.5,37c2.6-2.4,3.6.2,6.1,1.2a5.15,5.15,0,0,0,5.3-.8,11,11,0,0,0,2.5-2.8c.8-1.3,1.5-4.2,2.8-4.9.5-.3-.1-.5.6-.1.4.2.6.9.9,1.2.5.8.9,1.5,1.4,2.4.9,1.4,1.7,2.9,3.2,3.8,2.2,1.3,4.6,2.1,7.1,1.1,3.1-1.2,4.4-4.4,6.9-6.3A21.41,21.41,0,0,0,98.5,29c1.5-1.6,2.5-3.8,5.1-2.8,2.9,1.2,6.9,5.5,6.1,8.8C109.4,36.2,111.5,36.7,111.8,35.4Z"/>
    <path class="cls-5" d="M47.6,44.5c-3.4-1.4-6.8-.9-10.1.4-2.8,1.1-6.7,2.8-8.7,5.2a4.26,4.26,0,0,0,.1,5.6c2,2.6,5.2,2.8,8.2,3.2,4.4.5,6.4,2.6,9,5.9,1.5,1.9,3.2,4.3,5.7,5.2,2.2.9,4.9.3,7.2-.1,2.9-.5,5.8-1.4,8.6-2.1,8.5-2.4,16.6-4.5,25.4-2.1,3.9,1.1,7.8,2.9,12,2.4a58.73,58.73,0,0,1,7.2-.8c1.9-.1,3.8-.3,5.8-.5,4.5-.6,8.1-.8,12.5.6,3.1,1,6.1,2.4,9.2,2.8,5.9.6,9.1-4.1,11.4-8.9,1.5-3.2,2.8-6.8,5.2-9.5,1.6-1.8,4.1-2.5,3.7-5.4-.3-2.2-2.1-4.8-4.4-5.3-3.1-.7-4.7,2.9-7.4,3.6-.8.2-.5,1.5.4,1.3,2.2-.5,3.5-3.1,5.7-3.5,1.8-.4,3.3,1.2,4,2.7,1,2.2-.1,3-1.6,4.5-3.4,3.4-5,7.8-7.1,12-1.1,2.2-2.5,4.7-4.6,6.1-2.9,1.9-6.4,1.1-9.4.1-2.4-.8-4.7-1.8-7-2.4-3.1-.8-6-.5-9.1-.1a80.72,80.72,0,0,1-9.8.7c-1.3.1-2.6.4-3.9.6a17.47,17.47,0,0,1-8.2-.8c-6-1.8-11.4-3.2-17.7-2.3-5.8.8-11.3,2.8-16.9,4.2a37.14,37.14,0,0,1-8.1,1.4c-2.8.1-4.6-1.4-6.4-3.5s-3.2-4.4-5.4-6.1-4.9-1.8-7.6-2.1-5.9-1.1-6.2-4.2c-.2-2.6,2.6-3.8,4.6-4.9C38,46,42.6,44.2,47.2,46A.79.79,0,0,0,47.6,44.5Z"/>
    <path class="cls-5" d="M12,53.3c-2.1.3-5.5-1-6.8,1.4-1.1,2.1,1,3.9,2.9,4.2s5.1.4,6.2-1.2a2.62,2.62,0,0,0,.4-2.1,2.18,2.18,0,0,0-.5-.8c-.4-.2-2.2-.7-2.1-1.1s-.6-.8-.8-.2a1.18,1.18,0,0,0,.6,1.5c.2.1.5.1.8.2S14,56.4,14,56.7c.1.5-1.1,1.1-1.5,1.2a3.89,3.89,0,0,1-1.5.2,8.85,8.85,0,0,1-2.3,0,3,3,0,0,1-2-.8c-.2-.4-.4-.6-.6-1a12.66,12.66,0,0,0,.6-1.8c1.2-1.1,4.1-.2,5.5-.4C12.5,54.2,12.5,53.3,12,53.3Z"/>
    <path class="cls-5" d="M98.9,74.1a2.85,2.85,0,0,0,2.6,2.9,2.56,2.56,0,0,0,2.8-2.3,2.79,2.79,0,0,0-2.1-3.2c-1.1-.3-3.5-.7-3.6,1a.45.45,0,1,0,.9,0c.1-.8,2.4-.2,2.7-.1a2,2,0,0,1,1.2,2.3c-.5,2.2-3.7,1.4-3.6-.6A.45.45,0,0,0,98.9,74.1Z"/>
    <path class="cls-5" d="M164.7,52.8a2.68,2.68,0,0,1,2.6,4.3c-1.1,1.4-2.2.5-3.1-.5-.7-.8-1.8-3.1.1-3.2.6-.1.6-.9,0-.9a2.24,2.24,0,0,0-1.8,3.2c.5,1.4,2.5,3.5,4.1,2.9s2.4-2.5,2.1-4.1a3.48,3.48,0,0,0-4-2.6A.45.45,0,0,0,164.7,52.8Z"/>
    <path class="cls-6" d="M55.2,42.3a5.32,5.32,0,0,0,3.3-.1c.5-.2.3-1.1-.2-.8a3.87,3.87,0,0,1-2.8.1C54.9,41.3,54.7,42.2,55.2,42.3Z"/>
    <path class="cls-6" d="M61.1,41.9a7.92,7.92,0,0,0,3.7-.5c.5-.2.3-1.1-.2-.8a7.78,7.78,0,0,1-3.4.4C60.5,40.9,60.5,41.8,61.1,41.9Z"/>
    <path class="cls-6" d="M69,39.6a3.28,3.28,0,0,0,2.1-.5.47.47,0,0,0-.5-.8,3.43,3.43,0,0,1-1.6.4A.45.45,0,1,0,69,39.6Z"/>
    <path class="cls-6" d="M74.5,37.7l1.8-.6c.5-.2.3-1.1-.2-.8l-1.8.6C73.7,37.1,74,37.9,74.5,37.7Z"/>
    <path class="cls-6" d="M57.8,45.2c1.2-.2,2.4-.5,3.5-.7.5-.1.3-.9-.2-.8-1.2.2-2.4.5-3.5.7C57,44.5,57.2,45.3,57.8,45.2Z"/>
    <path class="cls-6" d="M64.7,43.7a12.41,12.41,0,0,0,3.3-.9c.5-.2.1-1-.5-.8a9.85,9.85,0,0,1-2.8.8C64.2,42.9,64.1,43.8,64.7,43.7Z"/>
    <path class="cls-6" d="M72,41.3a2.43,2.43,0,0,0,2.4-.8c.4-.4-.2-1.1-.6-.6a1.44,1.44,0,0,1-1.5.5C71.7,40.3,71.4,41.2,72,41.3Z"/>
    <path class="cls-6" d="M78.9,38.8l2.1-.9c.5-.2.1-1-.5-.8l-2.1.9C78,38.3,78.4,39,78.9,38.8Z"/>
    <path class="cls-6" d="M54.6,49.1c.9-.3,1.8-.6,2.8-.9.5-.2.3-1.1-.2-.8-.9.3-1.8.6-2.8.9C53.8,48.5,54.1,49.3,54.6,49.1Z"/>
    <path class="cls-6" d="M61.9,47.9a7.26,7.26,0,0,0,3.8-.8c.5-.2.1-1-.5-.8a6.36,6.36,0,0,1-3.3.7C61.4,46.9,61.4,47.8,61.9,47.9Z"/>
    <path class="cls-6" d="M69.2,45.4a10.73,10.73,0,0,0,3.8-1c.5-.2.1-1-.5-.8a10.17,10.17,0,0,1-3.3.9C68.6,44.6,68.6,45.5,69.2,45.4Z"/>
    <path class="cls-6" d="M76.8,43a9.88,9.88,0,0,0,3.3-1.5.47.47,0,0,0-.5-.8,10.91,10.91,0,0,1-3.1,1.4C76,42.3,76.3,43.1,76.8,43Z"/>
    <path class="cls-6" d="M83.4,40.6a16.81,16.81,0,0,0,3.2-.9c.5-.2.1-1-.5-.8a14,14,0,0,1-2.9.9C82.6,39.9,82.9,40.7,83.4,40.6Z"/>
    <path class="cls-6" d="M64.1,49.5a9.64,9.64,0,0,0,4.7-.9c.5-.2.1-1-.5-.8a9,9,0,0,1-4.2.8C63.5,48.5,63.5,49.4,64.1,49.5Z"/>
    <path class="cls-6" d="M74.5,47.5c1.1-.4,2.2-.8,3.2-1.2.5-.2.3-1.1-.2-.8-1.1.4-2.2.8-3.2,1.2C73.7,46.9,74,47.7,74.5,47.5Z"/>
    <path class="cls-6" d="M79.3,45.2a7.53,7.53,0,0,0,2.9-.6c.5-.2.3-1.1-.2-.8a5.75,5.75,0,0,1-2.6.5C78.7,44.3,78.7,45.2,79.3,45.2Z"/>
    <path class="cls-6" d="M87.1,43.2a12.37,12.37,0,0,0,3.3-1.5.47.47,0,0,0-.5-.8,10.91,10.91,0,0,1-3.1,1.4C86.3,42.5,86.6,43.3,87.1,43.2Z"/>
    <path class="cls-6" d="M93.5,38.3c.5-.4,1-.7,1.5-1.1a.47.47,0,0,0-.5-.8c-.5.4-1,.7-1.5,1.1S93,38.6,93.5,38.3Z"/>
    <path class="cls-6" d="M97.2,40.2a11.42,11.42,0,0,0,3.5-1.3.47.47,0,0,0-.5-.8A12.38,12.38,0,0,1,97,39.3.46.46,0,1,0,97.2,40.2Z"/>
    <path class="cls-6" d="M92.3,45.4c1.6-.8,3.2-1.6,4.9-2.5.5-.2.1-1-.5-.8-1.6.8-3.2,1.6-4.9,2.5C91.3,44.9,91.7,45.6,92.3,45.4Z"/>
    <path class="cls-6" d="M97.8,45.5a40.2,40.2,0,0,0,4.7-2.2c.5-.2.1-1-.5-.8a36.82,36.82,0,0,1-4.5,2.1C97,44.9,97.3,45.8,97.8,45.5Z"/>
    <path class="cls-6" d="M107.7,40.3a8.76,8.76,0,0,0,2.4-1.9c.4-.4-.2-1.1-.6-.6a9.62,9.62,0,0,1-2.2,1.8C106.8,39.8,107.2,40.6,107.7,40.3Z"/>
    <path class="cls-6" d="M105,45.7a18.51,18.51,0,0,0,3.7-1.9c.5-.3,0-1.1-.5-.8a15.87,15.87,0,0,1-3.4,1.8C104.2,45,104.5,45.9,105,45.7Z"/>
    <path class="cls-6" d="M87.6,48.8l2.1-.9c.5-.2.1-1-.5-.8l-2.1.9C86.7,48.2,87.2,49,87.6,48.8Z"/>
    <path class="cls-6" d="M80,49.4a9.83,9.83,0,0,1,1.6-.5c.5-.2.3-1-.2-.8a9.83,9.83,0,0,1-1.6.5C79.3,48.7,79.5,49.6,80,49.4Z"/>
    <path class="cls-6" d="M117.6,42.8a19.22,19.22,0,0,0,2.9-1.4.47.47,0,0,0-.5-.8,21.48,21.48,0,0,1-2.6,1.4C116.8,42.1,117.1,43,117.6,42.8Z"/>
    <path class="cls-6" d="M119.9,39a3.42,3.42,0,0,0,2.4-1.3c.3-.5-.5-.9-.8-.5a2,2,0,0,1-1.6.9C119.4,38.2,119.4,39,119.9,39Z"/>
    <path class="cls-6" d="M125.5,42.3a15,15,0,0,0,3.2-1.9c.5-.4-.2-1-.6-.6a14.92,14.92,0,0,1-3,1.8C124.5,41.7,125,42.5,125.5,42.3Z"/>
    <path class="cls-6" d="M120.8,44.9c.6-.5,1.2-.9,1.8-1.4a.47.47,0,0,0-.5-.8c-.6.5-1.2.9-1.8,1.4C119.9,44.5,120.3,45.2,120.8,44.9Z"/>
    <path class="cls-6" d="M123.2,40.6a3.77,3.77,0,0,0,1.6-1.2c.4-.4-.2-1.1-.6-.6a4.86,4.86,0,0,1-1.4,1.1.48.48,0,0,0-.2.6C122.7,40.7,123,40.7,123.2,40.6Z"/>
    <path class="cls-6" d="M130.8,42.2a3.87,3.87,0,0,0,1.9-1.2.42.42,0,0,0-.6-.6,2.9,2.9,0,0,1-1.5.9A.46.46,0,0,0,130.8,42.2Z"/>
    <path class="cls-6" d="M127.1,46.8a4.35,4.35,0,0,0,1.9-1,.42.42,0,0,0-.6-.6,3.61,3.61,0,0,1-1.5.8C126.3,46,126.5,46.9,127.1,46.8Z"/>
    <path class="cls-6" d="M123.7,45.9l1.2-.6c.5-.2.1-1-.5-.8l-1.2.6A.47.47,0,1,0,123.7,45.9Z"/>
    <path class="cls-6" d="M132,47.6c.9-.5,1.8-.9,2.8-1.4.5-.2.1-1-.5-.8-.9.5-1.8.9-2.8,1.4A.47.47,0,1,0,132,47.6Z"/>
    <path class="cls-6" d="M133.6,44.3a8.71,8.71,0,0,0,1.8-1.1.42.42,0,1,0-.6-.6,5.37,5.37,0,0,1-1.6,1C132.7,43.7,133.1,44.5,133.6,44.3Z"/>
    <path class="cls-6" d="M139.6,44.9l1.2-.9a.45.45,0,0,0-.4-.8l-1.2.9a.45.45,0,1,0,.4.8Z"/>
    <path class="cls-6" d="M133.6,50.5a7.1,7.1,0,0,0,1.8-.8.47.47,0,0,0-.5-.8,3.29,3.29,0,0,1-1.6.7C132.7,49.7,133,50.6,133.6,50.5Z"/>
    <path class="cls-6" d="M121.1,51.2c.5-.3.9-.6,1.4-.9s0-1.1-.5-.8-.9.6-1.4.9A.47.47,0,0,0,121.1,51.2Z"/>
    <path class="cls-6" d="M115.8,49.8c.2-.1.3-.2.5-.3.5-.3,0-1.1-.5-.8-.2.1-.3.2-.5.3C114.9,49.3,115.4,50.1,115.8,49.8Z"/>
    <path class="cls-6" d="M122.8,30.3a6.47,6.47,0,0,0,.9-.8.42.42,0,1,0-.6-.6,6.47,6.47,0,0,0-.9.8C121.8,30,122.4,30.6,122.8,30.3Z"/>
    <path class="cls-6" d="M102.7,30.5a3.32,3.32,0,0,0,1.6-1.3.4.4,0,0,0-.2-.6c-.3-.1-.5-.1-.6.2a2.44,2.44,0,0,1-1.1.9c-.2.1-.4.3-.3.5S102.5,30.6,102.7,30.5Z"/>
    <path class="cls-1" d="M203.8,22.7a20,20,0,0,1,2.4-.4c5.2-.6,10.2,1.4,15.3,2.2,5.9.9,11.8-.4,17.7.9,7.7,1.6,5,6.3.8,11.1-4.1,4.6-8.2,5-14,4-6-1.1-11.7.5-17.7.6-3.8.1-7.4-1.1-11.1-1.5s-6.9.4-10.6,1.1c-6.2,1.4-14,1.8-18.7-3.4-3.4-3.7-.4-5.7.1-9.5a6.64,6.64,0,0,1,.3-1.5c.7-1.6,2.8-.4,3.9-.1a22.74,22.74,0,0,0,11-.4C190.2,24.3,196.8,24,203.8,22.7Z"/>
    <path class="cls-5" d="M181.9,30.3c.5-5.5,3.5-13.7,10.5-12.2,3.7.8,7.1,3.9,11,2.3,3-1.2,4.2-4.5,5.9-7,.4-.6,2.1-3.3,3.7-3.2s3.6,3.3,4,3.9c1.1,1.6,1.9,3.8,3.5,5,3.4,2.6,7.2-1.9,11-.5A5.89,5.89,0,0,1,230,30c-4.1.4-6.8-3.4-11.1-1.6-3,1.3-6.1,5.8-9.6,5.1-2.1-.4-3.5-2.5-5.6-2.9s-3.7.7-5.2,1.8c-5,3.6-13.4,4.9-16.2-2.2-.5-1.3-2.6-.8-2.1.6a10.65,10.65,0,0,0,10.7,6.8,15,15,0,0,0,6.8-2.1c1.4-.8,2.9-2.5,4.4-2.8,1.9-.5,3.4,1.3,4.9,2.1,4.2,2.3,7.3-.8,10.6-3.1,2.9-2.1,4.7-1.9,8-.5a8.64,8.64,0,0,0,6.7.4c3.8-1.4,6.5-5.5,5.3-9.6a8.69,8.69,0,0,0-9.5-6,32.09,32.09,0,0,0-3.3,1.2c-2.9.8-3.8-1.1-4.9-3s-3-5.1-5.3-5.9c-4.6-1.8-7.2,4.4-9.1,7.2-2.7,4.1-5.8,2.9-9.7,1.4-2.4-.9-4.7-1.6-7.2-.8-6.2,1.9-8.3,8.4-8.9,14.2C179.5,31.7,181.8,31.7,181.9,30.3Z"/>
  </g>
</svg>
