<svg width="16" height="16" viewBox="0 0 16 16" fill="none" xmlns="http://www.w3.org/2000/svg">
<path fill-rule="evenodd" clip-rule="evenodd" d="M5.896 0H5.894C4.96533 0 4.212 0.753333 4.212 1.682C4.212 2.61067 4.96533 3.364 5.894 3.364H7.57467V1.67867C7.574 0.751333 6.82267 0 5.896 0ZM1.69333 11.7973C0.764667 11.7973 0.0113333 11.044 0.0113333 10.1153C0.0113333 9.18667 0.764667 8.43333 1.69333 8.43333H1.69467H3.37533V10.1153C3.37533 11.044 2.622 11.7973 1.69333 11.7973ZM4.21333 10.1153C4.21333 9.18733 4.966 8.43467 5.894 8.43467C6.82133 8.43467 7.574 9.18733 7.57467 10.1153V14.3193C7.57467 15.2473 6.822 16 5.894 16C4.966 16 4.21333 15.2473 4.21333 14.3193V10.1153ZM5.894 7.58067H1.682C0.753333 7.58067 0 6.82733 0 5.89867C0 4.97 0.753333 4.21667 1.682 4.21667H5.894C6.82267 4.21667 7.576 4.97 7.576 5.89867C7.576 6.82733 6.82267 7.58067 5.894 7.58067ZM14.3033 4.216C13.376 4.216 12.6247 4.96733 12.6247 5.89467V5.898V7.58H14.3053C15.234 7.58 15.9873 6.82667 15.9873 5.898C15.9873 4.96933 15.234 4.216 14.3053 4.216H14.3033ZM8.426 5.89867V1.682C8.426 0.754 9.17867 0.00133333 10.1067 0.00133333C11.0347 0.00133333 11.7873 0.754 11.7873 1.682V5.89867C11.7873 6.82667 11.0347 7.57933 10.1067 7.57933C9.17867 7.57933 8.426 6.82667 8.426 5.89867ZM11.7867 14.318C11.7867 13.39 11.034 12.6373 10.106 12.6373H8.42533V14.3193C8.426 15.2467 9.178 15.9987 10.106 15.9987C11.034 15.9987 11.7867 15.246 11.7867 14.318ZM10.106 8.43333H14.318C15.2467 8.43333 16 9.18667 16 10.1153C16 11.044 15.2467 11.7973 14.318 11.7973H10.106C9.17733 11.7973 8.424 11.044 8.424 10.1153C8.424 9.18667 9.17733 8.43333 10.106 8.43333Z" fill="white"/>
</svg>
