<svg width="17" height="16" viewBox="0 0 17 16" fill="none" xmlns="http://www.w3.org/2000/svg">
<path d="M8.5 0C3.80375 0 0 3.67299 0 8.20301C0 11.828 2.43525 14.902 5.81187 15.9858C6.23688 16.0631 6.39271 15.8092 6.39271 15.5914C6.39271 15.3966 6.38562 14.8805 6.38208 14.1967C4.01767 14.6913 3.519 13.0962 3.519 13.0962C3.13225 12.1494 2.57337 11.8962 2.57337 11.8962C1.80342 11.3877 2.63287 11.3981 2.63287 11.3981C3.48642 11.4551 3.93479 12.2433 3.93479 12.2433C4.69271 13.4975 5.9245 13.1351 6.41042 12.9257C6.48692 12.3949 6.70579 12.0339 6.94875 11.8287C5.06104 11.6235 3.077 10.9181 3.077 7.77519C3.077 6.8799 3.40638 6.14808 3.95179 5.57418C3.85617 5.36688 3.56929 4.5328 4.02617 3.40308C4.02617 3.40308 4.73804 3.18326 6.36367 4.24411C7.04367 4.06185 7.76617 3.97142 8.48867 3.96725C9.21117 3.97142 9.93367 4.06185 10.6137 4.24411C12.2287 3.18326 12.9405 3.40308 12.9405 3.40308C13.3974 4.5328 13.1105 5.36688 13.0255 5.57418C13.5674 6.14808 13.8968 6.8799 13.8968 7.77519C13.8968 10.9264 11.9099 11.62 10.0187 11.8217C10.3162 12.068 10.5924 12.5709 10.5924 13.3396C10.5924 14.4373 10.5818 15.3194 10.5818 15.5859C10.5818 15.8008 10.7305 16.0575 11.1662 15.9754C14.5669 14.8986 17 11.8224 17 8.20301C17 3.67299 13.1941 0 8.5 0V0Z" fill="white"/>
</svg>
