<svg width="403" height="78" viewBox="0 0 403 78" fill="none" xmlns="http://www.w3.org/2000/svg">
<path d="M50 67.9427C65.9258 60.3081 81.8517 36.5993 97.7775 28.9959C100.296 27.7756 103.202 26.5241 106.031 27.1811C107.659 27.5566 108.937 28.4953 110.1 29.4966C118.934 37.0999 122.153 46.2509 132.228 52.7904C133.236 53.4475 134.321 54.042 135.599 54.1672C137.149 54.3236 138.66 53.6665 140.017 53.0094C148.309 48.9105 156.289 44.8598 166.015 45.1101C170.199 45.2352 174.191 46.5494 178.375 46.612C181.514 46.6433 184.614 45.9549 187.637 45.2978C201.276 42.3566 216.621 40.1663 228.788 45.8923C233.942 48.3329 253.469 70.0921 259.437 69.9997" stroke="#B2C5C4"/>
<path d="M193.566 63.4682C193.099 65.8018 193.893 68.0277 195.948 69.7869C196.695 70.4331 197.955 69.4638 197.208 68.8175C195.621 67.4533 194.92 65.6223 195.294 63.8272C195.434 63.0015 193.753 62.6425 193.566 63.4682Z" fill="#B2C5C4"/>
<path d="M203.448 60.6539C203.321 62.9624 204.255 65.0906 206.082 66.7859C206.762 67.4352 207.908 66.4612 207.229 65.812C205.7 64.3691 204.977 62.5656 205.062 60.6178C205.105 59.7882 203.491 59.7882 203.448 60.6539Z" fill="#B2C5C4"/>
<path d="M208.528 59.1013C209.378 60.6281 210.187 62.1157 211.037 63.6425C211.482 64.4647 212.817 63.7208 212.332 62.8987C211.482 61.3719 210.673 59.8843 209.823 58.3575C209.378 57.5353 208.083 58.2792 208.528 59.1013Z" fill="#B2C5C4"/>
<path d="M227.765 60.3693C230.142 61.8447 231.978 63.9802 233.203 66.6205C233.599 67.4747 234.751 66.737 234.355 65.8828C233.059 63.0096 231.006 60.6799 228.45 59.088C227.693 58.6609 227.009 59.9033 227.765 60.3693Z" fill="#B2C5C4"/>
<path d="M100.906 37.3213C99.5253 39.1365 98.4033 41.1029 97.4971 43.145C97.1087 44.0148 98.7054 44.3552 99.0506 43.5232C99.8705 41.5946 100.949 39.7794 102.287 38.0398C102.891 37.2835 101.51 36.565 100.906 37.3213Z" fill="#B2C5C4"/>
<path d="M106.914 33.4045C106.375 34.6047 105.881 35.8048 105.477 37.0464C105.163 37.9983 106.779 38.4122 107.094 37.4603C107.453 36.3429 107.857 35.2668 108.351 34.1908C108.8 33.2803 107.363 32.494 106.914 33.4045Z" fill="#B2C5C4"/>
<path d="M109.437 38.7377V42.2623C109.437 43.2459 111.437 43.2459 111.437 42.2623V38.7377C111.437 37.7541 109.437 37.7541 109.437 38.7377Z" fill="#B2C5C4"/>
<path d="M104.804 42.5586C104.361 44.0577 103.919 45.514 103.476 47.0131C103.167 47.9982 104.76 48.4266 105.069 47.4414C105.512 45.9423 105.954 44.486 106.397 42.9869C106.707 42.0018 105.114 41.5734 104.804 42.5586Z" fill="#B2C5C4"/>
<path d="M93.2397 45.246C91.2325 47.6639 89.6499 50.2679 88.4919 53.1695C88.1445 53.9879 89.5341 54.3599 89.8815 53.5415C90.9623 50.9003 92.4291 48.4451 94.2819 46.2503C94.8223 45.5064 93.8187 44.5392 93.2397 45.246Z" fill="#B2C5C4"/>
<path d="M110.486 52.0024C110.725 52.8005 110.929 53.6429 111.168 54.441C111.441 55.4164 112.67 55.0174 112.397 53.9976C112.158 53.1995 111.954 52.3571 111.715 51.559C111.407 50.5836 110.178 50.9826 110.486 52.0024Z" fill="#B2C5C4"/>
<path d="M369.904 13.4779C380.204 22.0795 394.904 20.1791 401.904 8.37698C405.603 2.17585 395.904 -3.52518 392.204 2.67594C389.104 7.77687 382.604 9.47718 377.804 5.47645C372.304 0.975633 364.305 8.87707 369.904 13.4779Z" fill="#77EFFF"/>
<path d="M69.7946 68.3939C75.3944 73.3949 83.2942 75.2952 90.494 72.5947C93.2939 71.4945 95.2939 68.794 94.3939 65.6935C93.6939 62.993 90.294 60.6925 87.4941 61.7927C84.1942 63.093 80.5943 62.8929 77.7943 60.4925C72.3945 55.6916 64.3947 63.5931 69.7946 68.3939Z" fill="#77EFFF"/>
<path d="M318.827 61.628C321.727 60.1277 325.027 59.3276 328.127 59.9277C328.927 60.1277 329.727 60.3278 330.427 60.9279C331.127 61.528 331.527 62.4282 332.227 63.0283C333.027 63.6284 334.027 64.1285 334.827 64.6286C336.427 65.5287 338.627 66.5289 339.127 68.4292C339.827 71.5298 333.927 76.2307 326.627 74.5304C319.327 72.83 314.227 73.0301 309.128 73.3301C304.028 73.5302 296.428 74.2303 297.928 70.2296C299.428 66.2288 303.128 61.9281 304.528 62.2281C307.228 63.0283 309.628 65.3287 312.427 65.7288C312.927 65.8288 313.427 65.7288 313.727 65.3287C315.327 63.9284 317.027 62.6282 318.827 61.628Z" fill="#77EFFF"/>
<path d="M1.79457 72.3939C7.39441 77.3949 15.2942 79.2952 22.494 76.5947C25.2939 75.4945 27.2939 72.794 26.3939 69.6935C25.6939 66.993 22.294 64.6925 19.4941 65.7927C16.1942 67.093 12.5943 66.8929 9.79434 64.4925C4.39449 59.6916 -3.60528 67.5931 1.79457 72.3939Z" fill="#77EFFF"/>
</svg>
