<svg width="162" height="83" viewBox="0 0 162 83" fill="none" xmlns="http://www.w3.org/2000/svg">
<path d="M21.2156 56.6822C17.7154 55.3059 14.1538 55.7247 10.7151 57.101C7.76755 58.238 3.71471 59.9733 1.62688 62.3669C0.0917171 64.1023 0.39875 66.3163 1.7497 68.0517C3.83752 70.7445 7.15348 70.924 10.2852 71.283C14.8907 71.8216 16.9171 73.916 19.6804 77.267C21.277 79.2417 23.0578 81.6353 25.5755 82.5329C27.9089 83.4305 30.7336 82.8321 33.1285 82.4132C36.1374 81.8746 39.1464 81.0369 42.0939 80.259C50.9978 77.8654 59.4106 75.6513 68.5601 78.1646C72.6744 79.3015 76.7272 81.1566 81.0871 80.5582C83.6662 80.1991 85.9996 79.8401 88.6401 79.7802C90.6665 79.7204 92.6316 79.481 94.658 79.2417C99.3249 78.6433 103.132 78.4039 107.676 79.8401C110.869 80.8574 114.001 82.2935 117.317 82.6525C123.519 83.3108 126.835 78.4638 129.23 73.6168C130.826 70.3256 132.177 66.6754 134.695 63.9228C136.415 62.0677 138.932 61.3497 138.564 58.4774C138.257 56.2633 136.353 53.5705 134.02 53.0918C130.826 52.3737 129.107 56.0838 126.282 56.742C125.423 56.9215 125.791 58.238 126.651 58.0585C128.984 57.5199 130.335 54.887 132.546 54.4681C134.449 54.1091 135.985 55.7247 136.722 57.2207C137.765 59.4348 136.599 60.2725 135.002 61.8284C131.441 65.2991 129.783 69.7272 127.572 74.0356C126.405 76.3095 124.993 78.763 122.782 80.259C119.773 82.2337 116.15 81.3361 112.957 80.3188C110.501 79.5409 108.106 78.5236 105.65 77.9252C102.457 77.1473 99.3863 77.3867 96.1317 77.8055C92.693 78.2843 89.377 78.4039 85.9382 78.5236C84.5873 78.5835 83.2363 78.9425 81.8854 79.1818C78.8765 79.7204 76.1746 79.1818 73.3499 78.3441C67.0864 76.4891 61.437 75.1128 54.8665 76.0103C48.8486 76.8481 43.0764 78.8228 37.2427 80.259C34.4794 80.9172 31.6547 81.6353 28.7686 81.6951C25.8211 81.7549 23.9789 80.259 22.1367 78.1646C20.2945 76.0702 18.7593 73.6766 16.5487 72.0011C14.2152 70.2059 11.4519 70.2059 8.62724 69.8469C5.92535 69.4878 2.48658 68.7099 2.17954 65.5384C1.93392 62.9055 4.88144 61.6489 6.96926 60.5119C11.2063 58.1183 15.996 56.2035 20.8472 58.1183C21.7069 58.2978 22.0753 56.9814 21.2156 56.6822Z" fill="#77EFFF"/>
<path d="M47.1032 39.0277C49.403 32.8641 51.168 26.5977 54.27 21.564C57.4256 16.4276 61.1694 12.5239 65.2342 10.7775C67.2666 9.95573 69.5664 10.1612 71.3313 12.2157C72.508 13.5512 73.4172 15.6058 74.3264 17.5576C77.7494 24.8513 81.6537 31.2204 85.9324 36.4595C86.1998 36.7677 86.4672 37.0759 86.7881 37.1786C88.2322 37.5895 92.4574 29.8849 93.741 28.5495C96.95 25.2622 100.694 22.694 104.277 25.1595C106.149 26.4949 107.861 28.5495 109.733 29.9877C113.797 33.0695 118.183 32.5559 122.462 32.3504C125.296 32.2477 128.291 33.6859 131.073 33.0695C134.175 32.3504 136.581 28.6522 139.523 27.0086C143.641 24.7486 147.867 28.0358 151.61 31.2204C153.375 32.6586 159.247 33.8913 160.852 35.9459C161.333 36.5623 161.868 37.4868 161.814 38.6168C161.761 39.2332 161.547 39.8496 161.28 40.2605C156.199 50.4305 142.839 49.7114 136.635 56.5942C128.024 66.2506 118.718 66.9697 108.93 66.6616C105.935 66.5588 102.887 66.5588 99.8916 66.4561C93.2597 66.3534 86.5742 66.3534 79.9957 64.0934C71.2779 61.1142 35.8182 74.3661 35.8182 61.8333C35.8182 59.8815 39.6155 54.3342 40.2573 52.9987C42.4502 48.4787 44.9639 44.4723 46.8358 39.4386C46.9428 39.4386 46.9963 39.2332 47.1032 39.0277Z" fill="#77EFFF"/>
<path d="M46.226 31.4185C49.4647 22.1468 52.3849 13.4079 57.4289 7.65299C59.8713 4.88212 62.7915 2.43096 65.6586 2.32439C69.0566 2.21782 70.8618 6.37412 72.9856 10.9567C74.8439 14.8999 76.7553 18.5233 78.8791 21.9336C80.4188 24.4914 82.8081 29.3937 84.8257 30.0331C86.9494 30.7791 89.1794 25.8768 90.7192 23.4256C92.5775 20.5482 94.595 18.5233 96.8781 17.351C100.435 15.6459 102.984 18.097 106.117 21.0811C110.47 25.2374 114.93 25.3439 119.709 25.1308C124.487 24.9176 128.788 27.2622 133.354 23.2125C136.274 20.5482 138.929 18.097 142.221 19.0562C145.035 19.9088 147.583 22.2533 150.132 24.3848C151.247 25.3439 152.84 26.0899 153.742 27.6885C155.76 31.312 153.902 33.1237 152.415 34.9354C150.504 37.28 148.38 38.772 146.256 40.0509C142.486 42.2889 138.504 43.6743 134.947 47.2977C129.85 52.6263 124.859 56.1432 119.072 57.4221C113.762 58.5944 108.453 58.2747 103.143 58.1681C97.5152 58.0615 91.8872 58.1681 86.2592 57.4221C82.6488 56.9958 79.1446 55.2906 75.5341 55.1841C69.6937 54.9709 63.7472 56.4629 57.9068 57.4221C51.5354 58.4878 44.4739 60.7258 38.1025 58.1681C37.3592 57.8484 34.0849 56.5286 33.554 55.2498C32.5452 52.9052 34.2442 50.6672 35.0937 49.1752C38.3325 43.5269 43.6774 38.5588 46.226 31.4185C46.6507 30.1397 45.6419 28.9674 45.2172 30.2462C42.4563 37.9194 36.7397 42.6743 33.4478 49.2818C32.2266 51.7329 31.2709 54.3972 32.7576 57.1681C33.9787 59.5127 38.0494 60.939 39.5892 61.2587C42.6687 61.8981 45.8543 61.685 48.9869 61.3652C56.2608 60.6192 63.4817 58.9141 70.7556 58.0615C73.2511 57.7418 75.7996 57.5287 78.295 58.2747C84.6133 59.9798 90.8253 60.6192 97.1967 60.7258C108.293 60.939 120.24 63.177 130.752 54.4381C133.354 52.3066 135.69 49.1095 138.345 47.1912C140.681 45.5926 143.07 44.4203 145.46 43.1414C147.477 42.0757 149.548 40.7969 151.459 38.8786C152.84 37.4931 155.282 35.042 155.972 31.9514C157.459 25.7702 150.61 22.2533 148.805 20.7613C146.256 18.6299 143.654 16.605 140.84 16.3919C138.292 16.1787 136.115 17.9905 133.832 20.1219C130.646 23.1059 127.885 23.7453 124.381 23.1059C121.302 22.5731 118.222 22.9993 115.09 22.7862C111.798 22.5731 108.877 21.081 105.904 18.2036C103.621 15.9656 101.497 13.9407 98.8957 14.2604C96.3472 14.5802 93.5862 16.4985 91.4625 19.2693C89.7634 21.4008 88.383 24.3848 86.6309 26.5162C85.1442 28.3279 84.2947 26.9425 83.0205 25.1308C81.3745 22.8928 79.7817 20.4416 78.295 17.7773C75.8527 13.621 73.8882 8.50556 71.552 4.24269C67.57 -3.00421 61.995 0.299525 57.6944 4.77555C52.0133 10.637 48.8276 20.0153 45.2703 30.2462C44.7393 31.4185 45.7481 32.6974 46.226 31.4185Z" fill="#0EAFC9"/>
</svg>
