<svg width="196" height="110" viewBox="0 0 196 110" fill="none" xmlns="http://www.w3.org/2000/svg">
<path d="M110.476 108.737C108.337 109.269 106.033 109.624 103.894 109.801C89.2499 111.753 93.384 98.7391 79.0689 96.4327C63.407 93.7308 7.02044 93.5005 8.01294 69.0012C9.00544 44.5018 32.2485 62.9852 48.2091 66.0012C64.9924 69.1947 82.5395 45.3567 99.3228 45.0018C109.854 44.8244 123.033 57.5821 133.564 59.0014C144.259 60.4208 155.619 61.3078 165.82 59.0014C192.618 54.0016 212.964 93.5005 170.783 93.5005C130.09 66.0012 130.056 104.656 110.476 108.737Z" fill="#77EFFF"/>
<path d="M63.8832 50.7044C69.9454 42.4979 116.136 4.53404 129.735 4.4151C142.187 4.29617 142.843 14.2866 144.153 20.828C144.973 25.5853 146.939 30.5805 152.346 33.6728C159.882 38.0733 169.877 35.1 178.397 37.3597C184.459 38.9059 190.193 42.4739 190.03 47.588C189.866 52.7022 184.295 52.9401 181.182 56.3891C178.069 59.8382 181.51 64.0009 177.414 67.45C172.826 71.2559 162.668 72.0884 156.114 71.7316C151.199 71.4937 147.43 69.234 142.843 68.2825C139.238 67.5689 135.47 67.8068 131.701 68.2825C128.162 68.6651 116.331 73.8262 102.143 73.2559C85.4609 72.5853 66.225 65.8863 63.7458 62.0942C62.1074 59.4777 56.7006 61.7374 58.5028 64.354C62.7628 70.8953 100.571 78.154 108.763 76.8457C114.825 75.8943 120.56 74.586 126.622 73.5156C134.651 72.0884 139.894 72.2073 147.43 74.586C155.95 77.2025 167.747 76.4889 176.103 73.6345C179.544 72.4452 182.821 70.6612 184.623 68.2825C187.408 64.8334 185.278 60.7897 188.555 57.8163C193.306 53.5347 197.566 50.3235 195.436 44.139C193.306 38.0733 185.442 34.1485 177.578 32.7213C172.498 31.7699 167.419 32.3645 162.176 31.8888C154.476 31.2941 151.526 26.7746 150.216 21.7794C148.741 15.9517 149.069 9.76712 143.662 4.89084C127.251 -16.3568 66.177 37.8595 58.3125 48.5636C56.674 51.0612 61.917 53.3209 63.8832 50.7044Z" fill="#0EAFC9"/>
<path d="M15.7523 19.2612C17.9003 19.6205 19.308 20.2679 19.8808 20.6272C21.0264 21.2739 22.6016 21.9925 22.9596 23.3578C23.4608 25.5854 19.2364 28.9627 14.0096 27.7411C8.7829 26.5196 5.13133 26.6633 1.47977 26.8788C-2.1718 27.0226 1.83777 21.1302 3.84255 21.4176C4.20054 21.4895 4.55854 21.4176 4.77334 21.1302C5.91893 20.1242 5.96723 18.3266 15.7523 19.2612Z" fill="#77EFFF"/>
</svg>
