<svg width="20" height="20" viewBox="0 0 20 20" fill="none" xmlns="http://www.w3.org/2000/svg">
<path fill-rule="evenodd" clip-rule="evenodd" d="M1.04574 0.118122C0.785917 -0.0618732 0.426684 -0.0361596 0.195262 0.195262C-0.0650874 0.455612 -0.0650874 0.877722 0.195262 1.13807L9.05719 10L0.195263 18.8619C-0.0650866 19.1223 -0.0650866 19.5444 0.195263 19.8047C0.426685 20.0362 0.785916 20.0619 1.04574 19.8819L1.13807 19.8047L10 10.9428L18.8619 19.8047L18.9543 19.8819C19.2141 20.0619 19.5733 20.0362 19.8047 19.8047C20.0651 19.5444 20.0651 19.1223 19.8047 18.8619L10.9428 10L19.8047 1.13807C20.0651 0.877722 20.0651 0.455612 19.8047 0.195262C19.5733 -0.0361596 19.2141 -0.0618732 18.9543 0.118122L18.8619 0.195262L10 9.05719L1.13807 0.195262L1.04574 0.118122Z" fill="#F779EE"/>
</svg>
