<svg width="487" height="178" viewBox="0 0 487 178" fill="none" xmlns="http://www.w3.org/2000/svg">
<path d="M71.831 95.6313C81.4604 87.5182 91.0899 79.4052 100.863 71.2922C104.456 68.3947 108.768 63.9035 113.798 64.0484C118.254 64.0484 121.559 67.3805 124.003 70.7127C127.165 75.0589 128.889 80.4193 132.339 84.7656C145.561 101.281 168.126 90.5606 185.085 89.9811C197.158 89.5465 206.069 96.5005 216.848 100.267C225.615 103.31 233.664 101.861 242 97.9493C253.21 92.5889 263.127 87.0836 275.631 85.3451C288.135 83.7515 300.639 85.3451 312.424 89.8362C314.436 90.5606 315.155 87.3734 313.287 86.649C292.447 78.6808 269.595 79.9847 249.761 90.126C243.724 93.1684 237.688 97.08 230.933 98.3839C223.747 99.6878 217.279 97.08 210.955 94.1825C200.607 89.2567 191.696 85.6348 180.055 87.0836C168.557 88.5324 156.628 93.0235 144.986 89.5465C132.051 85.6348 131.764 71.437 122.134 64.0484C114.948 58.5431 107.906 61.5855 101.582 66.6561C90.6588 75.3487 80.1669 84.4758 69.5314 93.4581C67.9504 94.762 70.25 96.9351 71.831 95.6313Z" fill="#B2C5C4"/>
<path d="M315.586 76.2181C323.347 68.8295 330.965 61.5857 338.726 54.1971C342.462 50.72 346.056 47.243 349.792 43.6211C351.804 41.7378 353.817 39.8544 355.829 37.8261C356.979 36.6671 361.563 31.9152 364.84 30.5055C367.614 29.3045 372.932 35.2184 373.938 36.3774C375.519 38.1159 376.956 39.8544 378.25 41.5929C381.124 45.2148 383.567 49.1264 385.867 53.1829C390.61 61.4408 394.49 70.2782 398.227 78.9708C398.946 80.7093 401.533 79.4054 401.245 77.6669C400.239 72.0167 397.94 65.0627 397.94 59.2677C397.94 55.5009 398.802 51.0098 402.683 54.9214C404.838 57.0946 406.563 59.7023 408.288 62.0203C412.168 67.091 416.193 72.7411 422.516 74.4796C425.966 75.4938 429.559 74.9143 433.152 74.3348C440.194 73.1758 445.081 73.4655 450.399 78.2464C455.86 83.1722 459.741 89.2569 467.215 90.8506C469.227 91.2852 470.089 88.0979 468.077 87.6633C458.447 85.4902 454.567 74.6245 445.656 71.1475C441.201 69.409 436.745 70.4231 432.146 71.1475C422.804 72.5963 417.63 68.9744 412.168 61.7306C409.15 57.6741 402.539 45.6494 395.928 48.9815C393.197 50.4303 393.772 53.3278 394.059 55.9356C395.065 63.3242 396.646 70.8577 398.083 78.2464C399.09 77.8118 400.096 77.3771 401.102 76.9425C396.359 66.0769 391.616 55.0663 385.005 45.0699C382.418 41.0134 379.399 37.1017 376.094 33.6247C373.65 31.017 370.057 26.3809 366.033 26.0912C362.44 25.8014 359.853 28.9887 357.41 31.3067C352.667 35.7979 348.068 40.289 343.325 44.7801C333.264 54.3419 323.203 63.9037 313.143 73.4655C311.706 75.3489 314.005 77.6669 315.586 76.2181Z" fill="#B2C5C4"/>
<path d="M351.965 51.1286C354.372 54.5503 356.402 58.1196 358.198 61.8449C358.851 63.2124 360.89 62.0595 360.237 60.692C358.441 56.9668 356.354 53.3659 354.004 49.9757C353.148 48.7094 351.108 49.8623 351.965 51.1286Z" fill="#B2C5C4"/>
<path d="M363.172 45.1763C366.111 48.7361 368.164 52.8518 369.355 57.4624C369.778 58.9384 371.884 57.9685 371.542 56.4553C370.236 51.6518 368.069 47.3431 365.07 43.6141C364.11 42.4839 362.237 43.9851 363.172 45.1763Z" fill="#B2C5C4"/>
<path d="M376.979 52.7443C378.609 53.9969 379.84 55.7612 380.473 57.9237C380.93 59.3736 382.921 58.5605 382.463 57.1105C381.627 54.3631 380.108 52.1289 378.04 50.5729C376.979 49.7886 375.918 51.96 376.979 52.7443Z" fill="#B2C5C4"/>
<path d="M99.4176 78.8171C97.036 82.1976 95.1009 85.8599 93.538 89.6629C92.8681 91.2828 95.6219 91.9166 96.2173 90.3672C97.6314 86.7754 99.4921 83.3949 101.799 80.1552C102.841 78.7467 100.46 77.4086 99.4176 78.8171Z" fill="#B2C5C4"/>
<path d="M109.93 71.6791C109.155 73.7653 108.445 75.8514 107.864 78.0095C107.413 79.6641 109.736 80.3834 110.188 78.7289C110.704 76.7866 111.285 74.9163 111.995 73.0459C112.64 71.4633 110.575 70.0965 109.93 71.6791Z" fill="#B2C5C4"/>
<path d="M116.43 79.501V85.6274C116.43 87.3371 119.305 87.3371 119.305 85.6274V79.501C119.305 77.7913 116.43 77.7913 116.43 79.501Z" fill="#B2C5C4"/>
<path d="M334.084 50.1454C326.323 42.7567 318.706 35.513 310.945 28.1243C307.208 24.6473 303.615 21.1703 299.878 17.5484C297.866 15.665 295.854 13.7816 293.841 11.7534C292.692 10.5944 288.107 5.84243 284.83 4.4328C282.056 3.23178 276.738 9.1456 275.732 10.3046C274.151 12.0431 272.714 13.7816 271.421 15.5201C268.546 19.142 266.103 23.0537 263.803 27.1102C259.06 35.3681 255.18 44.2055 251.443 52.898C250.724 54.6365 248.137 53.3326 248.425 51.5941C249.431 45.944 251.73 38.99 251.73 33.1949C251.73 29.4282 250.868 24.937 246.988 28.8487C244.832 31.0218 243.107 33.6296 241.382 35.9476C237.502 41.0182 233.478 46.6684 227.154 48.4069C223.704 49.421 220.111 48.8415 216.518 48.262C209.476 47.103 204.589 47.3928 199.271 52.1736C193.81 57.0994 189.929 63.1842 182.456 64.7778C180.444 65.2124 179.581 62.0252 181.593 61.5906C191.223 59.4174 195.103 48.5518 204.014 45.0747C208.47 43.3362 212.925 44.3504 217.524 45.0747C226.866 46.5235 232.04 42.9016 237.502 35.6578C240.52 31.6013 247.131 19.5766 253.743 22.9088C256.473 24.3575 255.898 27.255 255.611 29.8628C254.605 37.2515 253.024 44.785 251.587 52.1736C250.581 51.739 249.575 51.3044 248.569 50.8698C253.311 40.0041 258.054 28.9936 264.666 18.9971C267.253 14.9406 270.271 11.029 273.576 7.55197C276.02 4.94421 279.613 0.308188 283.637 0.0184368C287.23 -0.271314 289.817 2.91595 292.261 5.23396C297.003 9.7251 301.603 14.2162 306.345 18.7074C316.406 28.2692 326.467 37.831 336.527 47.3927C337.965 49.2761 335.665 51.5941 334.084 50.1454Z" fill="#B2C5C4"/>
<path d="M272.246 25.0558C274.653 28.4776 276.683 32.0469 278.48 35.7721C279.132 37.1396 281.172 35.9868 280.519 34.6193C278.722 30.894 276.636 27.2931 274.285 23.903C273.429 22.6367 271.39 23.7895 272.246 25.0558Z" fill="#B2C5C4"/>
<path d="M283.453 19.1035C286.393 22.6633 288.445 26.779 289.637 31.3897C290.06 32.8656 292.165 31.8958 291.823 30.3826C290.517 25.579 288.35 21.2704 285.351 17.5413C284.391 16.4111 282.519 17.9124 283.453 19.1035Z" fill="#B2C5C4"/>
<path d="M297.26 26.6715C298.89 27.9241 300.121 29.6885 300.754 31.8509C301.211 33.3009 303.202 32.4877 302.745 31.0378C301.908 28.2904 300.39 26.0562 298.321 24.5001C297.26 23.7158 296.199 25.8873 297.26 26.6715Z" fill="#B2C5C4"/>
<path d="M437.742 56.3528C452.57 68.7037 473.732 65.975 483.81 49.0284C489.136 40.1243 475.172 31.9382 469.845 40.8424C465.382 48.1667 456.025 50.6082 449.115 44.8636C441.197 38.4009 429.68 49.7465 437.742 56.3528Z" fill="#77EFFF"/>
<path d="M455.314 126.591C460.761 131.554 467.068 136.217 474.808 134.713C481.688 133.359 486.705 127.643 486.992 120.123C487.422 109.292 471.225 109.292 470.938 120.123C470.938 119.22 472.371 118.017 472.371 117.866C472.371 118.468 470.795 117.716 471.941 118.017C469.934 117.415 468.358 115.911 466.781 114.557C463.484 111.549 458.611 111.097 455.314 114.557C452.447 117.716 452.017 123.733 455.314 126.591Z" fill="#77EFFF"/>
<path d="M320.63 105.307C328.837 112.391 340.414 115.083 350.965 111.258C355.068 109.699 357.999 105.874 356.68 101.482C355.655 97.6564 350.672 94.3976 346.569 95.9561C341.733 97.798 336.457 97.5147 332.354 94.1143C324.44 87.3135 312.716 98.5065 320.63 105.307Z" fill="#77EFFF"/>
<path d="M30.5327 116.632C34.7307 114.555 39.5076 113.446 43.9951 114.278C45.1531 114.555 46.3112 114.832 47.3244 115.663C48.3377 116.494 48.9168 117.74 49.9301 118.572C51.0881 119.403 52.5357 120.095 53.6937 120.788C56.0098 122.034 59.1945 123.42 59.9182 126.051C60.9315 130.346 52.3909 136.856 41.8237 134.501C31.2565 132.146 23.8739 132.423 16.4914 132.839C9.1088 133.116 -1.89268 134.085 0.278666 128.545C2.45001 123.004 7.80599 117.048 9.83258 117.463C13.741 118.572 17.2151 121.757 21.2683 122.312C21.9921 122.45 22.7159 122.312 23.1502 121.757C25.4663 119.818 27.9271 118.017 30.5327 116.632Z" fill="#77EFFF"/>
<path d="M155.86 146.802C148.933 143.695 148.217 123.857 140.812 125.052C138.902 125.291 136.991 129.593 135.319 130.788C133.647 131.983 132.692 133.895 131.02 135.09C129.109 136.524 119.555 155.645 117.405 156.601C113.584 158.513 108.329 160.425 107.135 164.488C105.463 170.942 119.555 180.98 136.991 177.156C154.427 173.571 166.608 174.049 178.789 174.527C190.97 175.005 209.123 176.439 205.54 168.073C201.957 159.708 193.12 150.626 189.776 151.343C183.327 153.016 177.595 157.796 170.907 158.752C169.713 158.991 168.519 158.752 167.802 158.035C164.458 155.167 160.398 148.953 155.86 146.802Z" fill="#4FCDCA"/>
<path d="M183.281 51.7031C187.279 54.7392 192.92 55.8929 198.06 54.2534C200.059 53.5855 201.487 51.946 200.844 50.0636C200.345 48.4242 197.917 47.0276 195.918 47.6955C193.562 48.4849 190.992 48.3634 188.993 46.9061C185.138 43.9915 179.426 48.7885 183.281 51.7031Z" fill="#77EFFF"/>
</svg>
