<svg width="760" height="142" viewBox="0 0 760 142" fill="none" xmlns="http://www.w3.org/2000/svg">
<path d="M296.951 134.268C299.814 139.717 306.476 135.189 314.62 139.037L315.204 139.326C320.415 142.028 328.252 142.656 332.228 141.33C336.066 140.048 336.309 134.356 339.061 131.366C341.589 128.624 345.734 128.946 347.153 127.651C351.064 124.085 348.134 117.42 344.203 114.985C338.761 111.612 332.716 117.871 326.575 119.276C319.755 121.094 312.499 116.598 305.621 118.172C298.99 119.69 293.787 128.244 296.951 134.268Z" fill="#77EFFF"/>
<path d="M0.406799 82.278C2.0939 87.4093 9.54706 84.6517 13.5852 85.9613L14.8016 86.3506C18.4646 87.5008 22.2425 88.4278 25.8765 87.4207C29.8734 86.1243 28.5179 82.8744 36.6521 77.4598C40.4472 74.934 39.6507 69.5261 34.5227 68.2364C30.0292 67.1066 26.2288 70.338 21.7954 71.3616C16.871 72.6853 11.6321 69.4109 6.66668 70.5573C1.87861 71.6627 -1.13714 77.5807 0.406799 82.278Z" fill="#77EFFF"/>
<path d="M644.555 123.167C639.193 124.453 630.796 124.968 628.488 119.223C626.597 114.427 630.54 109.295 634.499 106.047C651.627 92.0125 675.664 85.5732 710.438 93.4574C714.432 94.3627 718.191 90.7759 722.024 89.236C732.21 85.1373 743.108 84.3908 754.913 90.1827C757.551 91.4745 759.076 94.3505 759.415 96.0035L759.539 96.6986C760.415 101.9 760.633 110.611 754.636 116.52C752.274 118.845 748.192 117.317 744.925 116.834C741.658 116.352 736.495 120.092 732.399 121.069C720.735 123.853 688.85 107.904 673.545 108.412C662.77 108.769 652.064 121.365 644.555 123.167Z" fill="#77EFFF"/>
<path d="M586.571 104.792C584.634 104.752 582.821 103.534 581.681 102.667L580.862 102.035C579.343 100.853 577.89 99.6168 576.965 97.9441C575.908 96.0326 575.541 93.5512 576.785 91.8269C578.725 89.1206 583.155 89.6376 585.539 91.9614C586.206 92.6286 586.776 93.3183 587.593 93.7455C590.434 94.9374 592.839 90.6867 595.875 90.4991C598.108 90.3941 599.862 92.6579 599.968 94.8919C599.975 97.1484 598.702 99.1875 597.098 100.687C593.815 103.806 589.515 104.852 586.571 104.792Z" fill="#77EFFF"/>
<path d="M474.571 44.7915C472.634 44.7518 470.821 43.5337 469.681 42.6666L468.862 42.0351C467.343 40.8532 465.89 39.6168 464.965 37.9441C463.908 36.0326 463.541 33.5512 464.785 31.8269C466.725 29.1206 471.155 29.6376 473.539 31.9614C474.206 32.6286 474.776 33.3183 475.593 33.7455C478.434 34.9374 486.5 38 485.098 40.6869C483.204 44.3152 477.515 44.852 474.571 44.7915Z" fill="#77EFFF"/>
<path d="M158.608 47.4225C147.242 55.079 138.583 65.2323 130.826 75.9681C128.661 78.8809 107.014 110.506 105.48 109.59C103.676 108.425 101.962 111.172 103.766 112.254C108.096 114.917 113.418 105.596 115.402 103.016C120.092 97.0236 124.332 90.7819 128.661 84.6233C137.501 71.8902 146.882 59.2402 160.231 50.1688C162.035 49.0037 160.321 46.2573 158.608 47.4225Z" fill="#B2C5C4"/>
<path d="M167.82 49.9027C161.38 59.3792 156.968 69.862 155.027 81.0158C154.674 83.0285 157.851 83.8671 158.203 81.8544C160.144 70.9523 164.379 60.721 170.732 51.4961C171.878 49.8188 169.055 48.2254 167.82 49.9027Z" fill="#B2C5C4"/>
<path d="M175.343 47.6648C174.895 55.3242 174.537 63.0696 174.09 70.7289C174 72.5362 177.044 72.9665 177.402 71.1592C178.566 65.4793 181.521 60.7459 186.445 57.3035C185.639 56.9593 184.834 56.7011 183.938 56.3569C185.281 62.3811 186.624 68.4053 187.967 74.4295C188.325 76.1507 191.37 75.8065 191.28 73.9992C191.011 70.4707 195.488 69.5241 198.085 70.815C200.323 71.9338 201.845 74.3435 203.099 76.3228C205.516 80.2816 207.665 84.4125 209.903 88.3713C210.888 90.1785 213.843 88.5434 212.768 86.7361C210.44 82.5192 208.202 78.2162 205.606 74.0853C203.904 71.3313 201.666 68.4914 198.353 67.3726C193.608 65.7374 187.43 68.7495 187.878 73.9992C188.952 73.8271 190.116 73.741 191.191 73.5689C189.848 67.5447 188.505 61.5205 187.162 55.4963C186.982 54.5496 185.55 53.9472 184.655 54.5496C179.014 58.4223 175.343 63.7581 174 70.2986C175.074 70.4707 176.238 70.5568 177.313 70.7289C177.76 63.0696 178.119 55.3242 178.566 47.6648C178.835 45.5994 175.433 45.5994 175.343 47.6648Z" fill="#B2C5C4"/>
<path d="M261.073 104.784C264.491 98.5621 269.387 92.8915 275.853 88.5599C280.749 85.2521 285.183 89.7412 288.693 92.6553C291.834 95.333 294.513 98.247 296.822 101.476C297.561 102.421 299.778 102.421 299.963 101.161C300.24 99.5859 298.923 97.9383 297.656 96.5309C296.322 95.0503 293.219 92.104 288.97 88.8749C286.107 86.7484 282.319 83.3619 278.163 84.1495C274.006 84.8583 269.849 89.1112 267.17 91.6314C263.475 95.1755 260.519 99.1134 258.21 103.288C257.194 105.02 260.15 106.517 261.073 104.784Z" fill="#B2C5C4"/>
<path d="M303.354 88.1138C301.181 86.3334 295.615 82.7183 294.474 83.0269C289.831 84.2833 297.591 87.6899 298.158 88.1986C299.386 89.1312 300.52 90.1486 301.748 91.0812C304.109 93.0311 306.566 94.9811 308.927 96.9311C310.628 98.2876 313.084 96.0833 311.478 94.642C308.738 92.4377 306.093 90.2333 303.354 88.1138Z" fill="#B2C5C4"/>
<path d="M304.704 84.8875C308.638 87.5566 312.663 90.2257 316.597 92.9757C318.296 94.108 319.995 91.5198 318.296 90.3875C314.362 87.7184 310.337 85.0493 306.403 82.2993C304.704 81.086 303.005 83.6743 304.704 84.8875Z" fill="#B2C5C4"/>
<path d="M370.653 96.2603C376.851 93.5237 384.963 90.0629 391.617 93.6847C394.99 95.5359 396.813 101.089 401.644 100.365C403.922 100.043 405.29 98.1114 407.295 97.2261C410.485 95.7774 414.222 96.2603 417.595 96.9846C422.152 97.87 427.53 100.767 432.088 98.5944C433.637 97.87 434.64 96.5822 435.734 95.3749C438.65 92.1555 440.747 91.4311 445.396 92.075C449.315 92.5579 453.599 93.3628 456.88 90.8677C460.071 88.5336 460.618 84.6703 461.985 81.4509C463.261 78.3924 465.722 75.6559 469.824 77.4266C473.652 79.1168 474.746 83.3825 475.657 86.7629C476.204 88.6141 479.486 87.8093 478.939 85.9581C477.572 81.2899 475.657 75.8974 469.915 74.2072C465.357 72.8389 461.438 74.9315 459.524 78.5534C456.972 83.2216 457.336 90.1433 449.315 89.4995C444.393 89.097 439.562 87.4873 435.46 90.8677C432.27 93.4433 431.723 96.7432 426.345 96.0188C423.246 95.6164 420.147 94.2481 417.048 93.6847C414.222 93.2018 411.214 92.8799 408.389 93.5237C405.928 94.0871 404.378 95.9383 402.282 96.5822C398.545 97.709 396.995 93.5237 394.625 91.8335C392.437 90.3043 389.703 89.419 386.877 89.1775C380.406 88.5336 374.481 91.1092 368.83 93.5237C366.915 94.4896 368.647 97.1456 370.653 96.2603Z" fill="#B2C5C4"/>
<path d="M509.791 97.192C511.654 98.1887 513.517 99.1854 515.38 100.182C517.336 101.262 519.106 98.5209 517.15 97.5242C515.287 96.5275 513.424 95.5308 511.561 94.5341C509.698 93.4544 507.928 96.1122 509.791 97.192Z" fill="#B2C5C4"/>
<path d="M541.856 89.9095C544.397 90.9741 546.938 92.0387 549.479 93.1033C551.407 93.9222 553.071 91.2198 551.144 90.4827C548.603 89.4181 546.062 88.3535 543.521 87.2889C541.593 86.3881 539.929 89.0906 541.856 89.9095Z" fill="#B2C5C4"/>
<path d="M42.3088 123.397C57.9069 102.388 74.0688 81.5127 90.7944 60.9031C99.0632 50.6648 107.426 40.493 115.977 30.3876C119.923 25.7338 123.588 20.2823 129.32 16.6257C135.146 12.9027 144.448 11.7725 149.334 16.8917C154.314 22.0773 154.408 31.4513 164.932 32.914C165.59 32.9804 166.624 32.8475 166.905 32.3156C173.013 22.6092 181.846 13.1686 193.591 6.45389C200.451 2.46494 208.438 1.0688 216.143 4.92479C222.72 8.24892 227.23 13.634 230.801 18.6202C242.922 35.2409 249.124 57.3796 276.656 64.8256C277.407 65.0251 278.253 64.6926 278.629 64.2273C282.951 58.9751 287.555 53.2576 295.167 50C303.248 46.6094 312.644 47.2077 318.564 52.4598C322.604 56.1164 326.175 57.3131 332.282 55.0527C337.075 53.3241 341.021 52.7923 346.283 53.856C351.075 54.8532 355.398 56.8477 359.626 58.7757C360.378 59.1081 361.599 58.9087 362.069 58.3103C371.278 46.6094 389.225 33.7118 409.803 40.0276C418.73 42.7534 425.777 47.8061 433.67 51.6621C441.281 55.3851 449.832 58.2438 458.664 60.1718C476.799 64.2273 495.874 64.2937 514.103 60.7702C518.238 59.9724 522.56 59.1081 526.882 59.0416C533.178 58.9751 536.467 60.9031 539.474 64.5597C543.044 68.881 548.306 71.4074 555.354 72.0722C564.28 72.9365 572.925 71.075 581.288 69.147C591.53 66.7536 604.497 63.9613 613.893 69.2135C615.679 70.2107 618.122 68.4157 616.43 67.4184C601.208 58.8422 582.697 67.6179 566.441 69.4129C561.837 69.9448 556.857 70.0777 552.347 69.0805C546.521 67.8173 544.266 65.0251 541.165 61.6344C536.937 56.9142 529.889 56.0499 522.466 56.8477C512.224 57.9114 502.64 60.4378 492.116 60.7702C481.404 61.1026 470.598 60.1053 460.262 57.9114C450.208 55.7175 440.811 52.3269 432.354 47.939C424.273 43.7506 416.662 38.565 406.796 36.637C385.842 32.5151 368.271 45.2797 358.968 57.0471C359.814 56.9142 360.566 56.7812 361.411 56.5818C354.27 53.2576 345.25 49.4016 336.323 50.9972C334.538 51.3296 332.846 51.928 331.249 52.5928C329.558 53.2576 326.833 53.9889 324.859 53.4571C323.732 53.1247 322.698 51.9945 321.946 51.3296C319.597 49.2687 317.53 47.4072 313.959 46.3434C296.388 40.9584 283.233 53.723 275.716 62.8976C276.374 62.6982 277.032 62.4987 277.689 62.2993C245.553 53.723 244.52 24.3377 225.163 7.5841C220.935 3.92755 215.391 0.669908 208.532 0.0715648C202.518 -0.393813 196.974 1.4677 192.276 3.99404C179.779 10.8417 170.194 20.8806 163.899 30.986C164.556 30.7865 165.214 30.5871 165.872 30.3876C156.194 29.058 156.381 18.0883 150.274 13.634C140.877 6.85279 127.722 12.8362 121.615 18.9526C111.467 29.058 103.292 40.4265 94.459 51.1302C85.5324 62.0333 76.6998 73.0695 68.055 84.1056C58.1888 96.6708 48.6045 109.302 39.208 122.001C38.1744 123.53 41.2752 124.793 42.3088 123.397Z" fill="#B2C5C4"/>
</svg>
