<svg width="768" height="150" viewBox="0 0 768 150" fill="none" xmlns="http://www.w3.org/2000/svg">
<g filter="url(#filter0_dd)">
<path d="M300.951 134.268C303.814 139.717 310.476 135.189 318.62 139.037L319.204 139.326C324.415 142.028 332.252 142.656 336.228 141.33C340.066 140.048 340.309 134.356 343.061 131.366C345.589 128.624 349.734 128.946 351.153 127.651C355.064 124.085 352.134 117.42 348.203 114.985C342.761 111.612 336.716 117.871 330.575 119.276C323.755 121.094 316.499 116.598 309.621 118.172C302.99 119.69 297.787 128.244 300.951 134.268Z" fill="#77EFFF"/>
<path d="M4.4068 82.278C6.0939 87.4093 13.5471 84.6517 17.5852 85.9613L18.8016 86.3506C22.4646 87.5008 26.2425 88.4278 29.8765 87.4207C33.8734 86.1243 32.5179 82.8744 40.6521 77.4598C44.4472 74.934 43.6507 69.5261 38.5227 68.2364C34.0292 67.1066 30.2288 70.338 25.7954 71.3616C20.871 72.6853 15.6321 69.4109 10.6667 70.5573C5.87861 71.6627 2.86286 77.5807 4.4068 82.278Z" fill="#77EFFF"/>
<path d="M648.555 123.167C643.193 124.453 634.796 124.968 632.488 119.223C630.597 114.427 634.54 109.295 638.499 106.047C655.627 92.0125 679.664 85.5732 714.438 93.4574C718.432 94.3627 722.191 90.7759 726.024 89.236C736.21 85.1373 747.108 84.3908 758.913 90.1827C761.551 91.4745 763.076 94.3505 763.415 96.0035L763.539 96.6986C764.415 101.9 764.633 110.611 758.636 116.52C756.274 118.845 752.192 117.317 748.925 116.834C745.658 116.352 740.495 120.092 736.399 121.069C724.735 123.853 692.85 107.904 677.545 108.412C666.77 108.769 656.064 121.365 648.555 123.167Z" fill="#77EFFF"/>
<path d="M590.571 104.792C588.634 104.752 586.821 103.534 585.681 102.667L584.862 102.035C583.343 100.853 581.89 99.6168 580.965 97.9441C579.908 96.0326 579.541 93.5512 580.785 91.8269C582.725 89.1206 587.155 89.6376 589.539 91.9614C590.206 92.6286 590.776 93.3183 591.593 93.7455C594.434 94.9374 596.839 90.6867 599.875 90.4991C602.108 90.3941 603.862 92.6579 603.968 94.8919C603.975 97.1484 602.702 99.1875 601.098 100.687C597.815 103.806 593.515 104.852 590.571 104.792Z" fill="#77EFFF"/>
<path d="M478.571 44.7915C476.634 44.7518 474.821 43.5337 473.681 42.6666L472.862 42.0351C471.343 40.8532 469.89 39.6168 468.965 37.9441C467.908 36.0326 467.541 33.5512 468.785 31.8269C470.725 29.1206 475.155 29.6376 477.539 31.9614C478.206 32.6286 478.776 33.3183 479.593 33.7455C482.434 34.9374 490.5 38 489.098 40.6869C487.204 44.3152 481.515 44.852 478.571 44.7915Z" fill="#77EFFF"/>
<path d="M162.608 47.4225C151.242 55.079 142.583 65.2323 134.826 75.9681C132.661 78.8809 111.014 110.506 109.48 109.59C107.676 108.425 105.962 111.172 107.766 112.254C112.096 114.917 117.418 105.596 119.402 103.016C124.092 97.0236 128.332 90.7819 132.661 84.6233C141.501 71.8902 150.882 59.2402 164.231 50.1688C166.035 49.0037 164.321 46.2573 162.608 47.4225Z" fill="#B2C5C4"/>
<path d="M171.82 49.9027C165.38 59.3792 160.968 69.862 159.027 81.0158C158.674 83.0285 161.851 83.8671 162.203 81.8544C164.144 70.9523 168.379 60.721 174.732 51.4961C175.878 49.8188 173.055 48.2254 171.82 49.9027Z" fill="#B2C5C4"/>
<path d="M179.343 47.6648C178.895 55.3242 178.537 63.0696 178.09 70.7289C178 72.5362 181.044 72.9665 181.402 71.1592C182.566 65.4793 185.521 60.7459 190.445 57.3035C189.639 56.9593 188.834 56.7011 187.938 56.3569C189.281 62.3811 190.624 68.4053 191.967 74.4295C192.325 76.1507 195.37 75.8065 195.28 73.9992C195.011 70.4707 199.488 69.5241 202.085 70.815C204.323 71.9338 205.845 74.3435 207.099 76.3228C209.516 80.2816 211.665 84.4125 213.903 88.3713C214.888 90.1785 217.843 88.5434 216.768 86.7361C214.44 82.5192 212.202 78.2162 209.606 74.0853C207.904 71.3313 205.666 68.4914 202.353 67.3726C197.608 65.7374 191.43 68.7495 191.878 73.9992C192.952 73.8271 194.116 73.741 195.191 73.5689C193.848 67.5447 192.505 61.5205 191.162 55.4963C190.982 54.5496 189.55 53.9472 188.655 54.5496C183.014 58.4223 179.343 63.7581 178 70.2986C179.074 70.4707 180.238 70.5568 181.313 70.7289C181.76 63.0696 182.119 55.3242 182.566 47.6648C182.835 45.5994 179.433 45.5994 179.343 47.6648Z" fill="#B2C5C4"/>
<path d="M265.073 104.784C268.491 98.5621 273.387 92.8915 279.853 88.5599C284.749 85.2521 289.183 89.7412 292.693 92.6553C295.834 95.333 298.513 98.247 300.822 101.476C301.561 102.421 303.778 102.421 303.963 101.161C304.24 99.5859 302.923 97.9383 301.656 96.5309C300.322 95.0503 297.219 92.104 292.97 88.8749C290.107 86.7484 286.319 83.3619 282.163 84.1495C278.006 84.8583 273.849 89.1112 271.17 91.6314C267.475 95.1755 264.519 99.1134 262.21 103.288C261.194 105.02 264.15 106.517 265.073 104.784Z" fill="#B2C5C4"/>
<path d="M307.354 88.1138C305.181 86.3334 299.615 82.7183 298.474 83.0269C293.831 84.2833 301.591 87.6899 302.158 88.1986C303.386 89.1312 304.52 90.1486 305.748 91.0812C308.109 93.0311 310.566 94.9811 312.927 96.9311C314.628 98.2876 317.084 96.0833 315.478 94.642C312.738 92.4377 310.093 90.2333 307.354 88.1138Z" fill="#B2C5C4"/>
<path d="M308.704 84.8875C312.638 87.5566 316.663 90.2257 320.597 92.9757C322.296 94.108 323.995 91.5198 322.296 90.3875C318.362 87.7184 314.337 85.0493 310.403 82.2993C308.704 81.086 307.005 83.6743 308.704 84.8875Z" fill="#B2C5C4"/>
<path d="M374.653 96.2603C380.851 93.5237 388.963 90.0629 395.617 93.6847C398.99 95.5359 400.813 101.089 405.644 100.365C407.922 100.043 409.29 98.1114 411.295 97.2261C414.485 95.7774 418.222 96.2603 421.595 96.9846C426.152 97.87 431.53 100.767 436.088 98.5944C437.637 97.87 438.64 96.5822 439.734 95.3749C442.65 92.1555 444.747 91.4311 449.396 92.075C453.315 92.5579 457.599 93.3628 460.88 90.8677C464.071 88.5336 464.618 84.6703 465.985 81.4509C467.261 78.3924 469.722 75.6559 473.824 77.4266C477.652 79.1168 478.746 83.3825 479.657 86.7629C480.204 88.6141 483.486 87.8093 482.939 85.9581C481.572 81.2899 479.657 75.8974 473.915 74.2072C469.357 72.8389 465.438 74.9315 463.524 78.5534C460.972 83.2216 461.336 90.1433 453.315 89.4995C448.393 89.097 443.562 87.4873 439.46 90.8677C436.27 93.4433 435.723 96.7432 430.345 96.0188C427.246 95.6164 424.147 94.2481 421.048 93.6847C418.222 93.2018 415.214 92.8799 412.389 93.5237C409.928 94.0871 408.378 95.9383 406.282 96.5822C402.545 97.709 400.995 93.5237 398.625 91.8335C396.437 90.3043 393.703 89.419 390.877 89.1775C384.406 88.5336 378.481 91.1092 372.83 93.5237C370.915 94.4896 372.647 97.1456 374.653 96.2603Z" fill="#B2C5C4"/>
<path d="M513.791 97.192C515.654 98.1887 517.517 99.1854 519.38 100.182C521.336 101.262 523.106 98.5209 521.15 97.5242C519.287 96.5275 517.424 95.5308 515.561 94.5341C513.698 93.4544 511.928 96.1122 513.791 97.192Z" fill="#B2C5C4"/>
<path d="M545.856 89.9095C548.397 90.9741 550.938 92.0387 553.479 93.1033C555.407 93.9222 557.071 91.2198 555.144 90.4827C552.603 89.4181 550.062 88.3535 547.521 87.2889C545.593 86.3881 543.929 89.0906 545.856 89.9095Z" fill="#B2C5C4"/>
<path d="M46.3088 123.397C61.9069 102.388 78.0688 81.5127 94.7944 60.9031C103.063 50.6648 111.426 40.493 119.977 30.3876C123.923 25.7338 127.588 20.2823 133.32 16.6257C139.146 12.9027 148.448 11.7725 153.334 16.8917C158.314 22.0773 158.408 31.4513 168.932 32.914C169.59 32.9804 170.624 32.8475 170.905 32.3156C177.013 22.6092 185.846 13.1686 197.591 6.45389C204.451 2.46494 212.438 1.0688 220.143 4.92479C226.72 8.24892 231.23 13.634 234.801 18.6202C246.922 35.2409 253.124 57.3796 280.656 64.8256C281.407 65.0251 282.253 64.6926 282.629 64.2273C286.951 58.9751 291.555 53.2576 299.167 50C307.248 46.6094 316.644 47.2077 322.564 52.4598C326.604 56.1164 330.175 57.3131 336.282 55.0527C341.075 53.3241 345.021 52.7923 350.283 53.856C355.075 54.8532 359.398 56.8477 363.626 58.7757C364.378 59.1081 365.599 58.9087 366.069 58.3103C375.278 46.6094 393.225 33.7118 413.803 40.0276C422.73 42.7534 429.777 47.8061 437.67 51.6621C445.281 55.3851 453.832 58.2438 462.664 60.1718C480.799 64.2273 499.874 64.2937 518.103 60.7702C522.238 59.9724 526.56 59.1081 530.882 59.0416C537.178 58.9751 540.467 60.9031 543.474 64.5597C547.044 68.881 552.306 71.4074 559.354 72.0722C568.28 72.9365 576.925 71.075 585.288 69.147C595.53 66.7536 608.497 63.9613 617.893 69.2135C619.679 70.2107 622.122 68.4157 620.43 67.4184C605.208 58.8422 586.697 67.6179 570.441 69.4129C565.837 69.9448 560.857 70.0777 556.347 69.0805C550.521 67.8173 548.266 65.0251 545.165 61.6344C540.937 56.9142 533.889 56.0499 526.466 56.8477C516.224 57.9114 506.64 60.4378 496.116 60.7702C485.404 61.1026 474.598 60.1053 464.262 57.9114C454.208 55.7175 444.811 52.3269 436.354 47.939C428.273 43.7506 420.662 38.565 410.796 36.637C389.842 32.5151 372.271 45.2797 362.968 57.0471C363.814 56.9142 364.566 56.7812 365.411 56.5818C358.27 53.2576 349.25 49.4016 340.323 50.9972C338.538 51.3296 336.846 51.928 335.249 52.5928C333.558 53.2576 330.833 53.9889 328.859 53.4571C327.732 53.1247 326.698 51.9945 325.946 51.3296C323.597 49.2687 321.53 47.4072 317.959 46.3434C300.388 40.9584 287.233 53.723 279.716 62.8976C280.374 62.6982 281.032 62.4987 281.689 62.2993C249.553 53.723 248.52 24.3377 229.163 7.5841C224.935 3.92755 219.391 0.669908 212.532 0.0715648C206.518 -0.393813 200.974 1.4677 196.276 3.99404C183.779 10.8417 174.194 20.8806 167.899 30.986C168.556 30.7865 169.214 30.5871 169.872 30.3876C160.194 29.058 160.381 18.0883 154.274 13.634C144.877 6.85279 131.722 12.8362 125.615 18.9526C115.467 29.058 107.292 40.4265 98.459 51.1302C89.5324 62.0333 80.6998 73.0695 72.055 84.1056C62.1888 96.6708 52.6045 109.302 43.208 122.001C42.1744 123.53 45.2752 124.793 46.3088 123.397Z" fill="#B2C5C4"/>
</g>
<defs>
<filter id="filter0_dd" x="0" y="0" width="768" height="150" filterUnits="userSpaceOnUse" color-interpolation-filters="sRGB">
<feFlood flood-opacity="0" result="BackgroundImageFix"/>
<feColorMatrix in="SourceAlpha" type="matrix" values="0 0 0 0 0 0 0 0 0 0 0 0 0 0 0 0 0 0 127 0"/>
<feOffset dy="4"/>
<feGaussianBlur stdDeviation="2"/>
<feColorMatrix type="matrix" values="0 0 0 0 0 0 0 0 0 0 0 0 0 0 0 0 0 0 0.25 0"/>
<feBlend mode="normal" in2="BackgroundImageFix" result="effect1_dropShadow"/>
<feColorMatrix in="SourceAlpha" type="matrix" values="0 0 0 0 0 0 0 0 0 0 0 0 0 0 0 0 0 0 127 0"/>
<feOffset dy="4"/>
<feGaussianBlur stdDeviation="2"/>
<feColorMatrix type="matrix" values="0 0 0 0 0 0 0 0 0 0 0 0 0 0 0 0 0 0 0.25 0"/>
<feBlend mode="normal" in2="effect1_dropShadow" result="effect2_dropShadow"/>
<feBlend mode="normal" in="SourceGraphic" in2="effect2_dropShadow" result="shape"/>
</filter>
</defs>
</svg>
