<svg width="15" height="16" viewBox="0 0 15 16" fill="none" xmlns="http://www.w3.org/2000/svg">
<path fill-rule="evenodd" clip-rule="evenodd" d="M0.645024 0H14.355C14.7112 0 15 0.284537 15 0.635531C15 0.78603 14.9458 0.931646 14.847 1.04645L9.28362 7.51365C9.24958 7.55146 9.22955 7.60117 9.22758 7.64085V13.6074C9.22758 13.7972 9.1414 13.9772 8.99264 14.0979L6.82752 15.855C6.55255 16.0782 6.14605 16.0394 5.91957 15.7685C5.82445 15.6547 5.77244 15.5119 5.77244 15.3645L5.77274 7.65507C5.77046 7.60117 5.75044 7.55146 5.71126 7.50782L0.152981 1.04645C-0.0773505 0.778699 -0.0437756 0.377665 0.227972 0.150719C0.344492 0.0534092 0.49228 0 0.645024 0ZM8.75886 7.06528L14.2473 0.684418H0.752153L6.23602 7.05945C6.35952 7.19663 6.43677 7.36721 6.46029 7.55793L6.46706 7.64085L6.46694 15.2606L8.53246 13.5842L8.53325 7.62664C8.54101 7.44288 8.60379 7.26648 8.71048 7.12413L8.75886 7.06528Z" fill="#0EAFC9"/>
</svg>
