<svg width="21" height="19" viewBox="0 0 21 19" fill="none" xmlns="http://www.w3.org/2000/svg">
<path d="M11.0075 3.83635C11.3686 3.17638 11.8189 2.62989 12.3744 2.17138C14.4339 0.471684 17.6204 0.638412 19.4765 2.56273C20.9509 4.09107 21.3143 5.90656 20.7428 7.93276C20.3017 9.50047 19.4628 10.8528 18.4433 12.094C16.7929 14.1017 14.7859 15.6856 12.619 17.075C12.1389 17.383 11.6475 17.6748 11.156 17.9619C11.0829 18.0036 10.9503 18.0152 10.8817 17.9758C8.39016 16.5378 6.06089 14.8775 4.10879 12.7262C2.93844 11.4364 1.96924 10.0122 1.39092 8.34495C0.910896 6.9625 0.819462 5.57078 1.42064 4.20686C2.2024 2.43305 3.56704 1.34701 5.45972 1.07839C7.84156 0.742617 9.68852 1.65731 10.9457 3.75298C10.9594 3.77383 10.9732 3.79004 11.0075 3.83635Z" stroke="#6E6E6E"/>
</svg>
