<svg width="18" height="18" viewBox="0 0 18 18" fill="none" xmlns="http://www.w3.org/2000/svg">
<path fill-rule="evenodd" clip-rule="evenodd" d="M7.49129 0C3.36056 0 0 3.36061 0 7.49129C0 11.622 3.36061 14.9826 7.49129 14.9826C9.52083 14.9826 11.3645 14.1713 12.7149 12.856C12.7191 12.9995 12.7759 13.1417 12.8853 13.2512L17.0053 17.3712C17.2329 17.5987 17.6018 17.5987 17.8293 17.3712C18.0569 17.1436 18.0569 16.7747 17.8293 16.5472L13.7093 12.4272C13.5878 12.3056 13.4259 12.249 13.2668 12.2573C14.3381 10.9613 14.9826 9.30015 14.9826 7.49129C14.9826 3.36061 11.622 0 7.49129 0ZM7.49129 13.9838C3.91134 13.9838 0.998836 11.0713 0.998836 7.49134C0.998836 3.91135 3.91134 0.998836 7.49129 0.998836C11.0712 0.998836 13.9837 3.91129 13.9837 7.49129C13.9837 11.0713 11.0712 13.9838 7.49129 13.9838Z" fill="#C2C0C0"/>
</svg>
