<svg width="20" height="17" viewBox="0 0 20 17" fill="none" xmlns="http://www.w3.org/2000/svg">
<path d="M10.0075 2.83635C10.3686 2.17638 10.8189 1.62989 11.3744 1.17138C13.4339 -0.528316 16.6204 -0.361588 18.4765 1.56273C19.9509 3.09107 20.3143 4.90656 19.7428 6.93276C19.3017 8.50047 18.4628 9.85282 17.4433 11.094C15.7929 13.1017 13.7859 14.6856 11.619 16.075C11.1389 16.383 10.6475 16.6748 10.156 16.9619C10.0829 17.0036 9.9503 17.0152 9.88173 16.9758C7.39016 15.5378 5.06089 13.8774 3.10879 11.7262C1.93844 10.4364 0.96924 9.01223 0.390922 7.34495C-0.0891041 5.9625 -0.180538 4.57078 0.420638 3.20686C1.2024 1.43305 2.56704 0.347006 4.45972 0.0783891C6.84156 -0.257383 8.68852 0.657306 9.94573 2.75298C9.95945 2.77383 9.97316 2.79004 10.0075 2.83635Z" fill="#F779EE"/>
</svg>
